<svg width="287" height="165" viewBox="0 0 287 165" fill="none" xmlns="http://www.w3.org/2000/svg">
<path opacity="0.93" d="M286.787 159.601C286.787 162.581 284.047 164.991 143.527 164.991C-12.7828 164.991 0.267173 162.581 0.267173 159.601C0.267173 156.621 6.75717 154.211 143.527 154.211C280.297 154.211 286.787 156.621 286.787 159.601Z" fill="#003366"/>
<path d="M211.877 24.4706L216.497 20.4906C217.457 19.6406 217.987 18.4106 217.947 17.1306L217.917 8.73059H218.957L218.987 17.1106C219.037 18.6906 218.377 20.2106 217.177 21.2706L212.557 25.2606L211.877 24.4806V24.4706Z" fill="#2C2C33"/>
<path d="M217.477 12.4307L217.247 0.000633061C218.877 -0.0293669 220.227 1.01059 220.247 2.33059L220.387 9.9706C220.407 11.2906 219.107 12.3907 217.477 12.4207V12.4307Z" fill="#2C2C33"/>
<path d="M212.577 25.2906C212.577 25.2906 211.937 27.1706 209.927 28.7206C207.917 30.2706 206.847 32.2406 206.847 32.2406L197.497 35.0507L207.287 24.6306L212.587 25.2906H212.577Z" fill="#A5A6BF"/>
<path d="M207.387 22.3306L211.827 21.5406C211.827 21.5406 213.717 23.1407 212.567 25.3007C212.437 25.3007 208.007 26.2706 208.007 26.2706L207.377 22.3306H207.387Z" fill="#A5A6BF"/>
<path d="M205.947 31.7606L206.847 32.2506L204.787 34.4406L205.177 37.5507L202.977 38.5806L197.277 40.2206L196.537 37.8105L198.307 35.4307L200.727 34.3105L205.947 31.7606Z" fill="#A5A6BF"/>
<path d="M206.833 32.2457L205.962 30.4896L195.973 35.4421L196.843 37.1982L206.833 32.2457Z" fill="#A5A6BF"/>
<path d="M221.547 45.6506C221.547 45.6506 213.717 48.3006 212.217 56.1306C210.717 63.9606 207.497 52.4506 207.497 52.4506L207.147 46.5806L210.597 42.3206L213.587 41.7406L221.527 45.6506H221.547Z" fill="#A9A9BA"/>
<path d="M209.577 47.1506L221.087 43.0106L218.327 38.2906C218.327 38.2906 216.137 39.8407 213.027 38.9207C209.917 38.0007 208.137 37.7706 208.137 37.7706V42.7806L209.577 47.1506Z" fill="#A9A9BA"/>
<path d="M246.391 92.7286L237.419 115.87L237.951 116.077L246.922 92.9347L246.391 92.7286Z" fill="#666875"/>
<path d="M236.133 93.6963L235.641 93.9843L248.178 115.405L248.67 115.117L236.133 93.6963Z" fill="#666875"/>
<path d="M255.504 95.2047L239.767 114.398L240.208 114.759L255.945 95.5661L255.504 95.2047Z" fill="#666875"/>
<path d="M245.496 92.7826L244.938 92.9028L250.175 117.164L250.732 117.044L245.496 92.7826Z" fill="#666875"/>
<path d="M225.56 99.6532L225.038 99.8833L235.058 122.591L235.58 122.361L225.56 99.6532Z" fill="#666875"/>
<path d="M218.414 107.741L218.27 108.293L242.281 114.574L242.426 114.023L218.414 107.741Z" fill="#666875"/>
<path d="M233.704 95.0369L233.137 95.093L235.58 119.792L236.148 119.736L233.704 95.0369Z" fill="#666875"/>
<path d="M224.384 100.486L224.075 100.965L244.933 114.418L245.242 113.939L224.384 100.486Z" fill="#666875"/>
<path d="M215.15 119.43L214.944 119.962L238.086 128.933L238.292 128.402L215.15 119.43Z" fill="#666875"/>
<path d="M237.179 117.639L215.758 130.177L216.046 130.669L237.467 118.131L237.179 117.639Z" fill="#666875"/>
<path d="M217.645 110.399L217.284 110.839L236.477 126.577L236.838 126.136L217.645 110.399Z" fill="#666875"/>
<path d="M239.06 115.635L214.796 120.863L214.916 121.42L239.18 116.192L239.06 115.635Z" fill="#666875"/>
<path d="M266.551 102.842L243.841 112.858L244.071 113.379L266.781 103.363L266.551 102.842Z" fill="#666875"/>
<path d="M258.074 96.0412L251.784 120.051L252.336 120.195L258.625 96.1857L258.074 96.0412Z" fill="#666875"/>
<path d="M271.367 110.951L246.668 113.395L246.724 113.962L271.424 111.519L271.367 110.951Z" fill="#666875"/>
<path d="M265.395 102.082L251.939 122.938L252.418 123.247L265.874 102.391L265.395 102.082Z" fill="#666875"/>
<path d="M250.362 115.363L250.156 115.895L273.298 124.866L273.504 124.335L250.362 115.363Z" fill="#666875"/>
<path d="M272.427 113.495L251.006 126.032L251.294 126.524L272.715 113.987L272.427 113.495Z" fill="#666875"/>
<path d="M251.952 117.681L251.591 118.121L270.784 133.859L271.145 133.418L251.952 117.681Z" fill="#666875"/>
<path d="M273.363 122.916L249.1 128.144L249.22 128.702L273.483 123.473L273.363 122.916Z" fill="#666875"/>
<path d="M253.325 121.678L252.804 121.908L262.824 144.616L263.345 144.386L253.325 121.678Z" fill="#666875"/>
<path d="M246.185 129.768L246.041 130.32L270.053 136.601L270.197 136.05L246.185 129.768Z" fill="#666875"/>
<path d="M252.815 124.443L252.248 124.499L254.692 149.198L255.259 149.142L252.815 124.443Z" fill="#666875"/>
<path d="M243.488 129.881L243.179 130.36L264.037 143.813L264.346 143.334L243.488 129.881Z" fill="#666875"/>
<path d="M250.483 128.077L241.499 151.214L242.03 151.421L251.014 128.284L250.483 128.077Z" fill="#666875"/>
<path d="M240.188 128.905L239.696 129.193L252.233 150.613L252.725 150.325L240.188 128.905Z" fill="#666875"/>
<path d="M248.223 129.502L232.485 148.695L232.926 149.057L248.663 129.864L248.223 129.502Z" fill="#666875"/>
<path d="M238.197 127.096L237.64 127.217L242.876 151.478L243.433 151.358L238.197 127.096Z" fill="#666875"/>
<path d="M244.47 130.686L221.76 140.702L221.99 141.223L244.7 131.207L244.47 130.686Z" fill="#666875"/>
<path d="M236.067 123.85L229.777 147.86L230.328 148.004L236.618 123.994L236.067 123.85Z" fill="#666875"/>
<path d="M241.961 130.073L217.262 132.517L217.318 133.084L242.017 130.64L241.961 130.073Z" fill="#666875"/>
<path d="M235.993 121.197L222.537 142.052L223.016 142.361L236.472 121.506L235.993 121.197Z" fill="#666875"/>
<path d="M246.391 92.7286L237.419 115.87L237.951 116.077L246.922 92.9347L246.391 92.7286Z" fill="#666875"/>
<path d="M236.133 93.6963L235.641 93.9843L248.178 115.405L248.67 115.117L236.133 93.6963Z" fill="#666875"/>
<path d="M255.504 95.2047L239.767 114.398L240.208 114.759L255.945 95.5661L255.504 95.2047Z" fill="#666875"/>
<path d="M245.496 92.7826L244.938 92.9028L250.175 117.164L250.732 117.044L245.496 92.7826Z" fill="#666875"/>
<path d="M225.56 99.6532L225.038 99.8833L235.058 122.591L235.58 122.361L225.56 99.6532Z" fill="#666875"/>
<path d="M218.414 107.741L218.27 108.293L242.281 114.574L242.426 114.023L218.414 107.741Z" fill="#666875"/>
<path d="M233.704 95.0369L233.137 95.093L235.58 119.792L236.148 119.736L233.704 95.0369Z" fill="#666875"/>
<path d="M224.384 100.486L224.075 100.965L244.933 114.418L245.242 113.939L224.384 100.486Z" fill="#666875"/>
<path d="M215.15 119.43L214.944 119.962L238.086 128.933L238.292 128.402L215.15 119.43Z" fill="#666875"/>
<path d="M237.179 117.639L215.758 130.177L216.046 130.669L237.467 118.131L237.179 117.639Z" fill="#666875"/>
<path d="M217.645 110.399L217.284 110.839L236.477 126.577L236.838 126.136L217.645 110.399Z" fill="#666875"/>
<path d="M239.06 115.635L214.796 120.863L214.916 121.42L239.18 116.192L239.06 115.635Z" fill="#666875"/>
<path d="M266.551 102.842L243.841 112.858L244.071 113.379L266.781 103.363L266.551 102.842Z" fill="#666875"/>
<path d="M258.074 96.0412L251.784 120.051L252.336 120.195L258.625 96.1857L258.074 96.0412Z" fill="#666875"/>
<path d="M271.367 110.951L246.668 113.395L246.724 113.962L271.424 111.519L271.367 110.951Z" fill="#666875"/>
<path d="M265.395 102.082L251.939 122.938L252.418 123.247L265.874 102.391L265.395 102.082Z" fill="#666875"/>
<path d="M250.362 115.363L250.156 115.895L273.298 124.866L273.504 124.335L250.362 115.363Z" fill="#666875"/>
<path d="M272.427 113.495L251.006 126.032L251.294 126.524L272.715 113.987L272.427 113.495Z" fill="#666875"/>
<path d="M251.952 117.681L251.591 118.121L270.784 133.859L271.145 133.418L251.952 117.681Z" fill="#666875"/>
<path d="M273.363 122.916L249.1 128.144L249.22 128.702L273.483 123.473L273.363 122.916Z" fill="#666875"/>
<path d="M253.325 121.678L252.804 121.908L262.824 144.616L263.345 144.386L253.325 121.678Z" fill="#666875"/>
<path d="M246.185 129.768L246.041 130.32L270.053 136.601L270.197 136.05L246.185 129.768Z" fill="#666875"/>
<path d="M252.815 124.443L252.248 124.499L254.692 149.198L255.259 149.142L252.815 124.443Z" fill="#666875"/>
<path d="M243.488 129.881L243.179 130.36L264.037 143.813L264.346 143.334L243.488 129.881Z" fill="#666875"/>
<path d="M250.483 128.077L241.499 151.214L242.03 151.421L251.014 128.284L250.483 128.077Z" fill="#666875"/>
<path d="M240.188 128.905L239.696 129.193L252.233 150.613L252.725 150.325L240.188 128.905Z" fill="#666875"/>
<path d="M248.223 129.502L232.485 148.695L232.926 149.057L248.663 129.864L248.223 129.502Z" fill="#666875"/>
<path d="M238.197 127.096L237.64 127.217L242.876 151.478L243.433 151.358L238.197 127.096Z" fill="#666875"/>
<path d="M244.47 130.686L221.76 140.702L221.99 141.223L244.7 131.207L244.47 130.686Z" fill="#666875"/>
<path d="M236.067 123.85L229.777 147.86L230.328 148.004L236.618 123.994L236.067 123.85Z" fill="#666875"/>
<path d="M241.961 130.073L217.262 132.517L217.318 133.084L242.017 130.64L241.961 130.073Z" fill="#666875"/>
<path d="M235.993 121.197L222.537 142.052L223.016 142.361L236.472 121.506L235.993 121.197Z" fill="#666875"/>
<path d="M275.457 120.231C274.437 102.901 259.567 89.6805 242.237 90.7005C224.907 91.7205 211.687 106.591 212.707 123.921C213.727 141.251 228.597 154.471 245.927 153.451C263.257 152.431 276.477 137.561 275.457 120.231ZM245.747 150.361C230.127 151.281 216.717 139.361 215.807 123.741C214.887 108.121 226.807 94.7106 242.427 93.8006C258.047 92.8806 271.457 104.801 272.367 120.421C273.287 136.041 261.367 149.451 245.747 150.361Z" fill="#7E8191"/>
<path d="M243.497 112.211C238.047 112.531 233.887 117.211 234.207 122.661C234.527 128.111 239.207 132.271 244.657 131.951C250.107 131.631 254.267 126.951 253.947 121.501C253.627 116.051 248.947 111.891 243.497 112.211Z" fill="#7E8191"/>
<path d="M241.707 81.7205C219.417 83.0305 202.407 102.16 203.717 124.451C205.027 146.741 224.157 163.75 246.447 162.44C268.737 161.13 285.747 142.001 284.437 119.711C283.127 97.4205 263.997 80.4105 241.707 81.7205ZM245.867 152.451C229.117 153.431 214.687 140.611 213.707 123.861C212.727 107.111 225.547 92.6805 242.297 91.7005C259.047 90.7205 273.477 103.541 274.457 120.291C275.437 137.041 262.617 151.471 245.867 152.451Z" fill="#3A3A40"/>
<path d="M243.697 115.561C240.097 115.771 237.347 118.861 237.557 122.461C237.767 126.061 240.857 128.811 244.457 128.601C248.057 128.391 250.807 125.301 250.597 121.701C250.387 118.101 247.297 115.351 243.697 115.561Z" fill="#5C5F6B"/>
<path d="M258.958 121.201C258.478 112.981 251.418 106.711 243.208 107.201C234.988 107.681 228.718 114.741 229.208 122.951C229.688 131.171 236.748 137.441 244.958 136.951C253.178 136.471 259.448 129.411 258.958 121.201ZM244.748 133.351C238.528 133.721 233.178 128.971 232.818 122.741C232.448 116.521 237.198 111.171 243.428 110.811C249.648 110.441 254.998 115.191 255.358 121.421C255.728 127.641 250.978 132.991 244.748 133.351Z" fill="#7E8191"/>
<path d="M64.5247 92.4844L55.5532 115.626L56.0847 115.832L65.0562 92.6904L64.5247 92.4844Z" fill="#666875"/>
<path d="M54.238 93.4488L53.7461 93.7367L66.2835 115.157L66.7754 114.87L54.238 93.4488Z" fill="#666875"/>
<path d="M73.6196 94.9517L57.8823 114.145L58.3231 114.506L74.0603 95.313L73.6196 94.9517Z" fill="#666875"/>
<path d="M63.5977 92.534L63.0405 92.6543L68.2771 116.916L68.8343 116.795L63.5977 92.534Z" fill="#666875"/>
<path d="M43.6787 99.4003L43.1572 99.6304L53.1772 122.338L53.6987 122.108L43.6787 99.4003Z" fill="#666875"/>
<path d="M36.5315 107.487L36.3872 108.038L60.3991 114.32L60.5434 113.768L36.5315 107.487Z" fill="#666875"/>
<path d="M51.8231 94.7845L51.2559 94.8406L53.6994 119.54L54.2667 119.484L51.8231 94.7845Z" fill="#666875"/>
<path d="M42.4945 100.228L42.1855 100.708L63.0437 114.16L63.3526 113.681L42.4945 100.228Z" fill="#666875"/>
<path d="M33.2646 119.173L33.0586 119.704L56.2005 128.675L56.4065 128.144L33.2646 119.173Z" fill="#666875"/>
<path d="M55.3519 117.307L33.9312 129.844L34.2191 130.336L55.6398 117.799L55.3519 117.307Z" fill="#666875"/>
<path d="M35.7633 110.153L35.4019 110.594L54.5948 126.331L54.9562 125.89L35.7633 110.153Z" fill="#666875"/>
<path d="M57.1777 115.382L32.9146 120.61L33.0346 121.167L57.2977 115.939L57.1777 115.382Z" fill="#666875"/>
<path d="M84.5809 102.719L61.8716 112.735L62.1016 113.256L84.8109 103.24L84.5809 102.719Z" fill="#666875"/>
<path d="M76.2098 95.8232L69.9199 119.833L70.4714 119.977L76.7613 95.9677L76.2098 95.8232Z" fill="#666875"/>
<path d="M89.467 110.739L64.7676 113.182L64.8237 113.75L89.5231 111.306L89.467 110.739Z" fill="#666875"/>
<path d="M83.5438 101.611L70.0913 122.469L70.5703 122.778L84.0228 101.92L83.5438 101.611Z" fill="#666875"/>
<path d="M68.4668 115.116L68.2607 115.647L91.4025 124.619L91.6086 124.087L68.4668 115.116Z" fill="#666875"/>
<path d="M90.5203 113.292L69.0996 125.829L69.3875 126.321L90.8082 113.784L90.5203 113.292Z" fill="#666875"/>
<path d="M70.0611 117.435L69.6997 117.876L88.8927 133.614L89.2542 133.173L70.0611 117.435Z" fill="#666875"/>
<path d="M91.4819 122.663L67.2188 127.891L67.3388 128.449L91.602 123.221L91.4819 122.663Z" fill="#666875"/>
<path d="M71.4385 121.434L70.917 121.664L80.937 144.372L81.4585 144.142L71.4385 121.434Z" fill="#666875"/>
<path d="M64.302 129.516L64.1577 130.068L88.1698 136.349L88.314 135.798L64.302 129.516Z" fill="#666875"/>
<path d="M70.9242 124.19L70.3569 124.246L72.8005 148.946L73.3677 148.89L70.9242 124.19Z" fill="#666875"/>
<path d="M61.6087 129.634L61.2998 130.113L82.1579 143.565L82.4669 143.086L61.6087 129.634Z" fill="#666875"/>
<path d="M68.5886 127.825L59.605 150.962L60.1363 151.168L69.1199 128.031L68.5886 127.825Z" fill="#666875"/>
<path d="M58.3079 128.656L57.8159 128.944L70.3532 150.364L70.8452 150.076L58.3079 128.656Z" fill="#666875"/>
<path d="M66.3174 129.339L50.5801 148.532L51.0209 148.894L66.7582 129.701L66.3174 129.339Z" fill="#666875"/>
<path d="M56.3082 126.838L55.751 126.958L60.9876 151.219L61.5448 151.099L56.3082 126.838Z" fill="#666875"/>
<path d="M62.556 130.474L39.8467 140.49L40.0767 141.012L62.786 130.996L62.556 130.474Z" fill="#666875"/>
<path d="M54.183 123.569L47.8931 147.579L48.4445 147.724L54.7344 123.714L54.183 123.569Z" fill="#666875"/>
<path d="M60.0803 129.83L35.3809 132.274L35.437 132.841L60.1364 130.398L60.0803 129.83Z" fill="#666875"/>
<path d="M54.1173 120.872L40.6611 141.728L41.14 142.037L54.5962 121.181L54.1173 120.872Z" fill="#666875"/>
<path d="M64.5247 92.4844L55.5532 115.626L56.0847 115.832L65.0562 92.6904L64.5247 92.4844Z" fill="#666875"/>
<path d="M54.238 93.4488L53.7461 93.7367L66.2835 115.157L66.7754 114.87L54.238 93.4488Z" fill="#666875"/>
<path d="M73.6196 94.9517L57.8823 114.145L58.3231 114.506L74.0603 95.313L73.6196 94.9517Z" fill="#666875"/>
<path d="M63.5977 92.534L63.0405 92.6543L68.2771 116.916L68.8343 116.795L63.5977 92.534Z" fill="#666875"/>
<path d="M43.6787 99.4003L43.1572 99.6304L53.1772 122.338L53.6987 122.108L43.6787 99.4003Z" fill="#666875"/>
<path d="M36.5315 107.487L36.3872 108.038L60.3991 114.32L60.5434 113.768L36.5315 107.487Z" fill="#666875"/>
<path d="M51.8231 94.7845L51.2559 94.8406L53.6994 119.54L54.2667 119.484L51.8231 94.7845Z" fill="#666875"/>
<path d="M42.4945 100.228L42.1855 100.708L63.0437 114.16L63.3526 113.681L42.4945 100.228Z" fill="#666875"/>
<path d="M33.2646 119.173L33.0586 119.704L56.2005 128.675L56.4065 128.144L33.2646 119.173Z" fill="#666875"/>
<path d="M55.3519 117.307L33.9312 129.844L34.2191 130.336L55.6398 117.799L55.3519 117.307Z" fill="#666875"/>
<path d="M35.7633 110.153L35.4019 110.594L54.5948 126.331L54.9562 125.89L35.7633 110.153Z" fill="#666875"/>
<path d="M57.1777 115.382L32.9146 120.61L33.0346 121.167L57.2977 115.939L57.1777 115.382Z" fill="#666875"/>
<path d="M84.5809 102.719L61.8716 112.735L62.1016 113.256L84.8109 103.24L84.5809 102.719Z" fill="#666875"/>
<path d="M76.2098 95.8232L69.9199 119.833L70.4714 119.977L76.7613 95.9677L76.2098 95.8232Z" fill="#666875"/>
<path d="M89.467 110.739L64.7676 113.182L64.8237 113.75L89.5231 111.306L89.467 110.739Z" fill="#666875"/>
<path d="M83.5438 101.611L70.0913 122.469L70.5703 122.778L84.0228 101.92L83.5438 101.611Z" fill="#666875"/>
<path d="M68.4668 115.116L68.2607 115.647L91.4025 124.619L91.6086 124.087L68.4668 115.116Z" fill="#666875"/>
<path d="M90.5203 113.292L69.0996 125.829L69.3875 126.321L90.8082 113.784L90.5203 113.292Z" fill="#666875"/>
<path d="M70.0611 117.435L69.6997 117.876L88.8927 133.614L89.2542 133.173L70.0611 117.435Z" fill="#666875"/>
<path d="M91.4819 122.663L67.2188 127.891L67.3388 128.449L91.602 123.221L91.4819 122.663Z" fill="#666875"/>
<path d="M71.4385 121.434L70.917 121.664L80.937 144.372L81.4585 144.142L71.4385 121.434Z" fill="#666875"/>
<path d="M64.302 129.516L64.1577 130.068L88.1698 136.349L88.314 135.798L64.302 129.516Z" fill="#666875"/>
<path d="M70.9242 124.19L70.3569 124.246L72.8005 148.946L73.3677 148.89L70.9242 124.19Z" fill="#666875"/>
<path d="M61.6087 129.634L61.2998 130.113L82.1579 143.565L82.4669 143.086L61.6087 129.634Z" fill="#666875"/>
<path d="M68.5886 127.825L59.605 150.962L60.1363 151.168L69.1199 128.031L68.5886 127.825Z" fill="#666875"/>
<path d="M58.3079 128.656L57.8159 128.944L70.3532 150.364L70.8452 150.076L58.3079 128.656Z" fill="#666875"/>
<path d="M66.3174 129.339L50.5801 148.532L51.0209 148.894L66.7582 129.701L66.3174 129.339Z" fill="#666875"/>
<path d="M56.3082 126.838L55.751 126.958L60.9876 151.219L61.5448 151.099L56.3082 126.838Z" fill="#666875"/>
<path d="M62.556 130.474L39.8467 140.49L40.0767 141.012L62.786 130.996L62.556 130.474Z" fill="#666875"/>
<path d="M54.183 123.569L47.8931 147.579L48.4445 147.724L54.7344 123.714L54.183 123.569Z" fill="#666875"/>
<path d="M60.0803 129.83L35.3809 132.274L35.437 132.841L60.1364 130.398L60.0803 129.83Z" fill="#666875"/>
<path d="M54.1173 120.872L40.6611 141.728L41.14 142.037L54.5962 121.181L54.1173 120.872Z" fill="#666875"/>
<path d="M93.5772 119.991C92.5572 102.661 77.6873 89.4405 60.3573 90.4605C43.0273 91.4805 29.8072 106.351 30.8272 123.681C31.8472 141.011 46.7173 154.231 64.0473 153.211C81.3773 152.191 94.5972 137.321 93.5772 119.991ZM63.8573 150.111C48.2373 151.031 34.8273 139.111 33.9173 123.491C32.9973 107.871 44.9173 94.4606 60.5373 93.5506C76.1573 92.6306 89.5673 104.551 90.4773 120.171C91.3973 135.791 79.4773 149.201 63.8573 150.111Z" fill="#7E8191"/>
<path d="M61.6174 111.961C56.1674 112.281 52.0073 116.961 52.3273 122.411C52.6473 127.861 57.3274 132.021 62.7774 131.701C68.2274 131.381 72.3873 126.701 72.0673 121.251C71.7473 115.801 67.0674 111.641 61.6174 111.961Z" fill="#7E8191"/>
<path d="M59.8275 81.4705C37.5375 82.7805 20.5275 101.91 21.8375 124.201C23.1475 146.491 42.2774 163.5 64.5674 162.19C86.8574 160.88 103.867 141.751 102.557 119.461C101.247 97.1705 82.1175 80.1605 59.8275 81.4705ZM63.9875 152.211C47.2375 153.191 32.8075 140.371 31.8275 123.621C30.8475 106.871 43.6675 92.4405 60.4175 91.4605C77.1675 90.4805 91.5975 103.301 92.5775 120.051C93.5575 136.801 80.7375 151.231 63.9875 152.211Z" fill="#3A3A40"/>
<path d="M61.8172 115.311C58.2172 115.521 55.4673 118.611 55.6773 122.211C55.8873 125.811 58.9772 128.561 62.5772 128.351C66.1772 128.141 68.9273 125.051 68.7173 121.451C68.5073 117.851 65.4172 115.101 61.8172 115.311Z" fill="#5C5F6B"/>
<path d="M77.0777 120.951C76.5977 112.731 69.5377 106.461 61.3277 106.951C53.1077 107.431 46.8377 114.491 47.3277 122.701C47.8077 130.921 54.8677 137.191 63.0777 136.701C71.2977 136.221 77.5677 129.161 77.0777 120.951ZM62.8577 133.101C56.6377 133.471 51.2877 128.721 50.9277 122.491C50.5577 116.271 55.3077 110.921 61.5377 110.561C67.7577 110.191 73.1077 114.941 73.4677 121.171C73.8377 127.391 69.0877 132.741 62.8577 133.101Z" fill="#7E8191"/>
<path d="M172.756 72.8347L170.097 72.7609L169.99 76.6194L172.649 76.6932L172.756 72.8347Z" fill="#596C7D"/>
<path d="M190.947 115.651L188.737 110.991C188.537 110.571 188.167 110.261 187.717 110.141L182.657 108.821C181.967 108.641 181.477 108.011 181.487 107.291V104.611C181.507 103.681 182.307 102.961 183.227 103.051L188.267 103.541C188.507 103.561 188.727 103.641 188.927 103.761L195.997 108.061C196.697 108.491 196.947 109.381 196.587 110.111L193.787 115.681C193.197 116.851 191.527 116.831 190.967 115.651H190.947Z" fill="#217DD9"/>
<path d="M128.692 93.5205L118.436 93.2358L118.097 105.421L128.353 105.706L128.692 93.5205Z" fill="#217DD9"/>
<path d="M156.727 93.5083L158.787 93.5654L158.415 106.95L155.746 106.876C154.796 106.85 154.038 106.059 154.065 105.099L154.324 95.7724C154.359 94.4829 155.428 93.4722 156.717 93.508L156.727 93.5083Z" fill="#414B4F"/>
<path d="M183.271 89.0147L158.85 88.3368L158.349 106.4L182.769 107.078L183.271 89.0147Z" fill="#414B4F"/>
<path d="M186.365 76.6662L156.476 75.8365L156.053 91.0707L185.942 91.9003L186.365 76.6662Z" fill="#566369"/>
<path d="M187.347 76.9488L155.389 76.0618L155.358 77.1713L187.316 78.0584L187.347 76.9488Z" fill="#9FADB3"/>
<path d="M155.37 78.741L155.339 79.8506L187.297 80.7377L187.328 79.628L155.37 78.741Z" fill="#9FADB3"/>
<path d="M155.287 81.4147L155.256 82.5243L187.214 83.4114L187.245 82.3018L155.287 81.4147Z" fill="#9FADB3"/>
<path d="M155.214 84.0786L155.183 85.1881L187.141 86.0752L187.172 84.9656L155.214 84.0786Z" fill="#9FADB3"/>
<path d="M155.141 86.7326L155.11 87.8422L187.068 88.7292L187.099 87.6197L155.141 86.7326Z" fill="#9FADB3"/>
<path d="M186.977 90.2734L155.02 89.3864L154.989 90.496L186.946 91.3831L186.977 90.2734Z" fill="#9FADB3"/>
<path d="M184.086 92.4624L157.846 91.734L157.815 92.8436L184.055 93.5719L184.086 92.4624Z" fill="#9FADB3"/>
<path d="M157.822 94.4228L157.791 95.5323L184.031 96.2607L184.062 95.1512L157.822 94.4228Z" fill="#9FADB3"/>
<path d="M157.739 97.0765L157.708 98.186L183.948 98.9144L183.979 97.8048L157.739 97.0765Z" fill="#9FADB3"/>
<path d="M157.666 99.7403L157.635 100.85L183.875 101.578L183.906 100.469L157.666 99.7403Z" fill="#9FADB3"/>
<path d="M157.603 102.404L157.572 103.514L183.812 104.242L183.842 103.133L157.603 102.404Z" fill="#9FADB3"/>
<path d="M183.716 105.777L157.476 105.049L157.445 106.158L183.685 106.887L183.716 105.777Z" fill="#9FADB3"/>
<g style="mix-blend-mode:screen">
<path d="M167.526 76.1835L161.608 76.0193L161.186 91.2035L167.104 91.3678L167.526 76.1835Z" fill="#414B4F"/>
</g>
<g style="mix-blend-mode:screen">
<path d="M169.004 91.3888L163.516 91.2365L163.091 106.55L168.578 106.703L169.004 91.3888Z" fill="#323A3D"/>
</g>
<g style="mix-blend-mode:multiply">
<path d="M186.344 76.6955L180.426 76.5312L180.005 91.7155L185.923 91.8797L186.344 76.6955Z" fill="#B7BDBF"/>
</g>
<g style="mix-blend-mode:multiply">
<path d="M183.207 91.7727L177.719 91.6204L177.294 106.934L182.782 107.087L183.207 91.7727Z" fill="#B7BDBF"/>
</g>
<path d="M165.087 70.8006L159.617 70.6506C158.827 70.6306 158.117 71.1406 157.897 71.9006L156.727 75.8305L167.527 76.1306L166.537 71.9805C166.377 71.3005 165.777 70.8206 165.087 70.8006Z" fill="#566369"/>
<path d="M164.707 73.5007C164.667 74.9307 163.477 76.0607 162.047 76.0207C160.617 75.9807 159.487 74.7906 159.527 73.3606C159.567 71.9306 160.757 70.8006 162.187 70.8406C163.617 70.8806 164.747 72.0707 164.707 73.5007Z" fill="#9FADB3"/>
<path d="M183.837 71.3205L178.367 71.1706C177.577 71.1506 176.867 71.6606 176.647 72.4206L175.477 76.3505L186.277 76.6506L185.287 72.5006C185.127 71.8206 184.527 71.3405 183.837 71.3205Z" fill="#566369"/>
<path d="M183.457 74.0207C183.417 75.4507 182.227 76.5807 180.797 76.5407C179.367 76.5007 178.237 75.3107 178.277 73.8807C178.317 72.4507 179.507 71.3206 180.937 71.3606C182.367 71.4006 183.497 72.5907 183.457 74.0207Z" fill="#9FADB3"/>
<path d="M192.637 39.8406L193.057 42.7506L198.807 47.8105L200.947 50.2706L204.667 49.3706L205.707 44.2006L200.677 38.0706L200.027 36.2506L195.927 36.4406L192.637 39.8406Z" fill="#A9A9BA"/>
<path d="M200.648 67.9506L212.588 59.1906L206.118 47.6106L198.228 50.8906L200.648 67.9506Z" fill="#A9A9BA"/>
<path d="M211.817 43.6707L207.237 50.3406L201.897 41.0006L207.897 37.3706L211.817 43.6707Z" fill="#A9A9BA"/>
<path d="M201.437 120.721C201.437 120.721 207.037 121.721 209.317 117.161C209.387 117.471 209.338 105.451 219.988 93.5706C230.638 81.6906 246.387 83.2906 249.457 83.8306C252.527 84.3806 256.417 85.5606 258.657 85.3206C260.897 85.0706 262.298 84.5007 262.298 84.5007C262.298 84.5007 256.068 76.4807 239.918 77.5107C221.398 78.6907 212.308 89.6906 209.488 93.8206C207.118 97.2906 200.188 109.741 201.418 120.721H201.437Z" fill="#003399"/>
<path d="M34.5273 74.6606L35.4473 66.0306C35.4473 62.6206 39.0774 59.6806 42.4874 59.6206L60.9473 57.3906C60.9473 57.3906 48.2273 62.3706 44.7173 65.9106C41.2073 69.4506 38.8973 73.2806 34.5273 74.6606Z" fill="#217DD9"/>
<path d="M63.3471 122.741L60.0371 122.141L66.8371 84.1807L70.1471 84.7806L63.3471 122.741Z" fill="#2C2D30"/>
<path d="M74.5538 72.3371L67.0771 70.973L62.6832 95.0556L70.1599 96.4197L74.5538 72.3371Z" fill="#4F5157"/>
<path d="M76.5639 74.1582L64.8002 72.2971C64.5165 72.2522 64.2502 72.4458 64.2054 72.7295L64.1788 72.8974C64.1339 73.1811 64.3274 73.4474 64.6111 73.4923L76.3748 75.3534C76.6585 75.3983 76.9248 75.2047 76.9697 74.921L76.9962 74.753C77.0411 74.4694 76.8476 74.203 76.5639 74.1582Z" fill="#9EA1AD"/>
<path d="M75.807 78.0606L64.2171 76.2306C63.8871 76.1806 63.6571 75.8707 63.7171 75.5407C63.7671 75.2107 64.0771 74.9807 64.4071 75.0407L75.997 76.8706C76.327 76.9206 76.557 77.2306 76.497 77.5606C76.447 77.8906 76.137 78.1206 75.807 78.0606Z" fill="#9EA1AD"/>
<path d="M75.327 80.7706L63.7371 78.9406C63.4071 78.8906 63.1771 78.5806 63.2371 78.2506C63.2871 77.9206 63.5971 77.6906 63.9271 77.7506L75.517 79.5806C75.847 79.6306 76.077 79.9406 76.017 80.2706C75.967 80.6006 75.657 80.8306 75.327 80.7706Z" fill="#9EA1AD"/>
<path d="M74.8471 83.4906L63.2571 81.6607C62.9271 81.6107 62.6971 81.3006 62.7571 80.9706C62.8071 80.6406 63.1171 80.4106 63.4471 80.4706L75.0371 82.3007C75.3671 82.3507 75.5971 82.6606 75.5371 82.9906C75.4871 83.3206 75.1771 83.5506 74.8471 83.4906Z" fill="#9EA1AD"/>
<path d="M74.3671 86.2006L62.7771 84.3706C62.4471 84.3206 62.2171 84.0107 62.2771 83.6807C62.3271 83.3507 62.6371 83.1207 62.9671 83.1807L74.5571 85.0106C74.8871 85.0606 75.1171 85.3706 75.0571 85.7006C75.0071 86.0306 74.6971 86.2606 74.3671 86.2006Z" fill="#9EA1AD"/>
<path d="M73.8871 88.9107L62.2971 87.0806C61.9671 87.0306 61.7371 86.7206 61.7971 86.3906C61.8471 86.0606 62.1571 85.8306 62.4871 85.8906L74.0771 87.7206C74.4071 87.7706 74.6371 88.0807 74.5771 88.4107C74.5271 88.7407 74.2171 88.9707 73.8871 88.9107Z" fill="#9EA1AD"/>
<path d="M73.4072 91.6306L61.8171 89.8007C61.4871 89.7507 61.2571 89.4406 61.3171 89.1106C61.3671 88.7806 61.6772 88.5506 62.0072 88.6106L73.5972 90.4406C73.9272 90.4906 74.1572 90.8006 74.0972 91.1306C74.0472 91.4606 73.7372 91.6906 73.4072 91.6306Z" fill="#9EA1AD"/>
<path d="M73.2061 93.1598L61.4423 91.2987C61.1587 91.2538 60.8923 91.4474 60.8475 91.731L60.8209 91.899C60.776 92.1827 60.9696 92.449 61.2533 92.4939L73.017 94.355C73.3006 94.3998 73.5669 94.2062 73.6118 93.9226L73.6384 93.7546C73.6833 93.471 73.4897 93.2046 73.2061 93.1598Z" fill="#9EA1AD"/>
<path d="M225.007 29.4506L224.087 32.3206C224.087 32.3206 218.297 33.3606 216.577 37.0706C214.847 40.7806 214.677 46.3105 214.677 46.3105L209.237 48.3007L207.077 43.9006L205.957 40.0106L207.307 38.3206L212.607 34.2206L225.007 29.4506Z" fill="#2C4C57"/>
<path d="M199.897 40.2306L202.897 38.4207C203.727 37.9207 204.817 38.2306 205.247 39.1006L246.377 120.681C247.177 122.271 246.567 124.211 245.007 125.061C243.297 125.991 241.147 125.321 240.267 123.581L199.267 42.4107C198.877 41.6307 199.147 40.6806 199.897 40.2206V40.2306Z" fill="#C1C2C7"/>
<path d="M164.387 145.611C161.837 145.541 159.057 145.381 155.997 145.201C152.207 144.981 147.907 144.741 143.067 144.601L112.877 143.761C111.007 143.711 109.277 142.831 108.137 141.341C106.997 139.851 106.597 137.951 107.027 136.121C108.517 129.911 109.767 114.851 104.127 101.021L108.387 102.041C114.457 116.941 112.677 130.401 111.067 137.091C110.927 137.691 111.057 138.321 111.427 138.811C111.647 139.101 112.137 139.581 112.977 139.601L143.167 140.441C148.067 140.581 152.397 140.821 156.217 141.041C168.887 141.771 175.877 142.171 181.457 137.411C188.587 131.331 196.617 102.951 200.237 87.1406C203.267 73.9206 201.837 62.7606 201.827 62.6506L205.947 62.1006C206.007 62.5806 207.487 74.0806 204.287 88.0706C202.607 95.4006 193.747 132.401 184.157 140.581C178.877 145.081 172.907 145.841 164.367 145.601L164.387 145.611Z" fill="#217DD9"/>
<path d="M136.097 64.9906C136.337 67.1906 138.147 68.8805 140.357 68.9505L195.787 70.4906C207.797 70.8206 209.577 40.1306 180.797 40.0306C152.027 39.9306 142.487 50.4106 138.297 55.6106C135.987 58.4806 135.797 62.2306 136.097 65.0006V64.9906Z" fill="#003399"/>
<path d="M145.807 53.6406C148.987 49.8406 156.887 42.1506 180.367 42.1506H180.767C187.707 42.1806 192.397 44.4206 194.337 48.6406C194.347 48.6706 194.357 48.6906 194.377 48.7206C195.647 51.5606 193.097 54.6306 190.047 53.9806C179.507 51.7306 168.687 51.1706 157.977 52.3306L145.817 53.6406H145.807Z" fill="#217DD9"/>
<path d="M144.857 65.6206C142.177 65.2606 140.797 62.2105 142.277 59.9405C143.567 57.9605 145.897 55.6406 150.147 53.6206C159.987 48.9206 168.317 50.4805 170.007 52.3205C171.117 53.5405 167.857 59.1705 165.527 62.8305C164.247 64.8405 162.027 66.0606 159.647 66.0406C155.967 66.0206 150.497 65.9706 147.567 65.8506C146.547 65.8106 145.657 65.7306 144.867 65.6206H144.857Z" fill="#217DD9"/>
<path d="M133.817 60.7907C133.817 60.7907 136.797 61.5706 136.677 66.0706C136.557 70.5706 133.127 73.1906 128.037 73.3406C122.947 73.4906 94.2772 71.8806 80.1572 70.3406C66.0472 68.7906 54.5272 65.2407 50.6472 63.6307C46.7672 62.0207 47.1872 57.6807 47.7072 55.7907C47.8372 55.3207 48.2372 54.7307 48.7672 54.1207C50.9772 51.5807 54.2872 50.2907 57.6372 50.5307C65.5272 51.0907 81.6972 52.4506 89.6672 54.6006C100.447 57.5006 104.017 60.2606 116.947 60.6106C129.877 60.9706 133.817 60.7907 133.817 60.7907Z" fill="#217DD9"/>
<path d="M100.287 71.7106L129.637 72.8907C130.827 72.9407 131.887 73.6607 132.367 74.7507L134.597 79.8206C135.027 80.8006 134.927 81.9206 134.327 82.8106L119.907 104.261C119.277 105.201 118.187 105.721 117.057 105.631L114.467 105.411C113.407 105.321 112.477 104.701 111.977 103.761L97.4074 76.2707C96.2774 74.1507 97.8874 71.6006 100.287 71.7006V71.7106Z" fill="#003399"/>
<path d="M93.4672 72.0406L126.847 135.141L122.657 136.171L86.4072 68.1406L93.4672 72.0406Z" fill="#217DD9"/>
<path d="M58.3872 117.471L110.547 114.761L110.507 127.391L58.7572 126.271L58.3872 117.471Z" fill="#9395A1"/>
<path d="M188.921 84.2949C188.992 81.7554 187.236 79.6464 185.001 79.5844C182.765 79.5223 180.895 81.5307 180.824 84.0702C180.754 86.6097 182.509 88.7188 184.745 88.7808C186.981 88.8429 188.851 86.8345 188.921 84.2949Z" fill="#C7C7D6"/>
<path d="M168.617 139.561C168.467 139.561 168.327 139.561 168.177 139.541L111.047 136.931C109.897 136.881 109.017 135.901 109.067 134.761C109.117 133.611 110.087 132.701 111.237 132.781L168.367 135.391C175.097 135.701 181.537 132.671 185.607 127.281C195.677 113.971 201.217 103.021 201.187 96.4306C201.177 93.0506 200.197 90.5605 198.187 88.8305C194.617 85.7505 188.427 85.8506 186.337 86.1406C185.197 86.3006 184.147 85.5106 183.987 84.3806C183.827 83.2406 184.617 82.1906 185.747 82.0306C186.127 81.9806 195.187 80.7505 200.907 85.6905C203.837 88.2205 205.327 91.8306 205.347 96.4306C205.377 106.041 196.437 119.891 188.917 129.811C184.107 136.171 176.537 139.801 168.617 139.581V139.561Z" fill="#A9A9BA"/>
<path d="M168.597 140.481C168.447 140.481 168.287 140.481 168.137 140.461L111.007 137.851C109.357 137.771 108.067 136.371 108.147 134.711C108.187 133.901 108.547 133.131 109.147 132.591C109.747 132.061 110.507 131.791 111.297 131.841L168.417 134.451C174.827 134.751 180.987 131.861 184.877 126.711C194.827 113.561 200.297 102.811 200.277 96.4206C200.267 93.3206 199.387 91.0606 197.597 89.5106C194.307 86.6706 188.317 86.7806 186.487 87.0406C184.847 87.2806 183.327 86.1306 183.087 84.4906C182.857 82.8506 183.997 81.3305 185.637 81.0905C186.037 81.0305 195.487 79.7405 201.527 84.9605C204.667 87.6805 206.267 91.5206 206.287 96.3906C206.317 106.261 197.267 120.291 189.677 130.331C184.707 136.901 176.827 140.691 168.607 140.461L168.597 140.481ZM111.147 133.701C110.857 133.701 110.587 133.791 110.377 133.981C110.137 134.191 110.007 134.481 109.987 134.801C109.957 135.441 110.447 135.981 111.087 136.011L168.217 138.621C176.017 138.971 183.487 135.451 188.187 129.231C195.617 119.421 204.457 105.761 204.427 96.4106C204.407 92.1006 203.027 88.7206 200.307 86.3706C194.897 81.7006 186.247 82.8806 185.887 82.9306C185.257 83.0206 184.817 83.6106 184.907 84.2406C184.997 84.8706 185.587 85.3105 186.217 85.2205C188.417 84.9105 194.977 84.8106 198.797 88.1206C201.017 90.0406 202.107 92.7606 202.117 96.4206C202.137 103.211 196.537 114.371 186.347 127.841C182.087 133.471 175.347 136.641 168.327 136.311L111.197 133.701C111.197 133.701 111.167 133.701 111.147 133.701Z" fill="#A9A9BA"/>
<path d="M25.9672 68.2606C24.7772 68.2606 23.8071 65.7806 23.8071 62.7306C23.8071 59.6806 24.7772 57.2006 25.9672 57.2006C27.1572 57.2006 28.1271 59.6806 28.1271 62.7306C28.1271 65.7806 27.1572 68.2606 25.9672 68.2606Z" fill="#F21C00"/>
<path d="M27.0769 61.6906C26.9569 63.8106 26.9369 65.9306 26.9369 68.0406C26.9369 68.2006 26.8969 68.3506 26.8369 68.5006C27.1069 68.5106 27.3769 68.5206 27.6569 68.5206C33.1169 68.5206 37.5469 65.9306 37.5469 62.7406C37.5469 59.5506 33.1169 56.9606 27.6569 56.9606C27.3969 56.9606 27.1369 56.9606 26.8769 56.9806C26.9769 58.5506 27.1669 60.1107 27.0769 61.6807V61.6906Z" fill="#D6D8E6"/>
<mask id="mask0_424_1787" style="mask-type:luminance" maskUnits="userSpaceOnUse" x="26" y="56" width="12" height="13">
<path d="M27.0769 61.6906C26.9569 63.8106 26.9369 65.9306 26.9369 68.0406C26.9369 68.2006 26.8969 68.3506 26.8369 68.5006C27.1069 68.5106 27.3769 68.5206 27.6569 68.5206C33.1169 68.5206 37.5469 65.9306 37.5469 62.7406C37.5469 59.5506 33.1169 56.9606 27.6569 56.9606C27.3969 56.9606 27.1369 56.9606 26.8769 56.9806C26.9769 58.5506 27.1669 60.1107 27.0769 61.6807V61.6906Z" fill="white"/>
</mask>
<g mask="url(#mask0_424_1787)">
<path d="M27.0871 65.9706C27.0871 65.9706 33.8871 66.1906 38.2071 63.9806C42.5371 61.7706 38.4671 63.1406 38.4671 63.1406C38.4671 63.1406 30.1671 63.7405 27.2071 63.0605C24.2471 62.3805 27.0771 65.9806 27.0771 65.9806L27.0871 65.9706Z" fill="#E4E6F5"/>
</g>
<path d="M25.5874 56.8606V68.5806H27.7074V56.8606H25.5874Z" fill="#283242"/>
<path d="M19.9673 85.9406L31.8073 81.4106C31.8073 81.4106 42.5773 71.6406 61.3773 70.9806C80.1773 70.3306 91.9773 78.8406 91.9773 78.8406L90.1173 65.3806L55.6773 59.8007C55.6773 59.8007 32.8673 62.7107 19.9773 85.9307L19.9673 85.9406Z" fill="#003399"/>
<path d="M22.0673 121.131L40.1573 123.021L46.3373 121.001L106.347 128.051C109.467 128.421 111.697 131.241 111.337 134.361L111.267 134.961C110.917 137.961 108.237 140.131 105.237 139.851L44.2473 134.231L39.5073 130.281L21.1973 127.921L22.0773 121.131H22.0673Z" fill="#BDBFC9"/>
<path d="M88.6571 72.3606C88.6171 73.9206 87.307 75.1506 85.747 75.1106C84.187 75.0706 82.957 73.7605 82.997 72.2005C83.037 70.6405 84.3471 69.4105 85.9071 69.4505C87.4671 69.4905 88.6971 70.8006 88.6571 72.3606Z" fill="#C1C2C7"/>
<path d="M203.381 36.1529L197.303 39.4405C196.846 39.6875 196.676 40.2578 196.923 40.7144L198.926 44.4175C199.173 44.8741 199.744 45.044 200.2 44.797L206.278 41.5094C206.735 41.2624 206.905 40.692 206.658 40.2354L204.655 36.5324C204.408 36.0757 203.837 35.9059 203.381 36.1529Z" fill="#2C4C57"/>
<path d="M193.844 32.9543L189.564 38.6069C189.251 39.0208 189.333 39.6104 189.747 39.9238L193.207 42.5435C193.621 42.8569 194.21 42.7754 194.524 42.3615L198.803 36.7089C199.117 36.295 199.035 35.7054 198.621 35.392L195.161 32.7723C194.747 32.4589 194.158 32.5404 193.844 32.9543Z" fill="#2C4C57"/>
<path d="M194.342 32.1929L188.927 39.3444L190.115 40.2438L195.53 33.0923L194.342 32.1929Z" fill="#C1C2C7"/>
<path d="M210.607 47.9506L203.087 51.7506L220.677 86.5806L228.177 82.8007L210.607 47.9506Z" fill="#2C4C57"/>
<path d="M149.798 82.5408L140.302 82.2772C138.016 82.2138 136.112 84.0152 136.048 86.3008L135.959 89.5095C135.896 91.7951 137.697 93.6994 139.983 93.7628L149.479 94.0264C151.765 94.0898 153.669 92.2884 153.732 90.0028L153.821 86.7941C153.885 84.5085 152.083 82.6043 149.798 82.5408Z" fill="#B5B8C7"/>
<path d="M149.056 84.7611L140.909 84.5349C139.369 84.4922 138.085 85.7062 138.043 87.2465L138.003 88.6759C137.96 90.2161 139.174 91.4995 140.715 91.5422L148.861 91.7684C150.402 91.8111 151.685 90.5971 151.728 89.0568L151.767 87.6275C151.81 86.0872 150.596 84.8038 149.056 84.7611Z" fill="#D3D6E3"/>
<path d="M164.657 136.881H141.837C140.297 136.881 139.007 135.721 138.837 134.191L138.747 133.391L169.507 134.691L167.857 135.861C166.917 136.531 165.807 136.881 164.657 136.881ZM140.527 134.851C140.827 135.251 141.307 135.501 141.837 135.501H155.857L140.527 134.851Z" fill="#686882"/>
<path d="M156.787 123.435C156.967 116.926 148.96 111.423 138.901 111.144C128.842 110.865 120.542 115.915 120.361 122.424C120.18 128.933 128.188 134.436 138.247 134.715C148.305 134.994 156.606 129.944 156.787 123.435Z" fill="#B5B8C7"/>
<path d="M153.568 123.346C153.696 118.731 147.087 114.803 138.806 114.573C130.525 114.343 123.708 117.898 123.58 122.513C123.452 127.129 130.061 131.057 138.342 131.286C146.623 131.516 153.44 127.961 153.568 123.346Z" fill="#D3D6E3"/>
<path d="M126.697 122.561C126.627 122.561 126.547 122.541 126.477 122.511C126.147 122.381 125.987 122.001 126.127 121.671C127.137 119.181 132.137 116.711 138.747 116.891C144.997 117.061 149.567 119.511 150.837 121.831C151.007 122.141 150.897 122.531 150.587 122.701C150.277 122.871 149.887 122.761 149.717 122.451C148.647 120.501 144.417 118.331 138.717 118.181C132.127 118.001 128.027 120.451 127.327 122.161C127.227 122.421 126.977 122.571 126.717 122.561H126.697Z" fill="#B5B8C7"/>
<path d="M154.417 95.325L128.587 94.608L128.325 104.064L154.155 104.781L154.417 95.325Z" fill="#B5B8C7"/>
<path d="M154.367 96.7954L128.537 96.0784L128.433 99.8069L154.263 100.524L154.367 96.7954Z" fill="#D3D6E3"/>
<path d="M150.113 71.1639L140.617 70.9003C138.331 70.8368 136.427 72.6382 136.364 74.9238L136.275 78.1325C136.211 80.4181 138.013 82.3224 140.298 82.3858L149.794 82.6494C152.08 82.7129 153.984 80.9115 154.048 78.6259L154.137 75.4172C154.2 73.1316 152.399 71.2273 150.113 71.1639Z" fill="#B5B8C7"/>
<path d="M149.381 73.3844L141.234 73.1582C139.694 73.1155 138.411 74.3295 138.368 75.8698L138.328 77.2992C138.285 78.8394 139.499 80.1228 141.04 80.1655L149.187 80.3917C150.727 80.4344 152.01 79.2204 152.053 77.6801L152.093 76.2507C152.135 74.7105 150.921 73.4271 149.381 73.3844Z" fill="#D3D6E3"/>
<path d="M149.167 114.601C145.437 114.601 142.967 113.931 141.487 112.541C140.447 111.561 139.937 110.231 139.977 108.611L140.307 96.8306L142.307 96.8906L141.977 108.671C141.947 109.721 142.237 110.511 142.857 111.091C144.287 112.441 147.597 112.891 152.687 112.441L152.867 114.431C151.517 114.551 150.287 114.611 149.177 114.611L149.167 114.601Z" fill="#414B4F"/>
<path d="M142.717 97.3706L142.817 93.6807C142.837 92.9107 142.227 92.2606 141.457 92.2406C140.687 92.2206 140.037 92.8306 140.017 93.6006L139.917 97.2906L142.717 97.3706Z" fill="#71838A"/>
<path d="M156.747 109.721L152.327 108.841C148.767 108.131 146.227 104.991 146.277 101.361L146.337 97.1306L148.337 97.1606L148.277 101.391C148.237 104.051 150.107 106.361 152.717 106.881L157.137 107.761L156.747 109.721Z" fill="#414B4F"/>
<path d="M148.757 97.5406L148.857 93.8506C148.877 93.0806 148.267 92.4306 147.497 92.4106C146.727 92.3906 146.077 93.0006 146.057 93.7706L145.957 97.4606L148.757 97.5406Z" fill="#71838A"/>
<path d="M162.757 104.251L177.277 104.651C185.777 104.891 190.157 114.911 184.557 121.311L176.757 130.221C172.507 135.081 164.837 134.731 161.047 129.491L154.317 120.171C149.447 113.421 154.417 104.021 162.737 104.251H162.757Z" fill="#B5B8C7"/>
<path d="M164.327 106.221L175.618 106.531C182.218 106.711 185.627 114.501 181.277 119.471L175.217 126.401C171.917 130.181 165.947 129.901 163.017 125.831L157.787 118.591C153.997 113.351 157.867 106.041 164.327 106.221Z" fill="#D3D6E3"/>
<mask id="mask1_424_1787" style="mask-type:luminance" maskUnits="userSpaceOnUse" x="21" y="121" width="91" height="19">
<path d="M22.0673 121.131L40.1573 123.021L46.3373 121.001L106.347 128.051C109.467 128.421 111.697 131.241 111.337 134.361L111.267 134.961C110.917 137.961 108.237 140.131 105.237 139.851L44.2473 134.231L39.5073 130.281L21.1973 127.921L22.0773 121.131H22.0673Z" fill="white"/>
</mask>
<g mask="url(#mask1_424_1787)">
<path d="M19.9574 122.301L40.6774 124.481L47.3174 122.701L109.067 130.471V134.271L46.6074 127.041L40.2974 127.361L18.5874 124.861L19.9574 122.301Z" fill="#E1E2E8"/>
</g>
<path d="M107.547 113.641C108.307 118.671 108.417 123.461 108.187 127.491C109.557 127.191 111.107 127.451 112.467 128.101C112.787 123.791 112.687 118.671 111.647 113.091C110.367 113.661 108.917 113.871 107.547 113.631V113.641Z" fill="#217DD9"/>
<path d="M229.697 43.6106C229.867 39.4906 229.887 35.3706 229.887 31.2406C229.887 30.9306 229.937 30.6406 230.027 30.3506C229.647 30.3206 229.257 30.3105 228.867 30.3105C221.147 30.3105 214.877 35.3407 214.877 41.5507C214.877 47.7607 221.137 52.7906 228.867 52.7906C229.237 52.7906 229.607 52.7706 229.967 52.7506C229.827 49.7006 229.567 46.6606 229.687 43.6006L229.697 43.6106Z" fill="#D6D8E6"/>
<mask id="mask2_424_1787" style="mask-type:luminance" maskUnits="userSpaceOnUse" x="214" y="30" width="17" height="23">
<path d="M229.697 43.6106C229.867 39.4906 229.887 35.3706 229.887 31.2406C229.887 30.9306 229.937 30.6406 230.027 30.3506C229.647 30.3206 229.257 30.3105 228.867 30.3105C221.147 30.3105 214.877 35.3407 214.877 41.5507C214.877 47.7607 221.137 52.7906 228.867 52.7906C229.237 52.7906 229.607 52.7706 229.967 52.7506C229.827 49.7006 229.567 46.6606 229.687 43.6006L229.697 43.6106Z" fill="white"/>
</mask>
<g mask="url(#mask2_424_1787)">
<path d="M229.677 35.2807C229.677 35.2807 220.057 34.8607 213.947 39.1507C207.827 43.4507 213.577 40.7907 213.577 40.7907C213.577 40.7907 225.317 39.6206 229.497 40.9506C233.677 42.2806 229.687 35.2807 229.687 35.2807H229.677Z" fill="#E4E6F5"/>
</g>
<path d="M231.808 52.9807V30.1807H228.808V52.9807H231.808Z" fill="#283242"/>
<path d="M31.1272 77.6406C31.9391 77.6406 32.5972 75.9572 32.5972 73.8806C32.5972 71.804 31.9391 70.1206 31.1272 70.1206C30.3153 70.1206 29.6572 71.804 29.6572 73.8806C29.6572 75.9572 30.3153 77.6406 31.1272 77.6406Z" fill="#F29D00"/>
<path d="M31.8773 73.1707C31.7973 74.6107 31.7873 76.0506 31.7873 77.5006C31.7873 77.6106 31.7673 77.7105 31.7173 77.8105C31.8973 77.8105 32.0873 77.8206 32.2773 77.8206C35.9973 77.8206 39.0073 76.0606 39.0073 73.8906C39.0073 71.7206 35.9973 69.9606 32.2773 69.9606C32.0973 69.9606 31.9173 69.9606 31.7473 69.9706C31.8173 71.0406 31.9373 72.1007 31.8773 73.1707Z" fill="#D6D8E6"/>
<mask id="mask3_424_1787" style="mask-type:luminance" maskUnits="userSpaceOnUse" x="31" y="69" width="9" height="9">
<path d="M31.8773 73.1707C31.7973 74.6107 31.7873 76.0506 31.7873 77.5006C31.7873 77.6106 31.7673 77.7105 31.7173 77.8105C31.8973 77.8105 32.0873 77.8206 32.2773 77.8206C35.9973 77.8206 39.0073 76.0606 39.0073 73.8906C39.0073 71.7206 35.9973 69.9606 32.2773 69.9606C32.0973 69.9606 31.9173 69.9606 31.7473 69.9706C31.8173 71.0406 31.9373 72.1007 31.8773 73.1707Z" fill="white"/>
</mask>
<g mask="url(#mask3_424_1787)">
<path d="M31.8873 76.0906C31.8873 76.0906 36.5173 76.2407 39.4573 74.7407C42.3973 73.2407 39.6373 74.1607 39.6373 74.1607C39.6373 74.1607 33.9873 74.5706 31.9773 74.1006C29.9673 73.6406 31.8873 76.0906 31.8873 76.0906Z" fill="#E4E6F5"/>
</g>
<path d="M30.8672 69.8906V77.8706H32.3071V69.8906H30.8672Z" fill="#283242"/>
<path d="M223.966 27.2196L225.131 29.5327L210.53 36.8892L209 33.8528C208.415 32.6919 208.885 31.2683 210.046 30.6834L219.709 25.815C221.271 25.0276 223.178 25.6568 223.966 27.2196Z" fill="#9C9FAD"/>
<path d="M210.537 36.8226L209.624 35.0096L206.498 36.5844L207.411 38.3974L210.537 36.8226Z" fill="#2C4C57"/>
<path d="M218.607 26.0977L218.279 25.4457L210.339 29.4443L210.667 30.0963L218.607 26.0977Z" fill="#2C4C57"/>
<path d="M213.097 21.2006C212.927 20.0406 209.837 18.7106 209.487 18.5906C200.797 20.1406 194.327 18.7706 193.117 18.4806C193.077 18.6706 193.027 18.8506 192.967 19.0306C197.727 21.0806 207.247 20.1707 207.247 20.1707C209.227 20.7107 209.377 21.9706 209.377 21.9706C209.547 23.0506 211.347 23.1206 211.347 23.1206C211.347 23.1206 213.267 22.3606 213.097 21.2006Z" fill="#8D8D9E"/>
<path d="M210.727 23.8506C211.007 25.8406 209.607 27.6806 207.617 27.9506C205.627 28.2306 203.787 26.8306 203.517 24.8406C203.247 22.8506 204.637 21.0106 206.627 20.7406C208.617 20.4606 210.457 21.8606 210.727 23.8506Z" fill="#323238"/>
<path d="M206.618 22.0867L197.347 24.0168C196.287 24.2374 195.607 25.2753 195.827 26.3351L195.952 26.9323C196.172 27.992 197.21 28.6723 198.27 28.4517L207.541 26.5216C208.601 26.301 209.281 25.263 209.06 24.2032L208.936 23.606C208.716 22.5463 207.678 21.866 206.618 22.0867Z" fill="#3F3F47"/>
<path d="M197.627 28.6206C196.717 28.8106 195.827 28.2306 195.637 27.3206L195.397 26.1707C195.207 25.2607 195.787 24.3707 196.697 24.1807C197.607 23.9907 198.497 24.5706 198.687 25.4806L198.927 26.6306C199.117 27.5406 198.537 28.4306 197.627 28.6206Z" fill="#A5A6BF"/>
<g style="mix-blend-mode:screen">
<path d="M205.407 43.0006L244.617 122.441C244.867 122.941 244.667 123.541 244.177 123.801C243.667 124.071 243.037 123.861 242.787 123.351L203.347 44.0507C203.107 43.5707 203.277 42.9906 203.727 42.7206L203.957 42.5806C204.467 42.2706 205.147 42.4606 205.407 43.0006Z" fill="#57576E"/>
</g>
<path d="M210.397 50.4106C211.286 50.4106 212.007 48.5705 212.007 46.3007C212.007 44.0308 211.286 42.1906 210.397 42.1906C209.508 42.1906 208.787 44.0308 208.787 46.3007C208.787 48.5705 209.508 50.4106 210.397 50.4106Z" fill="#F29D00"/>
<path d="M209.567 47.0706C209.657 45.5006 209.667 43.9206 209.667 42.3406C209.667 42.2206 209.697 42.1106 209.737 42.0006C209.537 42.0006 209.337 41.9806 209.127 41.9806C205.067 41.9806 201.777 43.9006 201.777 46.2806C201.777 48.6606 205.067 50.5806 209.127 50.5806C209.327 50.5806 209.517 50.5806 209.707 50.5706C209.637 49.4006 209.497 48.2406 209.557 47.0706H209.567Z" fill="#D6D8E6"/>
<mask id="mask4_424_1787" style="mask-type:luminance" maskUnits="userSpaceOnUse" x="201" y="41" width="9" height="10">
<path d="M209.567 47.0706C209.657 45.5006 209.667 43.9206 209.667 42.3406C209.667 42.2206 209.697 42.1106 209.737 42.0006C209.537 42.0006 209.337 41.9806 209.127 41.9806C205.067 41.9806 201.777 43.9006 201.777 46.2806C201.777 48.6606 205.067 50.5806 209.127 50.5806C209.327 50.5806 209.517 50.5806 209.707 50.5706C209.637 49.4006 209.497 48.2406 209.557 47.0706H209.567Z" fill="white"/>
</mask>
<g mask="url(#mask4_424_1787)">
<path d="M209.567 43.8906C209.567 43.8906 204.517 43.7306 201.297 45.3706C198.077 47.0106 201.097 46.0006 201.097 46.0006C201.097 46.0006 207.267 45.5505 209.467 46.0605C211.667 46.5705 209.567 43.8906 209.567 43.8906Z" fill="#E4E6F5"/>
</g>
<path d="M210.677 50.6506V41.9407H209.097V50.6506H210.677Z" fill="#283242"/>
<path d="M162.938 139.351L170.548 130.781L171.598 131.681L168.908 134.901C168.598 135.261 168.248 135.591 167.868 135.861L162.948 139.351H162.938Z" fill="#686882"/>
<path d="M175.537 131.951H167.007C166.537 131.951 166.157 131.571 166.157 131.101C166.157 130.631 166.537 130.251 167.007 130.251H175.537C176.007 130.251 176.387 130.631 176.387 131.101C176.387 131.571 176.007 131.951 175.537 131.951Z" fill="#3A3A40"/>
</svg>
