<svg width="210" height="200" viewBox="0 0 210 200" fill="none" xmlns="http://www.w3.org/2000/svg">
<g clip-path="url(#clip0_64_6079)">
<path d="M181.451 134.238C205.642 94.3264 182.158 62.3361 162.678 50.1053C146.617 40.0206 123.643 26.7342 98.5618 54.2578C88.7431 65.0361 74.8417 71.5921 60.033 72.3424C59.8149 72.3554 59.5925 72.3642 59.3744 72.3729C45.5602 72.9617 36.7011 78.6933 28.2826 87.3386C19.3887 96.4681 16.9897 116.123 21.8357 127.769C26.4812 138.936 38.0403 153.683 61.8301 160.558H156.069C166.089 154.111 174.743 145.308 181.451 134.238Z" fill="#D7D6F8"/>
<mask id="mask0_64_6079" style="mask-type:luminance" maskUnits="userSpaceOnUse" x="19" y="37" width="173" height="124">
<path d="M181.451 134.238C205.642 94.3264 182.158 62.3361 162.678 50.1053C146.617 40.0206 123.643 26.7342 98.5618 54.2578C88.7431 65.0361 74.8417 71.5921 60.033 72.3424C59.8149 72.3554 59.5925 72.3642 59.3744 72.3729C45.5602 72.9617 36.7011 78.6933 28.2826 87.3386C19.3887 96.4681 16.9897 116.123 21.8357 127.769C26.4812 138.936 38.0403 153.683 61.8301 160.558H156.069C166.089 154.111 174.743 145.308 181.451 134.238Z" fill="white"/>
</mask>
<g mask="url(#mask0_64_6079)">
<path d="M210 137.304H0V199.937H210V137.304Z" fill="#C2C2EB"/>
</g>
<path d="M21.8357 45.8437H70.2093C70.2093 45.8437 69.9738 43.5057 64.5999 41.6388C59.226 39.7676 55.3701 44.5613 49.2939 41.6388C43.2178 38.7164 39.9943 34.5246 32.1691 36.8625C24.3394 39.1962 21.8357 45.8437 21.8357 45.8437Z" fill="white"/>
<path d="M153.364 18.1643C158.253 16.5674 160.922 11.3093 159.325 6.42011C157.728 1.53093 152.47 -1.13792 147.581 0.459057C142.691 2.05604 140.023 7.31411 141.619 12.2033C143.216 17.0925 148.475 19.7613 153.364 18.1643Z" fill="#F4DA8B"/>
<path d="M132.947 22.0669H181.783C181.783 22.0669 181.552 20.1215 176.282 18.5687C171.009 17.0158 167.231 20.9983 161.269 18.5687C155.31 16.1391 152.148 12.6539 144.471 14.5993C136.794 16.5447 132.947 22.0669 132.947 22.0669Z" fill="white"/>
<path d="M172.592 75.0162L194.498 74.9726C194.498 74.9726 189.089 67.6969 181.94 67.7144C174.791 67.7318 172.592 75.0162 172.592 75.0162Z" fill="white"/>
<path d="M184.784 155.038C192.572 147.25 192.572 134.623 184.784 126.835C176.996 119.047 164.369 119.047 156.581 126.835C148.793 134.623 148.793 147.25 156.581 155.038C164.369 162.826 176.996 162.826 184.784 155.038Z" fill="#34394A"/>
<path d="M181.129 151.383C186.899 145.614 186.899 136.26 181.129 130.49C175.36 124.721 166.006 124.721 160.236 130.49C154.467 136.26 154.467 145.614 160.236 151.383C166.006 157.153 175.36 157.153 181.129 151.383Z" fill="#A0E5CA"/>
<path d="M170.686 149.317C175.314 149.317 179.065 145.566 179.065 140.938C179.065 136.31 175.314 132.559 170.686 132.559C166.058 132.559 162.307 136.31 162.307 140.938C162.307 145.566 166.058 149.317 170.686 149.317Z" fill="white"/>
<path d="M192.535 133.649C187.929 116.886 168.893 118.487 168.893 118.487L156.532 118.478L147.066 133.649L143.834 143.878H156.532L162.141 133.649H192.535Z" fill="#5B61C7"/>
<path d="M52.391 67.3523H17.7661V102.365H52.391V67.3523Z" fill="#F4DA8B"/>
<path d="M55.1041 67.3523H15.0574V75.3739H55.1041V67.3523Z" fill="#F4DA8B"/>
<path d="M52.391 75.3782H17.7661V77.5679H52.391V75.3782Z" fill="#E6C46C"/>
<path d="M23.6242 67.3523H21.2993V102.365H23.6242V67.3523Z" fill="#7473DD"/>
<path d="M48.836 67.3523H46.5111V102.365H48.836V67.3523Z" fill="#7473DD"/>
<path d="M36.5858 91.6974C38.2703 90.5934 38.7408 88.3329 37.6367 86.6484C36.5327 84.9639 34.2722 84.4934 32.5877 85.5975C30.9032 86.7015 30.4327 88.962 31.5368 90.6465C32.6408 92.3309 34.9013 92.8015 36.5858 91.6974Z" fill="#34394A"/>
<path d="M35.7329 83.4085C35.7286 83.1992 35.2357 83.0378 34.625 83.0465C34.0143 83.0552 33.5214 83.2253 33.5258 83.4347C33.5258 83.5089 33.5912 83.5743 33.6959 83.631C33.7308 83.6484 33.7657 83.6659 33.8093 83.679C33.9925 83.7662 34.3415 83.9712 34.3415 84.2373L34.3546 85.5022L34.9521 85.4935L34.939 84.2286C34.9347 83.9494 35.3054 83.7357 35.4799 83.6484C35.5017 83.6397 35.5235 83.6266 35.5454 83.6179C35.5628 83.6092 35.5715 83.6048 35.5715 83.6048H35.5672C35.6718 83.5525 35.7329 83.4827 35.7329 83.4085Z" fill="#34394A"/>
<path d="M33.6261 93.598C33.6305 93.8073 34.1234 93.9687 34.734 93.96C35.3447 93.9513 35.8376 93.7812 35.8332 93.5718C35.8332 93.4976 35.7678 93.4322 35.6631 93.3755C35.6282 93.3581 35.5933 93.3406 35.5497 93.3275C35.3665 93.2403 35.0176 93.0353 35.0176 92.7692L35.0045 91.5042L34.4069 91.5086L34.42 92.7736C34.4243 93.0527 34.0536 93.2665 33.8791 93.3537C33.8573 93.3624 33.8355 93.3755 33.8137 93.3842C33.7962 93.3929 33.7875 93.3973 33.7875 93.3973H33.7919C33.6872 93.4584 33.6261 93.5238 33.6261 93.598Z" fill="#34394A"/>
<path d="M29.5869 87.452C29.3775 87.4564 29.2161 87.9493 29.2248 88.5599C29.2335 89.1706 29.4037 89.6635 29.613 89.6592C29.6872 89.6592 29.7526 89.5937 29.8093 89.489C29.8268 89.4541 29.8442 89.4192 29.8573 89.3756C29.9445 89.1924 30.1496 88.8435 30.4156 88.8435L31.6806 88.8304L31.6719 88.2328L30.4069 88.2459C30.1277 88.2503 29.914 87.8795 29.8268 87.705C29.818 87.6832 29.805 87.6614 29.7962 87.6396C29.7875 87.6221 29.7831 87.6134 29.7831 87.6134V87.6178C29.7264 87.5131 29.6567 87.452 29.5869 87.452Z" fill="#34394A"/>
<path d="M39.7719 89.5545C39.9813 89.5501 40.1427 89.0572 40.134 88.4465C40.1253 87.8359 39.9551 87.343 39.7458 87.3473C39.6716 87.3473 39.6062 87.4128 39.5495 87.5175C39.532 87.5524 39.5146 87.5872 39.5015 87.6309C39.4143 87.8141 39.2093 88.163 38.9432 88.163L37.6782 88.1761L37.6826 88.7737L38.9475 88.7606C39.2267 88.7562 39.4404 89.127 39.5277 89.3015C39.5364 89.3233 39.5495 89.3451 39.5582 89.3669C39.5669 89.3844 39.5713 89.3931 39.5713 89.3931V89.3887C39.6324 89.4978 39.7022 89.5588 39.7719 89.5545Z" fill="#34394A"/>
<path d="M30.3327 91.3603C30.1887 91.5086 30.4243 91.9753 30.8605 92.4028C31.2966 92.8303 31.7677 93.0527 31.9117 92.9044C31.964 92.8521 31.964 92.7605 31.9291 92.6471C31.916 92.6122 31.903 92.5729 31.8855 92.5293C31.8157 92.3374 31.7154 91.9492 31.903 91.7572L32.7884 90.8543L32.361 90.4356L31.4755 91.3385C31.2792 91.5391 30.8648 91.4301 30.6816 91.3647C30.6598 91.3559 30.6336 91.3472 30.6118 91.3385C30.5944 91.3298 30.5857 91.3298 30.5857 91.3298L30.59 91.3341C30.4722 91.3036 30.385 91.308 30.3327 91.3603Z" fill="#34394A"/>
<path d="M39.0261 85.6462C39.17 85.4979 38.9345 85.0312 38.4983 84.6037C38.0621 84.1762 37.591 83.9538 37.4471 84.1021C37.3947 84.1544 37.3947 84.246 37.4296 84.3594C37.4427 84.3943 37.4558 84.4336 37.4732 84.4772C37.543 84.6691 37.6433 85.0573 37.4558 85.2493L36.5703 86.1522L36.9978 86.5709L37.8832 85.668C38.0795 85.4673 38.4939 85.5764 38.6771 85.6418C38.6989 85.6506 38.7251 85.6593 38.7469 85.668C38.7644 85.6767 38.7731 85.6767 38.7731 85.6767L38.7687 85.6724C38.8821 85.7029 38.9737 85.6985 39.0261 85.6462Z" fill="#34394A"/>
<path d="M37.5386 92.8521C37.6869 92.996 38.1536 92.7605 38.5811 92.3243C39.0086 91.8881 39.231 91.417 39.0827 91.2731C39.0304 91.2207 38.9388 91.2207 38.8254 91.2556C38.7905 91.2687 38.7512 91.2818 38.7076 91.2992C38.5157 91.369 38.1275 91.4694 37.9356 91.2818L37.0326 90.3963L36.6139 90.8238L37.5168 91.7093C37.7175 91.9055 37.6084 92.3199 37.543 92.5031C37.5343 92.5249 37.5255 92.5511 37.5168 92.5729C37.5081 92.5904 37.5081 92.5991 37.5081 92.5991L37.5124 92.5947C37.4819 92.7081 37.4863 92.7997 37.5386 92.8521Z" fill="#34394A"/>
<path d="M31.8201 84.1588C31.6718 84.0148 31.2051 84.2504 30.7776 84.6866C30.3502 85.1228 30.1277 85.5939 30.276 85.7378C30.3284 85.7901 30.42 85.7901 30.5334 85.7552C30.5683 85.7422 30.6075 85.7291 30.6511 85.7116C30.8431 85.6418 31.2313 85.5415 31.4232 85.7291L32.3261 86.6145L32.7449 86.1871L31.8419 85.3016C31.6413 85.1053 31.7503 84.6909 31.8158 84.5077C31.8245 84.4859 31.8332 84.4598 31.8419 84.4379C31.8507 84.4205 31.8507 84.4118 31.8507 84.4118L31.8463 84.4161C31.8768 84.2984 31.8725 84.2068 31.8201 84.1588Z" fill="#34394A"/>
<path d="M34.7732 97.166C30.058 97.166 26.2239 93.3319 26.2239 88.6167C26.2239 83.9014 30.058 80.0673 34.7732 80.0673C39.4885 80.0673 43.3226 83.9014 43.3226 88.6167C43.3226 93.3319 39.4885 97.166 34.7732 97.166ZM34.7732 81.4588C30.8257 81.4588 27.6153 84.6691 27.6153 88.6167C27.6153 92.5642 30.8257 95.7746 34.7732 95.7746C38.7208 95.7746 41.9311 92.5642 41.9311 88.6167C41.9311 84.6691 38.7208 81.4588 34.7732 81.4588Z" fill="#D07572"/>
<path d="M40.1045 82.8541L29.0149 93.9485L29.9991 94.9322L41.0887 83.8379L40.1045 82.8541Z" fill="#D07572"/>
<path d="M62.2446 102.365H13.522" stroke="#7473DD" stroke-width="1.54804" stroke-miterlimit="10"/>
<path d="M33.6346 102.365L53.0103 122.661" stroke="#7473DD" stroke-width="1.54804" stroke-miterlimit="10"/>
<path d="M144.859 69.0491L143.158 57.1018C143.058 56.4126 142.504 55.8849 141.81 55.8238L138.482 55.5272L138.565 54.6068L141.893 54.9034C143.018 55.0037 143.913 55.8543 144.074 56.971L145.775 68.9182L144.859 69.0491Z" fill="#34394A"/>
<path d="M136.925 48.7967V59.7582C136.925 59.7582 139.25 59.4006 139.25 53.669C139.25 47.9374 136.925 48.7967 136.925 48.7967Z" fill="#5B61C7"/>
<path d="M57.2633 105.986C57.2633 105.986 57.1455 105.872 56.958 105.654C51.5056 99.3121 56.1815 92.2327 64.5433 92.2327H101.306C108.337 92.2327 113.323 96.7036 110.431 103.111C110.008 104.049 109.441 105.013 108.699 105.99H57.2633V105.986Z" fill="#F4DA8B"/>
<path d="M98.9675 135.909H133.435L147.38 115.124L151.738 123.368L138.085 144.877L109.977 147.642L98.9675 135.909Z" fill="#5B61C7"/>
<path d="M168.893 118.487C168.893 118.487 167.293 109.785 158.987 99.6523C153.417 92.8608 148.833 86.174 145.226 82.4925H148.929V67.348H142.97C141.431 67.348 140.009 68.1942 139.289 69.5594C137.435 73.0752 136.868 77.1274 137.679 81.0182L147.568 120.022C147.899 121.61 147.646 123.268 146.853 124.685L139.237 138.277C137.919 140.628 135.429 142.089 132.733 142.089H113.052C109.305 142.089 104.346 139.306 103.866 135.586L102.719 126.683C102.03 121.344 105.323 115.953 108.664 111.735L108.695 111.696V105.99H57.2632L44.9932 119.935L85.5851 135.542L94.7931 145.727C97.8029 149.478 102.252 151.869 107.059 152.061C107.277 152.069 107.499 152.074 107.717 152.074H136.598C139.337 152.074 141.849 150.565 143.136 148.148L154.612 127.909C155.851 125.575 157.871 123.752 160.313 122.749L168.893 118.487Z" fill="#7473DD"/>
<path d="M148.929 82.4751V67.3567C151.075 67.3567 152.811 69.0927 152.811 71.2388V78.593C152.811 80.7347 151.075 82.4751 148.929 82.4751Z" fill="#F4DA8B"/>
<path d="M140.82 72.0108L137.697 61.0973C137.304 59.6928 136.013 58.7114 134.556 58.7114H131.695V57.8564H134.556C136.397 57.8564 138.028 59.0952 138.521 60.8661L141.644 71.7797L140.82 72.0108Z" fill="#34394A"/>
<path d="M132.825 57.839C132.825 61.551 131.817 64.5563 130.57 64.5563C129.322 64.5563 128.314 61.5466 128.314 57.839C128.314 54.127 129.322 51.1216 130.57 51.1216C131.817 51.1216 132.825 54.127 132.825 57.839Z" fill="#7473DD"/>
<path d="M199.217 160.88H12.6147" stroke="#34394A" stroke-width="0.413379" stroke-miterlimit="10"/>
<path d="M81.261 145.426C83.7424 134.695 77.0549 123.985 66.3239 121.503C55.5929 119.022 44.8821 125.709 42.4007 136.44C39.9192 147.171 46.6068 157.882 57.3377 160.364C68.0687 162.845 78.7795 156.157 81.261 145.426Z" fill="#34394A"/>
<path d="M76.2194 144.292C78.0675 136.345 73.1232 128.404 65.176 126.556C57.2288 124.708 49.2881 129.652 47.44 137.599C45.5919 145.547 50.5362 153.487 58.4834 155.335C66.4306 157.183 74.3713 152.239 76.2194 144.292Z" fill="#A0E5CA"/>
<path d="M61.8302 149.317C66.4579 149.317 70.2094 145.566 70.2094 140.938C70.2094 136.31 66.4579 132.559 61.8302 132.559C57.2024 132.559 53.4509 136.31 53.4509 140.938C53.4509 145.566 57.2024 149.317 61.8302 149.317Z" fill="white"/>
<path d="M34.8037 138.203C33.3512 138.203 32.3218 136.75 32.7361 135.307C34.4984 129.156 41.8874 114.269 55.4094 110.383C75.7228 104.546 86.3484 114.025 88.4334 118.282C90.3483 122.195 93.8466 131.376 87.7312 138.203H34.8037Z" fill="#5B61C7"/>
<mask id="mask1_64_6079" style="mask-type:luminance" maskUnits="userSpaceOnUse" x="32" y="108" width="60" height="31">
<path d="M34.8037 138.203C33.3512 138.203 32.3218 136.75 32.7361 135.307C34.4984 129.156 41.8874 114.269 55.4094 110.383C75.7228 104.546 86.3484 114.025 88.4334 118.282C90.3483 122.195 93.8466 131.376 87.7312 138.203H34.8037Z" fill="white"/>
</mask>
<g mask="url(#mask1_64_6079)">
<path d="M97.9337 134.334H29.6654V140.022H97.9337V134.334Z" fill="#9092F2"/>
</g>
<path d="M42.4283 130.142H53.4247" stroke="#34394A" stroke-width="0.870071" stroke-miterlimit="10" stroke-linecap="round" stroke-linejoin="round"/>
<path d="M44.7096 127.769H53.4247" stroke="#34394A" stroke-width="0.870071" stroke-miterlimit="10" stroke-linecap="round" stroke-linejoin="round"/>
<path d="M47.9287 125.396H53.4247" stroke="#34394A" stroke-width="0.870071" stroke-miterlimit="10" stroke-linecap="round" stroke-linejoin="round"/>
<path d="M116.206 28.5095C116.206 28.5095 120.777 31.3752 119.538 35.807C118.299 40.2387 115.128 48.3998 112.01 47.0607C108.895 45.7259 106.889 43.9463 106.889 43.9463L104.996 37.1679L116.206 28.5095Z" fill="#EACBB5"/>
<path d="M109.754 44.8143L103.648 51.5971L99.2596 42.991L106.836 37.0981L109.754 44.8143Z" fill="#EACBB5"/>
<path d="M109.1 45.534C109.1 45.534 107.098 43.7456 106.544 42.991L106.98 47.8764L109.1 45.534Z" fill="#E0AD95"/>
<path d="M107.94 36.1952L109.706 37.386L109.829 35.8462C109.829 35.8462 117.266 35.5845 116.223 29.7221C116.454 31.0263 110.06 25.491 106.723 26.7211C104.503 27.5411 101.519 30.324 101.196 32.6707C100.948 34.4984 102.073 36.6706 103.124 39.9857L107.94 36.1952Z" fill="#34394A"/>
<path d="M117.414 39.327L118.19 42.8776C118.256 43.183 117.955 43.4447 117.663 43.3313L115.796 42.6115L117.414 39.327Z" fill="#EACBB5"/>
<path d="M115.853 39.1918C115.687 39.484 115.783 39.8504 116.066 40.0075C116.35 40.1689 116.712 40.0598 116.873 39.7676C117.039 39.4753 116.943 39.1089 116.659 38.9519C116.376 38.7949 116.014 38.9039 115.853 39.1918Z" fill="#34394A"/>
<path d="M116.716 35.3184C116.716 35.3184 114.936 35.0436 114.849 36.0425C114.849 36.0425 114.801 36.7186 116.358 36.9149C117.916 37.1112 118.535 37.0239 118.723 36.3958C118.906 35.7677 117.554 35.3577 116.716 35.3184Z" fill="#34394A"/>
<path d="M110.073 39.2703L119.085 42.4022L116.437 45.6431C114.91 47.51 112.197 47.8502 110.243 46.4326C109.881 46.1708 109.497 45.8699 109.1 45.534L110.073 39.2703Z" fill="white"/>
<path d="M108.599 35.7241L110.701 40.4524L104.721 37.8832" stroke="white" stroke-width="0.427817" stroke-miterlimit="10"/>
<path d="M100.555 36.7491C100.555 36.7491 105.336 40.5876 108.978 38.4721L112.38 34.0491L122.64 36.6881C122.64 36.6881 122.378 36.2475 121.754 33.3643C121.13 30.4854 119.9 24.8149 110.147 24.117C100.477 23.4278 99.9271 34.6598 100.555 36.7491Z" fill="#7473DD"/>
<path d="M112.38 34.0491L122.121 34.9695L126.478 37.3205C126.993 37.5997 126.679 38.3412 126.116 38.1711L112.38 34.0491Z" fill="#5B61C7"/>
<path d="M99.2597 42.991C99.2597 42.991 93.2883 43.5624 87.0071 52.2383C83.0858 57.6558 74.327 79.9146 74.327 79.9146C74.327 79.9146 78.3313 88.778 91.4039 92.2327C91.4039 92.2327 101.166 73.5506 103.652 51.1042C103.896 48.8491 99.2597 42.991 99.2597 42.991Z" fill="#70B1C1"/>
<path d="M105.375 65.468L107.731 72.9138C108.542 75.9496 109.24 77.9387 106.296 79.0335C103.024 80.2505 99.4037 78.4795 98.3525 75.1514L96.141 68.3774L105.375 65.468Z" fill="#EACBB5"/>
<path d="M107.229 64.8791L103.648 51.5971C103.648 51.5971 98.8933 47.8022 94.876 49.4685C91.5478 50.8512 89.7682 54.5021 90.7365 57.9742L93.8335 69.1014L107.229 64.8791Z" fill="#70B1C1"/>
<path d="M96.141 68.3774L93.8379 69.1014L90.741 57.9786" stroke="#51858D" stroke-width="0.413379" stroke-miterlimit="10" stroke-linecap="round" stroke-linejoin="round"/>
<path d="M105.772 70.1221L132.947 72.8614L131.848 77.1099L104.35 79.413C100.032 78.8023 97.6807 75.4175 99.0984 71.2955C100.189 68.1156 102.448 69.6031 105.772 70.1221Z" fill="#EACBB5"/>
<path d="M130.718 72.8091L139.206 68.8615C140.039 68.4733 141.025 68.6783 141.64 69.3588L144.148 72.5299C144.754 73.206 144.916 74.1743 144.558 75.0075L144.166 75.9278C143.987 76.3466 143.69 76.6999 143.315 76.9529L142.15 77.7337C141.518 78.1568 140.672 78.0826 140.122 77.5548L139.276 76.7435L135.608 78.0346C135.608 78.0346 132.864 79.3737 129.684 77.1099L130.718 72.8091Z" fill="white"/>
<path d="M137.627 73.5593L135.411 74.9028C134.094 76.05 134.055 78.0826 135.328 79.2778C136.524 80.3988 138.408 80.329 139.516 79.1207L141.575 77.6115C142.639 76.4513 142.556 74.6454 141.387 73.5898C140.323 72.6346 138.709 72.6171 137.627 73.5593Z" fill="#34394A"/>
<path d="M131.464 72.7044L127.411 72.3074L128.567 77.3847L131.102 77.1404L131.464 72.7044Z" fill="white"/>
<path d="M74.5844 80.473C74.5844 80.473 64.0024 97.7854 86.7977 99.9882L124.022 100.036C127.699 100.023 130.059 95.2511 129.645 91.5958C129.309 88.6385 126.914 86.3441 123.944 86.1304L74.5844 80.473Z" fill="#34394A"/>
<path d="M114.439 119.115L113.144 130.543L121.955 130.12L123.599 117.366L114.439 119.115Z" fill="#EACBB5"/>
<path d="M122.181 128.362L134.299 134.639C135.197 135.093 135.673 136.1 135.442 137.082L111.32 136.733L113.222 128.271L122.181 128.362Z" fill="white"/>
<path d="M111.325 136.729L111.272 138.43L133.479 138.539C134.386 138.543 135.184 137.95 135.451 137.082L111.325 136.729Z" fill="black"/>
<path d="M114.683 132.362C114.701 133.544 115.678 134.491 116.86 134.469C118.042 134.452 118.984 133.475 118.967 132.292C118.949 131.11 117.972 130.164 116.79 130.186C115.608 130.207 114.662 131.18 114.683 132.362Z" stroke="black" stroke-width="0.352443" stroke-miterlimit="10"/>
<path d="M125.802 130.037L123.905 131.721" stroke="black" stroke-width="0.704842" stroke-miterlimit="10" stroke-linecap="round" stroke-linejoin="round"/>
<path d="M127.577 130.897L125.671 132.589" stroke="black" stroke-width="0.704842" stroke-miterlimit="10" stroke-linecap="round" stroke-linejoin="round"/>
<path d="M129.453 131.861L127.459 133.632" stroke="black" stroke-width="0.704842" stroke-miterlimit="10" stroke-linecap="round" stroke-linejoin="round"/>
<path d="M115.726 88.9394L112.088 123.425L125.039 123.433L129.693 92.4595L115.726 88.9394Z" fill="#34394A"/>
</g>
<defs>
<clipPath id="clip0_64_6079">
<rect width="210" height="199.937" fill="white"/>
</clipPath>
</defs>
</svg>
