<svg width="301" height="170" viewBox="0 0 301 170" fill="none" xmlns="http://www.w3.org/2000/svg">
<path d="M200.4 105.86H2.29004V133.09H200.4V105.86Z" fill="#003366"/>
<path d="M197.28 0H2.29004V120.49H197.28V0Z" fill="#0066CC"/>
<path d="M262.3 131.6L249.96 140.27L226.3 149.58H167.02L160.74 145.57H150.45V148.28H114.83V145.46H103.57L77.0297 150.44L39.6898 141.89L21.7197 144.06V141.02L37.0898 138.95V128.9H190.39L208.49 103.29H252.23L262.3 128.9V131.6Z" fill="#003366"/>
<path d="M271.23 140.27H252.23C252.23 140.27 251.51 137.51 250.1 133.77H271.23V140.27Z" fill="#003366"/>
<path d="M249.35 100.42C251.27 100.85 253.22 101.07 255.19 101.07H283.77C283.8 102.64 283.82 104.25 283.83 105.85L278.84 103.28H272.36V127.26H271.24V133.76H250.11C247.17 125.94 241.22 113.84 232.57 113.84H200.49C200.49 113.84 200.49 113.82 200.49 113.78C200.49 112.92 200.44 101.85 200.42 89.3301L249.37 100.41L249.35 100.42Z" fill="#003399"/>
<path d="M0 158.29C0 161.12 2.71001 163.41 141.75 163.41C296.4 163.41 283.5 161.12 283.5 158.29C283.5 155.46 277.08 153.17 141.75 153.17C4.36 153.17 0 155.46 0 158.29Z" fill="#003366"/>
<path d="M203.99 117.42H212.44C212.44 117.42 203.99 122.16 199.45 138.95C199.29 139.34 197.34 138.95 197.34 138.95C197.34 138.95 198.48 129.76 204 117.42H203.99Z" fill="#003399"/>
<path d="M97.8302 120.49H93.1802L100.86 132.04H103.57L97.8302 120.49Z" fill="#003399"/>
<path d="M56.2098 120.49H60.8597L53.1797 132.04H50.4697L56.2098 120.49Z" fill="#003399"/>
<path d="M277 61.01H275.71C274.451 61.01 273.43 62.0308 273.43 63.29V77.89C273.43 79.1492 274.451 80.17 275.71 80.17H277C278.259 80.17 279.28 79.1492 279.28 77.89V63.29C279.28 62.0308 278.259 61.01 277 61.01Z" fill="#217DD9"/>
<path d="M249.35 100.42L200.4 89.34C200.37 73.98 200.36 56.42 200.47 52.79C200.58 49.41 200.85 46.7701 201.1 45.0001C201.31 43.4701 202.63 42.3301 204.18 42.3301H230.37C243.07 42.3301 255.61 43.16 257.65 43.16C258.2 43.16 258.98 43.71 259.93 44.67H256.94C256.94 44.67 269.45 64.0001 274.16 74.3901C276.33 79.1901 277.54 82.2901 278.21 84.2401C278.89 86.2201 280.29 87.88 282.15 88.85L283.25 89.42C283.53 92.55 283.69 96.6901 283.77 101.08H255.19C253.23 101.08 251.27 100.86 249.35 100.43V100.42Z" fill="#217DD9"/>
<path d="M228.513 163.044C239.439 161.243 246.836 150.926 245.036 140C243.235 129.074 232.917 121.676 221.992 123.477C211.066 125.278 203.668 135.596 205.469 146.521C207.27 157.447 217.587 164.844 228.513 163.044Z" fill="#003399"/>
<path d="M233.958 151.87C238.746 147.082 238.746 139.319 233.958 134.531C229.17 129.743 221.408 129.743 216.62 134.531C211.832 139.319 211.832 147.082 216.62 151.87C221.408 156.657 229.17 156.657 233.958 151.87Z" fill="#003366"/>
<path d="M212.23 143.2C212.23 136 218.09 130.14 225.29 130.14C232.49 130.14 238.35 136 238.35 143.2C238.35 150.4 232.49 156.26 225.29 156.26C218.09 156.26 212.23 150.4 212.23 143.2ZM213.83 143.2C213.83 149.52 218.97 154.66 225.29 154.66C231.61 154.66 236.75 149.52 236.75 143.2C236.75 136.88 231.61 131.74 225.29 131.74C218.97 131.74 213.83 136.88 213.83 143.2Z" fill="#99CCFF"/>
<path d="M225.29 151.51C229.879 151.51 233.6 147.79 233.6 143.2C233.6 138.611 229.879 134.89 225.29 134.89C220.7 134.89 216.98 138.611 216.98 143.2C216.98 147.79 220.7 151.51 225.29 151.51Z" fill="#3399FF"/>
<path d="M222.38 152.26C221.5 151.98 220.67 151.57 219.91 151.05C219.36 150.67 219.22 149.92 219.6 149.37C219.98 148.82 220.73 148.68 221.28 149.06C221.85 149.45 222.47 149.75 223.12 149.96C223.75 150.16 224.1 150.84 223.9 151.48C223.74 151.99 223.26 152.32 222.75 152.32C222.63 152.32 222.5 152.3 222.38 152.26ZM229.4 150.53C228.99 150 229.09 149.24 229.62 148.84C230.17 148.42 230.65 147.92 231.05 147.37C231.44 146.83 232.19 146.71 232.73 147.1C233.27 147.49 233.39 148.24 233 148.78C232.46 149.53 231.82 150.19 231.09 150.75C230.87 150.92 230.61 151 230.36 151C230 151 229.64 150.84 229.4 150.53ZM215.77 143.2C215.77 142.27 215.9 141.36 216.16 140.48C216.35 139.84 217.03 139.48 217.66 139.67C218.3 139.86 218.66 140.53 218.47 141.17C218.27 141.82 218.18 142.51 218.18 143.2V143.23C218.18 143.9 217.64 144.42 216.97 144.42C216.3 144.42 215.76 143.86 215.76 143.2H215.77ZM231.99 140.83C231.76 140.18 231.44 139.57 231.03 139.02C230.64 138.48 230.75 137.73 231.29 137.34C231.83 136.95 232.58 137.06 232.97 137.6C233.52 138.35 233.95 139.16 234.25 140.03C234.47 140.66 234.14 141.35 233.52 141.57C233.39 141.62 233.25 141.64 233.12 141.64C232.62 141.64 232.16 141.33 231.98 140.84L231.99 140.83ZM221.57 135.67C221.36 135.04 221.71 134.36 222.34 134.15C223.21 133.87 224.12 133.71 225.05 133.69C225.06 133.69 225.07 133.69 225.08 133.69C225.73 133.69 226.27 134.21 226.28 134.87C226.3 135.54 225.77 136.09 225.11 136.11C224.42 136.13 223.74 136.24 223.09 136.46C222.97 136.5 222.84 136.52 222.72 136.52C222.21 136.52 221.74 136.2 221.57 135.69V135.67Z" fill="#003399"/>
<path d="M221.04 143.2C221.04 140.85 222.94 138.95 225.29 138.95C227.64 138.95 229.54 140.85 229.54 143.2C229.54 145.55 227.64 147.45 225.29 147.45C222.94 147.45 221.04 145.55 221.04 143.2Z" fill="#003399"/>
<path d="M84.7029 161.731C94.9333 157.493 99.7915 145.765 95.5539 135.534C91.3163 125.304 79.5877 120.446 69.3573 124.683C59.1269 128.921 54.2687 140.649 58.5063 150.88C62.7439 161.11 74.4725 165.968 84.7029 161.731Z" fill="#003399"/>
<path d="M85.6924 151.865C90.4803 147.077 90.4803 139.315 85.6924 134.527C80.9046 129.739 73.142 129.739 68.3542 134.527C63.5663 139.315 63.5664 147.077 68.3542 151.865C73.142 156.653 80.9046 156.653 85.6924 151.865Z" fill="#003366"/>
<path d="M63.96 143.2C63.96 136 69.82 130.14 77.02 130.14C84.22 130.14 90.08 136 90.08 143.2C90.08 150.4 84.22 156.26 77.02 156.26C69.82 156.26 63.96 150.4 63.96 143.2ZM65.5699 143.2C65.5699 149.52 70.7099 154.66 77.0299 154.66C83.3499 154.66 88.4899 149.52 88.4899 143.2C88.4899 136.88 83.3499 131.74 77.0299 131.74C70.7099 131.74 65.5699 136.88 65.5699 143.2Z" fill="#99CCFF"/>
<path d="M77.0297 151.51C81.6192 151.51 85.3398 147.79 85.3398 143.2C85.3398 138.611 81.6192 134.89 77.0297 134.89C72.4402 134.89 68.7197 138.611 68.7197 143.2C68.7197 147.79 72.4402 151.51 77.0297 151.51Z" fill="#3399FF"/>
<path d="M74.1202 152.26C73.2402 151.98 72.4103 151.57 71.6503 151.05C71.1003 150.67 70.9603 149.92 71.3403 149.37C71.7203 148.82 72.4703 148.68 73.0203 149.06C73.5903 149.45 74.2102 149.75 74.8602 149.96C75.4902 150.16 75.8403 150.84 75.6403 151.48C75.4803 151.99 75.0002 152.32 74.4902 152.32C74.3702 152.32 74.2402 152.3 74.1202 152.26ZM81.1403 150.53C80.7303 150 80.8302 149.24 81.3602 148.84C81.9102 148.42 82.3902 147.92 82.7902 147.37C83.1802 146.83 83.9402 146.71 84.4702 147.1C85.0102 147.49 85.1302 148.24 84.7402 148.78C84.2002 149.53 83.5603 150.19 82.8303 150.75C82.6103 150.92 82.3502 151 82.1002 151C81.7402 151 81.3803 150.84 81.1403 150.53ZM67.5103 143.2C67.5103 142.27 67.6403 141.36 67.9003 140.48C68.0903 139.84 68.7703 139.48 69.4003 139.67C70.0403 139.86 70.4003 140.53 70.2103 141.17C70.0103 141.82 69.9202 142.51 69.9102 143.12C69.9102 143.15 69.9102 143.21 69.9102 143.23C69.9102 143.9 69.3703 144.42 68.7003 144.42C68.0303 144.42 67.4902 143.86 67.4902 143.2H67.5103ZM83.7302 140.83C83.5002 140.18 83.1803 139.57 82.7703 139.02C82.3803 138.48 82.4902 137.73 83.0302 137.34C83.5702 136.95 84.3203 137.06 84.7103 137.6C85.2603 138.35 85.6902 139.16 85.9902 140.03C86.2102 140.66 85.8803 141.35 85.2603 141.57C85.1303 141.62 84.9902 141.64 84.8602 141.64C84.3602 141.64 83.9002 141.33 83.7202 140.84L83.7302 140.83ZM73.3002 135.67C73.0902 135.04 73.4403 134.36 74.0703 134.15C74.9403 133.87 75.8602 133.71 76.7802 133.69C77.4402 133.69 78.0003 134.2 78.0203 134.87C78.0403 135.54 77.5103 136.09 76.8403 136.11C76.1503 136.13 75.4703 136.24 74.8203 136.46C74.7003 136.5 74.5703 136.52 74.4503 136.52C73.9403 136.52 73.4702 136.2 73.3002 135.69V135.67Z" fill="#003399"/>
<path d="M72.7798 143.2C72.7798 140.85 74.6798 138.95 77.0298 138.95C79.3798 138.95 81.2798 140.85 81.2798 143.2C81.2798 145.55 79.3798 147.45 77.0298 147.45C74.6798 147.45 72.7798 145.55 72.7798 143.2Z" fill="#003399"/>
<path d="M200.47 113.79V113.85H232.55C245.33 113.85 252.22 140.27 252.22 140.27H249.95C249.95 140.27 241.86 126.16 238.01 121.81C233.71 116.94 229.97 117.42 217.8 117.42H200.37V113.85L200.47 113.79Z" fill="#3366CC"/>
<path d="M283.64 127.27C285.41 127.27 286.84 128.7 286.84 130.47V136.06C286.84 138.38 284.96 140.26 282.64 140.26H271.24V127.27H283.65H283.64Z" fill="#003366"/>
<path d="M272.35 103.29H278.83L283.82 105.86C283.84 108.98 283.82 112.09 283.8 114.93L272.35 112.96V103.29Z" fill="#217DD9"/>
<path d="M283.8 114.93C283.74 121.9 283.59 127.27 283.59 127.27H272.35V112.96L283.8 114.93Z" fill="#D9ECFF"/>
<path d="M282.76 85.7799C282.95 86.7199 283.11 87.9599 283.24 89.4099L282.18 88.8499C280.32 87.8799 278.9 86.2399 278.22 84.2599C277.82 83.0999 277.23 81.5099 276.35 79.4099H280.5C281.65 82.0799 282.46 84.3 282.76 85.77V85.7799Z" fill="#003399"/>
<path d="M256.94 44.6599H259.93C265.23 50.0399 275.78 68.4899 280.51 79.4199H276.36C275.77 77.9899 275.05 76.34 274.17 74.39C269.46 64 256.95 44.6699 256.95 44.6699L256.94 44.6599Z" fill="#99CCFF"/>
<path d="M298.13 61.01H296.84C295.581 61.01 294.56 62.0308 294.56 63.29V77.89C294.56 79.1492 295.581 80.17 296.84 80.17H298.13C299.389 80.17 300.41 79.1492 300.41 77.89V63.29C300.41 62.0308 299.389 61.01 298.13 61.01Z" fill="#217DD9"/>
<path d="M279.79 85.22C279.79 85.22 279.87 85.22 279.92 85.22L294.87 82.86C296.85 82.55 298.29 80.87 298.29 78.86V77.6301C298.29 77.1901 297.93 76.8301 297.49 76.8301C297.05 76.8301 296.69 77.1901 296.69 77.6301V78.86C296.69 80.07 295.82 81.0801 294.63 81.2701L279.68 83.6201C279.24 83.6901 278.94 84.1 279.01 84.54C279.07 84.94 279.41 85.22 279.8 85.22H279.79Z" fill="#003399"/>
<path d="M197.28 117.39H2.29004V120.48H197.28V117.39Z" fill="#217DD9"/>
<path d="M213.25 49.3701H249.24C251.15 49.3701 252.94 50.3001 254.02 51.8701C257.77 57.3001 266.28 70.7801 268.79 84.4501C268.7 85.7101 268.71 87.9501 268.74 89.7201C268.76 91.1101 267.64 92.2501 266.25 92.2501H257.17C256.05 92.2501 254.95 92.0101 253.93 91.5401L213.76 73.1201C211.77 72.2101 210.49 70.2101 210.49 68.0201V52.1301C210.49 50.6101 211.73 49.3701 213.25 49.3701Z" fill="url(#paint0_linear_424_1514)"/>
<path d="M213.25 49.3701H249.24C251.15 49.3701 252.94 50.3001 254.02 51.8701C257.77 57.3001 266.28 70.7801 268.79 84.4501C268.7 85.7101 268.71 87.9501 268.74 89.7201C268.76 91.1101 267.64 92.2501 266.25 92.2501H257.17C256.05 92.2501 254.95 92.0101 253.93 91.5401L213.76 73.1201C211.77 72.2101 210.49 70.2101 210.49 68.0201V52.1301C210.49 50.6101 211.73 49.3701 213.25 49.3701Z" fill="white"/>
<path d="M248.01 123.56H269.57C269.79 123.56 269.97 123.38 269.97 123.16C269.97 122.94 269.79 122.76 269.57 122.76H248.01C247.79 122.76 247.61 122.94 247.61 123.16C247.61 123.38 247.79 123.56 248.01 123.56Z" fill="#217DD9"/>
<path d="M221.79 92.4399H212.17C211.065 92.4399 210.17 93.3354 210.17 94.4399V96.6499C210.17 97.7545 211.065 98.6499 212.17 98.6499H221.79C222.894 98.6499 223.79 97.7545 223.79 96.6499V94.4399C223.79 93.3354 222.894 92.4399 221.79 92.4399Z" fill="#217DD9"/>
<path d="M222.33 94.54H211.63C211.298 94.54 211.03 94.8087 211.03 95.1401V95.9501C211.03 96.2814 211.298 96.55 211.63 96.55H222.33C222.661 96.55 222.93 96.2814 222.93 95.9501V95.1401C222.93 94.8087 222.661 94.54 222.33 94.54Z" fill="#003399"/>
<path d="M8.79004 0H2.29004V117.39H8.79004V0Z" fill="#217DD9"/>
<path d="M197.28 0H194.03V117.39H197.28V0Z" fill="#217DD9"/>
<path d="M197.28 0H2.29004V4.60999H197.28V0Z" fill="#217DD9"/>
<defs>
<linearGradient id="paint0_linear_424_1514" x1="239.64" y1="49.3701" x2="239.64" y2="92.2501" gradientUnits="userSpaceOnUse">
<stop stop-color="#EBF6FA"/>
<stop offset="0.57" stop-color="#BCE2ED"/>
</linearGradient>
</defs>
</svg>
