<svg width="48" height="48" viewBox="0 0 48 48" fill="none" xmlns="http://www.w3.org/2000/svg">
<path fill-rule="evenodd" clip-rule="evenodd" d="M16.871 33.044L15.998 44.704C15.936 45.524 16.665 46.087 17.316 45.722C21.929 43.138 36.378 33.648 43.702 12.79C44.038 11.833 43.135 10.97 42.365 11.51C38.039 14.54 28.585 20.8 22.742 21.994C22.742 21.994 26.484 19.394 28.723 15.406C28.8304 15.2144 28.8833 14.997 28.8757 14.7775C28.8681 14.558 28.8004 14.3447 28.68 14.161L20.513 2.389C20.029 1.692 19.035 1.981 18.861 2.87L16.318 15.807L4.38397 26.223C3.78597 26.745 3.90797 27.8 4.59897 28.079L16.871 33.044ZM37.975 28.448C37.219 29.503 35.591 31.672 34.088 32.998C33.788 33.263 33.828 33.707 34.172 33.923L42.115 38.909C42.593 39.209 43.238 38.853 43.158 38.333C42.788 35.95 41.724 30.982 39.033 28.374C38.733 28.084 38.215 28.114 37.975 28.448Z" fill="url(#paint0_linear_6_744)"/>
<defs>
<linearGradient id="paint0_linear_6_744" x1="3.99988" y1="23.9179" x2="43.7742" y2="23.9179" gradientUnits="userSpaceOnUse">
<stop stop-color="#7718F0"/>
<stop offset="1" stop-color="#187BF0"/>
</linearGradient>
</defs>
</svg>
