<svg width="334" height="125" viewBox="0 0 334 125" fill="none" xmlns="http://www.w3.org/2000/svg">
<path d="M310.67 85.2607L305.79 89.6207L249.47 90.2208H104.8L48.47 87.7407L32.3101 83.9907V33.4907H120.5L129.98 48.1307H301.8L310.67 85.2607Z" fill="#003366"/>
<path d="M12.3 55.7505L16.3801 40.4505C16.4601 40.1405 16.4901 39.8305 16.4901 39.5205H100.81C102.84 39.5205 105.31 39.5305 108.13 39.5505V90.2105H104.81V80.5505C104.81 70.9205 94.2501 60.5305 88.7501 59.0305C85.9001 58.2505 82.28 57.6605 76.65 57.6605C69.7 57.6605 67.06 58.2505 64.55 59.0305C59.1 60.7205 48.4901 70.9205 48.4901 80.5505V83.0005L5.29004 76.2705V58.2405H9.09003C10.61 58.2405 11.94 57.2205 12.33 55.7505H12.3Z" fill="#003399"/>
<path d="M308.6 44.0706C307.86 44.1606 307.36 44.9706 307.71 45.7006L311.76 54.1105C312.18 54.9905 313.05 55.5605 314.02 55.6105L326.79 56.2206L331 59.0206C332.14 59.7806 332.83 61.0606 332.83 62.4406V77.8005C332.83 79.1205 332.23 80.3605 331.2 81.1705L324.72 86.2905C323.97 86.8805 323.07 87.2606 322.13 87.3906L305.79 89.6105V79.7606C305.79 70.4606 295.23 60.4305 289.73 58.9805C286.88 58.2305 283.26 57.6606 277.63 57.6606C270.68 57.6606 268.04 58.2305 265.53 58.9805C260.08 60.6105 249.47 70.4606 249.47 79.7606V86.1406L234.19 83.9805H122.23L110.62 86.2305C110.21 84.2705 110 82.2806 110 80.2806V39.5605C143.29 39.8105 219.95 41.1505 247.45 41.9305C275.96 42.7405 304.96 43.9206 308.6 44.0706Z" fill="#003399"/>
<path d="M1.33008 110.161C1.33008 113.431 4.50012 116.07 167.38 116.07C348.55 116.07 333.43 113.421 333.43 110.161C333.43 106.901 325.91 104.25 167.38 104.25C6.44012 104.25 1.33008 106.901 1.33008 110.161Z" fill="#003366"/>
<path d="M122.23 83.9907H234.19L249.47 86.1508V90.2208H114.33C112.72 90.2208 111.32 89.1207 110.92 87.5607C110.81 87.1207 110.71 86.6807 110.62 86.2407L122.23 83.9907Z" fill="#003366"/>
<path d="M48.4697 83.0005V90.2205L8.57971 82.7205C6.65971 82.3605 5.25977 80.6805 5.25977 78.7205V76.2705L48.4597 83.0005H48.4697Z" fill="#003366"/>
<path d="M16.4901 39.5208C16.4601 37.7608 15.02 36.2507 13.15 36.2507H5.27002V32.7507C5.27002 31.3907 6.38005 30.2808 7.74005 30.2808H108.12V39.5507C105.3 39.5307 102.84 39.5208 100.8 39.5208H16.48H16.4901Z" fill="#217DD9"/>
<path d="M110.07 33.9206L112.34 5.69061C112.57 2.80061 114.93 0.530638 117.83 0.410638C127.21 0.0306384 145.22 -0.379371 170.28 0.650629C191.08 1.50063 203.06 3.69064 211.82 6.97064H208.52C208.52 6.97064 215.41 9.90064 223.85 15.4106C228.1 18.1806 239.68 27.0906 243.68 30.1906C244.58 30.8906 245.67 31.3106 246.81 31.4006L253.68 31.9606C264.2 34.1206 311.07 40.0506 317.84 42.4506C320.22 43.3006 322.01 45.1206 323.34 47.1706L308.99 44.0906C308.86 44.0606 308.73 44.0606 308.6 44.0706C304.96 43.9206 275.96 42.7406 247.45 41.9306C219.95 41.1506 143.28 39.8206 110 39.5606V35.8206C110 35.1806 110.03 34.5506 110.08 33.9206H110.07Z" fill="#217DD9"/>
<path d="M277.73 51.7407C270.09 51.7407 263.19 54.1707 258.3 58.0707C257.68 58.5707 256.83 57.8307 257.25 57.1607C260.7 51.5907 266.97 47.1707 277.73 47.1707C288.53 47.1707 294.36 51.8607 298.02 57.3407C298.38 57.8807 297.69 58.5007 297.18 58.0907C292.29 54.1807 285.39 51.7407 277.73 51.7407Z" fill="#217DD9"/>
<path d="M76.7299 51.7407C69.0899 51.7407 62.1899 54.1707 57.2999 58.0707C56.6799 58.5707 55.8299 57.8307 56.2499 57.1607C59.6999 51.5907 65.9699 47.1707 76.7299 47.1707C87.5299 47.1707 93.3599 51.8607 97.0199 57.3407C97.3799 57.8807 96.6899 58.5007 96.1799 58.0907C91.2899 54.1807 84.3899 51.7407 76.7299 51.7407Z" fill="#217DD9"/>
<path d="M179.95 42.1407C179.95 44.1007 181.22 45.6907 185.93 45.7107C191.1 45.7207 191.92 44.1407 191.93 42.1807C191.94 40.2207 190.8 38.6306 185.95 38.6106C181.09 38.6006 179.96 40.1807 179.95 42.1407Z" fill="#217DD9"/>
<path d="M177.689 41.6975L177.687 42.6475C177.686 42.9623 177.94 43.2182 178.255 43.2191L193.735 43.2623C194.05 43.2632 194.306 43.0087 194.307 42.6939L194.309 41.7439C194.31 41.4291 194.056 41.1732 193.741 41.1723L178.261 41.1291C177.946 41.1282 177.69 41.3827 177.689 41.6975Z" fill="#003399"/>
<path d="M122.42 42.1407C122.42 44.1007 123.69 45.6907 128.4 45.7107C133.57 45.7207 134.39 44.1407 134.4 42.1807C134.4 40.2207 133.27 38.6306 128.42 38.6106C123.57 38.6006 122.43 40.1807 122.42 42.1407Z" fill="#217DD9"/>
<path d="M120.159 41.6973L120.156 42.6473C120.155 42.9621 120.41 43.218 120.724 43.2189L136.204 43.2621C136.519 43.263 136.775 43.0085 136.776 42.6937L136.779 41.7437C136.779 41.4289 136.525 41.173 136.21 41.1721L120.73 41.1289C120.415 41.128 120.159 41.3825 120.159 41.6973Z" fill="#003399"/>
<path d="M128.03 5.9407C135.73 5.9607 150 5.64068 166.55 6.17068L168.51 33.3207L130.93 32.5007C127.33 32.4207 124.46 29.4807 124.46 25.8807V9.5007C124.46 7.5307 126.06 5.9407 128.03 5.9407Z" fill="white"/>
<path d="M196.9 8.17059C212.78 9.87059 239.53 34.8706 239.53 34.8706L181.02 33.5906L178.01 6.66064C184.2 7.00064 190.56 7.49059 196.9 8.17059Z" fill="white"/>
<path d="M178.01 6.66071L181.02 33.5907L168.51 33.3207L166.55 6.17065C170.27 6.29065 174.1 6.45065 178 6.67065L178.01 6.66071Z" fill="#003399"/>
<path d="M329.44 64.9607L321.36 65.6407C318.42 65.8907 315.9 67.8507 314.93 70.6407L311.41 80.7607L317.73 79.4307L329.44 64.9607Z" fill="#003366"/>
<path d="M246.81 31.4007C245.67 31.3107 244.58 30.8907 243.68 30.1907C239.68 27.1007 228.09 18.1907 223.85 15.4107C215.41 9.90071 208.52 6.9707 208.52 6.9707H211.82C217.76 9.1907 222.22 11.9107 226.95 15.0707C238.66 22.8807 245.46 29.8307 252.35 31.6607C252.69 31.7507 253.14 31.8507 253.68 31.9607L246.81 31.4007Z" fill="#99CCFF"/>
<path d="M311.76 54.1207L307.71 45.7107C307.3 44.8507 308.05 43.9007 308.98 44.1007L323.33 47.1807C325.97 51.2607 326.79 56.2407 326.79 56.2407L314.02 55.6307C313.05 55.5807 312.18 55.0107 311.76 54.1307V54.1207Z" fill="#99CCFF"/>
<path d="M2.12 64.8406H9.5C10.66 64.8406 11.67 65.6305 11.95 66.7505L14.99 78.9106C15.39 80.5206 14.17 82.0906 12.51 82.0906H2.38995C1.06995 82.0906 0 81.0206 0 79.7006V66.9606C0 65.7906 0.949995 64.8406 2.12 64.8406Z" fill="#003366"/>
<path d="M13.1497 36.2505C15.3397 36.2505 16.9398 38.3305 16.3798 40.4505L12.2997 55.7505C11.9097 57.2205 10.5798 58.2405 9.05975 58.2405H5.25977V36.2605H13.1397L13.1497 36.2505Z" fill="#FF0000"/>
<path d="M294.055 108.164C303.849 99.0944 304.437 83.8021 295.367 74.0077C286.297 64.2133 271.005 63.6259 261.211 72.6955C251.416 81.7652 250.829 97.0576 259.899 106.852C268.968 116.646 284.261 117.234 294.055 108.164Z" fill="#003399"/>
<path d="M287.919 101.538C294.055 95.8573 294.423 86.2782 288.741 80.1431C283.06 74.0079 273.481 73.6399 267.346 79.3212C261.211 85.0024 260.843 94.5814 266.524 100.717C272.205 106.852 281.784 107.22 287.919 101.538Z" fill="#003366"/>
<path d="M261.66 90.4204C261.66 81.6104 268.83 74.4504 277.64 74.4504C286.45 74.4504 293.62 81.6204 293.62 90.4204C293.62 99.2204 286.45 106.4 277.64 106.4C268.83 106.4 261.66 99.2304 261.66 90.4204ZM263.32 90.4204C263.32 98.3104 269.74 104.73 277.63 104.73C285.52 104.73 291.94 98.3104 291.94 90.4204C291.94 82.5304 285.52 76.1104 277.63 76.1104C269.74 76.1104 263.32 82.5304 263.32 90.4204Z" fill="#99CCFF"/>
<path d="M277.63 91.2504L279.84 75.3604L278.61 75.1904L277.63 82.1904L276.66 75.1904L275.42 75.3604L277.63 91.2504Z" fill="#99CCFF"/>
<path d="M277.14 91.0905L288.27 79.5404L287.37 78.6704L282.47 83.7604L285.79 77.5305L284.69 76.9404L277.14 91.0905Z" fill="#99CCFF"/>
<path d="M276.84 90.6806L292.63 87.8706L292.42 86.6406L285.46 87.8806L291.81 84.7906L291.27 83.6606L276.84 90.6806Z" fill="#99CCFF"/>
<path d="M291.27 97.1806L291.81 96.0506L285.46 92.9606L292.42 94.2006L292.63 92.9706L276.84 90.1606L291.27 97.1806Z" fill="#99CCFF"/>
<path d="M284.69 103.901L285.79 103.31L282.47 97.0805L287.37 102.17L288.27 101.3L277.14 89.7505L284.69 103.901Z" fill="#99CCFF"/>
<path d="M278.61 105.651L279.84 105.481L277.63 89.5906L275.42 105.481L276.66 105.651L277.63 98.6506L278.61 105.651Z" fill="#99CCFF"/>
<path d="M270.57 103.901L278.12 89.7505L266.99 101.3L267.89 102.17L272.79 97.0805L269.47 103.31L270.57 103.901Z" fill="#99CCFF"/>
<path d="M264 97.1806L278.42 90.1606L262.63 92.9706L262.85 94.2006L269.8 92.9606L263.45 96.0506L264 97.1806Z" fill="#99CCFF"/>
<path d="M278.42 90.6806L264 83.6606L263.45 84.7906L269.8 87.8706L262.85 86.6406L262.63 87.8706L278.42 90.6806Z" fill="#99CCFF"/>
<path d="M278.12 91.0905L270.57 76.9404L269.47 77.5305L272.79 83.7604L267.89 78.6704L266.99 79.5404L278.12 91.0905Z" fill="#99CCFF"/>
<path d="M273.93 90.4204C273.93 88.3804 275.59 86.7205 277.63 86.7205C279.67 86.7205 281.33 88.3804 281.33 90.4204C281.33 92.4604 279.67 94.1204 277.63 94.1204C275.59 94.1204 273.93 92.4604 273.93 90.4204Z" fill="#99CCFF"/>
<path d="M98.1065 101.428C104.216 89.5599 99.5484 74.9855 87.6801 68.8756C75.8117 62.7656 61.2375 67.4337 55.1275 79.302C49.0175 91.1704 53.6856 105.745 65.5539 111.855C77.4222 117.965 91.9965 113.296 98.1065 101.428Z" fill="#003399"/>
<path d="M90.1117 97.4548C93.9597 90.0312 91.0611 80.8938 83.6375 77.0458C76.214 73.1978 67.0766 76.0964 63.2286 83.5199C59.3806 90.9435 62.2792 100.081 69.7027 103.929C77.1263 107.777 86.2637 104.878 90.1117 97.4548Z" fill="#003366"/>
<path d="M60.6602 90.4207C60.6602 81.6107 67.8301 74.4507 76.6401 74.4507C85.4501 74.4507 92.6202 81.6207 92.6202 90.4207C92.6202 99.2307 85.4501 106.401 76.6401 106.401C67.8301 106.401 60.6602 99.2307 60.6602 90.4207ZM62.3301 90.4207C62.3301 98.3107 68.7501 104.731 76.6401 104.731C84.5301 104.731 90.9501 98.3107 90.9501 90.4207C90.9501 82.5307 84.5301 76.1107 76.6401 76.1107C68.7501 76.1107 62.3301 82.5307 62.3301 90.4207Z" fill="#99CCFF"/>
<path d="M76.6399 91.2507L78.8499 75.3607L77.6099 75.1907L76.6399 82.1907L75.6599 75.1907L74.4199 75.3607L76.6399 91.2507Z" fill="#99CCFF"/>
<path d="M76.1499 91.0907L87.2799 79.5406L86.3799 78.6707L81.4799 83.7607L84.7999 77.5307L83.6999 76.9407L76.1499 91.0907Z" fill="#99CCFF"/>
<path d="M75.8501 90.6806L91.6401 87.8706L91.4201 86.6406L84.4701 87.8806L90.8201 84.7906L90.2701 83.6606L75.8501 90.6806Z" fill="#99CCFF"/>
<path d="M90.2701 97.1806L90.8201 96.0506L84.4701 92.9606L91.4201 94.2006L91.6401 92.9706L75.8501 90.1606L90.2701 97.1806Z" fill="#99CCFF"/>
<path d="M83.6999 103.901L84.7999 103.31L81.4799 97.0805L86.3799 102.17L87.2799 101.3L76.1499 89.7505L83.6999 103.901Z" fill="#99CCFF"/>
<path d="M77.6099 105.651L78.8499 105.481L76.6399 89.5906L74.4199 105.481L75.6599 105.651L76.6399 98.6506L77.6099 105.651Z" fill="#99CCFF"/>
<path d="M69.58 103.901L77.12 89.7505L66 101.3L66.9 102.17L71.8 97.0805L68.47 103.31L69.58 103.901Z" fill="#99CCFF"/>
<path d="M62.9999 97.1806L77.4199 90.1606L61.6299 92.9706L61.8499 94.2006L68.8099 92.9606L62.4498 96.0506L62.9999 97.1806Z" fill="#99CCFF"/>
<path d="M77.4299 90.6806L62.9999 83.6606L62.4498 84.7906L68.8099 87.8706L61.8499 86.6406L61.6299 87.8706L77.4299 90.6806Z" fill="#99CCFF"/>
<path d="M77.12 91.0907L69.58 76.9407L68.47 77.5307L71.8 83.7607L66.9 78.6707L66 79.5406L77.12 91.0907Z" fill="#99CCFF"/>
<path d="M72.9297 90.4207C72.9297 88.3807 74.5897 86.7207 76.6297 86.7207C78.6697 86.7207 80.3297 88.3807 80.3297 90.4207C80.3297 92.4607 78.6697 94.1207 76.6297 94.1207C74.5897 94.1207 72.9297 92.4607 72.9297 90.4207Z" fill="#99CCFF"/>
<path d="M249.47 61.8506H113.74V63.2006H249.47V61.8506Z" fill="#217DD9"/>
<path d="M48.47 61.8506H5.27002V63.2006H48.47V61.8506Z" fill="#217DD9"/>
<path d="M233.46 33.6005C233.46 36.2105 231.71 35.6406 231.91 36.5206C232.14 37.5206 232.46 38.0106 232.46 38.0106L228.89 37.5506V36.4006C228.89 36.4006 221.43 36.8906 221.43 31.0206C221.43 25.1506 221.68 22.5506 225.32 22.5306C233.25 22.5006 233.47 30.4506 233.47 33.5906L233.46 33.6005Z" fill="#3399FF"/>
</svg>
