<svg width="232" height="169" viewBox="0 0 232 169" fill="none" xmlns="http://www.w3.org/2000/svg">
<g clip-path="url(#clip0_64_5948)">
<path d="M232 151.937H0V152.053H232V151.937Z" fill="#EBEBEB"/>
<path d="M201.279 156.874H185.911V156.99H201.279V156.874Z" fill="#EBEBEB"/>
<path d="M145.264 156.813H141.232V156.929H145.264V156.813Z" fill="#EBEBEB"/>
<path d="M208.754 159.403H199.849V159.519H208.754V159.403Z" fill="#EBEBEB"/>
<path d="M53.1744 160.938H33.1343V161.054H53.1744V160.938Z" fill="#EBEBEB"/>
<path d="M51.453 155.876H48.5159V155.992H51.453V155.876Z" fill="#EBEBEB"/>
<path d="M115.281 156.368H87.0232V156.484H115.281V156.368Z" fill="#EBEBEB"/>
<path d="M109.973 131.242H20.3788C18.9172 131.242 17.7294 130.055 17.7294 128.593V2.64944C17.7294 1.18784 18.9172 0 20.3788 0H109.977C111.439 0 112.627 1.18784 112.627 2.64944V128.593C112.622 130.055 111.434 131.242 109.973 131.242ZM20.3788 0.116C18.9822 0.116 17.8454 1.2528 17.8454 2.64944V128.593C17.8454 129.99 18.9822 131.126 20.3788 131.126H109.977C111.374 131.126 112.511 129.99 112.511 128.593V2.64944C112.511 1.2528 111.374 0.116 109.977 0.116H20.3788Z" fill="#EBEBEB"/>
<path d="M210.336 131.242H120.737C119.276 131.242 118.088 130.055 118.088 128.593V2.64944C118.088 1.18784 119.276 0 120.737 0H210.336C211.797 0 212.985 1.18784 212.985 2.64944V128.593C212.985 130.055 211.797 131.242 210.336 131.242ZM120.737 0.116C119.341 0.116 118.204 1.2528 118.204 2.64944V128.593C118.204 129.99 119.341 131.126 120.737 131.126H210.336C211.732 131.126 212.869 129.99 212.869 128.593V2.64944C212.869 1.2528 211.732 0.116 210.336 0.116H120.737Z" fill="#EBEBEB"/>
<path d="M58.6588 42.0152C66.7336 42.0152 73.2795 35.4693 73.2795 27.3946C73.2795 19.3198 66.7336 12.7739 58.6588 12.7739C50.5841 12.7739 44.0382 19.3198 44.0382 27.3946C44.0382 35.4693 50.5841 42.0152 58.6588 42.0152Z" fill="#F5F5F5"/>
<path d="M97.0178 30.2528C100.127 28.0952 104.549 26.6243 108.59 26.6243C113.838 26.6243 116.673 29.1021 115.49 32.3594C116.501 32.0902 117.55 31.9418 118.557 31.9418C122.134 31.9418 123.874 33.8256 122.445 36.1456C122.31 36.3637 122.153 36.5771 121.976 36.7859H86.7449C86.8052 36.308 87.0001 35.7976 87.3249 35.2686C88.8839 32.7352 93.0414 30.6379 97.0178 30.2528Z" fill="#EBEBEB"/>
<path d="M143.525 48.4509C146.346 46.4928 150.359 45.1565 154.025 45.1565C158.785 45.1565 161.356 47.4069 160.284 50.3626C161.203 50.1213 162.154 49.9867 163.068 49.9867C166.316 49.9867 167.894 51.6943 166.595 53.8008C166.474 53.9957 166.33 54.1952 166.168 54.3808H134.198C134.254 53.9447 134.43 53.4853 134.722 53.0074C136.142 50.7059 139.915 48.7989 143.525 48.4509Z" fill="#F5F5F5"/>
<path d="M50.6225 62.9416C50.3023 61.3965 48.437 60.3432 45.5463 60.3432C41.7926 60.3432 37.5794 62.1157 35.5518 64.445C35.0646 64.2547 34.4428 64.148 33.7236 64.148C31.1623 64.148 28.2577 65.4936 27.2369 67.1547C27.1394 67.3078 27.0652 67.4656 27.0095 67.6141H52.2186C52.5945 67.2707 52.91 66.9088 53.142 66.5283C54.2556 64.7187 53.1327 63.2154 50.6225 62.9416Z" fill="#F5F5F5"/>
<path d="M201.075 58.5614C200.87 57.5778 199.682 56.905 197.84 56.905C195.446 56.905 192.76 58.0371 191.47 59.5219C191.159 59.4013 190.764 59.3317 190.305 59.3317C188.672 59.3317 186.82 60.1901 186.171 61.248C186.111 61.3454 186.059 61.4475 186.022 61.5403H202.091C202.332 61.3223 202.531 61.0902 202.68 60.849C203.39 59.6936 202.671 58.7331 201.075 58.5614Z" fill="#F5F5F5"/>
<path d="M174.705 24.7915C174.886 24.7915 175.058 24.8008 175.22 24.8147C176.854 23.5619 179.331 22.685 181.582 22.685C182.185 22.685 182.728 22.7453 183.201 22.8659C185.405 21.2698 188.621 20.1701 191.553 20.1701C195.131 20.1701 197.117 21.8034 196.495 23.9888C198.393 24.2718 199.214 25.4643 198.337 26.8888C198.244 27.0419 198.128 27.195 198.007 27.3389H169.239L169.249 27.3203C170.107 25.9237 172.552 24.7915 174.705 24.7915Z" fill="#EBEBEB"/>
<path d="M108.539 150.058L114.752 148.373L119.03 143.91L134.611 137.771L140.889 131.085L169.365 128.24L177.851 132.732L195.33 138.318L205.538 138.908L216.776 151.937H105.931L108.539 150.058Z" fill="#EBEBEB"/>
<path d="M125.767 147.728L119.554 143.965L115.276 133.961L99.695 120.227L93.4171 105.254L64.9414 98.8831L56.4549 108.943L38.976 121.447L28.768 122.77L17.5299 151.937H128.375L125.767 147.728Z" fill="#F5F5F5"/>
<path d="M80.9633 162.205L82.759 161.184L85.0558 159.236L88.7539 160.683L90.6006 163.843L91.2456 165.681H79.3997L79.6085 163.913L80.9633 162.205Z" fill="#407BFF"/>
<g opacity="0.1">
<path d="M80.9633 162.205L82.759 161.184L85.0558 159.236L88.7539 160.683L90.6006 163.843L91.2456 165.681H79.3997L79.6085 163.913L80.9633 162.205Z" fill="black"/>
</g>
<path d="M76.5831 156.192L70.2449 152.907L62.1388 146.647L49.0865 151.292L42.558 161.449L40.2844 167.356H82.114L81.367 161.676L76.5831 156.192Z" fill="#407BFF"/>
<path opacity="0.4" d="M49.0865 151.292L58.6589 154.549L62.1389 146.647L49.0865 151.292Z" fill="white"/>
<path opacity="0.05" d="M49.0866 151.292L58.6589 154.549L42.5581 161.449L49.0866 151.292Z" fill="black"/>
<path opacity="0.05" d="M69.9711 160.238L58.6588 154.549L71.3028 155.913L69.9711 160.238Z" fill="black"/>
<path opacity="0.4" d="M70.2449 152.907L71.3028 155.913L76.5831 156.192L70.2449 152.907Z" fill="white"/>
<path d="M48.1353 165.462L50.2975 164.572L53.0676 162.873L57.522 164.131L59.7539 166.887L60.5287 168.492H46.2468L46.502 166.952L48.1353 165.462Z" fill="#407BFF"/>
<g opacity="0.1">
<path d="M48.1353 165.462L50.2975 164.572L53.0676 162.873L57.522 164.131L59.7539 166.887L60.5287 168.492H46.2468L46.502 166.952L48.1353 165.462Z" fill="black"/>
</g>
<path d="M123.934 102.665C129.813 94.475 135.567 90.6331 137.938 81.2649C146.642 79.3904 163.908 85.4085 168.506 75.4417L155.175 64.6491C155.175 64.6491 131.832 66.468 128.514 73.4326C127.141 76.3141 123.637 84.4294 119.118 93.9925C117.48 97.4539 114.849 101.88 114.153 104.451L119.916 109.026C121.953 105.834 122.733 104.344 123.934 102.665Z" fill="#407BFF"/>
<path opacity="0.2" d="M123.934 102.665C129.813 94.475 135.567 90.6331 137.938 81.2649C146.642 79.3904 163.908 85.4085 168.506 75.4417L155.175 64.6491C155.175 64.6491 131.832 66.468 128.514 73.4326C127.141 76.3141 123.637 84.4294 119.118 93.9925C117.48 97.4539 114.849 101.88 114.153 104.451L119.916 109.026C121.953 105.834 122.733 104.344 123.934 102.665Z" fill="white"/>
<path d="M119.554 113.392L119.137 112.998L105.435 105.249C104.743 105.449 104.303 107.077 106.159 108.08C108.015 109.077 110.915 110.553 112.822 111.583C114.687 112.59 116.311 113.55 118.107 114.52C118.626 114.798 119.429 114.255 119.554 113.392Z" fill="#407BFF"/>
<path opacity="0.3" d="M119.554 113.392L119.137 112.998L105.435 105.249C104.743 105.449 104.303 107.077 106.159 108.08C108.015 109.077 110.915 110.553 112.822 111.583C114.687 112.59 116.311 113.55 118.107 114.52C118.626 114.798 119.429 114.255 119.554 113.392Z" fill="black"/>
<path d="M122.677 108.177C122.134 110 120.747 112.627 119.675 113.392C119.485 113.75 119.169 113.596 118.803 113.402C116.826 112.334 114.599 111.049 112.706 109.991C110.492 108.752 108.957 108.191 106.358 106.739C104.79 105.862 105.291 104.753 106.135 104.729C108.595 104.664 111.193 105.667 114.102 104.906C114.919 102.618 117.791 94.243 119.564 91.7745C119.721 91.5565 119.99 91.4405 120.26 91.4776C124.069 92.0297 127.878 94.7766 129.247 95.8485C129.553 96.0897 129.623 96.5166 129.414 96.8414C128.022 98.9805 123.099 106.613 122.677 108.177Z" fill="#263238"/>
<path d="M133.623 69.3309C130.834 69.6186 127.284 72.565 126.686 77.4834C129.642 76.6528 131.572 75.4928 132.217 74.639C133.586 72.8062 133.623 69.3309 133.623 69.3309Z" fill="#263238"/>
<path d="M157.004 45.7458C156.799 46.117 156.646 46.3907 156.465 46.6923C156.294 46.9893 156.108 47.2723 155.932 47.56C155.575 48.1307 155.189 48.6829 154.809 49.235C154.034 50.3301 153.217 51.3926 152.34 52.4134C151.909 52.9285 151.454 53.425 151.004 53.9261C150.531 54.4133 150.076 54.9051 149.58 55.3738C148.628 56.3342 147.571 57.2158 146.503 58.0789L146.271 58.2645C145.979 58.5011 145.636 58.6589 145.288 58.7378C143.993 59.0254 142.694 59.2389 141.413 59.3224C140.133 59.4245 138.861 59.4198 137.608 59.3502C136.356 59.2714 135.117 59.1275 133.896 58.9002C133.289 58.7842 132.681 58.6542 132.078 58.5011C131.465 58.3434 130.899 58.1763 130.249 57.9536C129.317 57.6381 128.82 56.6266 129.136 55.6939C129.382 54.9747 130.036 54.5154 130.751 54.4875L130.918 54.4829C131.405 54.4643 131.994 54.4504 132.532 54.4226C133.084 54.404 133.637 54.3622 134.184 54.3251C135.279 54.2462 136.365 54.1302 137.432 53.9771C138.499 53.8426 139.543 53.6291 140.555 53.4018C141.576 53.1837 142.541 52.8542 143.487 52.5434L142.276 53.2022C143.084 52.3856 143.877 51.5597 144.633 50.6781C145.39 49.8011 146.123 48.8963 146.833 47.9637C147.538 47.0264 148.234 46.0845 148.893 45.1147C149.227 44.6322 149.547 44.1403 149.867 43.6578L150.336 42.9293L150.763 42.2565L150.856 42.1126C151.909 40.4469 154.118 39.9504 155.779 41.0083C157.384 42.0291 157.899 44.1078 157.004 45.7458Z" fill="#407BFF"/>
<path opacity="0.2" d="M157.004 45.7458C156.799 46.117 156.646 46.3907 156.465 46.6923C156.294 46.9893 156.108 47.2723 155.932 47.56C155.575 48.1307 155.189 48.6829 154.809 49.235C154.034 50.3301 153.217 51.3926 152.34 52.4134C151.909 52.9285 151.454 53.425 151.004 53.9261C150.531 54.4133 150.076 54.9051 149.58 55.3738C148.628 56.3342 147.571 57.2158 146.503 58.0789L146.271 58.2645C145.979 58.5011 145.636 58.6589 145.288 58.7378C143.993 59.0254 142.694 59.2389 141.413 59.3224C140.133 59.4245 138.861 59.4198 137.608 59.3502C136.356 59.2714 135.117 59.1275 133.896 58.9002C133.289 58.7842 132.681 58.6542 132.078 58.5011C131.465 58.3434 130.899 58.1763 130.249 57.9536C129.317 57.6381 128.82 56.6266 129.136 55.6939C129.382 54.9747 130.036 54.5154 130.751 54.4875L130.918 54.4829C131.405 54.4643 131.994 54.4504 132.532 54.4226C133.084 54.404 133.637 54.3622 134.184 54.3251C135.279 54.2462 136.365 54.1302 137.432 53.9771C138.499 53.8426 139.543 53.6291 140.555 53.4018C141.576 53.1837 142.541 52.8542 143.487 52.5434L142.276 53.2022C143.084 52.3856 143.877 51.5597 144.633 50.6781C145.39 49.8011 146.123 48.8963 146.833 47.9637C147.538 47.0264 148.234 46.0845 148.893 45.1147C149.227 44.6322 149.547 44.1403 149.867 43.6578L150.336 42.9293L150.763 42.2565L150.856 42.1126C151.909 40.4469 154.118 39.9504 155.779 41.0083C157.384 42.0291 157.899 44.1078 157.004 45.7458Z" fill="black"/>
<path d="M134.755 53.6848C134.755 53.6848 136.161 58.2181 134.954 59.7771C130.152 58.8862 126.055 57.3782 126.055 57.3782C126.055 57.3782 124.621 59.7214 121.545 57.6752C118.468 55.629 121.531 53.3229 123.939 53.1651C126.343 53.0074 134.755 53.6848 134.755 53.6848Z" fill="black"/>
<path d="M102.145 97.0131C102.145 97.0131 108.13 79.0053 95.7927 67.5955C84.2901 56.9606 68.6023 61.3454 65.2383 62.459C64.8996 62.5704 64.83 63.0298 65.1269 63.2293C66.0874 63.8696 68.1197 64.6259 69.7577 64.6213C69.7577 64.6213 84.6706 59.0672 95.6953 74.0962C99.6439 79.4786 100.567 92.6283 100.428 93.8115C100.934 95.6118 102.145 97.0131 102.145 97.0131Z" fill="#407BFF"/>
<path d="M116.255 71.9432C115.285 69.1407 114.487 66.3799 114.093 64.9693C113.958 64.4821 113.397 64.2501 112.956 64.5007L100.869 71.3679C100.456 71.6045 100.345 72.152 100.642 72.5279L102.075 74.356C102.331 74.6808 102.79 74.7504 103.129 74.5184C103.588 74.2029 104.214 74.4581 104.33 75.001L104.873 77.5391C104.98 78.0448 105.541 78.3047 105.996 78.068L115.879 72.8944C116.223 72.7135 116.381 72.3098 116.255 71.9432Z" fill="#407BFF"/>
<path opacity="0.3" d="M116.255 71.9432C115.285 69.1407 114.487 66.3799 114.093 64.9693C113.958 64.4821 113.397 64.2501 112.956 64.5007L100.869 71.3679C100.456 71.6045 100.345 72.152 100.642 72.5279L102.075 74.356C102.331 74.6808 102.79 74.7504 103.129 74.5184C103.588 74.2029 104.214 74.4581 104.33 75.001L104.873 77.5391C104.98 78.0448 105.541 78.3047 105.996 78.068L115.879 72.8944C116.223 72.7135 116.381 72.3098 116.255 71.9432Z" fill="black"/>
<path d="M134.959 125.526L134.625 122.76C137.288 122.44 139.302 121.373 140.597 119.582C142.091 117.527 142.272 115.007 141.942 113.337L144.675 112.798C145.25 115.708 144.568 118.858 142.852 121.22C141.102 123.624 138.374 125.113 134.959 125.526Z" fill="#E0E0E0"/>
<path d="M165.926 124.347C176.097 128.913 180.645 140.861 176.074 151.037C171.504 161.212 159.556 165.75 149.385 161.184C139.209 156.614 134.662 144.671 139.233 134.495C143.803 124.315 155.751 119.777 165.926 124.347ZM151.96 155.449C158.962 158.595 167.198 155.468 170.344 148.461C173.49 141.455 170.358 133.219 163.356 130.073C156.349 126.927 148.113 130.059 144.968 137.066C141.817 144.072 144.954 152.303 151.96 155.449Z" fill="#F0F0F0"/>
<path d="M167.411 121.039C179.406 126.426 184.769 140.518 179.378 152.517C173.991 164.516 159.894 169.87 147.9 164.488C135.901 159.101 130.537 145.005 135.924 133.006C141.316 121.007 155.412 115.652 167.411 121.039ZM150.939 157.728C159.203 161.44 168.914 157.746 172.622 149.482C176.334 141.218 172.645 131.502 164.381 127.795C156.113 124.083 146.401 127.776 142.689 136.04C138.977 144.304 142.666 154.016 150.939 157.728Z" fill="#263238"/>
<path d="M157.509 166.836C157.254 166.836 157.045 166.627 157.05 166.372C157.05 166.117 157.259 165.908 157.514 165.908C157.774 165.912 157.978 166.121 157.978 166.376C157.973 166.632 157.769 166.836 157.509 166.836ZM159.843 166.274C159.816 166.019 159.997 165.792 160.252 165.759C160.507 165.732 160.734 165.917 160.767 166.172C160.795 166.423 160.609 166.655 160.358 166.683C160.34 166.687 160.321 166.687 160.303 166.687C160.071 166.687 159.871 166.511 159.843 166.274ZM154.665 166.65C154.41 166.618 154.229 166.386 154.261 166.135C154.294 165.88 154.526 165.699 154.781 165.732C155.036 165.764 155.217 165.996 155.185 166.251C155.152 166.483 154.953 166.655 154.725 166.655C154.702 166.655 154.684 166.655 154.665 166.65ZM162.604 165.848C162.549 165.602 162.702 165.351 162.952 165.291C163.203 165.23 163.453 165.388 163.509 165.634C163.569 165.885 163.416 166.135 163.166 166.196C163.129 166.205 163.091 166.205 163.059 166.205C162.85 166.205 162.655 166.061 162.604 165.848ZM151.863 166.131C151.612 166.066 151.464 165.815 151.524 165.564C151.589 165.319 151.839 165.165 152.085 165.23C152.336 165.291 152.489 165.541 152.424 165.792C152.373 166.001 152.183 166.144 151.974 166.144C151.937 166.144 151.9 166.14 151.863 166.131ZM165.3 165.1C165.212 164.859 165.337 164.595 165.578 164.507C165.82 164.418 166.084 164.544 166.172 164.785C166.261 165.022 166.135 165.291 165.894 165.379C165.843 165.397 165.792 165.407 165.736 165.407C165.546 165.407 165.37 165.291 165.3 165.1ZM149.144 165.277C148.902 165.184 148.782 164.92 148.874 164.678C148.963 164.437 149.232 164.321 149.473 164.409C149.71 164.502 149.83 164.766 149.742 165.008C149.673 165.193 149.496 165.309 149.306 165.309C149.25 165.309 149.195 165.295 149.144 165.277ZM167.889 164.043C167.773 163.811 167.866 163.532 168.093 163.416C168.321 163.3 168.599 163.393 168.715 163.625C168.831 163.852 168.738 164.131 168.511 164.247C168.446 164.279 168.372 164.298 168.302 164.298C168.135 164.298 167.968 164.205 167.889 164.043ZM146.541 164.112C146.313 163.996 146.225 163.713 146.341 163.486C146.462 163.258 146.74 163.17 146.967 163.291C147.195 163.407 147.283 163.685 147.167 163.913C147.083 164.075 146.921 164.163 146.754 164.163C146.684 164.163 146.61 164.149 146.541 164.112ZM170.334 162.683C170.191 162.47 170.251 162.182 170.464 162.043C170.678 161.899 170.965 161.959 171.109 162.173C171.249 162.386 171.188 162.674 170.975 162.813C170.896 162.864 170.808 162.892 170.72 162.892C170.571 162.892 170.423 162.818 170.334 162.683ZM144.095 162.651C143.882 162.507 143.826 162.219 143.97 162.006C144.114 161.797 144.401 161.741 144.615 161.885C144.828 162.029 144.884 162.316 144.74 162.53C144.647 162.66 144.504 162.734 144.355 162.734C144.262 162.734 144.174 162.706 144.095 162.651ZM172.603 161.045C172.436 160.85 172.46 160.558 172.654 160.391C172.849 160.229 173.142 160.252 173.309 160.447C173.476 160.641 173.453 160.934 173.258 161.101C173.169 161.175 173.063 161.212 172.956 161.212C172.826 161.212 172.692 161.156 172.603 161.045ZM141.836 160.911C141.641 160.744 141.622 160.451 141.789 160.256C141.956 160.061 142.253 160.043 142.443 160.21C142.638 160.377 142.657 160.674 142.49 160.864C142.397 160.971 142.267 161.022 142.137 161.022C142.03 161.022 141.924 160.985 141.836 160.911ZM174.659 159.152C174.473 158.98 174.459 158.683 174.636 158.498C174.807 158.308 175.104 158.298 175.29 158.47C175.48 158.646 175.489 158.939 175.313 159.129C175.313 159.129 175.313 159.129 175.318 159.129C175.225 159.226 175.1 159.277 174.974 159.277C174.863 159.277 174.747 159.236 174.659 159.152ZM139.799 158.911C139.627 158.721 139.641 158.428 139.831 158.257C140.021 158.085 140.318 158.099 140.49 158.289C140.662 158.479 140.643 158.772 140.453 158.943C140.365 159.027 140.253 159.064 140.142 159.064C140.017 159.064 139.891 159.013 139.799 158.911ZM176.478 157.027C176.269 156.874 176.223 156.586 176.376 156.377C176.524 156.168 176.817 156.122 177.021 156.275C177.229 156.424 177.276 156.716 177.127 156.92C177.035 157.045 176.891 157.115 176.752 157.115C176.654 157.115 176.561 157.087 176.478 157.027ZM138.017 156.688C137.868 156.479 137.919 156.187 138.128 156.039C138.337 155.89 138.625 155.941 138.773 156.15C138.922 156.359 138.871 156.651 138.662 156.795C138.583 156.855 138.49 156.883 138.397 156.883C138.249 156.883 138.11 156.813 138.017 156.688ZM178.028 154.698C177.805 154.572 177.726 154.294 177.851 154.067C177.977 153.844 178.255 153.765 178.482 153.89C178.705 154.016 178.784 154.299 178.659 154.521C178.575 154.674 178.417 154.758 178.255 154.758C178.176 154.758 178.102 154.739 178.028 154.698ZM136.509 154.266C136.388 154.039 136.472 153.76 136.694 153.635C136.922 153.514 137.205 153.598 137.325 153.821C137.446 154.048 137.363 154.331 137.14 154.452C137.07 154.489 136.991 154.507 136.917 154.507C136.755 154.507 136.592 154.419 136.509 154.266ZM179.294 152.206C179.058 152.108 178.946 151.835 179.044 151.598C179.141 151.361 179.41 151.25 179.652 151.348C179.888 151.445 180 151.719 179.902 151.955C179.828 152.132 179.656 152.243 179.471 152.243C179.41 152.243 179.355 152.229 179.294 152.206ZM135.298 151.686C135.205 151.445 135.321 151.176 135.558 151.083C135.794 150.986 136.068 151.102 136.161 151.343C136.258 151.58 136.142 151.849 135.901 151.941C135.845 151.965 135.79 151.979 135.729 151.979C135.548 151.979 135.372 151.867 135.298 151.686ZM180.264 149.584C180.013 149.515 179.87 149.255 179.939 149.009C180.009 148.763 180.264 148.619 180.515 148.689C180.761 148.758 180.904 149.014 180.835 149.26C180.774 149.468 180.589 149.598 180.389 149.598C180.348 149.598 180.306 149.594 180.264 149.584ZM134.402 148.981C134.333 148.731 134.481 148.48 134.727 148.41C134.978 148.345 135.228 148.494 135.298 148.74C135.363 148.986 135.214 149.241 134.968 149.311C134.927 149.32 134.889 149.324 134.848 149.324C134.644 149.324 134.453 149.19 134.402 148.981ZM180.914 146.865C180.658 146.824 180.487 146.587 180.524 146.332C180.566 146.081 180.802 145.905 181.057 145.947C181.308 145.988 181.48 146.225 181.443 146.476C181.405 146.708 181.211 146.87 180.983 146.87C180.96 146.87 180.937 146.865 180.914 146.865ZM133.827 146.188C133.79 145.933 133.966 145.701 134.217 145.664C134.472 145.626 134.709 145.803 134.746 146.058C134.783 146.308 134.606 146.545 134.351 146.582C134.328 146.587 134.305 146.587 134.286 146.587C134.059 146.587 133.859 146.42 133.827 146.188ZM181.234 144.086C180.979 144.077 180.779 143.863 180.788 143.603C180.798 143.348 181.011 143.149 181.266 143.158C181.521 143.167 181.721 143.381 181.716 143.641C181.707 143.891 181.498 144.086 181.252 144.086C181.248 144.086 181.238 144.086 181.234 144.086ZM133.586 143.348C133.576 143.093 133.781 142.88 134.036 142.875C134.296 142.866 134.504 143.07 134.514 143.325C134.518 143.58 134.319 143.794 134.059 143.803C134.054 143.803 134.054 143.803 134.05 143.803C133.799 143.803 133.59 143.603 133.586 143.348ZM180.723 140.866C180.7 140.611 180.89 140.383 181.146 140.365C181.401 140.341 181.628 140.532 181.647 140.787C181.67 141.042 181.48 141.269 181.225 141.288C181.211 141.288 181.197 141.293 181.183 141.293C180.946 141.293 180.742 141.107 180.723 140.866ZM134.101 141.005C133.845 140.982 133.66 140.754 133.683 140.499C133.706 140.244 133.934 140.058 134.189 140.082C134.444 140.105 134.63 140.332 134.606 140.587C134.583 140.829 134.384 141.01 134.147 141.01C134.133 141.01 134.115 141.005 134.101 141.005ZM180.334 138.151C180.283 137.901 180.445 137.655 180.696 137.604C180.946 137.553 181.192 137.715 181.243 137.966C181.294 138.216 181.132 138.462 180.881 138.513C180.849 138.523 180.821 138.523 180.788 138.523C180.57 138.523 180.38 138.374 180.334 138.151ZM134.477 138.235C134.226 138.179 134.068 137.933 134.119 137.683C134.175 137.432 134.421 137.274 134.671 137.325C134.922 137.381 135.08 137.627 135.029 137.878C134.982 138.096 134.787 138.244 134.574 138.244C134.541 138.244 134.509 138.24 134.477 138.235ZM179.628 135.507C179.549 135.261 179.679 135.001 179.925 134.917C180.167 134.838 180.426 134.968 180.51 135.214C180.589 135.456 180.459 135.72 180.213 135.799C180.167 135.817 180.116 135.822 180.069 135.822C179.874 135.822 179.693 135.701 179.628 135.507ZM135.177 135.525C134.936 135.442 134.806 135.182 134.889 134.936C134.973 134.695 135.237 134.565 135.479 134.648C135.72 134.732 135.85 134.996 135.766 135.242C135.701 135.432 135.521 135.553 135.33 135.553C135.279 135.553 135.228 135.544 135.177 135.525ZM178.617 132.959C178.505 132.727 178.608 132.449 178.84 132.342C179.072 132.231 179.345 132.333 179.457 132.565C179.563 132.797 179.466 133.071 179.234 133.182C179.169 133.21 179.104 133.224 179.034 133.224C178.863 133.224 178.696 133.126 178.617 132.959ZM136.193 132.922C135.961 132.811 135.864 132.532 135.975 132.3C136.087 132.073 136.365 131.976 136.592 132.087C136.824 132.198 136.922 132.477 136.81 132.704C136.732 132.871 136.565 132.969 136.393 132.969C136.323 132.969 136.258 132.955 136.193 132.922ZM177.308 130.546C177.174 130.328 177.243 130.041 177.461 129.906C177.68 129.772 177.963 129.841 178.097 130.059C178.236 130.273 178.167 130.56 177.949 130.695C177.874 130.741 177.791 130.765 177.707 130.765C177.55 130.765 177.397 130.686 177.308 130.546ZM137.502 130.454C137.288 130.314 137.223 130.027 137.363 129.813C137.497 129.595 137.785 129.53 138.003 129.669C138.216 129.809 138.281 130.092 138.142 130.31C138.054 130.449 137.905 130.523 137.752 130.523C137.669 130.523 137.581 130.5 137.502 130.454ZM175.731 128.305C175.568 128.106 175.601 127.813 175.805 127.656C176.005 127.493 176.297 127.526 176.455 127.73C176.617 127.929 176.585 128.222 176.38 128.38C176.297 128.449 176.195 128.482 176.093 128.482C175.958 128.482 175.824 128.421 175.731 128.305ZM139.098 128.152C138.898 127.99 138.871 127.697 139.033 127.503C139.195 127.303 139.488 127.275 139.687 127.438C139.882 127.6 139.915 127.892 139.752 128.087C139.659 128.199 139.525 128.259 139.39 128.259C139.288 128.259 139.186 128.226 139.098 128.152ZM173.893 126.268C173.712 126.092 173.712 125.795 173.889 125.614C174.07 125.433 174.362 125.428 174.548 125.609C174.729 125.79 174.729 126.083 174.552 126.264C174.459 126.356 174.339 126.403 174.218 126.403C174.102 126.403 173.986 126.361 173.893 126.268ZM140.954 126.06C140.778 125.879 140.782 125.582 140.968 125.405C141.153 125.229 141.446 125.234 141.627 125.419C141.803 125.605 141.798 125.897 141.613 126.073C141.52 126.162 141.404 126.203 141.288 126.203C141.167 126.203 141.047 126.157 140.954 126.06ZM171.829 124.468C171.629 124.31 171.592 124.018 171.745 123.814C171.903 123.614 172.195 123.577 172.399 123.73C172.599 123.888 172.636 124.18 172.483 124.385C172.39 124.501 172.251 124.565 172.112 124.565C172.014 124.565 171.912 124.533 171.829 124.468ZM143.047 124.208C142.893 123.999 142.935 123.712 143.139 123.554C143.344 123.401 143.636 123.443 143.789 123.647C143.942 123.851 143.9 124.143 143.696 124.296C143.613 124.361 143.515 124.389 143.418 124.389C143.279 124.389 143.139 124.329 143.047 124.208ZM169.569 122.923C169.346 122.793 169.277 122.505 169.406 122.287C169.536 122.064 169.824 121.995 170.042 122.125C170.265 122.259 170.334 122.542 170.205 122.761C170.116 122.909 169.963 122.988 169.805 122.988C169.722 122.988 169.643 122.965 169.569 122.923ZM145.348 122.612C145.218 122.389 145.292 122.106 145.515 121.976C145.733 121.846 146.021 121.925 146.146 122.143C146.276 122.366 146.202 122.649 145.979 122.779C145.909 122.821 145.826 122.844 145.747 122.844C145.589 122.844 145.432 122.76 145.348 122.612ZM167.137 121.656C167.124 121.652 167.114 121.647 167.105 121.642C167.096 121.638 167.086 121.633 167.073 121.628C166.841 121.522 166.734 121.248 166.841 121.016C166.943 120.779 167.216 120.677 167.453 120.779C167.462 120.784 167.476 120.788 167.485 120.798C167.495 120.798 167.504 120.802 167.513 120.807C167.513 120.807 167.513 120.807 167.518 120.807C167.75 120.914 167.852 121.188 167.75 121.424C167.671 121.596 167.504 121.698 167.328 121.698C167.263 121.698 167.198 121.684 167.137 121.656ZM147.817 121.299C147.714 121.067 147.821 120.793 148.058 120.691C148.294 120.589 148.564 120.696 148.666 120.932C148.768 121.164 148.661 121.438 148.424 121.54C148.369 121.568 148.304 121.577 148.243 121.577C148.062 121.577 147.891 121.475 147.817 121.299ZM164.511 120.659C164.265 120.584 164.126 120.325 164.205 120.079C164.279 119.833 164.539 119.698 164.785 119.772C165.031 119.851 165.165 120.111 165.091 120.352C165.031 120.552 164.845 120.682 164.646 120.682C164.604 120.682 164.558 120.673 164.511 120.659ZM150.424 120.287C150.35 120.041 150.489 119.782 150.735 119.712C150.981 119.638 151.236 119.777 151.31 120.023C151.385 120.264 151.245 120.524 151 120.598C150.958 120.612 150.911 120.617 150.87 120.617C150.67 120.617 150.485 120.487 150.424 120.287ZM161.848 120C161.597 119.953 161.43 119.712 161.477 119.461C161.523 119.211 161.764 119.044 162.02 119.09C162.27 119.137 162.437 119.378 162.391 119.629C162.349 119.851 162.154 120.009 161.936 120.009C161.908 120.009 161.876 120.009 161.848 120ZM153.129 119.591C153.088 119.336 153.255 119.095 153.505 119.053C153.76 119.007 154.002 119.178 154.043 119.429C154.09 119.68 153.918 119.921 153.668 119.967C153.64 119.972 153.612 119.972 153.589 119.972C153.366 119.972 153.171 119.814 153.129 119.591ZM159.129 119.666C158.874 119.647 158.679 119.429 158.697 119.169C158.711 118.914 158.934 118.719 159.189 118.738C159.444 118.756 159.639 118.974 159.621 119.229C159.607 119.475 159.403 119.666 159.161 119.666C159.152 119.666 159.138 119.666 159.129 119.666ZM155.899 119.216C155.885 118.96 156.08 118.738 156.34 118.728C156.595 118.71 156.813 118.909 156.827 119.165C156.841 119.42 156.646 119.638 156.391 119.652C156.382 119.652 156.373 119.652 156.363 119.652C156.117 119.652 155.913 119.461 155.899 119.216Z" fill="#263238"/>
<path d="M63.1318 123.679C63.1225 123.424 63.3266 123.211 63.5818 123.206C63.837 123.197 64.0505 123.401 64.0598 123.656C64.0644 123.911 63.8649 124.125 63.6097 124.134C63.605 124.134 63.6004 124.134 63.5958 124.134C63.3452 124.134 63.1364 123.934 63.1318 123.679ZM60.7793 124.055C60.5241 124.032 60.3338 123.809 60.3524 123.549C60.3756 123.294 60.5983 123.108 60.8535 123.127H60.8582C61.1134 123.15 61.299 123.373 61.2804 123.628C61.2572 123.874 61.0577 124.055 60.8164 124.055C60.8025 124.055 60.7886 124.055 60.7793 124.055ZM65.9018 123.498C65.8647 123.243 66.041 123.011 66.2962 122.974C66.5514 122.937 66.7881 123.113 66.8206 123.368C66.8577 123.624 66.6814 123.856 66.4262 123.893C66.403 123.897 66.3844 123.897 66.3612 123.897C66.1338 123.897 65.9343 123.73 65.9018 123.498ZM57.9767 123.656C57.7215 123.605 57.5591 123.359 57.6102 123.108C57.6612 122.858 57.9071 122.696 58.1577 122.747C58.4082 122.798 58.5706 123.039 58.5196 123.289C58.4778 123.512 58.283 123.665 58.0649 123.665C58.037 123.665 58.0046 123.661 57.9767 123.656ZM68.6394 123.006C68.5745 122.756 68.723 122.505 68.9689 122.44C69.2194 122.375 69.47 122.524 69.535 122.774C69.5999 123.02 69.4514 123.276 69.2009 123.34C69.1638 123.35 69.1266 123.354 69.0849 123.354C68.8807 123.354 68.6905 123.215 68.6394 123.006ZM55.2345 122.946C54.9886 122.867 54.854 122.607 54.9329 122.361C55.0118 122.12 55.2716 121.981 55.5175 122.06C55.7634 122.139 55.898 122.399 55.8191 122.644C55.7542 122.844 55.5732 122.969 55.3737 122.969C55.3273 122.969 55.2809 122.96 55.2345 122.946ZM71.3028 122.213C71.21 121.972 71.3306 121.703 71.5673 121.614C71.8086 121.522 72.0777 121.642 72.1658 121.879C72.2586 122.12 72.138 122.389 71.9014 122.482C71.8457 122.501 71.79 122.51 71.7343 122.51C71.5487 122.51 71.3724 122.399 71.3028 122.213ZM52.5897 121.935C52.3577 121.828 52.251 121.554 52.3577 121.322C52.4598 121.085 52.7335 120.983 52.9702 121.085C53.2022 121.192 53.3089 121.466 53.2022 121.698C53.1279 121.87 52.9562 121.976 52.7799 121.976C52.715 121.976 52.6546 121.962 52.5897 121.935ZM73.8594 121.127C73.7434 120.9 73.8316 120.617 74.059 120.501C74.2863 120.385 74.5647 120.473 74.6854 120.7C74.8014 120.928 74.7132 121.211 74.4858 121.327C74.4162 121.359 74.342 121.378 74.2724 121.378C74.1054 121.378 73.943 121.285 73.8594 121.127ZM50.0748 120.635C49.8567 120.505 49.7825 120.222 49.9124 120C50.0423 119.782 50.3254 119.707 50.5481 119.837C50.7662 119.967 50.8404 120.25 50.7105 120.473C50.6223 120.617 50.4692 120.7 50.3114 120.7C50.2326 120.7 50.149 120.682 50.0748 120.635ZM76.2815 119.763C76.1377 119.55 76.198 119.262 76.4114 119.118C76.6249 118.979 76.9126 119.035 77.0518 119.248C77.1956 119.461 77.1399 119.749 76.9265 119.893C76.8476 119.944 76.7548 119.967 76.6666 119.967C76.5182 119.967 76.3697 119.898 76.2815 119.763ZM47.7223 119.067C47.5135 118.914 47.4718 118.622 47.6295 118.417C47.7826 118.213 48.0703 118.172 48.2791 118.325C48.4833 118.478 48.525 118.77 48.3719 118.974C48.2791 119.095 48.1399 119.16 47.9961 119.16C47.9033 119.16 47.8012 119.127 47.7223 119.067ZM78.5366 118.134C78.3695 117.94 78.3974 117.647 78.5922 117.48C78.7871 117.318 79.0794 117.341 79.2465 117.54C79.4089 117.735 79.3857 118.028 79.1908 118.19C79.1026 118.264 78.9959 118.301 78.8892 118.301C78.7593 118.301 78.6294 118.246 78.5366 118.134ZM45.5554 117.239C45.3698 117.067 45.3606 116.77 45.5369 116.585C45.7132 116.399 46.0055 116.39 46.1911 116.566C46.3767 116.742 46.386 117.035 46.2097 117.22C46.1169 117.318 45.9962 117.369 45.871 117.369C45.7596 117.369 45.6436 117.327 45.5554 117.239ZM80.5921 116.264C80.4065 116.088 80.3972 115.796 80.5735 115.61C80.7498 115.425 81.0468 115.415 81.2324 115.592C81.418 115.768 81.4273 116.06 81.251 116.251C81.1582 116.343 81.0375 116.394 80.9122 116.394C80.7962 116.394 80.6849 116.353 80.5921 116.264ZM43.6113 115.183C43.4442 114.988 43.4674 114.696 43.6623 114.529C43.8618 114.362 44.1542 114.39 44.3166 114.585C44.4836 114.78 44.4604 115.072 44.2655 115.239C44.1774 115.313 44.0706 115.346 43.9639 115.346C43.834 115.346 43.6994 115.29 43.6113 115.183ZM82.4295 114.176C82.2207 114.023 82.1836 113.731 82.3367 113.527C82.4898 113.323 82.7822 113.281 82.9863 113.434C83.1905 113.587 83.2322 113.88 83.0791 114.084C82.9863 114.204 82.8471 114.269 82.7079 114.269C82.6105 114.269 82.513 114.237 82.4295 114.176ZM41.9084 112.919C41.7646 112.706 41.8249 112.418 42.0383 112.274C42.2471 112.135 42.5394 112.191 42.6786 112.404C42.8225 112.617 42.7622 112.905 42.5534 113.049C42.4745 113.1 42.3817 113.128 42.2935 113.128C42.145 113.128 41.9966 113.054 41.9084 112.919ZM84.0118 111.894C83.7937 111.764 83.7194 111.481 83.8494 111.258C83.9793 111.035 84.2623 110.966 84.485 111.096C84.7031 111.225 84.7774 111.508 84.6474 111.731C84.5639 111.875 84.4062 111.959 84.2484 111.959C84.1695 111.959 84.086 111.935 84.0118 111.894ZM40.47 110.478C40.354 110.251 40.4422 109.973 40.6695 109.857C40.8969 109.736 41.1753 109.829 41.2959 110.056C41.4119 110.284 41.3238 110.562 41.0964 110.678C41.0268 110.715 40.9526 110.734 40.883 110.734C40.7159 110.734 40.5535 110.641 40.47 110.478ZM85.3342 109.448C85.1022 109.342 84.9954 109.068 85.1022 108.836C85.2042 108.599 85.478 108.497 85.7146 108.604C85.9466 108.706 86.0534 108.98 85.9466 109.216C85.8678 109.388 85.7007 109.49 85.5244 109.49C85.4594 109.49 85.3945 109.476 85.3342 109.448ZM39.3146 107.899C39.2218 107.657 39.3425 107.388 39.5838 107.3C39.8204 107.207 40.0895 107.328 40.1823 107.564C40.2705 107.806 40.1545 108.075 39.9132 108.163C39.8575 108.186 39.8018 108.196 39.7462 108.196C39.5606 108.196 39.3842 108.08 39.3146 107.899ZM86.3782 106.873C86.1322 106.794 85.9977 106.534 86.0766 106.288C86.1554 106.043 86.4153 105.913 86.6612 105.987C86.9025 106.066 87.037 106.33 86.9582 106.572C86.8978 106.771 86.7122 106.896 86.5174 106.896C86.471 106.896 86.4246 106.887 86.3782 106.873ZM38.4516 105.203C38.3866 104.952 38.5351 104.697 38.7857 104.637C39.0316 104.572 39.2868 104.72 39.3518 104.966C39.4167 105.217 39.2682 105.467 39.0177 105.532C38.9806 105.541 38.9388 105.551 38.9017 105.551C38.6975 105.551 38.5073 105.412 38.4516 105.203ZM87.1252 104.196C86.8746 104.145 86.7122 103.899 86.7633 103.648C86.8143 103.398 87.0556 103.235 87.3062 103.286C87.5614 103.337 87.7238 103.583 87.6727 103.834C87.6263 104.052 87.4314 104.205 87.218 104.205C87.1855 104.205 87.1577 104.2 87.1252 104.196ZM37.8948 102.428C37.8623 102.173 38.0386 101.936 38.2892 101.899C38.5444 101.867 38.781 102.043 38.8135 102.293C38.8506 102.549 38.6743 102.785 38.4191 102.818C38.4006 102.822 38.3774 102.822 38.3542 102.822C38.1268 102.822 37.9273 102.655 37.8948 102.428ZM87.5706 101.454C87.3154 101.43 87.1252 101.208 87.1484 100.952C87.167 100.697 87.3943 100.507 87.6495 100.53C87.9047 100.549 88.095 100.776 88.0718 101.031C88.0486 101.273 87.849 101.454 87.6078 101.454C87.5985 101.454 87.5846 101.454 87.5706 101.454ZM37.6535 99.6069C37.6489 99.3517 37.8484 99.1382 38.1036 99.129C38.3588 99.1197 38.5769 99.3238 38.5815 99.579C38.5908 99.8342 38.3866 100.048 38.1314 100.057C38.1268 100.057 38.1222 100.057 38.1175 100.057C37.867 100.057 37.6628 99.8574 37.6535 99.6069ZM87.2226 98.2242C87.218 97.969 87.4175 97.7555 87.6774 97.7509C87.9326 97.7416 88.146 97.9458 88.1506 98.201C88.1599 98.4562 87.9558 98.6696 87.7006 98.6742C87.6959 98.6742 87.6913 98.6742 87.6866 98.6742C87.4361 98.6742 87.2319 98.4794 87.2226 98.2242ZM38.1546 97.2776C37.8994 97.2544 37.7092 97.0317 37.7324 96.7765C37.751 96.5213 37.9783 96.331 38.2335 96.3542C38.4887 96.3728 38.679 96.6002 38.6558 96.8554C38.6372 97.0966 38.433 97.2776 38.1964 97.2776C38.1825 97.2776 38.1686 97.2776 38.1546 97.2776ZM86.9953 95.5098C86.9582 95.2546 87.1345 95.0226 87.3897 94.9854C87.6449 94.9483 87.8769 95.1246 87.914 95.3798C87.9511 95.635 87.7748 95.867 87.5196 95.9042C87.4964 95.9088 87.4778 95.9088 87.4546 95.9088C87.2273 95.9088 87.0278 95.7418 86.9953 95.5098ZM38.4887 94.5168C38.2382 94.4704 38.0758 94.2245 38.1268 93.9739C38.1778 93.7234 38.4191 93.5563 38.6697 93.6074C38.9249 93.6584 39.0873 93.9043 39.0362 94.1549C38.9898 94.373 38.7996 94.5261 38.5815 94.5261C38.5537 94.5261 38.5212 94.5261 38.4887 94.5168ZM86.4663 92.8371C86.4014 92.5866 86.5498 92.336 86.8004 92.271C87.0463 92.2061 87.2969 92.3546 87.3618 92.6051C87.4268 92.851 87.2783 93.1062 87.0278 93.1712C86.9906 93.1805 86.9535 93.1851 86.9118 93.1851C86.7076 93.1851 86.5174 93.0459 86.4663 92.8371ZM39.1337 91.8163C38.8924 91.7374 38.7578 91.4776 38.8367 91.2317C38.911 90.9858 39.1754 90.8512 39.4167 90.9301C39.6626 91.009 39.7972 91.2688 39.7183 91.5147C39.6534 91.7096 39.4724 91.8349 39.2775 91.8349C39.2311 91.8349 39.1801 91.8302 39.1337 91.8163ZM85.6358 90.2387C85.5476 89.9974 85.6682 89.7283 85.9049 89.6402C86.1462 89.5474 86.4153 89.668 86.5081 89.9093C86.5962 90.1459 86.4756 90.415 86.239 90.5032C86.1833 90.5264 86.1276 90.5357 86.0719 90.5357C85.8863 90.5357 85.71 90.4243 85.6358 90.2387ZM40.0802 89.1994C39.8436 89.0973 39.7415 88.8235 39.8436 88.5869C39.9503 88.3549 40.2241 88.2482 40.4561 88.3549C40.6927 88.457 40.7948 88.7307 40.6927 88.9674C40.6138 89.139 40.4468 89.2411 40.2658 89.2411C40.2055 89.2411 40.1406 89.2272 40.0802 89.1994ZM84.5268 87.747C84.4108 87.5197 84.499 87.2366 84.7263 87.1206C84.9583 87.0046 85.2367 87.0928 85.3527 87.3202C85.4687 87.5475 85.3806 87.8306 85.1532 87.9466C85.0836 87.9837 85.014 87.9976 84.9398 87.9976C84.7727 87.9976 84.6103 87.9048 84.5268 87.747ZM41.3052 86.7077C41.0825 86.5778 41.0082 86.2901 41.1382 86.072C41.2681 85.8493 41.5511 85.775 41.7738 85.905C41.9966 86.0349 42.0708 86.3226 41.9409 86.5406C41.8527 86.6891 41.6996 86.7726 41.5372 86.7726C41.4583 86.7726 41.3794 86.7494 41.3052 86.7077ZM83.1487 85.3946C83.0049 85.1811 83.0652 84.8934 83.2786 84.7496C83.4921 84.6104 83.7798 84.6661 83.919 84.8795C84.0628 85.093 84.0025 85.3806 83.789 85.5245C83.7102 85.5755 83.622 85.6034 83.5338 85.6034C83.3854 85.6034 83.2369 85.5291 83.1487 85.3946ZM42.7993 84.3645C42.5951 84.2114 42.5534 83.919 42.7065 83.7149C42.8596 83.5107 43.1519 83.469 43.3561 83.6221C43.5602 83.7752 43.602 84.0675 43.4489 84.2717C43.3607 84.3923 43.2169 84.4573 43.0777 84.4573C42.9802 84.4573 42.8828 84.4294 42.7993 84.3645ZM81.5108 83.2138C81.3484 83.0142 81.3716 82.7219 81.5665 82.5595C81.766 82.3925 82.0583 82.4203 82.2207 82.6152C82.3878 82.8101 82.3599 83.1024 82.165 83.2694C82.0769 83.339 81.9702 83.3762 81.8681 83.3762C81.7335 83.3762 81.6036 83.3205 81.5108 83.2138ZM44.5486 82.2022C44.363 82.0259 44.3537 81.7336 44.53 81.548C44.7063 81.3624 45.0033 81.3531 45.1889 81.5294C45.3745 81.7058 45.3838 81.9981 45.2074 82.1837C45.1146 82.2811 44.994 82.3322 44.8687 82.3322C44.7527 82.3322 44.6414 82.2904 44.5486 82.2022ZM79.6409 81.2278C79.4553 81.0515 79.446 80.7592 79.6223 80.569C79.7986 80.3834 80.091 80.3787 80.2812 80.555C80.4668 80.7314 80.4714 81.0237 80.2951 81.2093C80.207 81.3067 80.0817 81.3531 79.961 81.3531C79.845 81.3531 79.729 81.3114 79.6409 81.2278ZM46.5345 80.2534C46.3674 80.0586 46.3906 79.7662 46.5902 79.5992C46.5902 79.5992 46.5902 79.5992 46.5902 79.6038C46.785 79.4368 47.0774 79.46 47.2444 79.6549C47.4068 79.8498 47.3836 80.1467 47.1887 80.3091C47.1006 80.3834 46.9938 80.4205 46.8871 80.4205C46.7572 80.4205 46.6273 80.3648 46.5345 80.2534ZM77.5575 79.4646C77.3534 79.3115 77.3116 79.0192 77.4647 78.815C77.6225 78.6109 77.9102 78.5691 78.1143 78.7222C78.3231 78.88 78.3602 79.1677 78.2071 79.3765C78.1143 79.4971 77.9798 79.5574 77.8359 79.5574C77.7385 79.5574 77.641 79.5296 77.5575 79.4646ZM48.7246 78.5413C48.5807 78.3278 48.6364 78.0402 48.8498 77.8963C49.0633 77.7571 49.351 77.8128 49.4948 78.0262C49.6386 78.2397 49.5783 78.5274 49.3649 78.6712C49.286 78.7222 49.1978 78.7501 49.1097 78.7501C48.9612 78.7501 48.8127 78.6758 48.7246 78.5413ZM75.2932 77.952C75.0705 77.8221 74.9962 77.5344 75.1262 77.3163C75.2561 77.0936 75.5438 77.0194 75.7618 77.1539C75.9846 77.2838 76.0588 77.5669 75.9242 77.785C75.8407 77.9334 75.6876 78.017 75.5252 78.017C75.4463 78.017 75.3674 77.9938 75.2932 77.952ZM51.091 77.0843C50.9703 76.857 51.0631 76.5786 51.2905 76.4579C51.5178 76.3419 51.7962 76.4301 51.9169 76.6574C52.0329 76.8848 51.9447 77.1678 51.7174 77.2838C51.6478 77.321 51.5735 77.3349 51.5039 77.3349C51.3322 77.3349 51.1745 77.2467 51.091 77.0843ZM72.8711 76.6992C72.8572 76.6946 72.8479 76.6853 72.834 76.6806C72.8247 76.676 72.8154 76.6714 72.8062 76.6667C72.5695 76.5646 72.4628 76.2909 72.5695 76.0542C72.6716 75.8222 72.9454 75.7155 73.182 75.8222C73.1913 75.8269 73.2052 75.8315 73.2145 75.8362C73.2284 75.8408 73.2377 75.8454 73.2516 75.8501C73.4836 75.9568 73.5857 76.2306 73.4836 76.4626C73.4047 76.6389 73.2377 76.741 73.0567 76.741C72.9964 76.741 72.9314 76.727 72.8711 76.6992ZM53.6058 75.9011C53.513 75.6645 53.6337 75.3954 53.8703 75.3026C54.1116 75.2098 54.3807 75.3304 54.4735 75.5717C54.5617 75.8083 54.441 76.0774 54.2044 76.1702C54.1487 76.1888 54.093 76.1981 54.0374 76.1981C53.8518 76.1981 53.6754 76.0867 53.6058 75.9011ZM70.2542 75.697C70.0129 75.6181 69.8783 75.3582 69.9526 75.1123C70.0314 74.871 70.2913 74.7365 70.5372 74.8154C70.7831 74.8896 70.9177 75.1494 70.8388 75.3954C70.7738 75.5949 70.5929 75.7202 70.3934 75.7202C70.347 75.7202 70.3006 75.7109 70.2542 75.697ZM56.2367 75.0056C56.1718 74.755 56.3202 74.5045 56.5662 74.4395C56.8167 74.3746 57.0673 74.523 57.1322 74.7736C57.1972 75.0195 57.0487 75.2747 56.8028 75.3397C56.761 75.349 56.7239 75.3536 56.6822 75.3536C56.478 75.3536 56.2878 75.2144 56.2367 75.0056ZM67.614 75.0195C67.3634 74.9685 67.201 74.7226 67.2521 74.472C67.2985 74.2214 67.5444 74.059 67.795 74.1054C68.0455 74.1565 68.2126 74.4024 68.1615 74.653C68.1151 74.8757 67.9202 75.0242 67.7068 75.0242C67.6743 75.0242 67.6465 75.0242 67.614 75.0195ZM58.9465 74.407C58.914 74.1518 59.0903 73.9198 59.3409 73.8827C59.5961 73.8456 59.8327 74.0219 59.8698 74.2771C59.9023 74.5277 59.726 74.7643 59.4754 74.8014C59.4522 74.8061 59.429 74.8061 59.4105 74.8061C59.1831 74.8061 58.9836 74.639 58.9465 74.407ZM64.9135 74.639C64.6583 74.6158 64.4681 74.3931 64.4913 74.1379C64.5145 73.8827 64.7372 73.6925 64.9924 73.7157C65.2476 73.7342 65.4378 73.957 65.4146 74.2122C65.3961 74.4581 65.1919 74.639 64.9553 74.639C64.9414 74.639 64.9274 74.639 64.9135 74.639ZM61.7119 74.1147C61.7026 73.8595 61.9068 73.6461 62.162 73.6368C62.4172 73.6322 62.6306 73.8317 62.6399 74.0869C62.6446 74.3467 62.445 74.5602 62.1898 74.5648C62.1852 74.5648 62.1806 74.5648 62.1759 74.5648C61.9254 74.5648 61.7212 74.3699 61.7119 74.1147Z" fill="#263238"/>
<path d="M161.551 134.091C166.339 136.24 168.478 141.868 166.33 146.656C164.177 151.445 158.553 153.584 153.765 151.436C148.976 149.283 146.833 143.659 148.986 138.871C151.134 134.077 156.758 131.938 161.551 134.091Z" fill="#407BFF"/>
<path d="M132.537 117.489C132.477 117.489 132.416 117.48 132.361 117.457C132.305 117.434 132.254 117.397 132.212 117.355C132.166 117.313 132.133 117.262 132.11 117.206C132.087 117.146 132.073 117.086 132.073 117.025C132.073 116.905 132.124 116.784 132.212 116.701C132.342 116.571 132.546 116.529 132.718 116.599C132.774 116.622 132.825 116.654 132.866 116.701C132.908 116.742 132.945 116.793 132.968 116.849C132.992 116.905 133.001 116.965 133.001 117.025C133.001 117.09 132.992 117.146 132.968 117.206C132.945 117.262 132.908 117.313 132.866 117.355C132.825 117.397 132.774 117.434 132.718 117.457C132.658 117.48 132.597 117.489 132.537 117.489Z" fill="#263238"/>
<path d="M157.342 152.276C157.319 152.531 157.096 152.721 156.841 152.702C156.586 152.679 156.396 152.456 156.414 152.201C156.368 152.452 156.127 152.624 155.876 152.577C155.626 152.531 155.459 152.289 155.5 152.039L155.505 152.034C155.505 152.034 155.5 152.034 155.5 152.039C155.431 152.285 155.176 152.429 154.93 152.354C154.684 152.285 154.54 152.03 154.609 151.784C154.609 151.784 154.609 151.784 154.609 151.779V151.784C154.517 152.02 154.248 152.141 154.006 152.044C153.77 151.951 153.654 151.682 153.746 151.445C153.626 151.672 153.347 151.76 153.12 151.644C152.893 151.528 152.804 151.25 152.92 151.023C152.781 151.236 152.494 151.301 152.28 151.162C152.062 151.023 152.002 150.735 152.141 150.522C152.136 150.526 152.132 150.526 152.127 150.531C151.937 150.703 151.644 150.689 151.473 150.494C151.306 150.308 151.315 150.025 151.491 149.853C151.301 150.011 151.018 149.993 150.851 149.807C150.684 149.621 150.698 149.338 150.874 149.162C150.684 149.32 150.401 149.301 150.234 149.116C150.067 148.93 150.076 148.642 150.257 148.471C150.067 148.633 149.779 148.61 149.612 148.424C149.445 148.239 149.459 147.951 149.64 147.779C149.45 147.942 149.162 147.923 148.995 147.733C148.828 147.547 148.837 147.26 149.018 147.088C148.828 147.25 148.545 147.232 148.373 147.046C148.206 146.861 148.22 146.578 148.396 146.401C148.206 146.559 147.923 146.54 147.756 146.355C147.589 146.169 147.598 145.886 147.775 145.715C147.584 145.868 147.301 145.849 147.134 145.664C146.967 145.473 146.981 145.181 147.172 145.009C146.981 145.181 146.689 145.162 146.517 144.972C146.35 144.787 146.36 144.499 146.54 144.327C146.35 144.49 146.067 144.471 145.9 144.281C145.728 144.095 145.742 143.812 145.923 143.636C145.733 143.798 145.445 143.78 145.278 143.594C145.111 143.408 145.121 143.125 145.297 142.949C145.107 143.107 144.824 143.088 144.657 142.903C144.494 142.717 144.504 142.434 144.68 142.262C144.49 142.416 144.207 142.397 144.04 142.211C143.872 142.026 143.882 141.738 144.063 141.566C143.872 141.729 143.589 141.71 143.422 141.52C143.251 141.334 143.265 141.047 143.446 140.875C143.255 141.037 142.968 141.019 142.801 140.833C142.634 140.643 142.643 140.36 142.824 140.184C142.634 140.346 142.351 140.328 142.179 140.142C142.012 139.952 142.026 139.669 142.207 139.492C142.016 139.655 141.729 139.636 141.562 139.451C141.395 139.265 141.409 138.977 141.59 138.806C141.395 138.968 141.112 138.949 140.945 138.759C140.773 138.569 140.787 138.277 140.977 138.105C140.787 138.277 140.495 138.263 140.323 138.068C140.156 137.882 140.165 137.595 140.346 137.423C140.156 137.585 139.873 137.567 139.706 137.381C139.539 137.191 139.548 136.908 139.729 136.736C139.539 136.894 139.251 136.875 139.084 136.69C138.917 136.504 138.926 136.221 139.107 136.049C138.912 136.203 138.634 136.184 138.467 135.998C138.3 135.813 138.309 135.53 138.485 135.358C138.295 135.516 138.012 135.493 137.845 135.307C137.678 135.121 137.692 134.834 137.868 134.662C137.678 134.824 137.395 134.806 137.228 134.62C137.056 134.425 137.07 134.133 137.26 133.961C137.07 134.133 136.778 134.119 136.606 133.929C136.435 133.739 136.453 133.442 136.643 133.275C136.453 133.442 136.161 133.428 135.989 133.238C135.822 133.052 135.831 132.769 136.008 132.597C135.817 132.75 135.534 132.732 135.367 132.546C135.2 132.361 135.214 132.078 135.391 131.906C135.2 132.064 134.917 132.04 134.75 131.855C134.583 131.669 134.592 131.382 134.773 131.21C134.583 131.372 134.296 131.354 134.128 131.168C133.961 130.978 133.975 130.695 134.156 130.523C133.961 130.681 133.678 130.662 133.511 130.477C133.344 130.287 133.354 130.004 133.535 129.832C133.344 129.99 133.057 129.971 132.89 129.785C132.723 129.6 132.736 129.317 132.913 129.145C132.723 129.303 132.44 129.28 132.272 129.094C132.105 128.908 132.115 128.625 132.291 128.454C132.101 128.612 131.818 128.593 131.651 128.407C131.484 128.217 131.498 127.934 131.679 127.758C131.488 127.92 131.201 127.902 131.034 127.716C130.862 127.526 130.876 127.229 131.066 127.062C130.876 127.229 130.584 127.215 130.412 127.025C130.24 126.834 130.259 126.542 130.449 126.37C130.259 126.542 129.966 126.524 129.795 126.333C129.628 126.148 129.637 125.86 129.818 125.688C129.628 125.851 129.345 125.832 129.173 125.642C129.006 125.456 129.02 125.173 129.196 125.002C129.006 125.159 128.723 125.141 128.556 124.955C128.389 124.765 128.398 124.482 128.579 124.306C128.389 124.468 128.101 124.449 127.934 124.264C127.767 124.078 127.781 123.791 127.962 123.619C127.772 123.777 127.484 123.758 127.317 123.572C127.145 123.382 127.159 123.09 127.354 122.918C127.544 122.747 127.837 122.76 128.008 122.951C128.175 123.141 128.161 123.424 127.98 123.6C128.171 123.438 128.458 123.456 128.625 123.642C128.792 123.832 128.783 124.115 128.602 124.287C128.792 124.129 129.08 124.148 129.247 124.333C129.414 124.519 129.4 124.802 129.224 124.974C129.414 124.821 129.697 124.839 129.864 125.025C130.031 125.21 130.022 125.498 129.841 125.67C130.031 125.507 130.314 125.526 130.486 125.716C130.658 125.906 130.639 126.199 130.449 126.37C130.639 126.199 130.932 126.213 131.103 126.403C131.275 126.593 131.261 126.89 131.066 127.062C131.261 126.89 131.553 126.904 131.725 127.094C131.892 127.28 131.878 127.568 131.697 127.739C131.887 127.581 132.175 127.6 132.342 127.786C132.509 127.971 132.5 128.254 132.324 128.426C132.514 128.268 132.797 128.291 132.964 128.477C133.131 128.663 133.117 128.946 132.941 129.117C133.131 128.96 133.414 128.978 133.581 129.164C133.748 129.354 133.739 129.637 133.558 129.813C133.748 129.651 134.036 129.669 134.203 129.855C134.37 130.045 134.356 130.328 134.175 130.5C134.365 130.342 134.653 130.361 134.82 130.546C134.987 130.732 134.978 131.02 134.797 131.191C134.987 131.029 135.27 131.048 135.442 131.238C135.609 131.423 135.595 131.706 135.418 131.878C135.609 131.72 135.892 131.744 136.059 131.929C136.226 132.115 136.216 132.398 136.036 132.569C136.23 132.412 136.513 132.43 136.68 132.616C136.848 132.811 136.834 133.103 136.643 133.275C136.834 133.103 137.126 133.117 137.298 133.307C137.469 133.497 137.455 133.79 137.26 133.961C137.451 133.79 137.748 133.808 137.915 133.999C138.086 134.184 138.072 134.472 137.892 134.644C138.082 134.481 138.369 134.5 138.536 134.69C138.704 134.876 138.694 135.159 138.513 135.33C138.708 135.172 138.991 135.196 139.158 135.381C139.321 135.567 139.311 135.85 139.135 136.022C139.325 135.864 139.608 135.882 139.775 136.068C139.942 136.258 139.933 136.541 139.752 136.713C139.942 136.555 140.225 136.574 140.392 136.759C140.564 136.945 140.55 137.233 140.369 137.404C140.56 137.247 140.847 137.265 141.014 137.451C141.186 137.641 141.167 137.933 140.977 138.105C141.167 137.933 141.464 137.952 141.636 138.142C141.803 138.328 141.789 138.615 141.608 138.787C141.798 138.625 142.086 138.643 142.253 138.829C142.42 139.019 142.406 139.307 142.225 139.478C142.42 139.316 142.703 139.335 142.87 139.52C143.042 139.71 143.028 139.993 142.847 140.165C143.037 140.007 143.325 140.026 143.492 140.212C143.659 140.397 143.645 140.685 143.469 140.856C143.659 140.694 143.942 140.717 144.109 140.903C144.276 141.088 144.267 141.376 144.086 141.548C144.276 141.385 144.564 141.404 144.731 141.594C144.898 141.78 144.884 142.063 144.708 142.235C144.903 142.077 145.181 142.095 145.348 142.281C145.515 142.467 145.506 142.75 145.329 142.926C145.52 142.768 145.803 142.787 145.97 142.972C146.137 143.158 146.123 143.446 145.942 143.617C146.137 143.455 146.42 143.478 146.587 143.664C146.754 143.849 146.745 144.137 146.564 144.309C146.754 144.146 147.042 144.165 147.209 144.355C147.38 144.545 147.362 144.838 147.172 145.009C147.362 144.838 147.654 144.852 147.826 145.046C147.993 145.232 147.984 145.515 147.807 145.687C147.997 145.529 148.28 145.548 148.448 145.733C148.615 145.919 148.601 146.202 148.424 146.378C148.615 146.22 148.898 146.239 149.065 146.424C149.232 146.61 149.222 146.898 149.041 147.069C149.232 146.907 149.519 146.93 149.686 147.116C149.853 147.301 149.84 147.589 149.659 147.761C149.853 147.598 150.136 147.617 150.304 147.807C150.471 147.993 150.461 148.28 150.28 148.452C150.471 148.29 150.758 148.308 150.925 148.494C151.092 148.68 151.078 148.963 150.902 149.139C151.092 148.981 151.375 149 151.542 149.185C151.709 149.371 151.7 149.654 151.524 149.83C151.714 149.672 151.997 149.691 152.164 149.877C152.303 150.034 152.317 150.266 152.211 150.433C152.359 150.29 152.596 150.262 152.781 150.378C152.985 150.512 153.05 150.772 152.944 150.981C153.069 150.781 153.329 150.707 153.542 150.819C153.756 150.93 153.853 151.18 153.765 151.399C153.872 151.19 154.122 151.092 154.35 151.18C154.572 151.269 154.688 151.515 154.623 151.742C154.707 151.519 154.948 151.399 155.185 151.464C155.417 151.528 155.556 151.76 155.514 151.992C155.575 151.765 155.802 151.621 156.043 151.663C156.28 151.705 156.442 151.923 156.419 152.164C156.461 151.928 156.674 151.756 156.916 151.774C157.157 151.798 157.338 151.997 157.342 152.234C157.361 151.997 157.556 151.807 157.797 151.807C158.038 151.802 158.238 151.983 158.266 152.215C158.261 151.979 158.437 151.774 158.679 151.747C158.915 151.719 159.133 151.881 159.184 152.113C159.157 151.876 159.31 151.654 159.546 151.607C159.783 151.556 160.015 151.696 160.089 151.923C160.038 151.691 160.168 151.454 160.4 151.38C160.632 151.306 160.873 151.422 160.966 151.64C160.897 151.412 161.003 151.167 161.226 151.074C161.449 150.976 161.704 151.069 161.815 151.278C161.723 151.06 161.806 150.8 162.02 150.684C162.233 150.568 162.493 150.633 162.627 150.832C162.511 150.624 162.572 150.359 162.771 150.225C162.971 150.085 163.235 150.127 163.388 150.308C163.254 150.113 163.286 149.844 163.472 149.691C163.662 149.533 163.936 149.547 164.103 149.719C163.945 149.543 163.945 149.264 164.117 149.088C164.288 148.916 164.558 148.902 164.743 149.051C164.572 148.888 164.553 148.615 164.701 148.429C164.855 148.239 165.124 148.202 165.323 148.332C165.133 148.183 165.087 147.919 165.221 147.714C165.356 147.515 165.616 147.45 165.824 147.557C165.629 147.427 165.555 147.167 165.667 146.953C165.778 146.74 166.033 146.652 166.251 146.74C166.042 146.629 165.95 146.378 166.038 146.155C166.131 145.933 166.372 145.817 166.599 145.882C166.381 145.793 166.26 145.552 166.33 145.32C166.4 145.088 166.636 144.949 166.868 145C166.636 144.935 166.492 144.703 166.539 144.466C166.581 144.23 166.799 144.067 167.035 144.091C166.803 144.049 166.636 143.835 166.66 143.594C166.683 143.353 166.882 143.172 167.119 143.172C166.882 143.149 166.697 142.954 166.697 142.712C166.697 142.471 166.878 142.272 167.114 142.248C166.878 142.248 166.673 142.072 166.65 141.831C166.622 141.59 166.785 141.376 167.017 141.33C166.785 141.353 166.562 141.195 166.516 140.959C166.465 140.722 166.608 140.495 166.836 140.425C166.604 140.471 166.367 140.337 166.298 140.105C166.228 139.873 166.344 139.627 166.567 139.539C166.339 139.613 166.093 139.502 165.996 139.274C165.903 139.047 166.001 138.792 166.219 138.68C165.996 138.782 165.736 138.694 165.62 138.476C165.504 138.263 165.574 138.003 165.773 137.868C165.564 137.984 165.3 137.924 165.165 137.724C165.031 137.525 165.073 137.256 165.254 137.107C165.059 137.237 164.79 137.2 164.636 137.015C164.483 136.829 164.502 136.551 164.674 136.384C164.493 136.546 164.219 136.537 164.043 136.365C163.876 136.193 163.862 135.929 164.01 135.743C163.843 135.91 163.574 135.924 163.388 135.771C163.207 135.627 163.17 135.372 163.286 135.177C163.142 135.358 162.887 135.409 162.688 135.288C162.47 135.163 162.395 134.885 162.516 134.667C162.381 134.876 162.103 134.945 161.885 134.82C161.672 134.69 161.597 134.416 161.713 134.198C161.583 134.407 161.305 134.476 161.087 134.347C160.869 134.221 160.795 133.943 160.915 133.725C160.785 133.938 160.507 134.008 160.289 133.878C160.071 133.753 159.996 133.474 160.117 133.256C159.983 133.47 159.704 133.535 159.486 133.409C159.273 133.279 159.198 133.006 159.314 132.788C159.184 132.996 158.906 133.066 158.688 132.936C158.465 132.811 158.396 132.523 158.526 132.305C158.656 132.082 158.939 132.008 159.157 132.138C159.375 132.263 159.449 132.542 159.333 132.76C159.463 132.551 159.741 132.481 159.959 132.607C160.173 132.736 160.252 133.01 160.131 133.228C160.266 133.02 160.544 132.95 160.757 133.08C160.976 133.205 161.05 133.484 160.929 133.702C161.059 133.488 161.337 133.419 161.556 133.548C161.774 133.674 161.848 133.952 161.732 134.17C161.862 133.961 162.14 133.892 162.358 134.017C162.572 134.147 162.651 134.421 162.53 134.639C162.664 134.43 162.938 134.36 163.156 134.49C163.379 134.62 163.453 134.903 163.323 135.121C163.319 135.126 163.319 135.126 163.319 135.126C163.323 135.126 163.323 135.121 163.323 135.121C163.486 134.922 163.778 134.894 163.978 135.056C164.177 135.214 164.205 135.507 164.047 135.706C164.228 135.525 164.52 135.525 164.697 135.706C164.882 135.887 164.882 136.179 164.701 136.36C164.697 136.365 164.692 136.37 164.692 136.37C164.692 136.37 164.697 136.365 164.701 136.365C164.896 136.198 165.189 136.23 165.356 136.425C165.518 136.625 165.49 136.917 165.291 137.08C165.504 136.936 165.792 136.991 165.936 137.205C166.08 137.418 166.019 137.706 165.81 137.85C166.033 137.729 166.316 137.813 166.437 138.04C166.557 138.267 166.474 138.546 166.247 138.666C166.483 138.569 166.757 138.68 166.854 138.917C166.952 139.154 166.84 139.427 166.604 139.525C166.85 139.451 167.11 139.585 167.184 139.831C167.258 140.077 167.124 140.337 166.878 140.411C167.128 140.36 167.374 140.522 167.425 140.773C167.476 141.028 167.314 141.269 167.063 141.32C167.318 141.297 167.546 141.478 167.574 141.733C167.597 141.989 167.411 142.221 167.161 142.244C167.416 142.244 167.625 142.448 167.625 142.708C167.629 142.963 167.42 143.172 167.165 143.172C167.42 143.195 167.606 143.422 167.583 143.678C167.56 143.933 167.337 144.118 167.082 144.1C167.332 144.146 167.495 144.388 167.448 144.638C167.402 144.893 167.156 145.056 166.905 145.009C167.151 145.084 167.291 145.339 167.221 145.585C167.147 145.831 166.887 145.97 166.646 145.9C166.882 145.998 166.994 146.267 166.901 146.503C166.803 146.74 166.534 146.851 166.298 146.763C166.525 146.879 166.608 147.158 166.492 147.385C166.372 147.612 166.089 147.7 165.861 147.58C166.08 147.719 166.14 148.007 165.996 148.225C165.857 148.438 165.569 148.499 165.356 148.355C165.555 148.517 165.588 148.809 165.425 149.009C165.268 149.208 164.975 149.241 164.776 149.079C164.957 149.26 164.961 149.552 164.785 149.737C164.785 149.737 164.785 149.737 164.78 149.737C164.604 149.918 164.312 149.923 164.126 149.747C164.288 149.942 164.265 150.234 164.07 150.401C163.876 150.563 163.583 150.54 163.416 150.345C163.56 150.554 163.504 150.842 163.296 150.99C163.082 151.134 162.794 151.078 162.651 150.87C162.771 151.092 162.692 151.375 162.465 151.496C162.242 151.621 161.959 151.542 161.839 151.315C161.936 151.552 161.829 151.825 161.593 151.923C161.356 152.025 161.082 151.918 160.985 151.682C161.059 151.923 160.924 152.187 160.683 152.266C160.683 152.266 160.683 152.266 160.683 152.262C160.437 152.34 160.177 152.206 160.099 151.96C160.099 151.96 160.099 151.96 160.099 151.965C160.15 152.211 159.992 152.461 159.741 152.512C159.491 152.568 159.245 152.405 159.189 152.155C159.222 152.41 159.036 152.642 158.781 152.67C158.526 152.698 158.298 152.517 158.27 152.262C158.27 152.517 158.066 152.73 157.811 152.735H157.806C157.551 152.735 157.347 152.531 157.342 152.276ZM157.89 132.467C157.667 132.337 157.593 132.054 157.723 131.832C157.853 131.614 158.14 131.539 158.359 131.669C158.581 131.799 158.656 132.082 158.526 132.305C158.437 132.449 158.284 132.532 158.122 132.532C158.043 132.532 157.964 132.514 157.89 132.467ZM157.092 131.999C156.874 131.869 156.8 131.595 156.916 131.377C156.786 131.586 156.507 131.655 156.289 131.53C156.071 131.4 155.997 131.126 156.117 130.908C155.983 131.117 155.704 131.187 155.491 131.057C155.273 130.932 155.199 130.658 155.319 130.435C155.185 130.648 154.906 130.713 154.693 130.588C154.47 130.458 154.396 130.175 154.526 129.952C154.656 129.734 154.939 129.66 155.162 129.79C155.375 129.915 155.454 130.189 155.333 130.407C155.468 130.198 155.746 130.133 155.96 130.259C156.178 130.384 156.252 130.662 156.131 130.88C156.266 130.667 156.544 130.602 156.762 130.727C156.976 130.857 157.05 131.131 156.934 131.349C157.064 131.14 157.342 131.071 157.56 131.196C157.779 131.326 157.853 131.614 157.723 131.832C157.639 131.98 157.482 132.064 157.324 132.064C157.245 132.064 157.161 132.04 157.092 131.999ZM153.89 130.12C153.677 129.99 153.598 129.716 153.719 129.498C153.584 129.707 153.31 129.776 153.092 129.646C152.874 129.521 152.8 129.247 152.92 129.024C152.786 129.238 152.508 129.303 152.294 129.178C152.076 129.052 152.002 128.779 152.118 128.56C151.983 128.769 151.709 128.834 151.491 128.709C151.278 128.579 151.199 128.305 151.32 128.087C151.185 128.296 150.911 128.366 150.693 128.24C150.471 128.11 150.401 127.823 150.526 127.605C150.656 127.382 150.944 127.308 151.162 127.438C151.38 127.563 151.454 127.841 151.338 128.059C151.468 127.851 151.747 127.781 151.965 127.906C152.178 128.036 152.252 128.31 152.136 128.528C152.271 128.319 152.545 128.25 152.763 128.38C152.981 128.505 153.055 128.779 152.934 129.001C153.069 128.788 153.347 128.723 153.561 128.848C153.779 128.973 153.853 129.252 153.732 129.47C153.867 129.261 154.145 129.192 154.364 129.317C154.582 129.447 154.656 129.734 154.526 129.952C154.438 130.101 154.285 130.184 154.127 130.184C154.048 130.184 153.964 130.161 153.89 130.12ZM149.895 127.767C149.677 127.642 149.603 127.368 149.719 127.15C149.584 127.359 149.311 127.424 149.092 127.298C148.879 127.168 148.8 126.895 148.921 126.677C148.786 126.885 148.512 126.955 148.294 126.83C148.076 126.7 148.002 126.426 148.123 126.208C147.988 126.417 147.71 126.486 147.496 126.356C147.278 126.231 147.204 125.953 147.325 125.735C147.19 125.948 146.912 126.013 146.694 125.888C146.476 125.758 146.401 125.475 146.531 125.252C146.661 125.034 146.944 124.96 147.167 125.09C147.38 125.215 147.459 125.489 147.339 125.707C147.473 125.498 147.747 125.428 147.965 125.558C148.183 125.684 148.257 125.962 148.137 126.18C148.271 125.971 148.55 125.902 148.763 126.027C148.981 126.157 149.055 126.431 148.939 126.649C149.069 126.44 149.348 126.37 149.566 126.496C149.779 126.626 149.853 126.899 149.737 127.117C149.872 126.909 150.15 126.839 150.364 126.969C150.587 127.099 150.656 127.382 150.526 127.605C150.443 127.748 150.285 127.832 150.127 127.832C150.048 127.832 149.969 127.813 149.895 127.767ZM145.896 125.419C145.677 125.289 145.603 125.016 145.724 124.797C145.589 125.006 145.311 125.076 145.097 124.946C144.879 124.821 144.805 124.547 144.926 124.324C144.791 124.538 144.513 124.607 144.295 124.477C144.081 124.352 144.007 124.074 144.123 123.856C143.993 124.064 143.715 124.134 143.497 124.009C143.279 123.879 143.204 123.591 143.334 123.373C143.464 123.15 143.747 123.076 143.965 123.206C144.183 123.336 144.258 123.61 144.142 123.828C144.272 123.619 144.55 123.549 144.768 123.679C144.981 123.804 145.06 124.078 144.94 124.301C145.074 124.088 145.353 124.018 145.566 124.148C145.784 124.273 145.858 124.552 145.738 124.77C145.872 124.561 146.151 124.491 146.364 124.616C146.587 124.746 146.661 125.034 146.531 125.252C146.443 125.401 146.29 125.48 146.132 125.48C146.049 125.48 145.97 125.461 145.896 125.419ZM142.699 123.54C142.476 123.405 142.402 123.122 142.532 122.904C142.661 122.682 142.949 122.607 143.167 122.737C143.39 122.867 143.464 123.15 143.334 123.373C143.246 123.521 143.093 123.6 142.931 123.6C142.852 123.6 142.773 123.582 142.699 123.54ZM141.9 123.067C141.682 122.941 141.608 122.663 141.724 122.445C141.594 122.654 141.316 122.723 141.098 122.598C140.88 122.468 140.805 122.194 140.926 121.976C140.792 122.185 140.513 122.255 140.3 122.129C140.082 122 140.007 121.726 140.123 121.508C139.989 121.716 139.715 121.786 139.502 121.656C139.279 121.526 139.205 121.243 139.335 121.02C139.464 120.802 139.748 120.728 139.97 120.858C140.184 120.983 140.263 121.257 140.147 121.475C140.276 121.266 140.555 121.201 140.768 121.327C140.986 121.457 141.061 121.73 140.94 121.948C141.075 121.74 141.353 121.67 141.571 121.795C141.784 121.925 141.859 122.199 141.743 122.417C141.873 122.208 142.151 122.139 142.369 122.269C142.587 122.399 142.661 122.682 142.532 122.904C142.448 123.048 142.29 123.132 142.132 123.132C142.054 123.132 141.97 123.113 141.9 123.067ZM138.699 121.188C138.481 121.058 138.407 120.775 138.536 120.552C138.666 120.329 138.949 120.26 139.172 120.389C139.39 120.519 139.464 120.802 139.335 121.02C139.246 121.169 139.093 121.252 138.936 121.252C138.857 121.252 138.773 121.229 138.699 121.188ZM137.901 120.719C137.687 120.589 137.608 120.32 137.724 120.097C137.59 120.306 137.316 120.376 137.103 120.246C136.885 120.12 136.81 119.847 136.926 119.624C136.796 119.837 136.518 119.902 136.3 119.777C136.087 119.652 136.008 119.373 136.128 119.155C135.994 119.364 135.72 119.434 135.502 119.308C135.279 119.178 135.21 118.895 135.335 118.673C135.465 118.45 135.752 118.376 135.971 118.506C136.189 118.636 136.263 118.909 136.147 119.127C136.277 118.919 136.555 118.849 136.773 118.979C136.987 119.104 137.061 119.378 136.945 119.601C137.08 119.387 137.353 119.322 137.571 119.448C137.785 119.573 137.864 119.847 137.748 120.065C137.878 119.856 138.156 119.791 138.369 119.916C138.592 120.046 138.666 120.329 138.536 120.552C138.448 120.7 138.295 120.779 138.137 120.779C138.054 120.779 137.975 120.761 137.901 120.719ZM134.704 118.835C134.486 118.71 134.412 118.436 134.528 118.218C134.398 118.427 134.119 118.492 133.901 118.366C133.688 118.241 133.613 117.963 133.729 117.745C133.595 117.958 133.321 118.023 133.103 117.898C132.88 117.768 132.811 117.485 132.936 117.262C133.066 117.039 133.354 116.97 133.572 117.095C133.79 117.225 133.864 117.499 133.748 117.717C133.878 117.508 134.156 117.438 134.374 117.568C134.588 117.694 134.667 117.972 134.546 118.19C134.681 117.977 134.954 117.912 135.172 118.037C135.395 118.167 135.465 118.45 135.335 118.673C135.251 118.821 135.098 118.9 134.936 118.9C134.857 118.9 134.778 118.881 134.704 118.835Z" fill="#263238"/>
<path d="M127.034 123.025C126.913 123.025 126.793 122.979 126.704 122.89C126.621 122.802 126.57 122.686 126.57 122.561C126.57 122.44 126.621 122.32 126.704 122.236C126.881 122.06 127.187 122.064 127.363 122.236C127.447 122.32 127.498 122.44 127.498 122.561C127.498 122.686 127.447 122.802 127.363 122.89C127.275 122.979 127.154 123.025 127.034 123.025Z" fill="#263238"/>
<path d="M149.478 112.836L136.189 116.162C135.697 116.288 135.27 116.589 134.991 117.016L130.639 123.698C130.217 124.347 129.456 124.695 128.686 124.593L115.48 122.802C115.012 122.737 114.58 122.51 114.26 122.157L104.924 111.829C104.53 111.392 104.344 110.803 104.423 110.219L105.82 99.6672C105.931 98.8135 106.581 98.1267 107.425 97.9597L114.209 96.628C115.095 96.4563 115.759 95.7093 115.824 94.8091L116.097 91.1992C116.181 90.1088 117.123 89.2829 118.218 89.3432L134.95 90.3037C135.534 90.3362 136.077 90.6239 136.434 91.0925L150.586 109.671C151.459 110.817 150.874 112.488 149.478 112.836Z" fill="#E0E0E0"/>
<path d="M162.423 109.931L171.146 111.499C173.773 111.972 176.306 110.209 176.779 107.588C177.253 104.961 175.489 102.428 172.868 101.955L164.145 100.386C161.518 99.9131 158.985 101.676 158.512 104.298C158.034 106.924 159.797 109.458 162.423 109.931Z" fill="#E0E0E0"/>
<path d="M126.602 108.483L125.187 107.848C124.737 107.643 124.449 107.189 124.468 106.692L124.612 102.544C124.616 102.368 124.589 102.196 124.519 102.034C124.143 101.138 122.825 98.0107 122.069 96.5166C121.87 96.1269 121.35 96.0434 121.039 96.3496C120.839 96.5445 120.784 96.8461 120.909 97.1013L123.299 101.987C123.391 102.177 123.433 102.386 123.419 102.595L123.15 107.165C123.136 107.374 123.178 107.588 123.275 107.773L124.482 110.223C124.63 110.529 124.955 110.715 125.294 110.692L126.194 110.632C126.57 110.608 126.881 110.335 126.96 109.968L127.076 109.43C127.164 109.04 126.964 108.646 126.602 108.483Z" fill="white"/>
<path opacity="0.3" d="M123.233 117.541C125.279 114.861 124.765 111.029 122.084 108.983C119.403 106.937 115.571 107.451 113.525 110.132C111.479 112.813 111.994 116.645 114.675 118.691C117.355 120.737 121.187 120.222 123.233 117.541Z" fill="#263238"/>
<path opacity="0.2" d="M131.266 109.226L132.931 109.374C133.85 109.458 134.671 108.771 134.755 107.852L135.386 100.813C135.469 99.8946 134.783 99.0733 133.864 98.9898L132.198 98.8413C131.28 98.7578 130.458 99.4445 130.375 100.363L129.744 107.397C129.66 108.325 130.347 109.142 131.266 109.226Z" fill="#727375"/>
<path opacity="0.3" d="M114.627 106.191C114.371 106.757 114.627 107.421 115.193 107.676C115.759 107.931 116.422 107.676 116.677 107.11C116.933 106.544 116.677 105.88 116.111 105.625C115.545 105.374 114.882 105.625 114.627 106.191Z" fill="#263238"/>
<path d="M127.948 122.491L155.426 143.956C156.428 144.74 157.881 144.564 158.665 143.557C159.449 142.555 159.273 141.102 158.266 140.318L130.788 118.854C129.785 118.069 128.333 118.246 127.554 119.253C126.765 120.255 126.946 121.707 127.948 122.491Z" fill="#E0E0E0"/>
<path d="M146.271 108.836C143.687 109.291 135.256 111.314 132.44 111.996C131.948 112.116 131.465 111.773 131.409 111.272L129.734 95.5701L127.633 95.7603L129.359 112.938C129.373 113.068 129.354 113.202 129.308 113.323L128.338 115.842C128.24 116.093 128.027 116.283 127.767 116.353L125.447 116.956C125.201 117.021 124.997 117.192 124.895 117.424L123.057 121.512C122.909 121.837 122.575 122.037 122.218 122.004L117.527 121.568C116.334 121.461 115.225 120.909 114.422 120.023L106.261 111.026C106.112 110.859 106.033 110.641 106.043 110.418L106.91 94.9901C106.933 94.6096 106.697 94.2662 106.335 94.1456L106.321 94.141C105.806 93.9739 105.272 94.3266 105.226 94.8648L103.778 111.875C103.76 112.088 103.825 112.297 103.955 112.464L112.047 122.733C113.03 123.981 114.511 124.737 116.093 124.802L126.004 125.206C126.31 125.22 126.598 125.062 126.756 124.797L132.866 114.566C132.978 114.381 133.154 114.246 133.358 114.19L147.738 110.149L147.102 109.188C146.93 108.919 146.601 108.776 146.271 108.836Z" fill="#407BFF"/>
<path d="M125.229 74.7597L118.807 74.0173C118.334 73.9616 117.902 74.2864 117.823 74.7597L114.719 93.2779C114.636 93.7744 114.979 94.243 115.48 94.3126L129.795 96.3125C130.291 96.3821 130.746 96.0294 130.806 95.533L131.159 92.6794C131.196 92.387 131.372 92.1272 131.637 91.9926L133.135 91.2178C133.613 90.9718 134.203 91.1992 134.388 91.705L138.123 101.894C138.193 102.08 138.318 102.238 138.485 102.344L143.306 105.402C143.459 105.5 143.636 105.546 143.817 105.541L167.212 104.697C167.458 104.688 167.685 104.581 167.847 104.395C168.622 103.528 171.531 101.143 178.654 103.792C184.602 106.005 188.853 107.903 190.885 108.85C191.497 109.137 192.189 108.664 192.152 107.987C192.142 107.783 192.059 107.592 191.924 107.439C191.01 106.428 187.15 102.423 180.756 99.5512C173.684 96.3774 158.623 94.8648 157.398 94.7442C157.347 94.7395 157.291 94.7302 157.24 94.7163L135.149 88.4709C134.945 88.4152 134.769 88.2853 134.653 88.1136L125.869 75.1448C125.721 74.9314 125.489 74.7875 125.229 74.7597Z" fill="#263238"/>
<path d="M71.5627 79.6038C82.2115 84.383 86.9629 96.8925 82.1791 107.541C77.3952 118.19 64.8951 122.941 54.2463 118.162C43.5975 113.378 38.8415 100.878 43.6207 90.2294C48.4045 79.5806 60.9139 74.8246 71.5627 79.6038ZM56.6219 112.882C64.3475 116.353 73.4327 112.9 76.9034 105.17C80.3741 97.4354 76.9219 88.3549 69.1963 84.8842C61.4615 81.4134 52.3856 84.8656 48.9149 92.6005C45.4395 100.331 48.8871 109.411 56.6219 112.882Z" fill="#F0F0F0"/>
<path d="M73.1588 76.0496C85.7704 81.7104 91.3987 96.5259 85.7332 109.137C80.0724 121.749 65.2616 127.377 52.65 121.716C40.0385 116.056 34.4056 101.24 40.0664 88.6333C45.7318 76.0218 60.5473 70.3888 73.1588 76.0496ZM55.0907 116.292C64.7048 120.608 75.9985 116.316 80.3137 106.701C84.6336 97.0827 80.3369 85.789 70.7275 81.4738C61.1087 77.1539 49.8196 81.4506 45.4998 91.0693C41.18 100.683 45.472 111.977 55.0907 116.292Z" fill="#263238"/>
<path d="M65.1131 100.498L114.543 64.779C115.573 64.032 115.805 62.5936 115.063 61.5589C114.316 60.5288 112.877 60.2968 111.842 61.0392L62.4126 96.7579C61.3825 97.505 61.1505 98.9434 61.8929 99.9781C62.6399 101.013 64.0783 101.245 65.1131 100.498Z" fill="#E0E0E0"/>
<path d="M108.344 68.1198L113.272 64.561C114.07 63.981 114.251 62.8674 113.675 62.0646L112.358 60.2458C111.778 59.4477 110.664 59.2667 109.861 59.8421L104.934 63.401C104.136 63.981 103.955 65.0946 104.53 65.8973L105.848 67.7162C106.428 68.5189 107.546 68.6998 108.344 68.1198Z" fill="#E0E0E0"/>
<path d="M114.07 61.3176L120.45 56.7101C120.598 56.6034 120.775 56.557 120.946 56.5662L126.704 55.7264C127.085 55.6707 127.438 55.9352 127.493 56.3157L127.516 56.4874C127.572 56.8678 127.308 57.2205 126.927 57.2762L121.174 58.116L114.979 62.589C114.631 62.8395 114.144 62.7606 113.889 62.4126C113.643 62.0554 113.722 61.5682 114.07 61.3176Z" fill="#263238"/>
<path d="M100.363 67.9992L114.705 57.3968C115.091 57.1138 114.77 56.5106 114.32 56.6683L104.07 60.255C102.024 60.9696 100.526 62.7421 100.164 64.8811L99.7043 67.5909C99.6393 67.9621 100.057 68.2219 100.363 67.9992Z" fill="#407BFF"/>
<path d="M66.3009 91.3198C70.4769 93.1944 72.3422 98.1035 70.4676 102.28C68.5931 106.456 63.6839 108.321 59.5079 106.446C55.3319 104.572 53.462 99.6626 55.3412 95.4866C57.2158 91.3106 62.1249 89.4453 66.3009 91.3198Z" fill="#407BFF"/>
<path d="M65.0528 101.11L74.9499 93.96C75.2515 93.7419 75.3211 93.3197 75.1031 93.0134L72.6531 89.6262C72.4351 89.3246 72.0128 89.255 71.7066 89.4731L61.8095 96.6234C60.5706 97.5189 60.2922 99.2496 61.1877 100.488C62.0832 101.727 63.8139 102.006 65.0528 101.11Z" fill="#263238"/>
<path d="M168.989 94.7952C169.365 95.5794 169.304 96.4981 168.836 97.2312L168.492 97.7648C168.061 98.4376 167.342 98.8645 166.548 98.9155C163.231 99.1382 153.723 99.3934 141.274 96.4145C136.889 95.3659 133.103 92.5865 130.811 88.7075C127.916 83.8123 125.118 77.6458 124.176 73.0522C124.101 72.6995 124.361 72.3654 124.723 72.3237C125.187 72.2726 125.563 72.319 125.814 72.3794C126.018 72.4258 126.18 72.565 126.254 72.7552C126.834 74.2771 129.952 81.7382 136.17 84.5269C142.221 87.2413 162.279 92.2107 167.318 93.4357C168.052 93.612 168.664 94.1131 168.989 94.7952Z" fill="#407BFF"/>
<path d="M124.547 76.3466C125.164 75.2051 124.974 73.7853 124.05 72.8758C122.408 71.2658 120.533 70.2171 118.032 68.8669C115.457 67.4749 113.838 69.7438 113.262 70.7739C113.114 71.043 113.16 71.3818 113.374 71.6045C113.736 71.9757 113.583 72.5974 113.095 72.7645L107.087 74.8339C105.244 75.4696 103.945 77.1307 103.778 79.0749L102.692 91.7653C102.6 92.851 103.203 93.8718 104.196 94.3173L107.254 95.6907C108.451 96.229 109.866 95.7742 110.52 94.6328L111.982 92.0947C112.395 91.3802 113.128 90.9069 113.949 90.8234L117.675 90.4568C119.415 90.2851 120.784 88.8978 120.932 87.1578L121.359 82.1976L124.547 76.3466Z" fill="#407BFF"/>
<path opacity="0.1" d="M108.219 93.9507C108.163 93.9507 108.107 93.9461 108.052 93.9414C107.936 93.9275 107.824 93.895 107.713 93.844L104.655 92.4706C104.182 92.2571 103.89 91.7653 103.936 91.2456L105.022 78.5552C105.142 77.14 106.089 75.9243 107.435 75.4603L113.443 73.3909C114.107 73.1635 114.599 72.6206 114.766 71.9386C114.882 71.4514 114.817 70.941 114.585 70.5048L114.552 70.4445L114.589 70.3842C115.016 69.7531 115.703 69.0246 116.557 69.1406C116.789 69.1731 117.044 69.2613 117.313 69.4051C119.884 70.7925 121.549 71.739 123.03 73.1914C123.521 73.6739 123.628 74.4488 123.289 75.0706L119.972 81.1768L119.522 86.4107C119.429 87.5104 118.561 88.3874 117.462 88.4941L113.74 88.8606C112.492 88.9813 111.374 89.7051 110.747 90.7909L109.286 93.329C109.059 93.7234 108.655 93.9507 108.219 93.9507ZM108.084 93.7094C108.488 93.7651 108.878 93.5702 109.077 93.2176L110.539 90.6795C111.202 89.5288 112.39 88.7632 113.712 88.6333L117.434 88.2667C118.422 88.1693 119.202 87.3805 119.285 86.3922L119.754 81.0886L123.085 74.9592C123.378 74.4256 123.285 73.7667 122.867 73.3538C121.41 71.9246 119.754 70.9827 117.202 69.6046C116.96 69.4747 116.733 69.3912 116.524 69.3634C115.814 69.2706 115.211 69.8877 114.817 70.4491C115.049 70.9224 115.109 71.4653 114.988 71.985C114.807 72.7459 114.255 73.3491 113.518 73.6043L107.509 75.6738C106.251 76.1053 105.365 77.2421 105.254 78.5691L104.168 91.2595C104.131 91.6818 104.367 92.0808 104.753 92.2525L107.81 93.6259C107.899 93.6723 107.991 93.6955 108.084 93.7094Z" fill="black"/>
<path d="M166.84 102.971L167.922 104.739C168.14 105.091 168.256 105.5 168.26 105.913L168.353 112.409C168.362 113.016 168.135 113.601 167.717 114.037L165.43 116.445C164.929 116.974 164.205 117.239 163.481 117.151L151.76 115.791C151.106 115.717 150.517 115.369 150.136 114.831L145.097 107.75C144.271 106.59 144.675 104.971 145.947 104.335L150.605 101.992C152.735 100.92 155.138 100.521 157.5 100.836L165.17 101.876C165.866 101.973 166.479 102.372 166.84 102.971Z" fill="#407BFF"/>
<path opacity="0.1" d="M163.421 115.304C163.384 115.304 163.347 115.304 163.309 115.299L151.57 113.935C151.301 113.898 151.055 113.75 150.897 113.532L145.858 106.451C145.631 106.131 145.664 105.806 145.705 105.644C145.747 105.481 145.868 105.18 146.22 104.999L150.879 102.655C152.777 101.7 154.888 101.347 156.994 101.635L164.664 102.674C164.961 102.716 165.216 102.883 165.374 103.138L166.455 104.906C166.548 105.054 166.599 105.231 166.599 105.407L166.692 111.903C166.697 112.163 166.599 112.409 166.423 112.594L164.135 115.002C163.95 115.197 163.69 115.304 163.421 115.304ZM151.598 113.708L163.333 115.072C163.569 115.1 163.801 115.012 163.968 114.84L166.256 112.432C166.39 112.288 166.465 112.102 166.465 111.903L166.372 105.407C166.372 105.272 166.33 105.138 166.26 105.026L165.179 103.259C165.059 103.064 164.864 102.934 164.636 102.906L156.967 101.867C154.911 101.588 152.842 101.936 150.986 102.869L146.327 105.212C146.058 105.347 145.965 105.579 145.933 105.704C145.9 105.829 145.877 106.075 146.049 106.321L151.088 113.402C151.208 113.564 151.394 113.68 151.598 113.708Z" fill="black"/>
<path opacity="0.3" d="M155.111 141.316C154.693 142.272 155.129 143.385 156.085 143.808C157.041 144.225 158.154 143.789 158.577 142.833C158.994 141.877 158.558 140.764 157.602 140.341C156.646 139.924 155.528 140.36 155.111 141.316Z" fill="#263238"/>
<path d="M131.414 111.267C136.017 102.298 141.14 97.6488 142.095 88.0301C150.429 84.8888 168.39 88.2807 171.462 77.7432L156.684 69.0432C156.684 69.0432 133.864 74.3003 131.618 81.6779C130.69 84.7311 128.426 93.2779 125.368 103.402C124.264 107.073 122.315 111.833 122.004 114.483L128.384 118.158C129.925 114.696 130.472 113.105 131.414 111.267Z" fill="#407BFF"/>
<path opacity="0.4" d="M131.414 111.267C136.017 102.298 141.14 97.6488 142.095 88.0301C150.429 84.8888 168.39 88.2807 171.462 77.7432L156.684 69.0432C156.684 69.0432 133.864 74.3003 131.618 81.6779C130.69 84.7311 128.426 93.2779 125.368 103.402C124.264 107.073 122.315 111.833 122.004 114.483L128.384 118.158C129.925 114.696 130.472 113.105 131.414 111.267Z" fill="white"/>
<path d="M128.672 122.524L128.203 122.199L113.504 116.566C112.849 116.863 112.655 118.543 114.641 119.257C116.622 119.972 119.712 121.002 121.749 121.735C123.744 122.454 125.493 123.164 127.41 123.856C127.962 124.05 128.672 123.396 128.672 122.524Z" fill="#407BFF"/>
<path opacity="0.3" d="M128.672 122.524L128.203 122.199L113.504 116.566C112.849 116.863 112.655 118.543 114.641 119.257C116.622 119.972 119.712 121.002 121.749 121.735C123.744 122.454 125.493 123.164 127.41 123.856C127.962 124.05 128.672 123.396 128.672 122.524Z" fill="black"/>
<path opacity="0.5" d="M132.996 104.381L132.806 104.247C136.022 99.6394 140.16 86.7773 139.423 85.9235C139.265 85.7425 139.177 85.5987 139.251 85.4827C139.339 85.3435 139.562 85.3992 139.896 85.492C140.1 85.5477 140.527 85.659 140.597 85.5755C140.615 85.5523 140.615 85.4688 140.522 85.2785C140.467 85.1672 140.467 85.0512 140.527 84.9445C140.963 84.1278 144.958 83.5803 149.742 83.005C150.925 82.8611 151.951 82.7358 152.605 82.6291C154.076 82.3878 155.556 81.6918 156.985 81.019C158.27 80.4112 159.486 79.8405 160.507 79.7152C162.799 79.4322 165.008 77.7478 166.729 74.9685L166.924 75.0891C165.165 77.9288 162.892 79.6549 160.53 79.9472C159.546 80.0678 158.345 80.6339 157.078 81.2325C155.63 81.9146 154.136 82.6198 152.637 82.8611C151.979 82.9678 150.953 83.0931 149.765 83.237C146.54 83.6267 141.144 84.281 140.727 85.0558C140.703 85.0976 140.703 85.1347 140.727 85.1765C140.805 85.3389 140.903 85.5709 140.773 85.724C140.611 85.9235 140.216 85.8168 139.831 85.7147C139.724 85.6869 139.58 85.6498 139.488 85.6358C139.506 85.6683 139.543 85.7101 139.594 85.775C140.499 86.819 136.077 99.9688 132.996 104.381Z" fill="#407BFF"/>
<path d="M130.987 116.905C130.718 118.789 129.739 121.591 128.788 122.51C128.653 122.895 128.314 122.788 127.925 122.644C125.813 121.884 123.419 120.942 121.392 120.176C119.016 119.28 117.415 118.951 114.631 117.898C112.947 117.262 113.281 116.093 114.111 115.944C116.533 115.517 119.253 116.125 122.013 114.942C122.482 112.557 124.083 103.852 125.47 101.143C125.595 100.901 125.846 100.748 126.115 100.748C129.966 100.73 134.138 102.883 135.655 103.741C135.994 103.931 136.128 104.344 135.966 104.697C134.913 107.017 131.173 115.299 130.987 116.905Z" fill="#263238"/>
<path d="M166.585 43.7413C163.203 37.2963 157.955 36.8184 150.118 40.7392C147.134 42.2333 144.791 44.4698 145.844 47.8941C148.322 55.9584 151 59.4987 150.331 64.4218C150.67 67.7162 162.539 74.8664 172.074 77.8267C176.524 70.0362 171.341 52.7986 166.585 43.7413Z" fill="#407BFF"/>
<path opacity="0.3" d="M161.027 48.5344C155.751 50.9843 151.64 54.5061 149 56.5895C149.895 58.993 150.494 61.0021 150.433 63.2015C151.83 63.2896 153.333 63.1968 154.187 62.4683C157.5 59.6658 161.059 51.9634 161.027 48.5344Z" fill="black"/>
<path d="M154.8 33.1853L149.148 36.5307C149.979 38.4703 150.392 39.6163 149.306 41.1754C148.48 42.2101 149.877 43.8759 152.336 43.2123C154.475 42.637 157.792 40.9155 158.563 39.7416C157.593 38.0063 155.987 35.5842 154.8 33.1853Z" fill="#263238"/>
<path d="M140.68 24.0538C140.035 24.2997 140.281 27.4502 140.541 28.2344C139.942 32.081 141.613 32.9069 141.613 32.9069C141.613 32.9069 140.518 33.6354 142.063 35.8394C147.385 35.8069 151.561 31.5056 151.324 27.6962C151.088 23.8867 144.007 23.599 140.68 24.0538Z" fill="#263238"/>
<path d="M160.303 36.1503C156.878 38.9435 143.084 41.3239 139.358 41.9224C138.819 42.0106 138.3 41.6951 138.119 41.18L137.066 38.1455C136.94 37.7789 137.01 37.3706 137.256 37.069L138.731 35.2501C139.089 34.8047 139.622 34.5448 140.193 34.5309C141.622 34.4938 144.49 34.2803 146.466 33.2363C149.199 31.7933 150.396 29.645 150.058 26.9723C149.719 24.2997 133.975 24.4296 133.975 24.4296C133.975 24.4296 133.465 23.548 135.906 22.1096C138.351 20.6712 145.399 20.0402 145.399 20.0402C145.399 20.0402 150.545 18.5183 154.526 19.2375C158.507 19.9567 157.44 21.4879 157.44 21.4879C157.44 21.4879 160.446 22.7128 161.787 27.1997C163.128 31.6819 161.778 34.9439 160.303 36.1503Z" fill="#407BFF"/>
<path opacity="0.2" d="M161.787 27.195C161.022 24.6338 159.713 23.1397 158.734 22.323C153.955 23.0794 145.371 23.1397 138.657 21.1213C137.557 21.395 136.564 21.7245 135.91 22.105C133.465 23.5434 133.975 24.425 133.975 24.425C133.975 24.425 149.719 24.2904 150.062 26.963C150.401 29.6403 149.204 31.7886 146.471 33.2317C144.494 34.2803 141.627 34.4891 140.198 34.5262C139.631 34.5402 139.093 34.8046 138.736 35.2454L137.265 37.0643C137.228 37.1107 137.2 37.1571 137.172 37.2035C143.965 36.2709 152.753 29.4501 162.247 32.1413C162.437 30.7493 162.354 29.0835 161.787 27.195Z" fill="white"/>
<path d="M140.29 27.3435C139.887 27.7008 139.887 31.8026 140.833 32.8187C141.78 33.8303 143.163 33.2039 143.613 32.8651C144.063 32.5264 146.856 32.1088 147.301 30.5683C147.747 29.0279 147.928 27.5152 145.724 26.5872C143.515 25.6639 141.153 26.5826 140.29 27.3435Z" fill="#407BFF"/>
<path d="M144.137 27.4178C143.914 27.3343 143.678 27.2739 143.441 27.2368C142.142 27.0419 140.819 27.557 140.086 28.0999C139.938 29.4176 140.105 32.0392 140.833 32.8187C140.94 32.9301 141.047 33.0229 141.163 33.0971C141.529 33.0229 141.868 32.8141 142.049 32.661C142.216 32.5171 142.485 32.4058 142.884 32.2341C143.673 31.9 145 31.3339 145.232 30.4755C145.668 28.8747 145.612 27.9607 144.137 27.4178Z" fill="#263238"/>
<path d="M146.104 27.4456C146.104 27.4456 155.969 23.5248 160.892 23.7707C161.532 24.6106 162.238 26.5501 162.238 26.5501C162.238 26.5501 162.075 26.8842 161.76 27.1022C161.481 26.6754 161.18 26.6939 160.59 26.796C160.001 26.8981 149.468 29.6774 146.313 31.0416C145.844 29.3666 146.104 27.4456 146.104 27.4456Z" fill="#407BFF"/>
<path opacity="0.5" d="M146.104 27.4456C146.104 27.4456 155.969 23.5248 160.892 23.7707C161.532 24.6106 162.238 26.5501 162.238 26.5501C162.238 26.5501 162.075 26.8842 161.76 27.1022C161.481 26.6754 161.18 26.6939 160.59 26.796C160.001 26.8981 149.468 29.6774 146.313 31.0416C145.844 29.3666 146.104 27.4456 146.104 27.4456Z" fill="white"/>
<path opacity="0.3" d="M161.036 34.3314C159.314 33.3245 154.41 38.0851 140.921 41.6626C145.984 40.7949 157.254 38.6327 160.303 36.1456C160.674 35.844 161.04 35.4079 161.351 34.8511C161.356 34.6376 161.254 34.4613 161.036 34.3314Z" fill="black"/>
<path d="M163.101 46.5717C162.896 46.9429 162.743 47.2167 162.562 47.5183C162.391 47.8152 162.205 48.0983 162.029 48.3859C161.672 48.9567 161.286 49.5088 160.906 50.061C160.131 51.156 159.314 52.2186 158.437 53.2394C158.006 53.7544 157.551 54.2509 157.101 54.752C156.628 55.2392 156.173 55.7311 155.677 56.1997C154.725 57.1602 153.668 58.0418 152.605 58.9048L152.419 59.0533C152.113 59.3039 151.751 59.4709 151.394 59.5637C149.747 59.972 148.151 60.1298 146.601 60.1947C145.051 60.2597 143.534 60.1808 142.044 60.0602C140.555 59.921 139.084 59.7122 137.636 59.4338C136.179 59.1507 134.778 58.8259 133.316 58.3712C132.375 58.0789 131.85 57.0767 132.147 56.1394C132.384 55.3738 133.094 54.8866 133.855 54.8866H133.929C135.265 54.8912 136.676 54.9005 138.04 54.868C139.413 54.8402 140.773 54.7845 142.114 54.6824C143.455 54.5943 144.773 54.4365 146.039 54.237C147.306 54.0328 148.522 53.7405 149.594 53.3693L148.383 54.0282C149.19 53.2115 149.983 52.3856 150.74 51.504C151.496 50.6271 152.229 49.7223 152.939 48.7896C153.644 47.8523 154.34 46.9104 154.999 45.9407C155.333 45.4581 155.653 44.9663 155.974 44.4837L156.442 43.7552L156.869 43.0824L156.962 42.9386C158.015 41.2728 160.224 40.7763 161.885 41.8343C163.476 42.8504 163.992 44.9338 163.101 46.5717Z" fill="#407BFF"/>
<path opacity="0.5" d="M145.056 57.8283C139.367 57.8283 133.678 56.7611 133.599 56.7472L133.641 56.5198C133.757 56.543 145.39 58.7238 151.983 56.8214C157.69 51.8613 161.518 43.8805 161.56 43.797L161.769 43.8944C161.732 43.9733 157.871 52.019 152.118 57.0117L152.076 57.0349C150.048 57.6195 147.552 57.8283 145.056 57.8283Z" fill="white"/>
<path d="M136.685 54.1674C136.685 54.1674 138.091 58.7006 136.885 60.2597C132.082 59.3688 127.985 57.8608 127.985 57.8608C127.985 57.8608 126.551 60.204 123.475 58.1578C120.399 56.1115 123.461 53.8055 125.869 53.6477C128.273 53.4899 136.685 54.1674 136.685 54.1674Z" fill="#263238"/>
<path d="M137.307 76.1006C134.518 76.3883 130.319 80.2766 130.843 84.3506C133.799 83.52 135.423 82.193 136.068 81.3346C137.437 79.5064 137.307 76.1006 137.307 76.1006Z" fill="#263238"/>
<path d="M183.122 83.0375C193.391 87.4501 202.197 94.1549 202.197 94.1549L199.441 95.0736C199.441 95.0736 208.118 100.196 213.904 102.117C201.826 99.2357 195.14 94.025 195.14 94.025L198.054 93.4079C198.049 93.4079 188.087 85.7101 183.122 83.0375Z" fill="#407BFF"/>
<path d="M179.025 49.9682C185.368 49.1562 191.655 49.8939 191.655 49.8939L190.565 51.1467C190.565 51.1467 196.328 51.1467 199.733 50.409C192.945 52.5016 188.138 51.8845 188.138 51.8845L189.395 50.7338C189.391 50.7338 182.245 49.8383 179.025 49.9682Z" fill="#407BFF"/>
<path d="M179.331 64.4496C186.092 65.1085 193.896 68.8391 196.657 71.8736C187.679 67.4471 179.331 64.4496 179.331 64.4496Z" fill="#407BFF"/>
<path d="M82.1418 50.641C84.7078 50.0378 88.0903 50.5389 89.5241 51.4066C85.1996 51.5272 82.1418 50.641 82.1418 50.641Z" fill="#407BFF"/>
<path d="M180.566 116.07C182.909 117.281 185.15 119.86 185.679 121.452C182.315 118.733 180.566 116.07 180.566 116.07Z" fill="#407BFF"/>
<path d="M90.1691 47.8013C96.2428 47.5043 103.412 48.5808 106.047 49.7779C96.3867 49.2675 90.1691 47.8013 90.1691 47.8013Z" fill="#407BFF"/>
<g opacity="0.5">
<path d="M197.552 135.994C199.246 134.3 199.246 131.553 197.552 129.858C195.858 128.164 193.111 128.164 191.417 129.858C189.722 131.553 189.722 134.3 191.417 135.994C193.111 137.688 195.858 137.688 197.552 135.994Z" fill="#407BFF"/>
<path d="M200.313 159.528C201.645 157.844 202.448 155.714 202.448 153.403C202.448 147.984 198.086 143.589 192.681 143.524C190.379 139.576 186.101 136.922 181.201 136.922C176.445 136.922 172.274 139.423 169.931 143.181H169.926C168.112 142.652 166.195 142.369 164.21 142.369C157.584 142.369 151.695 145.529 147.965 150.42C147.102 150.276 146.216 150.206 145.311 150.206C141.204 150.206 137.446 151.709 134.56 154.196C133.943 153.208 132.852 152.549 131.6 152.549C129.674 152.549 128.11 154.113 128.11 156.039C128.11 156.057 128.115 156.076 128.115 156.094C127.716 156.057 127.312 156.039 126.904 156.039C122.009 156.039 117.726 158.628 115.336 162.511C115.007 162.479 114.673 162.465 114.334 162.465C112.112 162.465 110.056 163.166 108.367 164.353C106.53 165.648 107.421 168.529 109.671 168.529H201.223C202.271 168.529 203.186 167.82 203.445 166.803C203.58 166.288 203.65 165.745 203.65 165.189C203.65 162.748 202.304 160.632 200.313 159.528Z" fill="#407BFF"/>
</g>
</g>
<defs>
<clipPath id="clip0_64_5948">
<rect width="232" height="168.525" fill="white"/>
</clipPath>
</defs>
</svg>
