<svg width="251" height="158" viewBox="0 0 251 158" fill="none" xmlns="http://www.w3.org/2000/svg">
<g clip-path="url(#clip0_91_2)">
<path d="M242 0H16V150.667H242V0Z" fill="white"/>
<path d="M30.3283 45.7725C4.92293 69.0445 34.1492 113.503 34.1492 113.503H230.682C230.682 113.503 246.182 81.2033 232.216 67.8181C218.249 54.4329 197.327 72.3441 183.915 67.2275C170.506 62.1108 185.358 17.8239 136.982 8.3831C90.366 -0.714156 80.1207 46.562 66.1539 46.7579C52.1901 46.9538 47.0885 30.4196 30.3283 45.7725Z" fill="#F0FBFF"/>
<path d="M66.8409 109.031V62.0355H64.2705V61.0984H62.2365V62.0355H59.6661V82.4026H59.416V74.2244H58.042V69.0144H56.6679V67.348H53.5581V69.0144H52.181V74.2244H50.8069V82.4026H48.8724V73.7031H43.9697V76.62H41.6976V78.2894H38.1088V109.031H66.8409Z" fill="#D2F2FE"/>
<path d="M86.5059 109.031V48.1802H83.7548V43.9073H83.1551V37.7601H81.3622V43.9073H80.7655V48.1802H78.0144V69.0144H70.9963V74.8512H69.4445V109.031H86.5059Z" fill="#D2F2FE"/>
<path d="M103.408 109.031V57.6601H94.7955V73.9381L90.8511 71.202V109.031H103.408Z" fill="#D2F2FE"/>
<path d="M143.949 109.031V58.076V52.3476L139.974 55.6804V58.076H135.997V62.4453H131.185V23.278H128.97V19.8398H125.143V23.278H122.931V70.2649H121.786V62.4453L116.642 64.633V70.2649H115.606V51.1995H106.397V109.031H143.949Z" fill="#D2F2FE"/>
<path d="M196.568 109.031V76.9334H190.231V54.8999H188.796V51.8263H186.642V54.8999H185.925V52.8659H183.174V54.8999H181.86V43.9073L176.357 39.9478H174.326V35.9883H167.748V61.0984H162.487V67.348H155.071V59.2241H152.32V57.0364H147.655V59.2241H145.624V109.031H196.568Z" fill="#D2F2FE"/>
<path d="M219.891 109.031V72.088H213.789V79.3441H208.528V74.6885H205.301V63.2348H197.647V109.031H219.891Z" fill="#D2F2FE"/>
<path d="M242 107.703H16V150.667H242V107.703Z" fill="#D2F2FE"/>
</g>
<g clip-path="url(#clip1_91_2)">
<path d="M122.551 138.418C122.551 138.607 122.252 138.759 121.887 138.759H4.82771C4.46291 138.759 4.16443 138.607 4.16443 138.418V131.335C4.16443 131.145 4.46291 130.994 4.82771 130.994H121.887C122.252 130.994 122.551 131.145 122.551 131.335V138.418Z" fill="#2A393F"/>
<path d="M5.77053 149.187C5.77053 149.376 5.61892 149.528 5.42941 149.528H2.49676C2.30725 149.528 2.15564 149.376 2.15564 149.187V140.995C2.15564 140.806 2.30725 140.654 2.49676 140.654H5.42941C5.61892 140.654 5.77053 140.806 5.77053 140.995V149.187Z" fill="#2A393F"/>
<path d="M93.9064 146.946C93.9064 147.135 93.7548 147.287 93.5653 147.287H33.1498C32.9603 147.287 32.8087 147.135 32.8087 146.946V139.863C32.8087 139.673 32.9603 139.522 33.1498 139.522H93.5653C93.7548 139.522 93.9064 139.673 93.9064 139.863V146.946Z" fill="#2A393F"/>
<path d="M228.482 131.179H201.86V147.903H228.482V131.179Z" fill="#050607"/>
<path d="M201.86 79.1631V135.054C201.86 135.054 215.5 135.054 220.404 135.054C225.303 135.054 226.231 139.294 226.231 147.903H250.071C250.071 147.903 250.071 120.884 250.071 112.01C250.071 103.136 243.846 91.3485 243.846 91.3485C243.846 91.3485 241.728 87.1083 236.559 84.7252C231.4 82.3421 201.86 77.8365 201.86 79.1631Z" fill="#FBCB4D"/>
<path d="M197.544 133.699C197.544 133.889 197.393 134.04 197.203 134.04H2.28826C2.09875 134.04 1.94714 133.884 1.94714 133.699V71.3411C1.94714 71.1516 2.09875 71 2.28826 71H197.203C197.393 71 197.544 71.1516 197.544 71.3411V133.699Z" fill="#9AEFEA"/>
<path d="M195.322 129.549C195.322 129.738 195.166 129.89 194.981 129.89H4.51031C4.3208 129.89 4.16919 129.738 4.16919 129.549V73.8853C4.16919 73.6958 4.3208 73.5442 4.51031 73.5442H194.976C195.166 73.5442 195.318 73.6958 195.318 73.8853V129.549H195.322Z" fill="#33C3C4"/>
<path d="M195.322 76.8748H4.16919V79.8738H195.322V76.8748Z" fill="#359095"/>
<path d="M195.322 84.6541H4.16919V87.6531H195.322V84.6541Z" fill="#359095"/>
<path d="M195.322 92.4335H4.16919V95.4325H195.322V92.4335Z" fill="#359095"/>
<path d="M195.322 100.218H4.16919V103.217H195.322V100.218Z" fill="#359095"/>
<path d="M195.322 107.997H4.16919V110.996H195.322V107.997Z" fill="#359095"/>
<path d="M195.322 115.776H4.16919V118.775H195.322V115.776Z" fill="#359095"/>
<path d="M195.322 123.556H4.16919V126.559H195.322V123.556Z" fill="#359095"/>
<path d="M197.108 130.207C197.108 130.293 196.98 130.359 196.819 130.359H2.6673C2.50621 130.359 2.3783 130.293 2.3783 130.207V128.687C2.3783 128.601 2.50621 128.535 2.6673 128.535H196.819C196.98 128.535 197.108 128.601 197.108 128.687V130.207Z" fill="#2A393F"/>
<path d="M118.59 141.905C118.59 142.094 118.438 142.246 118.249 142.246H0.341116C0.151607 142.246 0 142.094 0 141.905V138.181C0 137.991 0.151607 137.84 0.341116 137.84H118.249C118.438 137.84 118.59 137.991 118.59 138.181V141.905Z" fill="#359095"/>
<path d="M71.7482 143.861C71.7482 144.051 71.5966 144.203 71.4071 144.203H29.2508C29.0613 144.203 28.9097 144.051 28.9097 143.861V137.001C28.9097 136.812 29.0613 136.66 29.2508 136.66H71.4071C71.5966 136.66 71.7482 136.812 71.7482 137.001V143.861Z" fill="#4C4578"/>
<path d="M41.5688 144.127C41.5688 144.316 41.4172 144.468 41.2277 144.468H38.0818C37.8923 144.468 37.7407 144.316 37.7407 144.127V136.736C37.7407 136.546 37.8923 136.395 38.0818 136.395H41.2277C41.4172 136.395 41.5688 136.546 41.5688 136.736V144.127Z" fill="#2A393F"/>
<path d="M62.9265 144.127C62.9265 144.316 62.7749 144.468 62.5854 144.468H59.4395C59.25 144.468 59.0984 144.316 59.0984 144.127V136.736C59.0984 136.546 59.25 136.395 59.4395 136.395H62.5854C62.7749 136.395 62.9265 136.546 62.9265 136.736V144.127Z" fill="#2A393F"/>
<path d="M32.2213 146.235C32.2213 152.456 27.1803 157.497 20.9597 157.497C14.7391 157.497 9.69812 152.456 9.69812 146.235C9.69812 140.014 14.7391 134.974 20.9597 134.974C27.1756 134.974 32.2213 140.014 32.2213 146.235Z" fill="#4C4578"/>
<path d="M28.4359 146.235C28.4359 150.366 25.0863 153.716 20.955 153.716C16.8237 153.716 13.4741 150.366 13.4741 146.235C13.4741 142.104 16.8237 138.754 20.955 138.754C25.0863 138.754 28.4359 142.104 28.4359 146.235Z" fill="#2A393F"/>
<path d="M20.6754 151.366C20.6707 151.205 20.8033 151.077 20.9597 151.077C21.1208 151.077 21.2487 151.205 21.2487 151.366C21.2487 151.522 21.1208 151.655 20.9644 151.655C20.8033 151.65 20.6754 151.522 20.6754 151.366ZM19.4863 151.461C19.3347 151.423 19.2399 151.262 19.2825 151.105C19.3252 150.954 19.4815 150.859 19.6379 150.902C19.7895 150.944 19.8842 151.096 19.8416 151.252C19.8037 151.38 19.69 151.466 19.5621 151.466C19.5336 151.47 19.5147 151.466 19.4863 151.461ZM22.0873 151.252C22.0446 151.101 22.1346 150.94 22.291 150.902C22.4473 150.859 22.6037 150.949 22.6463 151.105C22.689 151.262 22.5942 151.418 22.4426 151.461C22.4189 151.466 22.3952 151.47 22.3668 151.47C22.2341 151.466 22.1157 151.385 22.0873 151.252ZM18.1123 150.892C17.9749 150.812 17.9275 150.636 18.0081 150.499C18.0886 150.362 18.2639 150.314 18.4013 150.39C18.5387 150.471 18.5861 150.646 18.5056 150.788C18.4534 150.878 18.3539 150.93 18.2592 150.93C18.2071 150.93 18.155 150.921 18.1123 150.892ZM23.4186 150.783C23.338 150.646 23.3854 150.471 23.5228 150.39H23.5275C23.6649 150.31 23.8402 150.357 23.9208 150.494C24.0013 150.632 23.9539 150.807 23.8165 150.888C23.7692 150.911 23.7218 150.925 23.6744 150.925C23.5702 150.925 23.4754 150.873 23.4186 150.783ZM16.9279 149.987C16.8142 149.874 16.8142 149.694 16.9279 149.58C17.0416 149.466 17.2216 149.466 17.3353 149.575C17.449 149.689 17.449 149.874 17.3353 149.983C17.2785 150.04 17.2074 150.068 17.1316 150.068C17.0558 150.073 16.9847 150.044 16.9279 149.987ZM24.5841 149.978C24.4703 149.864 24.4703 149.684 24.5841 149.57C24.6978 149.457 24.8825 149.457 24.9915 149.57C25.1052 149.684 25.1052 149.864 24.9915 149.978C24.9346 150.035 24.8636 150.063 24.7878 150.063C24.712 150.068 24.6409 150.035 24.5841 149.978ZM16.0182 148.808C15.9424 148.67 15.9851 148.495 16.1272 148.414C16.2646 148.334 16.4399 148.381 16.5204 148.519C16.601 148.656 16.5536 148.831 16.4162 148.912C16.3688 148.94 16.3215 148.955 16.2741 148.955C16.1699 148.955 16.0751 148.898 16.0182 148.808ZM25.5032 148.907C25.3658 148.827 25.3184 148.651 25.3989 148.509C25.4747 148.372 25.6548 148.324 25.7922 148.405C25.9296 148.486 25.9769 148.661 25.8964 148.798C25.8396 148.893 25.7448 148.94 25.6453 148.94C25.5979 148.945 25.5506 148.931 25.5032 148.907ZM15.4497 147.434C15.4071 147.277 15.4971 147.121 15.6534 147.078C15.805 147.036 15.9661 147.131 16.004 147.282C16.0419 147.434 15.9567 147.595 15.8003 147.633C15.7766 147.642 15.7482 147.642 15.7245 147.642C15.5966 147.647 15.4829 147.566 15.4497 147.434ZM26.1143 147.628C25.958 147.59 25.868 147.429 25.9106 147.273C25.9533 147.121 26.1096 147.026 26.2612 147.069C26.4176 147.107 26.5076 147.268 26.4649 147.42C26.4318 147.547 26.3133 147.633 26.1901 147.633C26.1665 147.637 26.1428 147.633 26.1143 147.628ZM15.2507 145.96C15.2507 145.799 15.3787 145.671 15.5397 145.671C15.7008 145.671 15.8287 145.799 15.8287 145.96C15.8287 146.117 15.7008 146.249 15.5445 146.249C15.3834 146.245 15.2507 146.121 15.2507 145.96ZM26.0859 145.951C26.0859 145.946 26.0859 145.946 26.0859 145.946C26.0859 145.941 26.0859 145.937 26.0859 145.927C26.0859 145.766 26.2138 145.638 26.3749 145.638C26.536 145.638 26.6639 145.766 26.6639 145.927C26.6639 145.932 26.6639 145.932 26.6639 145.937C26.6639 145.941 26.6639 145.941 26.6639 145.951C26.6639 146.107 26.536 146.24 26.3749 146.24C26.2138 146.235 26.0859 146.107 26.0859 145.951ZM15.6487 144.833C15.4924 144.795 15.4023 144.634 15.445 144.482C15.4876 144.331 15.644 144.236 15.7956 144.278C15.9472 144.316 16.0419 144.477 15.9993 144.629C15.9661 144.757 15.8477 144.847 15.7198 144.847C15.6961 144.847 15.6677 144.842 15.6487 144.833ZM25.9059 144.601C25.8632 144.444 25.9533 144.288 26.1096 144.245C26.2612 144.203 26.4223 144.293 26.4602 144.449C26.5028 144.605 26.4128 144.762 26.2565 144.804C26.2328 144.809 26.2044 144.814 26.1807 144.814C26.0575 144.814 25.939 144.729 25.9059 144.601ZM16.113 143.501C15.9756 143.426 15.9282 143.246 16.0088 143.108C16.0893 142.971 16.2646 142.919 16.402 143.004C16.5394 143.08 16.5868 143.26 16.511 143.397C16.4541 143.492 16.3594 143.539 16.2599 143.539C16.2078 143.535 16.1604 143.525 16.113 143.501ZM25.3895 143.369C25.3089 143.231 25.3563 143.056 25.4937 142.976C25.6311 142.9 25.8064 142.942 25.8869 143.08C25.9675 143.217 25.9201 143.392 25.7827 143.478C25.7353 143.501 25.6879 143.516 25.6406 143.516C25.5411 143.511 25.4416 143.459 25.3895 143.369ZM16.9137 142.331C16.8 142.218 16.8 142.037 16.9137 141.924C17.0274 141.81 17.2074 141.81 17.3211 141.919C17.4348 142.033 17.4348 142.218 17.3259 142.331C17.269 142.388 17.1932 142.417 17.1221 142.417C17.0416 142.417 16.9705 142.388 16.9137 142.331ZM24.5698 142.308C24.4561 142.194 24.4561 142.014 24.5698 141.9C24.6835 141.786 24.8636 141.786 24.9773 141.895C25.091 142.009 25.091 142.189 24.982 142.308C24.9252 142.364 24.8494 142.393 24.7783 142.393C24.6978 142.393 24.6267 142.364 24.5698 142.308ZM17.9844 141.407C17.9039 141.27 17.9512 141.095 18.0886 141.014C18.226 140.934 18.4013 140.981 18.4819 141.123C18.5624 141.26 18.515 141.436 18.3776 141.516C18.3303 141.54 18.2829 141.559 18.2355 141.559C18.136 141.554 18.0365 141.502 17.9844 141.407ZM23.5039 141.497C23.3665 141.417 23.3191 141.242 23.3949 141.104C23.4754 140.967 23.6507 140.919 23.7881 140.995C23.9255 141.076 23.9729 141.251 23.8923 141.388C23.8355 141.483 23.7407 141.531 23.6412 141.531C23.5986 141.535 23.5512 141.526 23.5039 141.497ZM19.2589 140.791C19.2162 140.64 19.3062 140.479 19.4626 140.441C19.4626 140.441 19.4626 140.441 19.4626 140.436C19.6189 140.398 19.7753 140.484 19.8179 140.64C19.8605 140.791 19.7705 140.953 19.6142 140.995V140.99C19.5905 141 19.5668 141 19.5384 141C19.4105 141.005 19.2968 140.924 19.2589 140.791ZM22.2673 140.99C22.1157 140.948 22.0209 140.791 22.0636 140.64C22.1015 140.484 22.2626 140.393 22.4142 140.431C22.5705 140.469 22.6605 140.63 22.6226 140.787C22.5895 140.915 22.471 141 22.3431 141C22.3147 141 22.291 140.995 22.2673 140.99ZM20.6517 140.536C20.6517 140.375 20.7797 140.242 20.9407 140.242C21.1018 140.242 21.2297 140.37 21.2297 140.531C21.2297 140.687 21.1018 140.82 20.9407 140.82C20.7797 140.82 20.6517 140.692 20.6517 140.536Z" fill="#445C63"/>
<path d="M22.7221 146.235C22.7221 147.211 21.9309 147.998 20.9597 147.998C19.9837 147.998 19.1925 147.206 19.1925 146.235C19.1925 145.264 19.9837 144.473 20.9597 144.473C21.9309 144.473 22.7221 145.264 22.7221 146.235Z" fill="#445C63"/>
<path d="M32.7282 147.5C32.7282 139.503 28.2178 134.533 20.9549 134.533C13.692 134.533 9.18166 139.503 9.18166 147.5C9.18166 148.296 6.29639 148.296 6.29639 147.5C6.29639 142.701 7.73192 138.669 10.4514 135.841C13.0855 133.097 16.7146 131.648 20.9549 131.648C25.1952 131.648 28.8243 133.097 31.4585 135.841C34.1779 138.674 35.6134 142.706 35.6134 147.5C35.6134 148.296 32.7282 148.296 32.7282 147.5Z" fill="#33C3C4"/>
<path d="M20.955 133.088C13.3414 133.088 7.74146 138.28 7.74146 147.5V148.097C8.46159 148.097 9.18172 147.898 9.18172 147.5C9.18172 139.503 13.692 134.533 20.955 134.533C28.2179 134.533 32.7282 139.503 32.7282 147.5C32.7282 147.898 33.4484 148.097 34.1685 148.097V147.5C34.1732 138.28 28.5732 133.088 20.955 133.088Z" fill="#359095"/>
<path d="M196.758 147.614C196.758 147.775 196.63 147.903 196.469 147.903H115.402C115.24 147.903 115.113 147.775 115.113 147.614V137.399C115.113 137.238 115.24 137.11 115.402 137.11H196.469C196.63 137.11 196.758 137.238 196.758 137.399V147.614Z" fill="#2A393F"/>
<path d="M204.693 147.614C204.693 147.775 204.566 147.903 204.404 147.903H177.864C177.703 147.903 177.575 147.775 177.575 147.614V132.804C177.575 132.643 177.703 132.515 177.864 132.515H204.404C204.566 132.515 204.693 132.643 204.693 132.804V147.614Z" fill="#2A393F"/>
<path d="M204.404 132.515H177.864C177.703 132.515 177.575 132.643 177.575 132.804V135.684H198.781C198.942 135.684 199.07 135.812 199.07 135.973V147.908H204.409C204.57 147.908 204.698 147.78 204.698 147.619V132.808C204.693 132.643 204.561 132.515 204.404 132.515Z" fill="#445C63"/>
<path d="M240.406 89.9178H204.248C204.187 89.9178 204.139 89.9651 204.139 90.0267C204.139 90.0883 204.187 90.1357 204.248 90.1357H210.232V132.41C210.232 132.472 210.279 132.519 210.341 132.519C210.402 132.519 210.45 132.472 210.45 132.41V90.131H240.406C240.468 90.131 240.515 90.0836 240.515 90.022C240.511 89.9651 240.463 89.9178 240.406 89.9178Z" fill="#FF8935"/>
<path d="M238.019 112.005L218.945 111.219C218.945 115.104 218.945 128.255 218.945 129.032C218.945 129.397 218.945 130.151 218.945 131.7C220.247 131.7 221.403 131.7 222.275 131.7C224.8 131.7 227.075 132.988 227.591 137.115H238.019V112.005Z" fill="#FF8935"/>
<path d="M238.019 115.677C238.019 115.838 237.891 115.966 237.73 115.966L219.234 112.142C219.073 112.142 218.945 112.014 218.945 111.853V95.4798C218.945 95.3187 219.073 95.1908 219.234 95.1908H237.73C237.891 95.1908 238.019 95.3187 238.019 95.4798V115.677Z" fill="#6AB7C7"/>
<path d="M244.945 93.599H242.809C242.647 93.599 242.52 93.7269 242.52 93.888V123.115C242.52 123.276 242.647 123.404 242.809 123.404H250.071C250.071 118.804 250.071 114.625 250.071 112.015C250.071 105.51 246.736 97.4507 244.945 93.599Z" fill="#6AB7C7"/>
<path d="M238.019 99.4832L225.004 113.336L226.468 113.64L238.019 101.345V99.4832Z" fill="#A4ECE0"/>
<path d="M229.003 95.1908L218.949 105.889V109.854L232.727 95.1908H229.003Z" fill="#A4ECE0"/>
<path d="M250.072 112.01C250.072 110.944 249.981 109.835 249.82 108.712L242.524 116.482V120.448L250.076 112.412C250.072 112.275 250.072 112.138 250.072 112.01Z" fill="#A4ECE0"/>
<path d="M247.906 100.971L242.524 106.699V109.082L248.47 102.752C248.29 102.151 248.101 101.554 247.906 100.971Z" fill="#A4ECE0"/>
<path d="M220.006 110.266V95.1908H219.234C219.073 95.1908 218.945 95.3187 218.945 95.4798V111.858C218.945 112.019 219.073 112.147 219.234 112.147L237.73 115.97C237.891 115.97 238.019 115.843 238.019 115.681V114.222L220.295 110.555C220.134 110.555 220.006 110.423 220.006 110.266Z" fill="#202B31"/>
<path d="M243.965 120.192V93.599H242.813C242.652 93.599 242.524 93.7269 242.524 93.888V123.115C242.524 123.276 242.652 123.404 242.813 123.404H250.076C250.076 122.404 250.076 121.428 250.076 120.481H244.254C244.092 120.481 243.965 120.348 243.965 120.192Z" fill="#202B31"/>
<path d="M223.469 116.7C223.469 116.861 223.341 116.989 223.18 116.989H220.143C219.982 116.989 219.854 116.861 219.854 116.7V116.255C219.854 116.094 219.982 115.966 220.143 115.966H223.18C223.341 115.966 223.469 116.094 223.469 116.255V116.7Z" fill="#2A393F"/>
<path d="M208.507 93.31C208.507 93.471 208.379 93.599 208.218 93.599H203.291C203.13 93.599 203.002 93.471 203.002 93.31V93.0304C203.002 92.8693 203.13 92.7414 203.291 92.7414H208.218C208.379 92.7414 208.507 92.8693 208.507 93.0304V93.31Z" fill="#202B31"/>
<path d="M208.507 94.9018C208.507 95.0629 208.379 95.1908 208.218 95.1908H203.291C203.13 95.1908 203.002 95.0629 203.002 94.9018V94.6223C203.002 94.4612 203.13 94.3333 203.291 94.3333H208.218C208.379 94.3333 208.507 94.4612 208.507 94.6223V94.9018Z" fill="#202B31"/>
<path d="M208.507 96.489C208.507 96.6501 208.379 96.778 208.218 96.778H203.291C203.13 96.778 203.002 96.6501 203.002 96.489V96.2094C203.002 96.0484 203.13 95.9204 203.291 95.9204H208.218C208.379 95.9204 208.507 96.0484 208.507 96.2094V96.489Z" fill="#202B31"/>
<path d="M208.507 98.0809C208.507 98.2419 208.379 98.3699 208.218 98.3699H203.291C203.13 98.3699 203.002 98.2419 203.002 98.0809V97.8013C203.002 97.6402 203.13 97.5123 203.291 97.5123H208.218C208.379 97.5123 208.507 97.6402 208.507 97.8013V98.0809Z" fill="#202B31"/>
<path d="M208.507 99.668C208.507 99.8291 208.379 99.957 208.218 99.957H203.291C203.13 99.957 203.002 99.8291 203.002 99.668V99.3885C203.002 99.2274 203.13 99.0995 203.291 99.0995H208.218C208.379 99.0995 208.507 99.2274 208.507 99.3885V99.668Z" fill="#202B31"/>
<path d="M208.507 101.26C208.507 101.421 208.379 101.549 208.218 101.549H203.291C203.13 101.549 203.002 101.421 203.002 101.26V100.98C203.002 100.819 203.13 100.691 203.291 100.691H208.218C208.379 100.691 208.507 100.819 208.507 100.98V101.26Z" fill="#202B31"/>
<path d="M208.507 102.847C208.507 103.008 208.379 103.136 208.218 103.136H203.291C203.13 103.136 203.002 103.008 203.002 102.847V102.567C203.002 102.406 203.13 102.278 203.291 102.278H208.218C208.379 102.278 208.507 102.406 208.507 102.567V102.847Z" fill="#202B31"/>
<path d="M208.507 104.439C208.507 104.6 208.379 104.728 208.218 104.728H203.291C203.13 104.728 203.002 104.6 203.002 104.439V104.159C203.002 103.998 203.13 103.87 203.291 103.87H208.218C208.379 103.87 208.507 103.998 208.507 104.159V104.439Z" fill="#202B31"/>
<path d="M208.507 106.026C208.507 106.187 208.379 106.315 208.218 106.315H203.291C203.13 106.315 203.002 106.187 203.002 106.026V105.747C203.002 105.585 203.13 105.458 203.291 105.458H208.218C208.379 105.458 208.507 105.585 208.507 105.747V106.026Z" fill="#202B31"/>
<path d="M208.507 107.618C208.507 107.779 208.379 107.907 208.218 107.907H203.291C203.13 107.907 203.002 107.779 203.002 107.618V107.338C203.002 107.177 203.13 107.049 203.291 107.049H208.218C208.379 107.049 208.507 107.177 208.507 107.338V107.618Z" fill="#202B31"/>
<path d="M243.334 116.766H241.074C240.757 116.766 240.496 116.506 240.496 116.188V95.4798C240.496 95.1624 240.757 94.9018 241.074 94.9018H243.334C243.495 94.9018 243.623 95.0297 243.623 95.1908C243.623 95.3519 243.495 95.4798 243.334 95.4798H241.074V116.193H243.334C243.495 116.193 243.623 116.321 243.623 116.482C243.623 116.639 243.495 116.766 243.334 116.766Z" fill="#202B31"/>
<path d="M245.173 112.919C245.173 113.104 245.007 113.256 244.803 113.256H239.317C239.113 113.256 238.947 113.104 238.947 112.919V98.2372C238.947 98.0524 239.113 97.9008 239.317 97.9008H244.803C245.007 97.9008 245.173 98.0524 245.173 98.2372V112.919Z" fill="#2A393F"/>
<path d="M250.64 132.226C250.64 132.387 250.512 132.515 250.351 132.515H245.338C245.177 132.515 245.049 132.387 245.049 132.226V128.199C245.049 128.037 245.177 127.91 245.338 127.91H250.351C250.512 127.91 250.64 128.037 250.64 128.199V132.226Z" fill="white"/>
<path opacity="0.5" d="M246.3 131.453V127.91H245.338C245.177 127.91 245.049 128.037 245.049 128.199V132.226C245.049 132.387 245.177 132.515 245.338 132.515H250.351C250.512 132.515 250.64 132.387 250.64 132.226V131.742H246.589C246.428 131.742 246.3 131.614 246.3 131.453Z" fill="#FFE780"/>
<path d="M250.64 139.124C250.64 139.285 250.512 139.413 250.351 139.413H245.338C245.177 139.413 245.049 139.285 245.049 139.124V135.097C245.049 134.936 245.177 134.808 245.338 134.808H250.351C250.512 134.808 250.64 134.936 250.64 135.097V139.124Z" fill="white"/>
<path opacity="0.5" d="M246.3 138.352V134.808H245.338C245.177 134.808 245.049 134.936 245.049 135.097V139.124C245.049 139.285 245.177 139.413 245.338 139.413H250.351C250.512 139.413 250.64 139.285 250.64 139.124V138.636H246.589C246.428 138.641 246.3 138.508 246.3 138.352Z" fill="#FFE780"/>
<path d="M224.156 146.14C224.156 152.361 219.115 157.407 212.89 157.407C206.669 157.407 201.628 152.366 201.628 146.14C201.628 139.92 206.669 134.879 212.89 134.879C219.11 134.874 224.156 139.92 224.156 146.14Z" fill="#4C4578"/>
<path d="M220.371 146.14C220.371 150.272 217.021 153.621 212.89 153.621C208.759 153.621 205.409 150.272 205.409 146.14C205.409 142.009 208.759 138.659 212.89 138.659C217.021 138.659 220.371 142.009 220.371 146.14Z" fill="#2A393F"/>
<path d="M212.61 151.267C212.606 151.105 212.738 150.978 212.895 150.978C213.056 150.978 213.184 151.105 213.184 151.267C213.184 151.423 213.056 151.556 212.899 151.556C212.738 151.556 212.61 151.423 212.61 151.267ZM211.421 151.366C211.269 151.323 211.175 151.167 211.217 151.011C211.26 150.859 211.416 150.764 211.573 150.807C211.724 150.845 211.819 151.001 211.776 151.158C211.739 151.29 211.625 151.371 211.497 151.371C211.468 151.371 211.45 151.371 211.421 151.366ZM214.022 151.158C213.979 151.006 214.069 150.845 214.226 150.807C214.382 150.764 214.539 150.854 214.581 151.011C214.624 151.167 214.529 151.323 214.377 151.366C214.349 151.371 214.33 151.376 214.302 151.376C214.174 151.371 214.055 151.286 214.022 151.158ZM210.047 150.798C209.91 150.717 209.862 150.542 209.943 150.404C210.023 150.267 210.199 150.22 210.336 150.295C210.474 150.376 210.521 150.551 210.44 150.689C210.388 150.779 210.289 150.831 210.194 150.831C210.142 150.835 210.09 150.821 210.047 150.798ZM215.353 150.684C215.273 150.546 215.32 150.371 215.458 150.291H215.462C215.6 150.21 215.775 150.257 215.856 150.395C215.936 150.532 215.889 150.708 215.751 150.788C215.704 150.812 215.657 150.826 215.609 150.826C215.505 150.826 215.41 150.774 215.353 150.684ZM208.863 149.893C208.749 149.779 208.749 149.599 208.863 149.485C208.976 149.371 209.156 149.371 209.27 149.48C209.384 149.594 209.384 149.779 209.27 149.893C209.213 149.949 209.142 149.978 209.066 149.978C208.991 149.973 208.92 149.945 208.863 149.893ZM216.519 149.883C216.405 149.769 216.405 149.589 216.519 149.476C216.633 149.362 216.817 149.362 216.926 149.476C217.04 149.589 217.04 149.769 216.926 149.883C216.869 149.94 216.798 149.968 216.723 149.968C216.652 149.968 216.576 149.94 216.519 149.883ZM207.953 148.713C207.877 148.576 207.92 148.396 208.062 148.32C208.199 148.239 208.375 148.287 208.455 148.424C208.536 148.561 208.488 148.737 208.351 148.817C208.304 148.846 208.256 148.86 208.209 148.86C208.105 148.855 208.01 148.803 207.953 148.713ZM217.438 148.808C217.301 148.727 217.253 148.552 217.334 148.414C217.41 148.277 217.59 148.23 217.727 148.305C217.864 148.386 217.912 148.561 217.831 148.699C217.774 148.793 217.68 148.841 217.58 148.841C217.533 148.846 217.485 148.836 217.438 148.808ZM207.385 147.339C207.342 147.183 207.432 147.026 207.588 146.984C207.74 146.946 207.901 147.036 207.939 147.187C207.977 147.339 207.891 147.5 207.735 147.538C207.711 147.547 207.683 147.547 207.659 147.547C207.531 147.552 207.418 147.467 207.385 147.339ZM218.049 147.529C217.893 147.491 217.803 147.33 217.845 147.173C217.883 147.022 218.044 146.927 218.196 146.969C218.352 147.012 218.442 147.168 218.4 147.32C218.367 147.448 218.248 147.533 218.125 147.533C218.101 147.538 218.078 147.538 218.049 147.529ZM207.186 145.861C207.186 145.7 207.318 145.572 207.475 145.572C207.636 145.572 207.764 145.7 207.764 145.861C207.764 146.022 207.636 146.15 207.479 146.15C207.318 146.15 207.186 146.022 207.186 145.861ZM218.021 145.851C218.021 145.847 218.021 145.847 218.021 145.847C218.021 145.842 218.021 145.837 218.021 145.828C218.021 145.667 218.149 145.539 218.31 145.539C218.471 145.539 218.599 145.667 218.599 145.828C218.599 145.832 218.599 145.832 218.599 145.837C218.599 145.842 218.599 145.842 218.599 145.851C218.599 146.008 218.471 146.14 218.31 146.14C218.149 146.14 218.021 146.008 218.021 145.851ZM207.584 144.738C207.427 144.7 207.337 144.539 207.38 144.387C207.422 144.236 207.579 144.141 207.73 144.184C207.882 144.226 207.977 144.383 207.934 144.534C207.901 144.662 207.783 144.752 207.659 144.752C207.631 144.747 207.607 144.747 207.584 144.738ZM217.841 144.506C217.798 144.349 217.888 144.193 218.044 144.151C218.196 144.108 218.357 144.198 218.395 144.354C218.438 144.511 218.348 144.667 218.191 144.71C218.168 144.714 218.139 144.719 218.115 144.719C217.992 144.714 217.874 144.629 217.841 144.506ZM208.048 143.402C207.91 143.326 207.863 143.146 207.944 143.009C208.024 142.871 208.199 142.824 208.337 142.904C208.474 142.98 208.522 143.16 208.446 143.298C208.389 143.388 208.294 143.44 208.195 143.44C208.143 143.44 208.095 143.43 208.048 143.402ZM217.324 143.269C217.244 143.132 217.291 142.957 217.429 142.876C217.566 142.8 217.746 142.843 217.826 142.98C217.907 143.118 217.86 143.293 217.722 143.374C217.675 143.397 217.627 143.411 217.58 143.411C217.476 143.411 217.376 143.359 217.324 143.269ZM208.848 142.232C208.735 142.118 208.735 141.938 208.848 141.824C208.962 141.711 209.142 141.711 209.256 141.82C209.37 141.933 209.37 142.118 209.261 142.227C209.204 142.284 209.128 142.312 209.057 142.312C208.976 142.317 208.905 142.293 208.848 142.232ZM216.505 142.208C216.391 142.094 216.391 141.914 216.505 141.801C216.618 141.687 216.798 141.687 216.912 141.796C217.026 141.91 217.026 142.09 216.917 142.203C216.86 142.26 216.784 142.289 216.713 142.289C216.633 142.293 216.562 142.27 216.505 142.208ZM209.919 141.313C209.839 141.175 209.886 141 210.023 140.915C210.161 140.834 210.336 140.881 210.417 141.024C210.497 141.161 210.45 141.336 210.312 141.417C210.265 141.441 210.218 141.459 210.17 141.459C210.071 141.455 209.971 141.403 209.919 141.313ZM215.439 141.398C215.301 141.317 215.254 141.142 215.334 141.005C215.415 140.867 215.59 140.82 215.728 140.9C215.865 140.981 215.912 141.156 215.832 141.294C215.775 141.388 215.68 141.436 215.581 141.436C215.533 141.436 215.486 141.426 215.439 141.398ZM211.198 140.697C211.156 140.545 211.246 140.384 211.402 140.346C211.402 140.346 211.402 140.346 211.402 140.341C211.558 140.303 211.715 140.389 211.757 140.545C211.795 140.697 211.71 140.858 211.554 140.9V140.896C211.53 140.905 211.506 140.905 211.478 140.905C211.345 140.91 211.232 140.825 211.198 140.697ZM214.202 140.891C214.051 140.848 213.956 140.692 213.998 140.54C214.036 140.384 214.197 140.294 214.349 140.332C214.505 140.375 214.595 140.531 214.557 140.687C214.524 140.815 214.406 140.9 214.278 140.9C214.254 140.9 214.231 140.9 214.202 140.891ZM212.587 140.436C212.587 140.275 212.714 140.142 212.876 140.142C213.032 140.142 213.165 140.275 213.165 140.431C213.165 140.592 213.037 140.72 212.876 140.72C212.714 140.72 212.587 140.592 212.587 140.436Z" fill="#445C63"/>
<path d="M214.657 146.14C214.657 147.116 213.866 147.907 212.895 147.907C211.919 147.907 211.132 147.116 211.132 146.14C211.132 145.164 211.923 144.378 212.895 144.378C213.866 144.373 214.657 145.164 214.657 146.14Z" fill="#445C63"/>
<path d="M224.791 147.903C224.791 138.205 223.379 136.499 220.404 136.499H201.86C201.064 136.499 201.064 133.614 201.86 133.614H220.404C227.117 133.614 227.672 140.375 227.672 147.903C227.676 148.699 224.791 148.699 224.791 147.903Z" fill="#33C3C4"/>
<path d="M220.404 135.059C215.505 135.059 201.86 135.059 201.86 135.059H201.263C201.263 135.779 201.462 136.499 201.86 136.499H220.404C223.374 136.499 224.791 138.205 224.791 147.903C224.791 148.301 225.511 148.5 226.231 148.5V147.903C226.231 139.294 225.307 135.059 220.404 135.059Z" fill="#359095"/>
<path d="M177.627 131.179H151.006V147.903H177.627V131.179Z" fill="#445C63"/>
<path d="M173.297 146.14C173.297 152.361 168.256 157.407 162.03 157.407C155.805 157.407 150.769 152.366 150.769 146.14C150.769 139.92 155.81 134.879 162.03 134.879C168.251 134.879 173.297 139.92 173.297 146.14Z" fill="#4C4578"/>
<path d="M169.516 146.14C169.516 150.272 166.166 153.621 162.035 153.621C157.904 153.621 154.554 150.272 154.554 146.14C154.554 142.009 157.904 138.659 162.035 138.659C166.166 138.659 169.516 142.009 169.516 146.14Z" fill="#2A393F"/>
<path d="M161.751 151.267C161.746 151.105 161.879 150.978 162.035 150.978C162.196 150.978 162.324 151.105 162.324 151.267C162.324 151.423 162.196 151.556 162.04 151.556C161.879 151.556 161.751 151.423 161.751 151.267ZM160.561 151.366C160.41 151.323 160.315 151.167 160.358 151.011C160.396 150.859 160.557 150.764 160.713 150.807C160.865 150.845 160.959 151.001 160.917 151.158C160.879 151.29 160.765 151.371 160.637 151.371C160.614 151.371 160.59 151.371 160.561 151.366ZM163.162 151.158C163.12 151.006 163.21 150.845 163.366 150.807C163.523 150.764 163.679 150.854 163.722 151.011C163.764 151.167 163.669 151.323 163.518 151.366C163.494 151.371 163.47 151.376 163.442 151.376C163.314 151.371 163.196 151.286 163.162 151.158ZM159.188 150.798C159.05 150.717 159.003 150.542 159.079 150.404C159.159 150.267 159.334 150.22 159.472 150.295C159.609 150.376 159.657 150.551 159.576 150.689C159.524 150.779 159.424 150.831 159.325 150.831C159.282 150.835 159.23 150.821 159.188 150.798ZM164.494 150.684C164.413 150.546 164.461 150.371 164.598 150.291H164.603C164.74 150.21 164.915 150.257 164.996 150.395C165.077 150.532 165.029 150.708 164.892 150.788C164.844 150.812 164.797 150.826 164.75 150.826C164.645 150.826 164.551 150.774 164.494 150.684ZM158.003 149.893C157.889 149.779 157.889 149.599 158.003 149.485C158.117 149.371 158.297 149.371 158.415 149.48C158.529 149.594 158.529 149.779 158.415 149.893C158.358 149.949 158.287 149.978 158.212 149.978C158.136 149.973 158.06 149.945 158.003 149.893ZM165.659 149.883C165.546 149.769 165.546 149.589 165.659 149.476C165.773 149.362 165.958 149.362 166.071 149.476C166.185 149.589 166.185 149.769 166.071 149.883C166.015 149.94 165.939 149.968 165.868 149.968C165.792 149.968 165.716 149.94 165.659 149.883ZM157.093 148.713C157.018 148.576 157.06 148.396 157.202 148.32C157.34 148.239 157.515 148.287 157.596 148.424C157.676 148.561 157.629 148.737 157.491 148.817C157.444 148.846 157.397 148.86 157.349 148.86C157.25 148.855 157.15 148.803 157.093 148.713ZM166.583 148.808C166.446 148.727 166.398 148.552 166.479 148.414C166.555 148.277 166.735 148.23 166.872 148.305C167.01 148.386 167.057 148.561 166.981 148.699C166.924 148.793 166.829 148.841 166.73 148.841C166.678 148.846 166.626 148.836 166.583 148.808ZM156.525 147.339C156.482 147.183 156.572 147.026 156.729 146.984C156.88 146.946 157.041 147.036 157.079 147.187C157.117 147.339 157.032 147.5 156.876 147.538C156.852 147.547 156.823 147.547 156.8 147.547C156.672 147.552 156.558 147.467 156.525 147.339ZM167.19 147.529C167.033 147.491 166.943 147.33 166.986 147.173C167.028 147.022 167.185 146.927 167.336 146.969C167.493 147.012 167.583 147.168 167.54 147.32C167.507 147.448 167.389 147.533 167.261 147.533C167.242 147.538 167.218 147.538 167.19 147.529ZM156.326 145.861C156.326 145.7 156.454 145.572 156.615 145.572C156.771 145.572 156.904 145.7 156.904 145.861C156.904 146.022 156.776 146.15 156.62 146.15C156.459 146.15 156.326 146.022 156.326 145.861ZM167.161 145.851C167.161 145.847 167.161 145.847 167.161 145.847C167.161 145.842 167.161 145.837 167.161 145.828C167.161 145.667 167.289 145.539 167.45 145.539C167.611 145.539 167.739 145.667 167.739 145.828C167.739 145.832 167.739 145.832 167.739 145.837C167.739 145.842 167.739 145.842 167.739 145.851C167.739 146.008 167.611 146.14 167.45 146.14C167.289 146.14 167.161 146.008 167.161 145.851ZM156.724 144.738C156.568 144.7 156.478 144.539 156.52 144.387C156.558 144.236 156.719 144.141 156.871 144.184C157.022 144.226 157.117 144.383 157.074 144.534C157.041 144.662 156.923 144.752 156.795 144.752C156.771 144.747 156.748 144.747 156.724 144.738ZM166.981 144.506C166.938 144.349 167.028 144.193 167.185 144.151C167.336 144.108 167.497 144.198 167.535 144.354C167.578 144.511 167.488 144.667 167.332 144.71C167.308 144.714 167.28 144.719 167.256 144.719C167.133 144.714 167.014 144.629 166.981 144.506ZM157.188 143.402C157.051 143.326 157.003 143.146 157.084 143.009C157.165 142.871 157.34 142.824 157.477 142.904C157.615 142.98 157.662 143.16 157.586 143.298C157.529 143.388 157.435 143.44 157.335 143.44C157.283 143.44 157.236 143.43 157.188 143.402ZM166.465 143.269C166.384 143.132 166.431 142.957 166.569 142.876C166.706 142.8 166.882 142.843 166.962 142.98C167.043 143.118 166.995 143.293 166.858 143.374C166.811 143.397 166.763 143.411 166.716 143.411C166.616 143.411 166.522 143.359 166.465 143.269ZM157.989 142.232C157.875 142.118 157.875 141.938 157.989 141.824C158.103 141.711 158.283 141.711 158.396 141.82C158.51 141.933 158.51 142.118 158.401 142.227C158.344 142.284 158.268 142.312 158.197 142.312C158.117 142.317 158.046 142.293 157.989 142.232ZM165.645 142.208C165.531 142.094 165.531 141.914 165.645 141.801C165.759 141.687 165.939 141.687 166.052 141.796C166.166 141.91 166.166 142.09 166.057 142.203C166 142.26 165.925 142.289 165.854 142.289C165.773 142.293 165.702 142.27 165.645 142.208ZM159.064 141.313C158.984 141.175 159.031 141 159.169 140.915C159.306 140.834 159.481 140.881 159.562 141.024C159.642 141.161 159.595 141.336 159.458 141.417C159.41 141.441 159.363 141.459 159.315 141.459C159.211 141.455 159.116 141.403 159.064 141.313ZM164.584 141.398C164.446 141.317 164.399 141.142 164.475 141.005C164.555 140.867 164.731 140.82 164.873 140.9C165.01 140.981 165.058 141.156 164.977 141.294C164.92 141.388 164.825 141.436 164.726 141.436C164.679 141.436 164.626 141.426 164.584 141.398ZM160.339 140.697C160.296 140.545 160.386 140.384 160.543 140.346C160.543 140.346 160.543 140.346 160.543 140.341C160.699 140.303 160.855 140.389 160.898 140.545C160.94 140.697 160.85 140.858 160.694 140.9V140.896C160.67 140.905 160.647 140.905 160.618 140.905C160.486 140.91 160.372 140.825 160.339 140.697ZM163.342 140.891C163.191 140.848 163.096 140.692 163.139 140.54C163.177 140.384 163.338 140.294 163.489 140.332C163.646 140.375 163.74 140.531 163.698 140.687C163.665 140.815 163.546 140.9 163.418 140.9C163.395 140.9 163.371 140.9 163.342 140.891ZM161.727 140.436C161.727 140.275 161.855 140.142 162.016 140.142C162.177 140.142 162.305 140.275 162.305 140.431C162.305 140.592 162.177 140.72 162.016 140.72C161.86 140.72 161.727 140.592 161.727 140.436Z" fill="#445C63"/>
<path d="M163.798 146.14C163.798 147.116 163.006 147.908 162.035 147.908C161.064 147.908 160.273 147.116 160.273 146.14C160.273 145.164 161.064 144.378 162.035 144.378C163.006 144.378 163.798 145.164 163.798 146.14Z" fill="#445C63"/>
<path d="M143.103 146.14C143.103 152.361 138.062 157.407 131.837 157.407C125.616 157.407 120.575 152.366 120.575 146.14C120.575 139.92 125.616 134.879 131.837 134.879C138.057 134.874 143.103 139.92 143.103 146.14Z" fill="#4C4578"/>
<path d="M139.318 146.14C139.318 150.272 135.968 153.621 131.837 153.621C127.705 153.621 124.356 150.272 124.356 146.14C124.356 142.009 127.705 138.659 131.837 138.659C135.968 138.659 139.318 142.009 139.318 146.14Z" fill="#2A393F"/>
<path d="M131.557 151.267C131.552 151.105 131.685 150.978 131.841 150.978C132.002 150.978 132.13 151.105 132.13 151.267C132.13 151.423 132.002 151.556 131.846 151.556C131.68 151.556 131.557 151.423 131.557 151.267ZM130.368 151.366C130.216 151.323 130.122 151.167 130.164 151.011C130.207 150.859 130.363 150.764 130.52 150.807C130.671 150.845 130.766 151.001 130.723 151.158C130.685 151.29 130.572 151.371 130.444 151.371C130.415 151.371 130.392 151.371 130.368 151.366ZM132.964 151.158C132.922 151.006 133.012 150.845 133.168 150.807C133.324 150.764 133.481 150.854 133.523 151.011C133.566 151.167 133.471 151.323 133.32 151.366C133.296 151.371 133.272 151.376 133.244 151.376C133.116 151.371 132.997 151.286 132.964 151.158ZM128.989 150.798C128.852 150.717 128.805 150.542 128.885 150.404C128.966 150.267 129.141 150.22 129.278 150.295C129.416 150.376 129.463 150.551 129.383 150.689C129.33 150.779 129.231 150.831 129.136 150.831C129.084 150.835 129.037 150.821 128.989 150.798ZM134.3 150.684C134.22 150.546 134.267 150.371 134.405 150.291H134.409C134.547 150.21 134.722 150.257 134.802 150.395C134.883 150.532 134.836 150.708 134.698 150.788C134.651 150.812 134.604 150.826 134.556 150.826C134.447 150.826 134.352 150.774 134.3 150.684ZM127.81 149.893C127.696 149.779 127.696 149.599 127.81 149.485C127.923 149.371 128.103 149.371 128.222 149.48C128.335 149.594 128.335 149.779 128.222 149.893C128.165 149.949 128.094 149.978 128.018 149.978C127.938 149.973 127.866 149.945 127.81 149.893ZM135.466 149.883C135.352 149.769 135.352 149.589 135.466 149.476C135.579 149.362 135.764 149.362 135.873 149.476C135.987 149.589 135.987 149.769 135.873 149.883C135.816 149.94 135.745 149.968 135.669 149.968C135.594 149.968 135.523 149.94 135.466 149.883ZM126.9 148.713C126.824 148.576 126.867 148.396 127.009 148.32C127.146 148.239 127.322 148.287 127.402 148.424C127.483 148.561 127.435 148.737 127.298 148.817C127.251 148.846 127.203 148.86 127.156 148.86C127.052 148.855 126.952 148.803 126.9 148.713ZM136.385 148.808C136.247 148.727 136.2 148.552 136.281 148.414C136.356 148.277 136.536 148.23 136.674 148.305C136.811 148.386 136.859 148.561 136.778 148.699C136.721 148.793 136.627 148.841 136.527 148.841C136.48 148.846 136.432 148.836 136.385 148.808ZM126.327 147.339C126.284 147.183 126.374 147.026 126.53 146.984C126.682 146.946 126.843 147.036 126.881 147.187C126.919 147.339 126.834 147.5 126.677 147.538C126.654 147.547 126.625 147.547 126.601 147.547C126.478 147.552 126.36 147.467 126.327 147.339ZM136.996 147.529C136.84 147.491 136.75 147.33 136.792 147.173C136.835 147.022 136.991 146.927 137.143 146.969C137.299 147.012 137.389 147.168 137.347 147.32C137.313 147.448 137.195 147.533 137.072 147.533C137.043 147.538 137.024 147.538 136.996 147.529ZM126.132 145.861C126.132 145.7 126.26 145.572 126.421 145.572C126.578 145.572 126.71 145.7 126.71 145.861C126.71 146.022 126.583 146.15 126.426 146.15C126.26 146.15 126.132 146.022 126.132 145.861ZM136.963 145.851C136.963 145.847 136.963 145.847 136.963 145.847C136.963 145.842 136.963 145.837 136.963 145.828C136.963 145.667 137.091 145.539 137.252 145.539C137.408 145.539 137.541 145.667 137.541 145.828C137.541 145.832 137.541 145.832 137.541 145.837C137.541 145.842 137.541 145.842 137.541 145.851C137.541 146.008 137.413 146.14 137.252 146.14C137.096 146.14 136.963 146.008 136.963 145.851ZM126.526 144.738C126.369 144.7 126.279 144.539 126.322 144.387C126.36 144.236 126.521 144.141 126.673 144.184C126.824 144.226 126.919 144.383 126.876 144.534C126.843 144.662 126.725 144.752 126.601 144.752C126.578 144.747 126.549 144.747 126.526 144.738ZM136.788 144.506C136.745 144.349 136.835 144.193 136.991 144.151C137.143 144.108 137.304 144.198 137.342 144.354C137.385 144.511 137.295 144.667 137.138 144.71C137.114 144.714 137.086 144.719 137.062 144.719C136.939 144.714 136.821 144.629 136.788 144.506ZM126.995 143.402C126.857 143.326 126.81 143.146 126.886 143.009C126.966 142.871 127.142 142.824 127.279 142.904C127.416 142.98 127.464 143.16 127.388 143.298C127.331 143.388 127.236 143.44 127.137 143.44C127.089 143.44 127.042 143.43 126.995 143.402ZM136.271 143.269C136.191 143.132 136.238 142.957 136.375 142.876C136.513 142.8 136.693 142.843 136.773 142.98C136.854 143.118 136.807 143.293 136.669 143.374C136.622 143.397 136.574 143.411 136.527 143.411C136.418 143.411 136.323 143.359 136.271 143.269ZM127.795 142.232C127.682 142.118 127.682 141.938 127.795 141.824C127.909 141.711 128.089 141.711 128.203 141.82C128.317 141.933 128.317 142.118 128.208 142.227C128.151 142.284 128.075 142.312 128.004 142.312C127.923 142.317 127.852 142.293 127.795 142.232ZM135.452 142.208C135.338 142.094 135.338 141.914 135.452 141.801C135.565 141.687 135.745 141.687 135.859 141.796C135.973 141.91 135.973 142.09 135.864 142.203C135.807 142.26 135.731 142.289 135.66 142.289C135.579 142.293 135.508 142.27 135.452 142.208ZM128.866 141.313C128.786 141.175 128.833 141 128.97 140.915C129.108 140.834 129.283 140.881 129.364 141.024C129.444 141.161 129.397 141.336 129.259 141.417C129.212 141.441 129.165 141.459 129.117 141.459C129.018 141.455 128.918 141.403 128.866 141.313ZM134.386 141.398C134.248 141.317 134.201 141.142 134.277 141.005C134.357 140.867 134.532 140.82 134.67 140.9C134.807 140.981 134.855 141.156 134.779 141.294C134.722 141.388 134.627 141.436 134.528 141.436C134.48 141.436 134.433 141.426 134.386 141.398ZM130.141 140.697C130.098 140.545 130.188 140.384 130.344 140.346C130.344 140.346 130.344 140.346 130.344 140.341C130.501 140.303 130.657 140.389 130.7 140.545C130.742 140.697 130.652 140.858 130.496 140.9V140.896C130.472 140.905 130.449 140.905 130.42 140.905C130.292 140.91 130.178 140.825 130.141 140.697ZM133.149 140.891C132.997 140.848 132.903 140.692 132.945 140.54C132.983 140.384 133.144 140.294 133.296 140.332C133.452 140.375 133.542 140.531 133.504 140.687C133.471 140.815 133.353 140.9 133.225 140.9C133.196 140.9 133.173 140.9 133.149 140.891ZM131.533 140.436C131.533 140.275 131.661 140.142 131.822 140.142C131.979 140.142 132.111 140.275 132.111 140.431C132.111 140.592 131.979 140.72 131.822 140.72C131.661 140.72 131.533 140.592 131.533 140.436Z" fill="#445C63"/>
<path d="M133.604 146.14C133.604 147.116 132.813 147.907 131.837 147.907C130.866 147.907 130.074 147.116 130.074 146.14C130.074 145.164 130.866 144.378 131.837 144.378C132.813 144.373 133.604 145.164 133.604 146.14Z" fill="#445C63"/>
<path d="M143.61 147.401C143.61 139.403 139.1 134.433 131.837 134.433C124.574 134.433 120.063 139.403 120.063 147.401C120.063 148.197 117.178 148.197 117.178 147.401C117.178 142.601 118.614 138.569 121.333 135.741C123.967 132.998 127.596 131.548 131.837 131.548C136.077 131.548 139.711 132.998 142.34 135.741C145.06 138.574 146.495 142.606 146.495 147.401C146.495 148.197 143.61 148.197 143.61 147.401Z" fill="#33C3C4"/>
<path d="M131.837 132.988C124.223 132.988 118.623 138.181 118.623 147.401V147.998C119.343 147.998 120.063 147.799 120.063 147.401C120.063 139.403 124.574 134.433 131.837 134.433C139.1 134.433 143.61 139.403 143.61 147.401C143.61 147.799 144.33 147.998 145.05 147.998V147.401C145.05 138.181 139.45 132.988 131.837 132.988Z" fill="#359095"/>
<path d="M173.808 147.401C173.808 139.403 169.298 134.433 162.035 134.433C154.772 134.433 150.262 139.403 150.262 147.401C150.262 148.197 147.376 148.197 147.376 147.401C147.376 142.601 148.812 138.569 151.531 135.741C154.166 132.998 157.795 131.548 162.035 131.548C166.275 131.548 169.909 132.998 172.539 135.741C175.258 138.574 176.694 142.606 176.694 147.401C176.694 148.197 173.808 148.197 173.808 147.401Z" fill="#33C3C4"/>
<path d="M162.035 132.988C154.421 132.988 148.821 138.181 148.821 147.401V147.998C149.542 147.998 150.262 147.799 150.262 147.401C150.262 139.403 154.772 134.433 162.035 134.433C169.298 134.433 173.808 139.403 173.808 147.401C173.808 147.799 174.528 147.998 175.248 147.998V147.401C175.248 138.181 169.648 132.988 162.035 132.988Z" fill="#359095"/>
<path d="M251 148.277C251 148.438 250.872 148.566 250.711 148.566H228.482C228.321 148.566 228.193 148.438 228.193 148.277V142.099C228.193 141.938 228.321 141.81 228.482 141.81H250.711C250.872 141.81 251 141.938 251 142.099V148.277Z" fill="#33C3C4"/>
<path d="M228.197 145.354V148.277C228.197 148.438 228.325 148.566 228.486 148.566H250.716C250.877 148.566 251.005 148.438 251.005 148.277V145.354H228.197Z" fill="#359095"/>
</g>
<defs>
<clipPath id="clip0_91_2">
<rect width="226" height="150.667" fill="white" transform="translate(16)"/>
</clipPath>
<clipPath id="clip1_91_2">
<rect width="251" height="86.5014" fill="white" transform="translate(0 71)"/>
</clipPath>
</defs>
</svg>
