<svg width="304" height="127" viewBox="0 0 304 127" fill="none" xmlns="http://www.w3.org/2000/svg">
<path d="M4.13965 112.748C4.13965 115.788 6.95969 118.248 151.74 118.248C312.78 118.248 299.34 115.788 299.34 112.748C299.34 109.708 292.66 107.248 151.74 107.248C8.67969 107.248 4.13965 109.708 4.13965 112.748Z" fill="#003366"/>
<path d="M272.24 103.548L217.34 104.308H70.7497L15.1097 99.3175L4.13965 81.7275L34.7397 59.7375L257.34 63.3976L283.07 83.7275L272.24 103.548Z" fill="#003366"/>
<path d="M302.359 72.7876L300.539 98.0376H289.419L302.359 72.7876Z" fill="#003366"/>
<path d="M11.8695 34.6875C11.8695 34.6875 23.7395 34.8076 26.9095 33.8076C30.0795 32.8076 45.9895 11.5675 45.9895 11.5675L39.2395 8.98755C39.5695 5.98755 39.5695 3.65754 39.5695 3.65754C39.5695 3.65754 67.4495 -1.45246 143.139 0.407538C154.299 0.687538 165.88 3.17756 176.94 6.73756L174.199 8.31754C211.689 23.3175 231.68 38.3076 231.68 38.3076L237.51 36.9775C237.51 36.9775 269.169 38.1576 297.409 58.0576C300.109 59.9576 301.509 62.5576 302.139 65.3076C302.019 65.2776 262.34 56.6076 216.25 56.6076C199.85 56.6076 34.7295 45.0675 34.7295 45.0675L10.4895 42.0675L8.95947 42.7476C9.17947 40.5176 9.37947 38.6575 9.57947 37.6575C9.68947 37.1175 10.5395 36.0776 11.8695 34.7076V34.6875Z" fill="#217DD9"/>
<path d="M127.16 5.63763L135.72 41.6476C129.34 41.2376 123.29 40.8676 117.86 40.5276L113.02 5.57763C117.19 5.50763 121.87 5.51763 127.16 5.63763Z" fill="#003366"/>
<path d="M79.9795 8.80765C85.3995 8.03765 93.5295 5.90764 113.03 5.57764L117.87 40.5276C108.78 39.9676 101.43 39.5476 97.2496 39.3476C76.0096 38.3476 61.6395 33.2476 56.9795 32.0476C49.2295 30.0476 72.9795 9.80765 79.9695 8.80765H79.9795Z" fill="white"/>
<path d="M133.119 5.81744C148.139 6.35744 162.219 6.02746 197.929 23.8375C223.939 36.8075 221.519 47.2874 221.519 47.2874C221.519 47.2874 173.029 44.0274 135.729 41.6574L127.169 5.64746C129.079 5.68746 131.059 5.74745 133.129 5.82745L133.119 5.81744Z" fill="white"/>
<path d="M202.939 38.3077C203.089 42.8077 203.939 47.8977 203.939 47.8977L196.439 47.2876V43.1076C196.439 43.1076 186.189 42.5676 186.189 38.3176C186.189 34.0676 189.189 31.8176 195.059 32.0676C200.929 32.3176 202.859 36.0376 202.929 38.3176L202.939 38.3077Z" fill="#3399FF"/>
<path d="M174.199 8.30756L176.939 6.72754C209.459 17.2075 237.519 36.9676 237.519 36.9676L231.689 38.2975C231.689 38.2975 211.699 23.2976 174.209 8.30756H174.199Z" fill="#99CCFF"/>
<path d="M26.9096 33.8076C23.7496 34.8076 11.9096 34.6875 11.8696 34.6875C18.7896 27.5775 38.9596 11.4975 39.2396 8.98755L45.9896 11.5675C45.9896 11.5675 30.0796 32.8076 26.9096 33.8076Z" fill="url(#paint0_linear_424_1340)"/>
<g style="mix-blend-mode:multiply">
<path d="M26.9096 33.8076C23.7496 34.8076 11.9096 34.6875 11.8696 34.6875C18.7896 27.5775 38.9596 11.4975 39.2396 8.98755L45.9896 11.5675C45.9896 11.5675 30.0796 32.8076 26.9096 33.8076Z" fill="#99CCFF"/>
</g>
<path d="M296.169 65.2976L270.009 61.6276C270.009 61.6276 257.679 51.1276 257.349 50.2976C257.019 49.4676 266.349 47.1276 269.849 48.1276C273.349 49.1276 283.179 53.7176 287.679 56.5876C292.179 59.4576 296.179 65.2876 296.179 65.2876L296.169 65.2976Z" fill="#99CCFF"/>
<path d="M0.249507 69.9675C0.249507 69.9675 5.57948 62.1375 6.90948 58.0575C7.83948 55.1975 8.54951 47.1075 9.05951 41.8875L10.4995 42.0575L34.7395 45.0575C34.7395 45.0575 199.86 56.5974 216.26 56.5974C262.35 56.5974 302.039 65.2775 302.149 65.2975C303.709 72.0075 300.669 79.5475 300.669 79.5475L296.169 96.5475H303.169C303.169 96.5475 302.299 101.067 299.669 101.687C298.189 102.037 285.43 102.907 272.24 103.547C272.81 101.307 273.109 97.1974 273.109 94.7874C273.109 79.0874 260.38 66.3575 244.68 66.3575C228.98 66.3575 216.25 79.0874 216.25 94.7874C216.25 97.4774 216.629 101.837 217.329 104.307H70.7395C71.4395 101.847 71.8195 97.4774 71.8195 94.7874C71.8195 79.0874 59.0895 66.3575 43.3895 66.3575C27.6895 66.3575 14.9595 79.0874 14.9595 94.7874C14.9595 95.7174 15.0095 98.4074 15.0995 99.3174C10.0895 98.2974 5.91949 97.3075 4.22949 96.5575C-1.44051 94.0575 0.229488 69.9575 0.229488 69.9575L0.249507 69.9675Z" fill="#003399"/>
<path d="M43.4094 62.5575C32.7894 62.5575 23.4294 67.2874 17.9194 74.4774C22.6094 65.6874 28.0094 57.8875 43.4094 57.8875C58.9494 57.8875 64.1994 65.6874 68.8894 74.4774C63.3894 67.2874 54.0294 62.5575 43.4094 62.5575Z" fill="#217DD9"/>
<path d="M244.679 62.5575C234.059 62.5575 224.699 67.2874 219.189 74.4774C223.879 65.6874 229.279 57.8875 244.679 57.8875C260.219 57.8875 265.469 65.6874 270.159 74.4774C264.659 67.2874 255.299 62.5575 244.679 62.5575Z" fill="#217DD9"/>
<path d="M132.85 52.6275C132.85 54.7775 134.68 56.5276 141.39 56.5276C148.76 56.5276 149.93 54.7775 149.93 52.6275C149.93 50.4775 148.31 48.7275 141.39 48.7275C134.47 48.7275 132.85 50.4775 132.85 52.6275Z" fill="#217DD9"/>
<path d="M148.099 51.3677H134.669C134.255 51.3677 133.919 51.7035 133.919 52.1177V53.1377C133.919 53.5519 134.255 53.8877 134.669 53.8877H148.099C148.514 53.8877 148.849 53.5519 148.849 53.1377V52.1177C148.849 51.7035 148.514 51.3677 148.099 51.3677Z" fill="#003399"/>
<path d="M54.5195 47.8275C54.5195 49.9775 56.3496 51.7275 63.0596 51.7275C70.4296 51.7275 71.5995 49.9775 71.5995 47.8275C71.5995 45.6775 69.9796 43.9275 63.0596 43.9275C56.1396 43.9275 54.5195 45.6775 54.5195 47.8275Z" fill="#217DD9"/>
<path d="M69.7796 46.5676H56.3496C55.9354 46.5676 55.5996 46.9034 55.5996 47.3176V48.3376C55.5996 48.7519 55.9354 49.0876 56.3496 49.0876H69.7796C70.1938 49.0876 70.5296 48.7519 70.5296 48.3376V47.3176C70.5296 46.9034 70.1938 46.5676 69.7796 46.5676Z" fill="#003399"/>
<path d="M202.229 25.4084L200.927 25.6792L205.203 46.2392L206.505 45.9683L202.229 25.4084Z" fill="#003366"/>
<path d="M9.05945 41.8777L10.4995 42.0477L34.7394 45.0477C34.7394 45.0477 34.5494 47.4677 33.9794 49.7177L7.66943 47.2677C7.97943 45.3277 8.43946 43.4477 9.06946 41.8677L9.05945 41.8777Z" fill="#D4ECF3"/>
<path d="M33.9795 49.7276C33.6395 51.0876 33.1495 52.3876 32.4895 53.0476C30.7395 54.7976 7.4995 55.5076 7.4995 55.5076C7.1195 53.2076 7.20948 50.1876 7.65948 47.2776L33.9695 49.7276H33.9795Z" fill="#3399FF"/>
<path d="M7.49947 55.5076C7.49947 55.5076 30.7395 54.7976 32.4895 53.0476C33.1495 52.3876 33.6294 51.0876 33.9794 49.7276L7.66945 47.2776C7.20945 50.1776 7.12948 53.2076 7.50948 55.5076H7.49947Z" fill="#FF0000"/>
<path d="M208.21 92.5175C208.21 92.5175 168.97 95.4375 103.73 86.9475C86.6596 84.7275 84.5596 74.3775 77.7396 67.4775C77.3196 67.4775 96.5996 79.2475 117.46 82.2675C140.16 85.5575 208.22 92.5075 208.22 92.5075L208.21 92.5175Z" fill="#217DD9"/>
<path d="M267.188 99.2071C270.126 86.7582 262.416 74.2846 249.967 71.3464C237.518 68.4082 225.044 76.1181 222.106 88.567C219.168 101.016 226.878 113.49 239.327 116.428C251.776 119.366 264.249 111.656 267.188 99.2071Z" fill="#003399"/>
<path d="M244.679 109.418C253.245 109.418 260.189 102.474 260.189 93.9077C260.189 85.3417 253.245 78.3977 244.679 78.3977C236.114 78.3977 229.169 85.3417 229.169 93.9077C229.169 102.474 236.114 109.418 244.679 109.418Z" fill="#003366"/>
<path d="M228.339 93.9076C228.339 84.8976 235.669 77.5676 244.679 77.5676C253.689 77.5676 261.019 84.8976 261.019 93.9076C261.019 102.918 253.689 110.248 244.679 110.248C235.669 110.248 228.339 102.918 228.339 93.9076ZM230.009 93.9076C230.009 101.998 236.589 108.578 244.679 108.578C252.769 108.578 259.349 101.998 259.349 93.9076C259.349 85.8176 252.769 79.2376 244.679 79.2376C236.589 79.2376 230.009 85.8176 230.009 93.9076Z" fill="#99CCFF"/>
<path d="M239.26 93.9075C239.26 90.9075 241.69 88.4775 244.69 88.4775C247.69 88.4775 250.12 90.9075 250.12 93.9075C250.12 96.9075 247.69 99.3376 244.69 99.3376C241.69 99.3376 239.26 96.9075 239.26 93.9075Z" fill="#99CCFF"/>
<path d="M240.379 109.328C240.189 109.048 240.149 108.698 240.279 108.388L243.749 99.6976C243.899 99.3076 244.269 99.0676 244.689 99.0676C245.109 99.0676 245.469 99.3176 245.629 99.6976L249.099 108.388C249.219 108.698 249.189 109.048 248.999 109.328C248.809 109.608 248.499 109.768 248.169 109.768H241.239C240.909 109.768 240.589 109.598 240.409 109.328H240.379ZM244.849 100.008C244.769 99.8176 244.599 99.8176 244.519 100.008L241.049 108.698C241.019 108.778 241.049 108.828 241.069 108.858C241.089 108.888 241.129 108.938 241.219 108.938H248.149C248.229 108.938 248.279 108.888 248.299 108.858C248.319 108.828 248.349 108.768 248.319 108.698L244.849 100.008Z" fill="#99CCFF"/>
<path d="M231.309 102.848C230.989 102.758 230.729 102.508 230.629 102.188L228.489 95.5976C228.389 95.2776 228.449 94.9276 228.649 94.6676C228.859 94.4076 229.169 94.2577 229.509 94.2777L238.839 94.8876C239.249 94.9176 239.599 95.1876 239.729 95.5776C239.859 95.9676 239.729 96.3976 239.419 96.6676L232.229 102.648C232.049 102.798 231.819 102.878 231.589 102.878C231.499 102.878 231.399 102.868 231.309 102.838V102.848ZM229.309 95.1777C229.309 95.1777 229.259 95.2677 229.279 95.3377L231.419 101.938C231.439 102.018 231.499 102.038 231.539 102.048C231.569 102.058 231.639 102.068 231.699 102.018L238.889 96.0376C238.969 95.9676 238.959 95.8876 238.939 95.8476C238.929 95.8076 238.889 95.7376 238.779 95.7276L229.449 95.1177H229.439C229.369 95.1177 229.319 95.1576 229.299 95.1876L229.309 95.1777Z" fill="#99CCFF"/>
<path d="M240.429 89.6976L232.519 84.7076C232.239 84.5276 232.059 84.2276 232.049 83.8876C232.039 83.5576 232.189 83.2376 232.459 83.0376L238.069 78.9576C238.339 78.7576 238.689 78.7076 239.009 78.8276C239.319 78.9376 239.559 79.2076 239.639 79.5276L241.939 88.5976C242.039 88.9976 241.889 89.4176 241.559 89.6576C241.379 89.7876 241.179 89.8476 240.969 89.8476C240.779 89.8476 240.599 89.7976 240.429 89.6876V89.6976ZM238.559 79.6376L232.949 83.7176C232.879 83.7676 232.879 83.8276 232.879 83.8676C232.879 83.8976 232.889 83.9676 232.959 84.0076L240.869 88.9976C240.959 89.0576 241.029 89.0176 241.069 88.9976C241.109 88.9676 241.159 88.9076 241.139 88.8076L238.839 79.7376C238.819 79.6576 238.759 79.6276 238.729 79.6176C238.719 79.6176 238.689 79.6076 238.669 79.6076C238.639 79.6076 238.599 79.6076 238.569 79.6376H238.559Z" fill="#99CCFF"/>
<path d="M247.81 89.6576C247.47 89.4176 247.32 88.9976 247.43 88.5976L249.73 79.5276C249.81 79.2076 250.05 78.9376 250.36 78.8276C250.67 78.7176 251.03 78.7676 251.3 78.9576L256.91 83.0376C257.18 83.2376 257.34 83.5476 257.32 83.8876C257.31 84.2176 257.13 84.5276 256.85 84.7076L248.94 89.6976C248.77 89.7976 248.59 89.8576 248.4 89.8576C248.19 89.8576 247.99 89.7976 247.81 89.6676V89.6576ZM250.64 79.6176C250.64 79.6176 250.55 79.6576 250.53 79.7376L248.23 88.8076C248.2 88.9076 248.26 88.9676 248.3 88.9976C248.34 89.0276 248.41 89.0576 248.5 88.9976L256.41 84.0076C256.48 83.9676 256.49 83.8976 256.49 83.8676C256.49 83.8376 256.49 83.7676 256.42 83.7176L250.81 79.6376C250.81 79.6376 250.74 79.6076 250.71 79.6076C250.68 79.6076 250.66 79.6076 250.65 79.6176H250.64Z" fill="#99CCFF"/>
<path d="M257.13 102.658L249.94 96.6775C249.62 96.4075 249.5 95.9875 249.63 95.5875C249.76 95.1975 250.11 94.9175 250.52 94.8975L259.85 94.2875C260.18 94.2675 260.51 94.4075 260.71 94.6775C260.92 94.9375 260.98 95.2875 260.87 95.6075L258.73 102.198C258.63 102.518 258.37 102.758 258.05 102.858C257.96 102.888 257.86 102.898 257.77 102.898C257.54 102.898 257.31 102.818 257.13 102.668V102.658ZM259.91 95.1075L250.58 95.7175C250.48 95.7175 250.44 95.7975 250.42 95.8375C250.41 95.8775 250.39 95.9575 250.47 96.0275L257.66 102.008C257.72 102.058 257.79 102.048 257.82 102.038C257.85 102.038 257.91 101.998 257.94 101.928L260.08 95.3375C260.11 95.2575 260.08 95.2075 260.05 95.1775C260.03 95.1475 259.99 95.1075 259.91 95.1075Z" fill="#99CCFF"/>
<path d="M59.7796 110.285C68.8242 101.241 68.8242 86.5766 59.7797 77.5321C50.7351 68.4875 36.071 68.4876 27.0265 77.5321C17.9819 86.5767 17.9819 101.241 27.0265 110.285C36.071 119.33 50.7351 119.33 59.7796 110.285Z" fill="#003399"/>
<path d="M43.3997 109.418C51.9656 109.418 58.9097 102.474 58.9097 93.9077C58.9097 85.3417 51.9656 78.3977 43.3997 78.3977C34.8337 78.3977 27.8896 85.3417 27.8896 93.9077C27.8896 102.474 34.8337 109.418 43.3997 109.418Z" fill="#003366"/>
<path d="M27.0596 93.9076C27.0596 84.8976 34.3895 77.5676 43.3995 77.5676C52.4095 77.5676 59.7396 84.8976 59.7396 93.9076C59.7396 102.918 52.4095 110.248 43.3995 110.248C34.3895 110.248 27.0596 102.918 27.0596 93.9076ZM28.7296 93.9076C28.7296 101.998 35.3095 108.578 43.3995 108.578C51.4895 108.578 58.0696 101.998 58.0696 93.9076C58.0696 85.8176 51.4895 79.2376 43.3995 79.2376C35.3095 79.2376 28.7296 85.8176 28.7296 93.9076Z" fill="#99CCFF"/>
<path d="M37.9795 93.9075C37.9795 90.9075 40.4095 88.4775 43.4095 88.4775C46.4095 88.4775 48.8395 90.9075 48.8395 93.9075C48.8395 96.9075 46.4095 99.3376 43.4095 99.3376C40.4095 99.3376 37.9795 96.9075 37.9795 93.9075Z" fill="#99CCFF"/>
<path d="M39.0995 109.328C38.9095 109.048 38.8696 108.698 38.9996 108.388L42.4695 99.6976C42.6195 99.3076 42.9895 99.0676 43.4095 99.0676C43.8295 99.0676 44.1895 99.3176 44.3495 99.6976L47.8196 108.388C47.9396 108.698 47.9095 109.048 47.7195 109.328C47.5295 109.608 47.2195 109.768 46.8895 109.768H39.9595C39.6295 109.768 39.3096 109.598 39.1296 109.328H39.0995ZM43.5696 100.008C43.4896 99.8176 43.3195 99.8176 43.2395 100.008L39.7695 108.698C39.7395 108.778 39.7695 108.828 39.7895 108.858C39.8095 108.888 39.8496 108.938 39.9396 108.938H46.8695C46.9495 108.938 46.9995 108.888 47.0195 108.858C47.0395 108.828 47.0695 108.768 47.0395 108.698L43.5696 100.008Z" fill="#99CCFF"/>
<path d="M30.0296 102.848C29.7096 102.758 29.4596 102.508 29.3496 102.188L27.2096 95.5976C27.1096 95.2776 27.1696 94.9276 27.3696 94.6676C27.5796 94.4076 27.8896 94.2577 28.2296 94.2777L37.5596 94.8876C37.9696 94.9176 38.3196 95.1876 38.4496 95.5776C38.5796 95.9676 38.4496 96.3976 38.1396 96.6676L30.9496 102.648C30.7696 102.798 30.5396 102.878 30.3096 102.878C30.2196 102.878 30.1196 102.868 30.0296 102.838V102.848ZM28.0296 95.1777C28.0296 95.1777 27.9796 95.2677 27.9996 95.3377L30.1396 101.938C30.1596 102.018 30.2197 102.038 30.2597 102.048C30.2897 102.058 30.3596 102.068 30.4196 102.018L37.6096 96.0376C37.6896 95.9676 37.6796 95.8876 37.6596 95.8476C37.6496 95.8076 37.6096 95.7376 37.4996 95.7276L28.1696 95.1177H28.1596C28.0896 95.1177 28.0396 95.1576 28.0196 95.1876L28.0296 95.1777Z" fill="#99CCFF"/>
<path d="M39.1495 89.6976L31.2395 84.7076C30.9595 84.5276 30.7795 84.2276 30.7695 83.8876C30.7595 83.5576 30.9095 83.2376 31.1795 83.0376L36.7895 78.9576C37.0595 78.7576 37.4095 78.7076 37.7295 78.8276C38.0395 78.9376 38.2795 79.2076 38.3595 79.5276L40.6595 88.5976C40.7595 88.9976 40.6095 89.4176 40.2795 89.6576C40.0995 89.7876 39.8996 89.8476 39.6896 89.8476C39.4996 89.8476 39.3195 89.7976 39.1495 89.6876V89.6976ZM37.2795 79.6376L31.6695 83.7176C31.5995 83.7676 31.5995 83.8276 31.5995 83.8676C31.5995 83.8976 31.6095 83.9676 31.6795 84.0076L39.5895 88.9976C39.6795 89.0576 39.7495 89.0176 39.7895 88.9976C39.8295 88.9676 39.8795 88.9076 39.8595 88.8076L37.5596 79.7376C37.5396 79.6576 37.4795 79.6276 37.4495 79.6176C37.4395 79.6176 37.4095 79.6076 37.3895 79.6076C37.3595 79.6076 37.3195 79.6076 37.2895 79.6376H37.2795Z" fill="#99CCFF"/>
<path d="M46.5294 89.6576C46.1894 89.4176 46.0394 88.9976 46.1394 88.5976L48.4394 79.5276C48.5194 79.2076 48.7594 78.9376 49.0694 78.8276C49.3794 78.7176 49.7394 78.7676 50.0094 78.9576L55.6194 83.0376C55.8894 83.2376 56.0494 83.5476 56.0294 83.8876C56.0194 84.2176 55.8394 84.5276 55.5594 84.7076L47.6494 89.6976C47.4794 89.7976 47.2994 89.8576 47.1094 89.8576C46.8994 89.8576 46.6994 89.7976 46.5194 89.6676L46.5294 89.6576ZM49.3594 79.6176C49.3594 79.6176 49.2694 79.6576 49.2494 79.7376L46.9494 88.8076C46.9194 88.9076 46.9794 88.9676 47.0194 88.9976C47.0594 89.0276 47.1294 89.0576 47.2194 88.9976L55.1294 84.0076C55.1994 83.9676 55.2094 83.8976 55.2094 83.8676C55.2094 83.8376 55.2094 83.7676 55.1394 83.7176L49.5294 79.6376C49.5294 79.6376 49.4594 79.6076 49.4294 79.6076C49.3994 79.6076 49.3794 79.6076 49.3694 79.6176H49.3594Z" fill="#99CCFF"/>
<path d="M55.8495 102.658L48.6595 96.6775C48.3395 96.4075 48.2195 95.9875 48.3495 95.5875C48.4795 95.1975 48.8295 94.9175 49.2395 94.8975L58.5695 94.2875C58.8995 94.2675 59.2295 94.4075 59.4295 94.6775C59.6395 94.9375 59.6995 95.2875 59.5895 95.6075L57.4494 102.198C57.3494 102.518 57.0895 102.758 56.7695 102.858C56.6795 102.888 56.5795 102.898 56.4895 102.898C56.2595 102.898 56.0295 102.818 55.8495 102.668V102.658ZM58.6295 95.1075L49.2995 95.7175C49.1995 95.7175 49.1594 95.7975 49.1394 95.8375C49.1294 95.8775 49.1095 95.9575 49.1895 96.0275L56.3795 102.008C56.4395 102.058 56.5095 102.048 56.5395 102.038C56.5695 102.038 56.6295 101.998 56.6595 101.928L58.7995 95.3375C58.8295 95.2575 58.7995 95.2075 58.7695 95.1775C58.7495 95.1475 58.7095 95.1075 58.6295 95.1075Z" fill="#99CCFF"/>
<defs>
<linearGradient id="paint0_linear_424_1340" x1="28.9296" y1="8.97755" x2="28.9296" y2="34.6875" gradientUnits="userSpaceOnUse">
<stop stop-color="#EBF6FA"/>
<stop offset="0.57" stop-color="#BCE2ED"/>
</linearGradient>
</defs>
</svg>
