<svg width="301" height="184" viewBox="0 0 301 184" fill="none" xmlns="http://www.w3.org/2000/svg">
<g clip-path="url(#clip0_64_5713)">
<path d="M301 0H0V183.336H301V0Z" fill="white"/>
<path d="M253.147 101.509H222.249V65.9836H240.129C247.318 65.9836 253.147 72.1896 253.147 79.8448V101.509Z" fill="#B75742"/>
<path d="M217.243 151.595H268.187L268.908 112.658C268.921 111.983 268.819 111.311 268.607 110.669L258.094 78.8804C257.279 76.4145 254.964 74.748 252.356 74.748H217.244V151.595H217.243Z" fill="#F47458"/>
<path d="M268.91 151.595H265.731C264.61 151.595 263.701 150.627 263.701 149.433V140.558C263.701 139.364 264.61 138.396 265.731 138.396H268.91V151.595Z" fill="#13375B"/>
<path d="M272.731 96.9088H274.345V90.8945C274.345 85.9535 270.57 81.9339 265.929 81.9339H252.212V83.6527H265.929C269.679 83.6527 272.731 86.9014 272.731 90.8945V96.9088Z" fill="#13375B"/>
<path d="M274.69 109.306H272.038C270.319 109.306 268.926 107.822 268.926 105.992V96.4184C268.926 94.5878 270.32 93.1046 272.038 93.1046H274.69C276.409 93.1046 277.802 94.5887 277.802 96.4184V105.992C277.802 107.822 276.408 109.306 274.69 109.306Z" fill="#13375B"/>
<path d="M276.353 105.991V96.4175C276.353 95.4394 275.609 94.6465 274.69 94.6465H272.038C271.12 94.6465 270.375 95.4394 270.375 96.4175V105.991C270.375 106.969 271.12 107.762 272.038 107.762H274.69C275.609 107.762 276.353 106.969 276.353 105.991Z" fill="#86B1F2"/>
<path d="M257.635 110.778H231.099C229.454 110.778 228.12 109.358 228.12 107.606V84.3695C228.12 82.6178 229.453 81.1969 231.099 81.1969H250.944C252.253 81.1969 253.409 82.1062 253.792 83.4391L260.483 106.675C261.07 108.716 259.638 110.778 257.635 110.778Z" fill="#13375B"/>
<path d="M256.822 93.9626L260.482 106.676C261.07 108.716 259.637 110.778 257.634 110.778H231.098C229.453 110.778 228.119 109.358 228.119 107.606V93.9626H256.822Z" fill="#355389"/>
<path d="M261.066 150.915C261.072 159.614 254.448 166.668 246.278 166.662C238.245 166.655 231.517 159.492 231.511 150.937C231.505 142.238 238.129 135.185 246.299 135.191C254.331 135.198 261.06 142.362 261.066 150.915Z" fill="#13375B"/>
<path d="M112.838 166.175C120.652 166.175 126.987 159.239 126.987 150.683C126.987 142.127 120.652 135.191 112.838 135.191C105.023 135.191 98.6879 142.127 98.6879 150.683C98.6879 159.239 105.023 166.175 112.838 166.175Z" fill="#184655"/>
<path d="M218.083 130.027H71.7813C69.4809 130.027 67.6162 128.041 67.6162 125.592V34.2206C67.6162 31.7712 69.4809 29.7848 71.7821 29.7848H218.084C220.384 29.7848 222.25 31.7703 222.25 34.2206V125.592C222.249 128.041 220.383 130.027 218.083 130.027Z" fill="#3C8F7C"/>
<path d="M71.7811 125.936C71.6029 125.936 71.4583 125.782 71.4583 125.592V34.2206C71.4583 34.0309 71.6029 33.8769 71.7811 33.8769H144.85V125.936H71.7811Z" fill="#2F5866"/>
<path d="M71.7811 58.2863C71.6029 58.2863 71.4583 58.245 71.4583 58.1946V33.9374C71.4583 33.887 71.6029 33.8457 71.7811 33.8457H144.85V58.2863H71.7811Z" fill="#96D9C9"/>
<path d="M218.083 29.7848H148.693V130.027H218.083C220.383 130.027 222.249 128.041 222.249 125.592V34.2206C222.249 31.7703 220.383 29.7848 218.083 29.7848Z" fill="#283E66"/>
<path d="M110.186 98.3168H79.0575V125.936H110.186V98.3168Z" fill="#F7CC7F"/>
<path d="M144.85 92.9157H105.574V125.936H144.85V92.9157Z" fill="#FAE0B2"/>
<path d="M144.85 61.4891H111.339V92.9157H144.85V61.4891Z" fill="#F7CC7F"/>
<path d="M216.764 151.595H77.6741V130.027H216.764C218.902 130.027 220.635 131.872 220.635 134.148V147.474C220.635 149.75 218.902 151.595 216.764 151.595Z" fill="#2F5866"/>
<path d="M146.618 132.935H79.0575V149.014H146.618V132.935Z" fill="#3C8F7C"/>
<path d="M144.391 139.03H124.87V145.413H144.391V139.03Z" fill="#F47458"/>
<path d="M144.391 139.03H132.613V145.413H144.391V139.03Z" fill="#B75742"/>
<path d="M102.936 139.03H83.4163V145.413H102.936V139.03Z" fill="#F47458"/>
<path d="M92.2551 139.03H83.4163V145.413H92.2551V139.03Z" fill="#B75742"/>
<path d="M173.232 150.683C173.232 159.24 171.255 166.175 159.662 166.175C151.847 166.175 144.932 159.239 144.932 150.683C144.932 142.128 151.268 135.191 159.082 135.191C166.896 135.191 173.232 142.128 173.232 150.683Z" fill="#13375B"/>
<path d="M177.6 150.258C177.6 159.317 170.854 166.175 163.039 166.175C155.224 166.175 149.3 159.317 149.3 150.258C149.3 141.198 155.636 133.854 163.45 133.854C171.265 133.854 177.6 141.198 177.6 150.258Z" fill="#13375B"/>
<path d="M248.724 166.662C256.539 166.662 262.874 159.485 262.874 150.631C262.874 141.777 256.539 134.6 248.724 134.6C240.91 134.6 234.574 141.777 234.574 150.631C234.574 159.485 240.91 166.662 248.724 166.662Z" fill="#13375B"/>
<path d="M255.682 150.258C255.682 154.713 252.567 158.324 248.724 158.324C244.882 158.324 241.766 154.713 241.766 150.258C241.766 145.803 244.881 142.192 248.724 142.192C252.567 142.192 255.682 145.803 255.682 150.258Z" fill="#355389"/>
<path d="M170.408 150.258C170.408 154.713 167.293 158.324 163.45 158.324C159.607 158.324 156.492 154.713 156.492 150.258C156.492 145.803 159.607 142.192 163.45 142.192C167.293 142.192 170.408 145.803 170.408 150.258Z" fill="#355389"/>
<path d="M102.443 51.9446H115.587C115.587 53.9329 114.073 55.5454 112.206 55.5454H105.825C103.957 55.5454 102.443 53.9329 102.443 51.9446Z" fill="#50BFA5"/>
<g opacity="0.6">
<path d="M179.106 83.1476L174.944 89.9182C174.944 89.9182 173.836 91.5416 174.55 93.1642L170.862 87.3231C170.374 86.5503 170.175 85.6391 170.342 84.7545C170.392 84.4914 170.468 84.2375 170.585 84.0294C171.053 83.1943 173.122 79.8787 173.122 79.8787L169.699 78.0701L178.294 77.7685L182.209 84.8169L179.106 83.1476Z" fill="white"/>
<path d="M176.372 88.7127H182.43V95.2973H178.391C178.391 95.2973 174.056 94.9728 175.115 90.9843L176.372 88.7127Z" fill="white"/>
<path d="M189.393 88.3763L197.699 88.1976C197.699 88.1976 199.748 88.2434 200.849 86.8244L197.471 92.8305C197.024 93.6243 196.302 94.2596 195.413 94.5859C195.149 94.6831 194.878 94.7528 194.629 94.7674C193.628 94.8261 189.544 94.8894 189.544 94.8894L189.686 98.5827L184.938 91.8304L189.292 85.013L189.393 88.3763Z" fill="white"/>
<path d="M195.862 87.6759L192.708 82.8065L198.679 79.3781L200.782 82.625C200.782 82.625 202.744 86.278 198.577 87.5027L195.862 87.6759Z" fill="white"/>
<path d="M188.927 77.2634L184.73 70.512C184.73 70.512 183.779 68.8033 181.927 68.5861L189.144 68.4522C190.098 68.4348 191.039 68.7217 191.773 69.2956C191.992 69.4661 192.188 69.654 192.322 69.8529C192.862 70.6486 194.902 73.9798 194.902 73.9798L198.263 72.0704L194.296 79.2553L185.852 78.9794L188.927 77.2634Z" fill="white"/>
<path d="M185.138 72.2775L182.146 77.2368L176.064 73.9844L178.059 70.6779C178.059 70.6779 180.499 67.2899 183.66 70.127L185.138 72.2775Z" fill="white"/>
</g>
<path d="M255.235 121.754H262.169V118.487H252.168C252.169 120.292 253.542 121.754 255.235 121.754Z" fill="#B75742"/>
<path d="M23.3692 166.043H277.631C278.295 166.043 278.835 166.284 278.835 166.58C278.835 166.877 278.296 167.117 277.631 167.117H23.3692C22.7046 167.117 22.1648 166.877 22.1648 166.58C22.1648 166.284 22.7046 166.043 23.3692 166.043Z" fill="#3668B3"/>
<path d="M88.1108 165.391L87.0786 164.251L84.6491 163.901L83.9819 163.102L81.4749 162.73L79.1238 164.301L78.1183 166.221C78.1183 166.221 88.9037 166.372 88.9037 166.221C88.9045 166.069 88.1108 165.391 88.1108 165.391Z" fill="#184655"/>
<path d="M103.229 88.8933C103.761 91.229 100.882 92.9249 98.6026 92.9872C97.121 93.0275 96.44 92.8653 96.2007 91.2033C95.8125 88.5065 96.8559 86.8628 98.3177 86.1827C100.204 85.3045 102.791 86.9664 103.229 88.8933Z" fill="#B75742"/>
<path d="M28.8626 128.635C29.1158 127.936 29.7081 127.28 29.9233 126.412C29.9956 126.121 30.0292 125.716 30.0386 125.276C29.8191 122.019 29.2139 113.555 29.3181 113.133C29.4403 112.633 33.2136 103.8 33.2136 103.8L36.3826 106.946L32.7169 114.956C32.6859 115.424 32.3992 124.101 32.3992 124.101C32.3992 124.101 32.2968 125.859 32.3063 126.773C32.3364 127.216 32.4216 127.605 32.5068 127.938C32.6136 128.356 32.7264 129.221 32.7031 129.429C32.6756 129.671 32.6033 130.17 32.5568 130.469C32.5094 130.767 32.4664 131.12 32.4233 131.275C32.3975 131.37 32.4182 131.589 32.4388 131.745C32.469 131.979 32.2141 132.132 32.0445 131.981C31.8844 131.839 31.8353 131.525 31.8052 131.329C31.7208 130.777 31.8896 129.906 31.8112 129.923C31.7338 129.941 31.0046 131.233 30.9125 131.374C30.8203 131.516 29.9655 133.013 29.7098 133.245C29.4541 133.477 29.2767 133.345 29.2922 133.14C29.306 132.963 30.3434 130.801 30.3434 130.801C30.3434 130.801 30.4751 130.525 30.3245 130.566C30.1738 130.606 29.2285 132.567 29.0365 132.831C28.8446 133.095 28.6001 133.175 28.5303 132.868C28.4451 132.495 29.5755 130.469 29.5755 130.469C29.5755 130.469 29.7132 130.213 29.5944 130.193C29.4765 130.172 28.6982 131.855 28.5579 131.969C28.4176 132.084 28.1843 132.048 28.1748 131.755C28.1636 131.409 29.1863 129.61 29.1863 129.61C29.1863 129.61 29.2277 129.449 29.1407 129.472C29.0538 129.495 28.2945 130.878 28.1042 130.955C27.9441 131.02 27.8864 130.867 27.8864 130.867C27.697 130.57 28.6095 129.335 28.8626 128.635Z" fill="#F8A492"/>
<path d="M85.3145 153.301L88.3708 164.111L87.2705 164.607L86.6352 162.883L86.8426 164.841H86.537L86.2194 163.614L86.2435 166.172C86.2435 166.172 83.7004 166.172 82.4779 165.754V163.926L82.087 165.675L81.6996 165.448C81.6996 165.448 81.8916 163.299 81.8675 163.431C81.8434 163.561 81.5498 164.553 81.5498 164.553L81.134 164.48L81.3053 162.908L80.8404 164.397L80.4005 164.135L82.6501 153.3L83.8235 151.916L85.3145 153.301Z" fill="#F7CC7F"/>
<path d="M84.068 154.349C84.3753 154.349 84.6241 154.007 84.6241 153.585V90.4022C84.6241 89.9805 84.3753 89.6386 84.068 89.6386C83.7606 89.6386 83.5118 89.9805 83.5118 90.4022V153.584C83.5118 154.007 83.7606 154.349 84.068 154.349Z" fill="#184655"/>
<path d="M94.7665 162.498C94.8905 161.55 94.9301 160.092 94.9172 158.411H98.0371C97.7125 160.792 97.4586 162.646 97.4586 162.646L97.536 163.398L97.5378 165.621H90.7117C90.7117 165.621 92.1606 164.93 94.1871 163.564C94.3378 163.463 94.683 163.141 94.7665 162.498Z" fill="#F7A491"/>
<path d="M108.074 161.94L107.167 159.173H109.542C109.666 160.949 109.712 162.148 109.712 162.148L110.315 163.968L110.731 166.006C110.731 166.006 109.17 166.405 108.11 165.782L107.966 163.909L108.074 161.94Z" fill="#F7A491"/>
<path d="M95.753 101.78C96.5769 100.581 99.9757 97.1077 100.353 97.1151C101.454 97.1352 105.066 97.1371 105.772 97.5193L105.738 104.131C105.622 104.686 103.128 113.331 103.274 115.223L103.257 115.241C101.166 117.39 97.8699 117.222 95.9579 114.867C95.9579 114.867 95.9665 112.244 95.672 109.852C95.2106 106.105 93.7066 104.758 95.753 101.78Z" fill="#9BC1F9"/>
<path d="M101.46 93.3924C101.46 93.3924 101.365 95.8317 101.57 96.7566C101.776 97.6816 102.051 97.7512 100.284 98.0326C99.5902 98.1436 98.9213 98.3086 98.9213 98.3086C98.9213 98.3086 99.1029 96.95 99.1296 96.3771C99.1744 95.4329 98.9256 92.517 98.9256 92.517L101.46 93.3924Z" fill="#F7A491"/>
<path d="M100.115 94.607C99.752 94.816 99.4128 94.9398 99.0994 94.9911C99.0392 93.8397 98.9264 92.5179 98.9264 92.5179L101.344 93.353C101.063 93.8517 100.665 94.2907 100.115 94.607Z" fill="#F47458"/>
<path d="M107.967 163.9C108.899 164.342 109.903 164.076 110.306 163.935L110.44 164.32L110.954 166.145C110.954 166.145 108.908 166.686 107.849 166.062L107.967 163.9Z" fill="#B75742"/>
<path d="M97.6084 166.173H90.5119C90.2494 166.148 90.1857 165.919 90.2769 165.779C90.4646 165.489 91.2919 165.277 92.2226 164.815C93.8548 164.998 97.2795 163.798 97.5378 163.395C97.6858 164.201 97.7547 166.138 97.6084 166.173Z" fill="#B75742"/>
<path d="M98.1464 115.35L102.305 146.851L106.093 161.377H110.214C110.214 161.377 109.257 149.675 107.207 145.53C107.207 145.53 106.312 134.421 105.417 127.627C105.283 126.611 105.945 123.976 105.773 123.295C104.445 118.058 103.275 115.223 103.275 115.223L98.1464 115.35Z" fill="#355389"/>
<path d="M100.718 128.971L99.7554 141.072C99.7554 141.072 100.739 147.987 100.064 152.576C99.3878 157.165 98.4933 161.376 98.4933 161.376H94.7062L93.9538 138.523C93.9538 138.523 92.498 126.106 93.0025 122.739C93.507 119.372 95.9588 114.867 95.9588 114.867L101.916 115.156C101.916 115.156 103.532 121.321 103.258 123.389C103.055 124.925 100.718 128.971 100.718 128.971Z" fill="#466EB6"/>
<path d="M82.323 154.875L82.7414 151.776L83.5386 150.642H83.9544H84.1826H84.5984L85.3956 151.776L85.7847 154.9C85.1872 154.557 82.9187 154.532 82.323 154.875Z" fill="#184655"/>
<path d="M61.818 116.926C60.6997 117.299 60.7824 117.526 60.6386 117.569C60.4681 117.619 58.3305 116.561 58.3305 116.561C58.3305 116.561 52.0141 113.494 51.6783 113.314L49.3487 105.627L46.3708 107.495C46.3708 107.495 49.019 116.077 49.3522 116.366C49.6853 116.656 58.6344 119.473 59.4152 119.755C59.4152 119.755 60.2374 120.548 60.766 121.023C61.2955 121.498 61.9687 121.63 62.134 121.733C62.1581 121.748 62.7263 122.047 63.5088 122.165C64.1829 122.268 63.5932 121.763 63.5932 121.763C63.5932 121.763 62.3793 121.277 62.4293 121.156C62.468 121.062 63.1171 121.381 63.8618 121.504C64.0529 121.536 64.2423 121.567 64.4162 121.592C64.8725 121.661 65.0473 121.311 64.5815 121.139C64.4171 121.078 64.1416 120.985 63.9367 120.956C63.7155 120.925 63.5235 120.802 63.3418 120.738C62.9811 120.611 62.7168 120.525 62.7297 120.509C62.7461 120.487 62.6901 120.394 62.895 120.42C63.1404 120.45 63.6466 120.667 64.0116 120.676C64.2182 120.68 64.6495 120.724 64.6495 120.724C64.6495 120.724 65.3581 120.695 65.3684 120.643C65.4261 120.357 64.9207 120.188 64.6366 120.23C64.4498 120.136 63.9944 120.106 63.9944 120.106C63.9944 120.106 63.093 119.774 63.1326 119.605C63.1653 119.465 65.4588 119.706 65.501 119.414C65.5354 119.177 64.8493 119.063 64.8493 119.063C64.8493 119.063 64.4291 119.037 64.2897 119.014C64.127 118.987 63.6466 118.857 63.6466 118.857C63.6466 118.857 61.9928 118.303 62.0401 118.146C62.0875 117.988 62.3311 117.64 62.4439 117.628C62.5567 117.615 62.7693 117.734 62.8821 117.72C62.9949 117.707 63.1387 117.563 63.143 117.381C63.1473 117.198 62.592 116.986 62.592 116.986C62.592 116.986 62.1409 116.818 61.818 116.926Z" fill="#F8A492"/>
<path d="M31.9516 159.949C31.9516 159.949 31.0889 160.848 31.0691 161.178C31.0493 161.508 30.9925 165.043 31.3446 165.373C31.6967 165.703 32.7315 165.937 32.3992 166.308C32.1478 166.589 30.2143 166.529 28.9324 166.453C28.5579 166.431 28.0887 163.243 27.9406 162.774C27.7254 162.094 27.202 160.56 27.3974 160.086C27.4929 159.855 27.9492 159.381 28.5915 158.937C29.2673 158.47 29.9147 157.433 29.9147 157.433L31.9516 159.949Z" fill="#F48C7F"/>
<path d="M41.0048 162.043C41.0048 162.043 40.2326 164.372 40.2317 164.378C40.174 164.748 39.9485 165.659 39.9485 165.994C39.9485 167.255 45.2706 164.925 44.0782 164.366C43.9706 164.316 43.6314 163.912 43.5961 163.484C43.541 162.823 44.0447 161.994 44.0447 161.994L41.0048 162.043Z" fill="#F7A491"/>
<path d="M49.3546 118.669C49.3546 118.669 49.7429 122.844 49.7429 122.907C49.7429 129.662 50.9972 142.856 50.7579 144.125C50.1759 147.223 43.9155 163.024 43.9155 163.024L40.5312 162.592L44.9408 143.673L43.318 136.058L41.022 121.007L49.3546 118.669Z" fill="#184655"/>
<path d="M37.9976 122.362L37.3554 126.32L35.6181 142.607L29.0021 158.526C29.0021 158.526 29.9327 160.843 31.3059 161.168L41.8356 144.825L48.3767 123.911L48.1468 119.266L37.9976 122.362Z" fill="#355389"/>
<path d="M50.7038 108.728L46.0119 109.239C46.0119 109.239 45.7966 105.131 45.7966 103.172C45.7966 100.795 45.986 97.732 46.2555 97.798C47.0105 97.9832 48.0264 98.4277 48.6316 99.3151C50.7244 102.387 50.7038 108.728 50.7038 108.728Z" fill="#F47458"/>
<path d="M48.399 102.753C48.4971 103.478 50.3007 123.182 50.3007 123.182C41.7571 127.588 37.0428 123.966 37.0428 123.966C37.0428 123.966 37.3226 110.129 36.9869 108.246C36.7648 107.001 36.4884 98.7202 37.2451 98.4882C38.2154 98.1903 39.3277 97.875 40.5407 97.7402C41.5763 97.6256 45.5968 97.5587 46.3165 97.8172C46.3173 97.8172 47.9858 99.7047 48.399 102.753Z" fill="#F7CC7F"/>
<path d="M31.1466 106.848L35.2118 109.762C35.2118 109.762 37.5027 106.122 38.7329 104.826C40.273 103.203 38.1716 98.2288 37.1789 98.5102C34.9587 99.14 31.1466 106.848 31.1466 106.848Z" fill="#FAE0B2"/>
<path d="M28.6336 158.914C28.6336 158.914 30.6223 164.893 31.4006 165.181C31.6072 165.258 32.5989 165.453 32.7857 165.921C32.8417 166.062 32.7857 166.534 32.7857 166.534H28.6405C28.6405 166.534 28.1162 163.899 27.9087 162.741C27.9087 162.741 26.8119 159.913 26.9333 159.657C27.0564 159.4 28.6336 158.914 28.6336 158.914Z" fill="#F7CC7F"/>
<path d="M39.6455 166.41L40.255 164.354C40.255 164.354 41.5352 164.932 42.1748 164.836C42.8154 164.74 44.0645 164.354 44.0645 164.354C46.6188 165.251 48.7117 165.687 48.3312 166.41H39.6455Z" fill="#F7CC7F"/>
<path d="M41.6772 93.6949L41.0487 97.7989C41.0487 97.7989 43.3499 103.02 44.7248 102.581C45.8784 102.213 45.169 97.7274 45.169 97.7274C45.169 97.7274 44.5405 95.3193 44.7291 94.1138C44.9159 92.9084 41.6772 93.6949 41.6772 93.6949Z" fill="#F7A491"/>
<path d="M44.7282 94.1129C44.9167 92.9075 41.6771 93.694 41.6771 93.694L41.6246 94.0469C41.7193 94.2834 41.8356 94.4851 41.9759 94.64C42.6999 95.4375 43.8303 95.9169 44.8083 95.9527C44.711 95.3037 44.6507 94.607 44.7282 94.1129Z" fill="#F47458"/>
<path d="M41.1452 87.6723C41.0539 87.6384 40.4117 92.5206 41.6299 93.8636C42.8489 95.2065 45.2241 95.6465 46.0756 94.5887C47.0183 93.4181 46.9709 88.171 45.0752 86.7886C43.1804 85.4072 41.1452 87.6723 41.1452 87.6723Z" fill="#F7A491"/>
<path d="M41.592 85.7913C40.9265 85.872 40.0225 86.2487 39.0893 87.8309C37.9417 89.777 38.7889 91.934 40.1258 92.9918C41.462 94.0497 41.4379 95.2615 41.4379 95.2615L41.6548 94.64C41.8106 94.1615 41.8743 93.6537 41.8218 93.1513C41.7908 92.8497 41.7271 92.5243 41.6057 92.2557C41.2846 91.549 42.2962 91.0796 42.5794 90.492C42.7981 90.0392 42.8084 89.0043 43.1528 88.2553L43.5634 87.6842C43.5634 87.6842 44.5113 86.9289 45.4393 87.1416C46.3674 87.3551 45.2275 82.7195 41.592 85.7913Z" fill="#B75742"/>
<path d="M42.5174 91.361C42.5268 91.9569 42.2625 92.4445 41.9268 92.45C41.591 92.4555 41.3112 91.978 41.3009 91.3821C41.2914 90.7863 41.5557 90.2986 41.8915 90.2931C42.2272 90.2867 42.5079 90.7652 42.5174 91.361Z" fill="#F7A491"/>
<path d="M77.0155 125.875L75.7043 128.82C75.2153 129.919 75.0027 131.14 75.1103 132.351C75.1714 133.041 75.2076 133.745 75.1404 134.07C74.988 134.814 73.5805 145.131 73.5805 145.131C73.5805 145.131 73.0545 147.503 72.4966 147.72C71.9387 147.938 65.1195 146.329 63.4037 146.258C61.688 146.187 56.5862 145.315 55.5024 144.168C54.4176 143.022 54.6759 138.815 55.9242 135.739C57.1725 132.664 60.0755 126.016 60.3088 124.365C60.5421 122.713 60.7435 117.883 61.5967 117.611C62.4499 117.339 68.2308 118.831 69.8588 119.862C71.4868 120.891 77.2505 123.865 77.0155 125.875Z" fill="#F47458"/>
<path opacity="0.5" d="M75.3497 125.566C75.3497 125.566 73.7338 123.77 71.8837 122.782C70.0336 121.794 68.4599 120.21 67.6627 120.082C66.8663 119.953 62.9716 118.509 62.3233 118.685C61.6751 118.862 61.8653 120.575 62.4895 121.075C63.1137 121.577 65.1712 124.492 66.0726 125.405C66.9748 126.318 71.4782 125.992 72.5758 126.195C73.6752 126.398 76.7331 127.145 75.3497 125.566Z" fill="#184655"/>
<path d="M72.2806 159.456C72.5044 159.403 73.1165 159.282 73.4153 159.223C73.5117 159.204 73.6073 159.263 73.6391 159.362L74.3864 161.676C74.395 161.703 74.4079 161.726 74.4251 161.748C74.5663 161.919 75.2361 162.738 75.1887 162.882C75.1448 163.017 74.6429 164.662 74.4811 165.192C74.4518 165.288 74.4897 165.392 74.5715 165.443L75.6381 166.097C75.7871 166.189 75.7647 166.425 75.6011 166.483C74.8719 166.74 73.287 167.213 71.7744 167.097C69.8916 166.953 66.6701 167.033 66.1501 167.047C66.1036 167.048 66.058 167.032 66.0218 167.001L64.8157 165.984C64.7606 165.938 64.7322 165.863 64.7417 165.789L64.9913 163.838C64.9939 163.816 64.9939 163.795 64.9905 163.775L64.5385 160.768C64.5196 160.644 64.6057 160.53 64.7227 160.522L67.5895 160.329C67.6567 160.325 67.7178 160.284 67.7505 160.221L68.2387 159.287C68.2619 159.243 68.2989 159.209 68.3437 159.192L70.4564 158.358C70.5158 158.334 70.582 158.342 70.6346 158.38L72.1265 159.426C72.1739 159.458 72.2281 159.469 72.2806 159.456Z" fill="#F7CC7F"/>
<path d="M72.9262 160.219C72.9262 160.219 71.776 160.515 71.7235 160.517C71.6719 160.52 70.1007 159.463 70.1007 159.463L71.2913 161.39L72.9262 160.219Z" fill="#F7CC7F"/>
<path d="M73.868 164.53L72.8022 165.618L70.3598 165.733L67.3458 164.17L70.0826 164.894L72.222 165.015L73.868 164.53Z" fill="#F7CC7F"/>
<path d="M66.8861 161.023C66.8861 161.023 66.2 162.891 66.1285 162.838C66.0571 162.786 65.0636 162.259 65.1324 162.255C65.2022 162.252 66.033 162.25 66.033 162.25L66.8861 161.023Z" fill="#F7CC7F"/>
<path d="M66.0838 165.024L64.5376 164.17C64.5376 164.17 62.5963 163.622 61.9575 163.577L59.7209 161.752C59.7209 161.752 56.8713 163.289 56.7654 163.312C56.6595 163.335 54.1405 165.573 54.1405 165.573L54.8396 166.387C54.8396 166.387 67.1384 166.988 67.1384 166.823C67.1384 166.766 67.1212 166.574 67.098 166.344C67.0377 165.725 66.6382 165.207 66.0838 165.024Z" fill="#FAE0B3"/>
<path opacity="0.5" d="M61.2455 163.47L61.9419 164.618L58.624 165.132L61.2455 164.282V163.47Z" fill="#CFE0F9"/>
<path opacity="0.5" d="M56.464 163.967L57.1949 164.424L58.036 163.577L57.1475 164.102L56.464 163.967Z" fill="#CFE0F9"/>
<path opacity="0.5" d="M65.8634 165.323L64.4188 165.967L63.6569 165.733L65.8634 165.323Z" fill="#CFE0F9"/>
<path opacity="0.5" d="M75.0957 166.321H75.0501C74.252 166.33 73.5814 165.731 73.417 164.928C73.3894 164.793 73.2758 164.698 73.1475 164.7L72.4278 164.708L72.42 163.926L73.1398 163.917C73.268 163.915 73.38 163.819 73.4049 163.684C73.5539 162.878 74.2133 162.265 75.0105 162.256L75.0561 162.255C75.1947 162.254 75.3101 162.365 75.3256 162.51L77.8282 162.482C77.8678 162.332 77.9944 162.222 78.1459 162.221L81.76 162.18C82.3497 162.174 82.8327 162.681 82.8387 163.313L82.8473 164.201L82.8559 165.088C82.8619 165.72 82.3893 166.238 81.7996 166.245L78.1864 166.286C78.0348 166.288 77.9057 166.181 77.8635 166.032L75.3609 166.061C75.348 166.204 75.2343 166.319 75.0957 166.321Z" fill="#A6C6FF"/>
<path d="M72.8797 164.803L72.8703 163.816C72.8694 163.764 72.8307 163.724 72.7825 163.724L72.4605 163.728C72.4123 163.728 72.3744 163.77 72.3744 163.821L72.3839 164.809C72.3847 164.861 72.4235 164.901 72.4717 164.901L72.7936 164.897C72.8419 164.895 72.8797 164.853 72.8797 164.803Z" fill="#184655"/>
<path d="M44.5913 92.6673L46.2563 92.3135C46.2563 92.3135 46.3432 92.9964 45.6158 93.1752C44.7282 93.3924 44.5913 92.6673 44.5913 92.6673Z" fill="white"/>
<path d="M82.4193 101.495C82.2558 101.309 82.2394 101.149 82.3126 101.02C82.3858 100.891 82.5321 100.813 82.545 100.787C82.5579 100.762 82.5175 100.694 82.5175 100.694C82.409 100.58 82.4641 100.367 82.5347 100.273C82.6053 100.179 82.8033 100.103 82.8877 100.119C82.972 100.135 82.9961 100.1 82.9961 100.1C83.0203 99.9448 83.35 99.6542 83.5144 99.6982C83.6788 99.7432 84.216 100.274 84.2918 100.297C84.3676 100.32 84.5131 100.345 84.5914 100.421C84.6697 100.497 85.4179 100.863 85.5289 100.971C85.64 101.078 85.7975 101.636 85.9542 101.915C86.1109 102.193 86.1884 102.776 86.2211 102.934C86.24 103.027 86.4914 103.282 86.6963 103.48C86.8633 103.644 92.0089 107.997 93.4802 109.51L95.8038 103.968L99.5487 104.667C99.5935 104.642 97.04 113.126 94.5994 113.468C91.8996 113.846 85.8802 105.714 85.2784 104.885C85.0933 104.734 84.9082 104.587 84.8686 104.573C84.786 104.544 84.359 104.22 84.3262 104.189C84.2935 104.158 84.0972 104.095 84.0146 104.066C83.9319 104.038 83.1898 103.271 83.0659 103.15C82.9419 103.03 82.756 102.674 82.756 102.674L82.2807 102.139C81.9321 101.747 82.4193 101.495 82.4193 101.495Z" fill="#F8A492"/>
<path d="M101.852 100.347C102.363 102.588 99.6365 107.584 99.6365 107.584C99.6365 107.584 95.753 105.633 95.0703 104.791C95.0703 104.791 97.7081 99.9439 97.8812 99.6488C98.6637 98.3141 99.7269 98.3131 100.42 98.4002C100.977 98.4708 101.852 100.347 101.852 100.347Z" fill="#86B1F2"/>
<path d="M106.576 108.215C111.078 106.776 109.873 102.549 109.848 102.71C109.861 102.579 110.285 102.047 110.495 101.592C111.37 99.6973 110.216 97.4148 108.895 96.6255C109.771 94.2156 108.901 91.9037 107.251 90.9403C106.419 90.4544 105.718 89.7624 105.155 88.963C103.906 87.1883 101.634 85.4008 98.9023 85.9847C96.1991 86.7208 99.8183 88.3882 99.4602 91.1566C99.2785 92.5601 99.8002 92.3593 100.615 93.4868C99.4421 95.6805 100.12 99.3628 101.917 101.033C101.034 104.988 101.981 109.684 106.576 108.215Z" fill="#B75742"/>
<path d="M99.881 87.3221C99.881 87.3221 100.883 87.6815 101.418 88.7586C101.952 89.8366 101.686 93.287 99.4635 94.4246C97.2406 95.5622 96.2188 92.9781 96.3806 91.0714C96.5416 89.1647 97.1855 86.6695 99.881 87.3221Z" fill="#F7A491"/>
<path d="M98.4933 92.6334L96.9161 92.6077C96.9161 92.6077 96.9437 93.2577 97.6367 93.2907C98.4813 93.331 98.4933 92.6334 98.4933 92.6334Z" fill="white"/>
<path d="M102.208 91.3693C102.537 89.5863 102.408 88.2342 101.218 87.5816C100.028 86.9289 99.0115 86.2817 97.9466 87.4551L97.7056 87.5999C97.7056 87.5999 99.7149 88.1911 99.8268 89.3278C99.9387 90.4636 101.007 91.8148 100.843 92.3731C100.678 92.9313 100.489 94.0442 100.489 94.0442L100.929 93.6592C100.929 93.6582 101.879 93.1532 102.208 91.3693Z" fill="#B75742"/>
<path d="M100.137 90.6873C99.9706 91.1795 100.096 91.6745 100.417 91.7919C100.738 91.9092 101.132 91.6049 101.298 91.1126C101.464 90.6203 101.339 90.1253 101.018 90.008C100.697 89.8907 100.303 90.195 100.137 90.6873Z" fill="#F7A491"/>
</g>
<defs>
<clipPath id="clip0_64_5713">
<rect width="301" height="183.336" fill="white"/>
</clipPath>
</defs>
</svg>
