<svg width="305" height="201" viewBox="0 0 305 201" fill="none" xmlns="http://www.w3.org/2000/svg">
<path d="M271.86 114.01L274.51 115.06V124.9C274.51 126.09 272.99 128.98 271.86 129.55" fill="#DADADA"/>
<path d="M271.86 114.01L274.51 115.06V124.9C274.51 126.09 272.99 128.98 271.86 129.55" stroke="black" stroke-width="0.67" stroke-linejoin="round"/>
<path d="M153.98 23.2202H152.72C152.538 23.2202 152.39 23.368 152.39 23.5503V52.1202C152.39 52.3025 152.538 52.4502 152.72 52.4502H153.98C154.162 52.4502 154.31 52.3025 154.31 52.1202V23.5503C154.31 23.368 154.162 23.2202 153.98 23.2202Z" fill="#DADADA"/>
<path d="M153.98 23.5502V52.1101H152.72V23.5502H153.98ZM153.98 22.8901H152.72C152.35 22.8901 152.05 23.1902 152.05 23.5602V52.1201C152.05 52.4901 152.35 52.7902 152.72 52.7902H153.98C154.35 52.7902 154.65 52.4901 154.65 52.1201V23.5602C154.65 23.1902 154.35 22.8901 153.98 22.8901Z" fill="black"/>
<path d="M154.22 51.78H152.48C152.298 51.78 152.15 51.9277 152.15 52.11V95.1801C152.15 95.3623 152.298 95.51 152.48 95.51H154.22C154.402 95.51 154.55 95.3623 154.55 95.1801V52.11C154.55 51.9277 154.402 51.78 154.22 51.78Z" fill="#DADADA"/>
<path d="M154.21 52.12V95.1801H152.48V52.12H154.21ZM154.21 51.45H152.48C152.11 51.45 151.81 51.75 151.81 52.12V95.1801C151.81 95.5501 152.11 95.85 152.48 95.85H154.21C154.58 95.85 154.88 95.5501 154.88 95.1801V52.12C154.88 51.75 154.58 51.45 154.21 51.45Z" fill="black"/>
<path d="M154.41 94.8398H152.29C152.108 94.8398 151.96 94.9877 151.96 95.1699V98.7899C151.96 98.9722 152.108 99.1199 152.29 99.1199H154.41C154.592 99.1199 154.74 98.9722 154.74 98.7899V95.1699C154.74 94.9877 154.592 94.8398 154.41 94.8398Z" fill="#DADADA"/>
<path d="M154.41 95.17V98.78H152.3V95.17H154.41ZM154.41 94.51H152.3C151.93 94.51 151.63 94.8101 151.63 95.1801V98.79C151.63 99.16 151.93 99.46 152.3 99.46H154.41C154.78 99.46 155.08 99.16 155.08 98.79V95.1801C155.08 94.8101 154.78 94.51 154.41 94.51Z" fill="black"/>
<path d="M44.1201 153.94L89.5601 158.01V139.97H45.0801L44.1201 153.94Z" fill="#1D1D1B" stroke="black" stroke-width="0.67" stroke-linejoin="round"/>
<path d="M108.28 168.25L79.8501 171.72L79.1401 165.05L107.67 162.46L108.28 168.25Z" fill="#1D1D1B" stroke="black" stroke-width="0.67" stroke-miterlimit="10"/>
<path d="M105.54 168.55C104.12 167.73 103.59 165.93 104.35 164.47L107.69 158.01L115.31 158.82L109.68 167.55C108.79 168.93 106.97 169.37 105.55 168.55H105.54Z" fill="#1D1D1B" stroke="black" stroke-width="0.67" stroke-miterlimit="10"/>
<path d="M107.13 167.49C108.063 167.49 108.82 166.733 108.82 165.8C108.82 164.867 108.063 164.11 107.13 164.11C106.197 164.11 105.44 164.867 105.44 165.8C105.44 166.733 106.197 167.49 107.13 167.49Z" fill="#3C3C3B" stroke="black" stroke-width="0.67" stroke-miterlimit="10"/>
<path d="M152.62 191.75C236.556 191.75 304.6 187.309 304.6 181.83C304.6 176.351 236.556 171.91 152.62 171.91C68.6839 171.91 0.640137 176.351 0.640137 181.83C0.640137 187.309 68.6839 191.75 152.62 191.75Z" fill="url(#paint0_radial_427_224)"/>
<path d="M64.9203 200.54C86.6307 200.54 104.23 197.491 104.23 193.73C104.23 189.969 86.6307 186.92 64.9203 186.92C43.21 186.92 25.6104 189.969 25.6104 193.73C25.6104 197.491 43.21 200.54 64.9203 200.54Z" fill="url(#paint1_radial_427_224)"/>
<path d="M256.49 178.72C268.077 178.72 277.47 169.327 277.47 157.74C277.47 146.153 268.077 136.76 256.49 136.76C244.903 136.76 235.51 146.153 235.51 157.74C235.51 169.327 244.903 178.72 256.49 178.72Z" fill="#003399"/>
<path d="M259.92 136.17C259.29 136.07 258.65 136 258 135.95L258.66 138.9C259.32 138.98 259.96 139.08 260.6 139.22L259.92 136.16V136.17Z" fill="#217DD9"/>
<path d="M262.87 136.85C262.26 136.66 261.64 136.5 261 136.37L261.24 139.38C261.88 139.54 262.5 139.74 263.12 139.97L262.87 136.85Z" fill="#217DD9"/>
<path d="M265.65 137.91C265.07 137.64 264.47 137.4 263.87 137.18L263.7 140.2C264.31 140.45 264.9 140.73 265.48 141.04L265.66 137.92L265.65 137.91Z" fill="#217DD9"/>
<path d="M268.23 139.32C267.69 138.97 267.13 138.65 266.56 138.36L265.98 141.33C266.55 141.66 267.1 142.02 267.63 142.4L268.23 139.33V139.32Z" fill="#217DD9"/>
<path d="M270.581 141.06C270.091 140.65 269.581 140.25 269.051 139.88L268.081 142.74C268.601 143.14 269.101 143.57 269.571 144.02L270.571 141.05L270.581 141.06Z" fill="#217DD9"/>
<path d="M272.67 143.08C272.24 142.6 271.78 142.15 271.31 141.71L269.97 144.42C270.43 144.89 270.87 145.38 271.28 145.89L272.67 143.08Z" fill="#217DD9"/>
<path d="M274.481 145.37C274.111 144.84 273.731 144.33 273.321 143.83L271.641 146.34C272.031 146.86 272.401 147.41 272.741 147.97L274.481 145.37Z" fill="#217DD9"/>
<path d="M275.98 147.88C275.69 147.31 275.371 146.75 275.031 146.2L273.021 148.46C273.341 149.03 273.631 149.62 273.891 150.22L275.97 147.88H275.98Z" fill="#217DD9"/>
<path d="M277.13 150.61C276.92 150 276.68 149.4 276.42 148.82L274.12 150.79C274.36 151.4 274.57 152.02 274.75 152.65L277.13 150.61Z" fill="#217DD9"/>
<path d="M277.92 153.5C277.8 152.87 277.64 152.24 277.46 151.63L274.92 153.26C275.07 153.89 275.19 154.54 275.28 155.19L277.92 153.5Z" fill="#217DD9"/>
<path d="M275.45 157.84L278.29 156.53C278.25 155.88 278.19 155.24 278.1 154.61L275.36 155.87C275.42 156.49 275.45 157.11 275.45 157.74C275.45 157.77 275.45 157.8 275.45 157.84Z" fill="#217DD9"/>
<path d="M278.25 159.65C278.3 159.02 278.33 158.39 278.33 157.74C278.33 157.74 278.33 157.73 278.33 157.72L275.43 158.58C275.4 159.24 275.34 159.89 275.24 160.54L278.24 159.65H278.25Z" fill="#217DD9"/>
<path d="M277.77 162.67C277.91 162.05 278.03 161.42 278.12 160.77L275.13 161.22C275.01 161.87 274.86 162.51 274.67 163.13L277.77 162.66V162.67Z" fill="#217DD9"/>
<path d="M276.901 165.54C277.131 164.94 277.33 164.33 277.51 163.71L274.49 163.74C274.28 164.37 274.041 164.98 273.771 165.57L276.901 165.54Z" fill="#217DD9"/>
<path d="M275.66 168.22C275.97 167.66 276.25 167.08 276.51 166.49L273.51 166.11C273.22 166.7 272.9 167.27 272.55 167.83L275.66 168.22Z" fill="#217DD9"/>
<path d="M274.081 170.69C274.461 170.17 274.821 169.64 275.161 169.09L272.241 168.32C271.871 168.87 271.481 169.39 271.061 169.89L274.081 170.69Z" fill="#217DD9"/>
<path d="M269.311 171.72L272.201 172.92C272.651 172.46 273.071 171.98 273.481 171.48L270.691 170.32C270.261 170.81 269.801 171.28 269.311 171.72Z" fill="#217DD9"/>
<path d="M270.041 174.87C270.541 174.47 271.031 174.05 271.501 173.61L268.881 172.09C268.381 172.52 267.871 172.92 267.331 173.3L270.041 174.87Z" fill="#217DD9"/>
<path d="M267.63 176.53C268.18 176.2 268.72 175.85 269.24 175.47L266.85 173.62C266.3 173.98 265.73 174.31 265.15 174.61L267.63 176.53Z" fill="#217DD9"/>
<path d="M265.011 177.86C265.601 177.61 266.181 177.33 266.751 177.03L264.631 174.88C264.041 175.16 263.431 175.41 262.811 175.63L265.011 177.86Z" fill="#217DD9"/>
<path d="M262.2 178.83C262.82 178.66 263.44 178.47 264.04 178.25L262.24 175.83C261.62 176.03 260.99 176.19 260.34 176.33L262.21 178.84L262.2 178.83Z" fill="#217DD9"/>
<path d="M259.23 179.41C259.87 179.33 260.51 179.22 261.13 179.08L259.68 176.43C259.04 176.54 258.39 176.62 257.73 176.66L259.23 179.41Z" fill="#217DD9"/>
<path d="M255.041 176.65L256.141 179.58C256.261 179.58 256.371 179.58 256.491 179.58C257.021 179.58 257.551 179.56 258.071 179.52L257.001 176.69C256.831 176.69 256.661 176.7 256.491 176.7C256.001 176.7 255.521 176.68 255.041 176.64V176.65Z" fill="#217DD9"/>
<path d="M253.06 179.31C253.69 179.41 254.33 179.48 254.98 179.53L254.32 176.58C253.66 176.5 253.02 176.4 252.38 176.26L253.06 179.32V179.31Z" fill="#217DD9"/>
<path d="M250.11 178.64C250.72 178.83 251.34 178.99 251.98 179.12L251.74 176.11C251.1 175.94 250.48 175.75 249.86 175.52L250.11 178.64Z" fill="#217DD9"/>
<path d="M247.33 177.58C247.91 177.85 248.51 178.09 249.11 178.31L249.28 175.29C248.67 175.04 248.08 174.76 247.5 174.45L247.32 177.57L247.33 177.58Z" fill="#217DD9"/>
<path d="M244.75 176.16C245.29 176.51 245.85 176.83 246.42 177.12L247 174.15C246.43 173.82 245.88 173.46 245.35 173.08L244.75 176.15V176.16Z" fill="#217DD9"/>
<path d="M242.4 174.43C242.89 174.84 243.4 175.24 243.93 175.61L244.9 172.75C244.38 172.35 243.88 171.92 243.41 171.47L242.41 174.44L242.4 174.43Z" fill="#217DD9"/>
<path d="M240.3 172.41C240.73 172.89 241.19 173.34 241.66 173.78L243 171.07C242.54 170.6 242.1 170.11 241.69 169.6L240.3 172.41Z" fill="#217DD9"/>
<path d="M238.49 170.12C238.86 170.65 239.24 171.16 239.65 171.66L241.33 169.15C240.94 168.63 240.57 168.08 240.23 167.52L238.49 170.12Z" fill="#217DD9"/>
<path d="M236.99 167.6C237.28 168.17 237.6 168.73 237.94 169.28L239.95 167.02C239.63 166.45 239.34 165.86 239.08 165.26L237 167.6H236.99Z" fill="#217DD9"/>
<path d="M235.84 164.88C236.05 165.49 236.29 166.09 236.55 166.67L238.85 164.7C238.61 164.09 238.4 163.47 238.22 162.84L235.84 164.88Z" fill="#217DD9"/>
<path d="M235.061 161.99C235.181 162.62 235.341 163.25 235.521 163.86L238.061 162.23C237.911 161.6 237.791 160.95 237.701 160.3L235.061 161.99Z" fill="#217DD9"/>
<path d="M237.52 157.65L234.68 158.96C234.72 159.61 234.78 160.25 234.87 160.88L237.61 159.62C237.55 159 237.52 158.38 237.52 157.75C237.52 157.72 237.52 157.69 237.52 157.65Z" fill="#217DD9"/>
<path d="M234.73 155.84C234.68 156.47 234.65 157.1 234.65 157.75C234.65 157.75 234.65 157.76 234.65 157.77L237.55 156.91C237.58 156.25 237.64 155.6 237.74 154.95L234.74 155.84H234.73Z" fill="#217DD9"/>
<path d="M235.21 152.82C235.07 153.44 234.95 154.07 234.86 154.72L237.85 154.27C237.97 153.62 238.12 152.98 238.31 152.36L235.21 152.83V152.82Z" fill="#217DD9"/>
<path d="M236.08 149.95C235.85 150.55 235.65 151.16 235.47 151.78L238.49 151.75C238.7 151.12 238.94 150.51 239.21 149.92L236.08 149.95Z" fill="#217DD9"/>
<path d="M237.32 147.27C237.01 147.83 236.73 148.41 236.47 149L239.47 149.38C239.76 148.79 240.08 148.22 240.43 147.66L237.32 147.27Z" fill="#217DD9"/>
<path d="M238.9 144.8C238.52 145.32 238.16 145.85 237.82 146.4L240.74 147.17C241.11 146.62 241.5 146.1 241.92 145.6L238.9 144.8Z" fill="#217DD9"/>
<path d="M243.67 143.77L240.781 142.57C240.331 143.03 239.91 143.51 239.5 144.01L242.29 145.17C242.72 144.68 243.18 144.21 243.67 143.77Z" fill="#217DD9"/>
<path d="M242.94 140.61C242.44 141.01 241.95 141.43 241.48 141.87L244.1 143.39C244.6 142.96 245.111 142.56 245.651 142.18L242.94 140.61Z" fill="#217DD9"/>
<path d="M245.341 138.96C244.791 139.29 244.25 139.64 243.73 140.02L246.12 141.87C246.67 141.51 247.24 141.18 247.82 140.88L245.341 138.96Z" fill="#217DD9"/>
<path d="M247.97 137.63C247.38 137.88 246.8 138.16 246.23 138.46L248.35 140.61C248.94 140.33 249.55 140.08 250.17 139.86L247.97 137.63Z" fill="#217DD9"/>
<path d="M250.78 136.66C250.16 136.83 249.54 137.02 248.94 137.24L250.74 139.66C251.36 139.46 251.99 139.3 252.64 139.16L250.77 136.65L250.78 136.66Z" fill="#217DD9"/>
<path d="M253.751 136.07C253.111 136.15 252.471 136.26 251.851 136.4L253.301 139.05C253.941 138.94 254.591 138.86 255.251 138.82L253.751 136.07Z" fill="#217DD9"/>
<path d="M257.94 138.84L256.84 135.91C256.72 135.91 256.61 135.91 256.49 135.91C255.96 135.91 255.43 135.93 254.91 135.97L255.98 138.8C256.15 138.8 256.32 138.79 256.49 138.79C256.98 138.79 257.46 138.81 257.94 138.85V138.84Z" fill="#217DD9"/>
<path d="M256.49 168.28C262.311 168.28 267.03 163.561 267.03 157.74C267.03 151.919 262.311 147.2 256.49 147.2C250.669 147.2 245.95 151.919 245.95 157.74C245.95 163.561 250.669 168.28 256.49 168.28Z" fill="#217DD9"/>
<path d="M256.49 164.51C260.229 164.51 263.26 161.479 263.26 157.74C263.26 154.001 260.229 150.97 256.49 150.97C252.751 150.97 249.72 154.001 249.72 157.74C249.72 161.479 252.751 164.51 256.49 164.51Z" fill="#003399"/>
<path d="M256.49 160.5C258.014 160.5 259.25 159.264 259.25 157.74C259.25 156.216 258.014 154.98 256.49 154.98C254.966 154.98 253.73 156.216 253.73 157.74C253.73 159.264 254.966 160.5 256.49 160.5Z" fill="black" stroke="black" stroke-width="0.67" stroke-linejoin="round"/>
<path d="M64.9805 192.24C76.5674 192.24 85.9605 182.847 85.9605 171.26C85.9605 159.673 76.5674 150.28 64.9805 150.28C53.3935 150.28 44.0005 159.673 44.0005 171.26C44.0005 182.847 53.3935 192.24 64.9805 192.24Z" fill="#003399"/>
<path d="M68.4205 149.69C67.7905 149.59 67.1505 149.52 66.5005 149.47L67.1605 152.42C67.8205 152.5 68.4605 152.6 69.1005 152.74L68.4205 149.68V149.69Z" fill="#217DD9"/>
<path d="M71.3602 150.36C70.7502 150.17 70.1302 150.01 69.4902 149.88L69.7302 152.89C70.3702 153.05 70.9902 153.25 71.6102 153.48L71.3602 150.36Z" fill="#217DD9"/>
<path d="M74.1404 151.43C73.5604 151.16 72.9604 150.92 72.3604 150.7L72.1904 153.72C72.8004 153.97 73.3904 154.25 73.9704 154.56L74.1505 151.44L74.1404 151.43Z" fill="#217DD9"/>
<path d="M76.7202 152.84C76.1802 152.49 75.6202 152.17 75.0502 151.88L74.4702 154.85C75.0402 155.18 75.5902 155.54 76.1202 155.92L76.7202 152.85V152.84Z" fill="#217DD9"/>
<path d="M79.0703 154.57C78.5803 154.16 78.0703 153.76 77.5403 153.39L76.5703 156.25C77.0903 156.65 77.5903 157.08 78.0603 157.53L79.0603 154.56L79.0703 154.57Z" fill="#217DD9"/>
<path d="M81.1702 156.59C80.7402 156.11 80.2802 155.66 79.8102 155.22L78.4702 157.93C78.9302 158.4 79.3703 158.89 79.7803 159.4L81.1702 156.59Z" fill="#217DD9"/>
<path d="M82.9806 158.88C82.6106 158.35 82.2306 157.84 81.8206 157.34L80.1406 159.85C80.5306 160.37 80.9006 160.92 81.2406 161.48L82.9806 158.88Z" fill="#217DD9"/>
<path d="M84.4805 161.4C84.1905 160.83 83.8705 160.27 83.5305 159.72L81.5205 161.98C81.8405 162.55 82.1305 163.14 82.3905 163.74L84.4705 161.4H84.4805Z" fill="#217DD9"/>
<path d="M85.6301 164.12C85.4201 163.51 85.1801 162.91 84.9201 162.33L82.6201 164.3C82.8601 164.91 83.0701 165.53 83.2501 166.16L85.6301 164.12Z" fill="#217DD9"/>
<path d="M86.4102 167.01C86.2902 166.38 86.1302 165.75 85.9502 165.14L83.4102 166.77C83.5602 167.4 83.6802 168.05 83.7702 168.7L86.4102 167.01Z" fill="#217DD9"/>
<path d="M83.9504 171.35L86.7903 170.04C86.7503 169.39 86.6903 168.75 86.6003 168.12L83.8604 169.38C83.9204 170 83.9504 170.62 83.9504 171.25C83.9504 171.28 83.9504 171.31 83.9504 171.35Z" fill="#217DD9"/>
<path d="M86.7405 173.16C86.7905 172.53 86.8205 171.9 86.8205 171.25C86.8205 171.25 86.8205 171.24 86.8205 171.23L83.9205 172.09C83.8905 172.75 83.8305 173.4 83.7305 174.05L86.7305 173.16H86.7405Z" fill="#217DD9"/>
<path d="M86.2704 176.18C86.4104 175.56 86.5304 174.93 86.6204 174.28L83.6304 174.73C83.5104 175.38 83.3604 176.02 83.1704 176.64L86.2704 176.17V176.18Z" fill="#217DD9"/>
<path d="M85.3903 179.05C85.6203 178.45 85.8202 177.84 86.0002 177.22L82.9802 177.25C82.7702 177.88 82.5303 178.49 82.2603 179.08L85.3903 179.05Z" fill="#217DD9"/>
<path d="M84.1506 181.73C84.4606 181.17 84.7405 180.59 85.0005 180L82.0005 179.62C81.7105 180.21 81.3905 180.78 81.0405 181.34L84.1506 181.73Z" fill="#217DD9"/>
<path d="M82.5806 184.2C82.9606 183.68 83.3205 183.15 83.6605 182.6L80.7405 181.83C80.3705 182.38 79.9805 182.9 79.5605 183.4L82.5806 184.2Z" fill="#217DD9"/>
<path d="M77.8003 185.23L80.6903 186.43C81.1403 185.97 81.5603 185.49 81.9703 184.99L79.1803 183.83C78.7503 184.32 78.2903 184.79 77.8003 185.23Z" fill="#217DD9"/>
<path d="M78.5303 188.39C79.0303 187.99 79.5203 187.57 79.9903 187.13L77.3703 185.61C76.8703 186.04 76.3603 186.44 75.8203 186.82L78.5303 188.39Z" fill="#217DD9"/>
<path d="M76.1304 190.04C76.6804 189.71 77.2204 189.36 77.7404 188.98L75.3503 187.13C74.8003 187.49 74.2304 187.82 73.6504 188.12L76.1304 190.04Z" fill="#217DD9"/>
<path d="M73.5106 191.37C74.1006 191.12 74.6805 190.84 75.2505 190.54L73.1306 188.39C72.5406 188.67 71.9305 188.92 71.3105 189.14L73.5106 191.37Z" fill="#217DD9"/>
<path d="M70.6906 192.34C71.3106 192.17 71.9306 191.98 72.5306 191.76L70.7305 189.34C70.1105 189.54 69.4806 189.7 68.8306 189.84L70.7006 192.35L70.6906 192.34Z" fill="#217DD9"/>
<path d="M67.7305 192.93C68.3705 192.85 69.0105 192.74 69.6305 192.6L68.1805 189.95C67.5405 190.06 66.8905 190.14 66.2305 190.18L67.7305 192.93Z" fill="#217DD9"/>
<path d="M63.5303 190.16L64.6302 193.09C64.7502 193.09 64.8602 193.09 64.9802 193.09C65.5102 193.09 66.0402 193.07 66.5602 193.03L65.4902 190.2C65.3202 190.2 65.1502 190.21 64.9802 190.21C64.4902 190.21 64.0103 190.19 63.5303 190.15V190.16Z" fill="#217DD9"/>
<path d="M61.5501 192.83C62.1801 192.93 62.8201 193 63.4701 193.05L62.8101 190.1C62.1501 190.02 61.5101 189.92 60.8701 189.78L61.5501 192.84V192.83Z" fill="#217DD9"/>
<path d="M58.6006 192.15C59.2106 192.34 59.8306 192.5 60.4706 192.63L60.2306 189.62C59.5906 189.45 58.9706 189.26 58.3506 189.03L58.6006 192.15Z" fill="#217DD9"/>
<path d="M55.8303 191.09C56.4103 191.36 57.0103 191.6 57.6103 191.82L57.7803 188.8C57.1703 188.55 56.5803 188.27 56.0003 187.96L55.8203 191.08L55.8303 191.09Z" fill="#217DD9"/>
<path d="M53.2505 189.68C53.7905 190.03 54.3505 190.35 54.9205 190.64L55.5005 187.67C54.9305 187.34 54.3805 186.98 53.8505 186.6L53.2505 189.67V189.68Z" fill="#217DD9"/>
<path d="M50.8906 187.94C51.3806 188.35 51.8906 188.75 52.4206 189.12L53.3906 186.26C52.8706 185.86 52.3706 185.43 51.9006 184.98L50.9006 187.95L50.8906 187.94Z" fill="#217DD9"/>
<path d="M48.8003 185.92C49.2303 186.4 49.6903 186.85 50.1603 187.29L51.5003 184.58C51.0403 184.11 50.6003 183.62 50.1903 183.11L48.8003 185.92Z" fill="#217DD9"/>
<path d="M46.9902 183.63C47.3602 184.16 47.7403 184.67 48.1503 185.17L49.8303 182.66C49.4403 182.14 49.0702 181.59 48.7302 181.03L46.9902 183.63Z" fill="#217DD9"/>
<path d="M45.4902 181.12C45.7802 181.69 46.1002 182.25 46.4402 182.8L48.4503 180.54C48.1303 179.97 47.8403 179.38 47.5803 178.78L45.5002 181.12H45.4902Z" fill="#217DD9"/>
<path d="M44.3403 178.4C44.5503 179.01 44.7903 179.61 45.0503 180.19L47.3503 178.22C47.1103 177.61 46.9003 176.99 46.7203 176.36L44.3403 178.4Z" fill="#217DD9"/>
<path d="M43.5605 175.5C43.6805 176.13 43.8406 176.76 44.0206 177.37L46.5605 175.74C46.4105 175.11 46.2906 174.46 46.2006 173.81L43.5605 175.5Z" fill="#217DD9"/>
<path d="M46.0202 171.16L43.1802 172.47C43.2202 173.12 43.2802 173.76 43.3702 174.39L46.1102 173.13C46.0502 172.51 46.0202 171.89 46.0202 171.26C46.0202 171.23 46.0202 171.2 46.0202 171.16Z" fill="#217DD9"/>
<path d="M43.2303 169.35C43.1803 169.98 43.1504 170.61 43.1504 171.26C43.1504 171.26 43.1504 171.27 43.1504 171.28L46.0504 170.42C46.0804 169.76 46.1404 169.11 46.2404 168.46L43.2404 169.35H43.2303Z" fill="#217DD9"/>
<path d="M43.7006 166.33C43.5606 166.95 43.4406 167.58 43.3506 168.23L46.3406 167.78C46.4606 167.13 46.6106 166.49 46.8006 165.87L43.7006 166.34V166.33Z" fill="#217DD9"/>
<path d="M44.5803 163.47C44.3503 164.07 44.1502 164.68 43.9702 165.3L46.9902 165.27C47.2002 164.64 47.4403 164.03 47.7103 163.44L44.5803 163.47Z" fill="#217DD9"/>
<path d="M45.8203 160.78C45.5103 161.34 45.2302 161.92 44.9702 162.51L47.9702 162.89C48.2602 162.3 48.5802 161.73 48.9302 161.17L45.8203 160.78Z" fill="#217DD9"/>
<path d="M47.3906 158.31C47.0106 158.83 46.6505 159.36 46.3105 159.91L49.2305 160.68C49.6005 160.13 49.9905 159.61 50.4105 159.11L47.3906 158.31Z" fill="#217DD9"/>
<path d="M52.1705 157.28L49.2805 156.08C48.8305 156.54 48.4105 157.02 48.0005 157.52L50.7905 158.68C51.2205 158.19 51.6805 157.72 52.1705 157.28Z" fill="#217DD9"/>
<path d="M51.4302 154.13C50.9302 154.53 50.4402 154.95 49.9702 155.39L52.5903 156.91C53.0903 156.48 53.6003 156.08 54.1403 155.7L51.4302 154.13Z" fill="#217DD9"/>
<path d="M53.8405 152.47C53.2905 152.8 52.7505 153.15 52.2305 153.53L54.6205 155.38C55.1705 155.02 55.7405 154.69 56.3205 154.39L53.8405 152.47Z" fill="#217DD9"/>
<path d="M56.4603 151.14C55.8703 151.39 55.2902 151.67 54.7202 151.97L56.8403 154.12C57.4303 153.84 58.0402 153.59 58.6602 153.37L56.4603 151.14Z" fill="#217DD9"/>
<path d="M59.2702 150.17C58.6502 150.34 58.0302 150.53 57.4302 150.75L59.2302 153.17C59.8502 152.97 60.4802 152.81 61.1302 152.67L59.2602 150.16L59.2702 150.17Z" fill="#217DD9"/>
<path d="M62.2403 149.59C61.6003 149.67 60.9603 149.78 60.3403 149.92L61.7903 152.57C62.4303 152.46 63.0803 152.38 63.7403 152.34L62.2403 149.59Z" fill="#217DD9"/>
<path d="M66.4402 152.35L65.3402 149.42C65.2202 149.42 65.1102 149.42 64.9902 149.42C64.4602 149.42 63.9302 149.44 63.4102 149.48L64.4802 152.31C64.6502 152.31 64.8202 152.3 64.9902 152.3C65.4802 152.3 65.9602 152.32 66.4402 152.36V152.35Z" fill="#217DD9"/>
<path d="M64.9804 181.8C70.8015 181.8 75.5204 177.081 75.5204 171.26C75.5204 165.439 70.8015 160.72 64.9804 160.72C59.1593 160.72 54.4404 165.439 54.4404 171.26C54.4404 177.081 59.1593 181.8 64.9804 181.8Z" fill="#217DD9"/>
<path d="M64.9804 178.03C68.7194 178.03 71.7504 174.999 71.7504 171.26C71.7504 167.521 68.7194 164.49 64.9804 164.49C61.2414 164.49 58.2104 167.521 58.2104 171.26C58.2104 174.999 61.2414 178.03 64.9804 178.03Z" fill="#003399"/>
<path d="M64.9802 174.02C66.5045 174.02 67.7402 172.784 67.7402 171.26C67.7402 169.736 66.5045 168.5 64.9802 168.5C63.4559 168.5 62.2202 169.736 62.2202 171.26C62.2202 172.784 63.4559 174.02 64.9802 174.02Z" fill="#217DD9"/>
<path d="M37.84 116.01H33.6699C33.6699 116.01 33.8399 111.76 34.1599 110.69H38.1299L37.84 116.01Z" fill="#003399"/>
<path d="M37.3799 122.93L37.84 116.01H33.6699V121.15C33.6699 121.69 37.3799 122.93 37.3799 122.93Z" fill="#217DD9"/>
<path d="M219.2 151.91L218.45 158.68C218.45 158.68 216.72 165.14 207.12 165.14H159.95C157.04 165.14 152.81 164.23 153.36 158.53C153.91 152.83 168.42 151.92 168.42 151.92H219.22" fill="#217DD9"/>
<path d="M221.74 89.22C222.14 88.32 221.73 87.26 220.82 86.87L216.67 85.04L215.23 88.3101L219.38 90.14C220.28 90.54 221.34 90.13 221.73 89.22H221.74Z" fill="#217DD9"/>
<path d="M215.96 88.7899C217.125 88.7899 218.07 87.8453 218.07 86.6799C218.07 85.5146 217.125 84.5698 215.96 84.5698C214.795 84.5698 213.85 85.5146 213.85 86.6799C213.85 87.8453 214.795 88.7899 215.96 88.7899Z" fill="#003399"/>
<path d="M107.84 98.7902C107.27 95.9402 104.8 93.8702 101.89 93.8102L100.26 93.7802L39.3902 90.3501L35.6502 151.25C35.5802 152.33 36.3902 153.26 37.4602 153.35L44.1302 153.95C44.1302 153.95 49.7602 138.87 67.0002 139.68C84.2302 140.49 89.5802 158.02 89.5802 158.02L113.99 160.21H160.91C165.07 160.21 168.44 156.23 168.44 151.32V122.37C168.44 121.95 168.15 121.61 167.79 121.61H156.42C156.05 121.61 155.75 121.26 155.75 120.82V98.8002H107.85L107.84 98.7902Z" fill="#003399"/>
<path d="M193.68 121.6H191.06V165.12H193.68V121.6Z" fill="#003399"/>
<path d="M250.76 95.8799C250.76 95.8799 251.95 96.5799 251.95 97.1799C251.95 97.7799 251.95 103.76 251.58 109.72C251.21 115.68 250.76 119.94 250.76 119.94L244.03 124.1L250.76 95.8899V95.8799Z" fill="#217DD9"/>
<path d="M253.53 137.38H250.8V157.33H253.53V137.38Z" fill="#3C3C3B" stroke="black" stroke-width="0.67" stroke-miterlimit="10" stroke-linecap="round"/>
<path d="M250.15 137.38L254.19 136.56" stroke="black" stroke-width="0.67" stroke-miterlimit="10" stroke-linecap="round"/>
<path d="M250.15 138.69L254.19 137.87" stroke="black" stroke-width="0.67" stroke-miterlimit="10" stroke-linecap="round"/>
<path d="M250.15 139.99L254.19 139.17" stroke="black" stroke-width="0.67" stroke-miterlimit="10" stroke-linecap="round"/>
<path d="M250.15 141.29L254.19 140.47" stroke="black" stroke-width="0.67" stroke-miterlimit="10" stroke-linecap="round"/>
<path d="M250.15 142.59L254.19 141.78" stroke="black" stroke-width="0.67" stroke-miterlimit="10" stroke-linecap="round"/>
<path d="M250.15 143.9L254.19 143.08" stroke="black" stroke-width="0.67" stroke-miterlimit="10" stroke-linecap="round"/>
<path d="M250.15 145.2L254.19 144.38" stroke="black" stroke-width="0.67" stroke-miterlimit="10" stroke-linecap="round"/>
<path d="M250.15 146.5L254.19 145.69" stroke="black" stroke-width="0.67" stroke-miterlimit="10" stroke-linecap="round"/>
<path d="M250.15 147.81L254.19 146.99" stroke="black" stroke-width="0.67" stroke-miterlimit="10" stroke-linecap="round"/>
<path d="M250.15 149.11L254.19 148.29" stroke="black" stroke-width="0.67" stroke-miterlimit="10" stroke-linecap="round"/>
<path d="M250.15 150.41L254.19 149.6" stroke="black" stroke-width="0.67" stroke-miterlimit="10" stroke-linecap="round"/>
<path d="M250.15 151.72L254.19 150.9" stroke="black" stroke-width="0.67" stroke-miterlimit="10" stroke-linecap="round"/>
<path d="M250.15 153.02L254.19 152.2" stroke="black" stroke-width="0.67" stroke-miterlimit="10" stroke-linecap="round"/>
<path d="M250.15 154.32L254.19 153.5" stroke="black" stroke-width="0.67" stroke-miterlimit="10" stroke-linecap="round"/>
<path d="M262.069 129.11L257.285 129.842L260.279 149.404L265.063 148.672L262.069 129.11Z" fill="#1D1D1B" stroke="black" stroke-width="0.67" stroke-miterlimit="10" stroke-linecap="round"/>
<path d="M265.822 148.562L259.525 149.526L260.169 153.737L266.466 152.773L265.822 148.562Z" fill="#1D1D1B" stroke="black" stroke-width="0.67" stroke-miterlimit="10" stroke-linecap="round"/>
<path d="M257.141 154.202L267.441 152.626C268.924 152.399 270.303 153.412 270.53 154.895C270.757 156.377 269.744 157.756 268.261 157.983L257.961 159.559L257.141 154.202Z" fill="#1D1D1B" stroke="black" stroke-width="0.67" stroke-miterlimit="10" stroke-linecap="round"/>
<path d="M257.91 160.36L246.04 162.17L243.37 158.2L259.27 155.76L257.91 160.36Z" fill="#1D1D1B" stroke="black" stroke-width="0.67" stroke-linecap="round" stroke-linejoin="round"/>
<path d="M259.27 155.76L240.58 158.62C237.79 159.05 235.18 157.13 234.75 154.34L232.96 142.66L234.97 142.35L236.68 153.54C236.98 155.49 238.8 156.83 240.75 156.53L258.95 153.75L259.26 155.76H259.27Z" fill="#1D1D1B" stroke="black" stroke-width="0.67" stroke-linecap="round" stroke-linejoin="round"/>
<path d="M267.83 156.97C268.736 156.97 269.47 156.236 269.47 155.33C269.47 154.424 268.736 153.69 267.83 153.69C266.924 153.69 266.19 154.424 266.19 155.33C266.19 156.236 266.924 156.97 267.83 156.97Z" fill="#3C3C3B" stroke="black" stroke-width="0.67" stroke-miterlimit="10" stroke-linecap="round"/>
<path d="M254.15 120.97V120.44C254.15 119.89 254.45 119.4 254.9 119.24C255.98 118.85 257.98 118.08 259.45 117.29C261.55 116.15 266.27 114.53 268.88 114.02C271.49 113.51 271.85 113.56 271.85 113.56V130.05C271.85 130.05 268.23 130.37 267.27 130.05C266.31 129.73 262.4 126.6 260.82 125.35C258.23 123.31 255.75 122.26 254.69 121.86C254.36 121.74 254.14 121.38 254.14 120.98L254.15 120.97Z" fill="#003399"/>
<path d="M241.52 126.9C241.86 126.49 249.21 121.55 250.4 121.17C251.59 120.79 252.83 120.95 254.93 120.95C257.03 120.95 268.18 129.63 271.77 133.87C273.65 136.09 274.89 137.57 275.64 138.47C275.98 138.88 275.71 139.58 275.23 139.54C271.6 139.25 261.93 138.53 259.05 138.79C255.48 139.11 249.12 140.63 245.87 141.82C242.62 143.01 234.8 145.93 234.8 145.93L241.53 126.9H241.52Z" fill="#217DD9"/>
<path d="M215.07 163.25C215.07 163.25 216.12 163.3 217.31 163.04C218.58 162.76 227.45 160.55 228.2 159.66C228.95 158.77 237.64 147.89 243.84 129.01C250.04 110.13 251.31 100.34 251.31 95.97V76.15C251.31 75.5 251.17 74.86 250.9 74.28L246.67 65.12C246.57 64.91 246.38 64.77 246.17 64.77H245.51L217.97 18.4301C217.97 18.4301 218.15 16.68 217.97 15.37C217.8 14.13 216.85 12.74 216.85 12.74H211.66L216.09 42.01L220.91 81.9301C220.91 81.9301 219.34 156.51 218.45 158.69C217.56 160.87 215.07 163.26 215.07 163.26" fill="#003399"/>
<path d="M38.7 87.53C38.7 87.53 40.2699 85.05 41.3099 79.71C42.3799 74.18 43.7199 45.08 43.7199 39.77C43.7199 34.46 41.8599 30.9 41.8599 30.9V29.22C41.8599 29.22 45.0199 26.26 47.0499 20.98C49.0699 15.7 49.9199 9.58997 49.9199 9.58997C49.9199 9.58997 55.24 7.20004 58.15 5.42004C61.06 3.64004 66.0499 0.25 66.0499 0.25C66.0499 0.25 75.9799 1.30996 82.6599 1.57996C89.3399 1.85996 96.2399 1.85999 96.2399 1.85999C96.2399 1.85999 132.76 4.31001 157.41 4.64001C176.02 4.89001 212.83 3.85999 212.83 3.85999L213.86 23.55H105.86C102.61 23.55 99.9799 26.1801 99.9799 29.4301V92.2C99.9799 92.2 51.6999 90.32 46.9199 89.88C42.1399 89.44 38.6899 88.69 38.6899 87.52L38.7 87.53Z" fill="#217DD9"/>
<path d="M41.8604 29.22C46.9204 28.14 55.4804 29.0801 61.1404 29.9301C63.9104 30.3401 66.3004 28 65.9304 25.22C65.1004 18.93 64.2504 8.57 66.0504 0.25" stroke="black" stroke-width="0.67" stroke-linejoin="round"/>
<path d="M210.43 20H62.9603C57.7203 20 53.4702 25.02 53.4702 31.21V89.41" stroke="black" stroke-width="0.67" stroke-linejoin="round"/>
<path d="M96.2402 1.87012V91.9501" stroke="black" stroke-width="0.67" stroke-linejoin="round"/>
<path d="M210.29 166.09H157.37C154.97 166.09 153.01 163.86 153.01 161.12V160.2H154.96V161.12C154.96 162.79 156.04 164.14 157.37 164.14H210.29C214.57 164.14 218.02 160.11 218.15 154.96L219.98 82.8901C219.98 82.6101 219.98 82.3202 219.94 82.0402L212.4 19.6201L214.34 19.3901L221.88 81.8102C221.93 82.1902 221.94 82.5701 221.93 82.9401L220.1 155.01C219.94 161.22 215.63 166.09 210.29 166.09Z" fill="#003399"/>
<path d="M219.47 17.6401L244.93 63.6501C244.93 63.6501 235.82 67.5401 230.66 66.0201C225.5 64.5001 224.01 61.1101 223.04 55.3401C222.07 49.5701 217.81 24.6301 217.81 22.8401C217.81 21.0501 219.47 17.6401 219.47 17.6401Z" fill="#36A9E1"/>
<path d="M235.28 83.3398H249.14V92.2899H235.28C234.78 92.2899 234.37 91.8799 234.37 91.3799V84.2599C234.37 83.7599 234.78 83.3499 235.28 83.3499V83.3398Z" fill="#217DD9"/>
<path d="M241.99 84.6401H250V90.9701H241.99C240.38 90.9701 239.08 89.6702 239.08 88.0602V87.5502C239.08 85.9402 240.38 84.6401 241.99 84.6401Z" fill="#003399"/>
<path d="M198.75 121.6H159.55C158.81 121.6 158.21 120.89 158.21 120.01V113.96C158.21 113.08 158.81 112.37 159.55 112.37H198.08C198.75 112.37 199.32 112.96 199.41 113.75L200.09 119.8C200.2 120.75 199.57 121.6 198.76 121.6H198.75Z" fill="#003399"/>
<path d="M155.74 133.9H166.02C166.28 133.9 166.48 133.66 166.48 133.35V131.46C166.48 131.16 166.27 130.91 166.02 130.91H155.74V133.89V133.9Z" fill="#217DD9"/>
<path d="M155.25 146.63H166.02C166.28 146.63 166.48 146.39 166.48 146.08V144.19C166.48 143.89 166.27 143.64 166.02 143.64H155.7L155.25 146.62V146.63Z" fill="#217DD9"/>
<path d="M37.2601 124.86L49.7401 125.98C49.9801 126 50.17 126.24 50.17 126.52V128.4C50.17 128.72 49.94 128.97 49.67 128.94L37.0801 127.81L37.2601 124.85V124.86Z" fill="#217DD9"/>
<path d="M87.3304 132.33L109.73 134.34C110 134.36 110.23 134.11 110.23 133.8V131.92C110.23 131.63 110.04 131.4 109.8 131.38L87.4004 129.37C87.1304 129.35 86.9004 129.6 86.9004 129.91V131.79C86.9004 132.08 87.0904 132.31 87.3304 132.33Z" fill="#217DD9"/>
<path d="M36.5003 137.25L39.4003 137.51C39.6403 137.53 39.8303 137.77 39.8303 138.05V139.93C39.8303 140.25 39.6003 140.5 39.3303 140.47L36.3203 140.2L36.5003 137.24V137.25Z" fill="#217DD9"/>
<path d="M97.2703 145.68L111.53 146.96C111.8 146.98 112.03 146.73 112.03 146.42V144.54C112.03 144.25 111.84 144.02 111.6 144L97.3403 142.72C97.0703 142.7 96.8403 142.95 96.8403 143.26V145.14C96.8403 145.43 97.0303 145.66 97.2703 145.68Z" fill="#217DD9"/>
<path d="M37.8401 115.44L107.93 121.72C108.2 121.74 108.43 121.49 108.43 121.18V119.3C108.43 119.01 108.24 118.78 108 118.76L37.98 112.49L37.8301 115.46L37.8401 115.44Z" fill="#217DD9"/>
<path d="M38.6001 103.05L105.74 109.07C106.01 109.09 106.24 108.88 106.24 108.61V106.56C106.24 106.32 106.06 106.12 105.82 106.1L38.7802 100.09L38.6001 103.05Z" fill="#217DD9"/>
<path d="M38.1302 110.7H34.1602C34.1602 110.7 34.7802 108.31 35.5202 107.44C36.7502 105.99 38.4202 105.79 38.4202 105.79L38.1302 110.7Z" fill="#217DD9"/>
<path d="M38.8203 156.37V180.38H40.6003V156.37" fill="#003399"/>
<path d="M189.17 132.42H170.48V151.92H189.17V132.42Z" fill="#217DD9"/>
<path d="M189.17 128.37H186.18V131.11H189.17V128.37Z" fill="#003399"/>
<path d="M173.47 128.37H170.48V131.11H173.47V128.37Z" fill="#003399"/>
<path d="M188.69 131.11H186.65V132.42H188.69V131.11Z" fill="#217DD9"/>
<path d="M173 131.11H170.96V132.42H173V131.11Z" fill="#217DD9"/>
<path d="M232.91 67.4101C231.89 67.4101 230.86 67.34 229.84 67.19C226.7 66.71 224.48 64.12 223.24 59.49C222.6 57.09 216.99 27.27 216.99 23.1C216.99 20.92 218.1 17.9901 218.6 16.7901C218.72 16.4901 219.03 16.3701 219.28 16.5301L220.04 17.0101C220.28 17.1601 220.37 17.5001 220.25 17.7901C219.72 19.0701 218.84 21.53 218.84 23.1C218.84 24.67 219.89 31.4601 221.71 41.6301C223.26 50.2801 224.76 57.91 225 58.84C226.02 62.64 227.67 64.6701 230.07 65.0301C236.14 65.9501 243.07 63.44 244.89 62.72C245.15 62.62 245.42 62.78 245.51 63.07L245.81 64.0301C245.91 64.3401 245.77 64.6901 245.5 64.7901C243.88 65.4401 238.48 67.4301 232.9 67.4301L232.91 67.4101Z" fill="#003399"/>
<path d="M213.86 11.2H219.1C219.51 11.2 219.84 11.5899 219.84 12.0699V12.97C219.84 12.97 216.83 13.86 215.84 15.64C214.85 17.42 214.57 21.36 214.57 21.36H213.86V11.1899V11.2Z" fill="#217DD9"/>
<path d="M213.86 3.19995H210.43V23.55H213.86V3.19995Z" fill="#003399"/>
<path d="M217.77 37.8501H215.18V39.3201H217.77V37.8501Z" fill="#217DD9"/>
<path d="M220.45 50.4501H218.9L218.3 37.8501H219.84L220.45 50.4501Z" fill="#003399"/>
<path d="M215.19 35.8901H212.6V41.2701H215.19V35.8901Z" fill="#217DD9"/>
<path d="M213.24 51.13C213.19 50.93 212.04 46.15 212.04 38.59C212.04 31.03 213.19 26.25 213.24 26.05L214.43 26.46C214.43 26.46 213.28 31.26 213.28 38.59C213.28 45.92 214.42 50.68 214.43 50.72L213.24 51.13Z" fill="#003399"/>
<path d="M98.0899 29.7902C98.482 29.7902 98.7999 29.4722 98.7999 29.0801C98.7999 28.688 98.482 28.3701 98.0899 28.3701C97.6978 28.3701 97.3799 28.688 97.3799 29.0801C97.3799 29.4722 97.6978 29.7902 98.0899 29.7902Z" fill="#EDEDED" stroke="black" stroke-width="0.67" stroke-miterlimit="10" stroke-linecap="round"/>
<path d="M98.0899 32.73C98.482 32.73 98.7999 32.4121 98.7999 32.02C98.7999 31.6279 98.482 31.3101 98.0899 31.3101C97.6978 31.3101 97.3799 31.6279 97.3799 32.02C97.3799 32.4121 97.6978 32.73 98.0899 32.73Z" fill="#EDEDED" stroke="black" stroke-width="0.67" stroke-miterlimit="10" stroke-linecap="round"/>
<path d="M98.0899 43.46C98.482 43.46 98.7999 43.1421 98.7999 42.75C98.7999 42.3579 98.482 42.04 98.0899 42.04C97.6978 42.04 97.3799 42.3579 97.3799 42.75C97.3799 43.1421 97.6978 43.46 98.0899 43.46Z" fill="#EDEDED" stroke="black" stroke-width="0.67" stroke-miterlimit="10" stroke-linecap="round"/>
<path d="M98.0899 46.39C98.482 46.39 98.7999 46.0722 98.7999 45.6801C98.7999 45.2879 98.482 44.97 98.0899 44.97C97.6978 44.97 97.3799 45.2879 97.3799 45.6801C97.3799 46.0722 97.6978 46.39 98.0899 46.39Z" fill="#EDEDED" stroke="black" stroke-width="0.67" stroke-miterlimit="10" stroke-linecap="round"/>
<path d="M98.0899 57.1202C98.482 57.1202 98.7999 56.8024 98.7999 56.4103C98.7999 56.0182 98.482 55.7002 98.0899 55.7002C97.6978 55.7002 97.3799 56.0182 97.3799 56.4103C97.3799 56.8024 97.6978 57.1202 98.0899 57.1202Z" fill="#EDEDED" stroke="black" stroke-width="0.67" stroke-miterlimit="10" stroke-linecap="round"/>
<path d="M98.0899 60.0602C98.482 60.0602 98.7999 59.7422 98.7999 59.3501C98.7999 58.958 98.482 58.6401 98.0899 58.6401C97.6978 58.6401 97.3799 58.958 97.3799 59.3501C97.3799 59.7422 97.6978 60.0602 98.0899 60.0602Z" fill="#EDEDED" stroke="black" stroke-width="0.67" stroke-miterlimit="10" stroke-linecap="round"/>
<path d="M98.0899 70.7902C98.482 70.7902 98.7999 70.4722 98.7999 70.0801C98.7999 69.688 98.482 69.3701 98.0899 69.3701C97.6978 69.3701 97.3799 69.688 97.3799 70.0801C97.3799 70.4722 97.6978 70.7902 98.0899 70.7902Z" fill="#EDEDED" stroke="black" stroke-width="0.67" stroke-miterlimit="10" stroke-linecap="round"/>
<path d="M98.0899 73.7202C98.482 73.7202 98.7999 73.4024 98.7999 73.0103C98.7999 72.6181 98.482 72.3003 98.0899 72.3003C97.6978 72.3003 97.3799 72.6181 97.3799 73.0103C97.3799 73.4024 97.6978 73.7202 98.0899 73.7202Z" fill="#EDEDED" stroke="black" stroke-width="0.67" stroke-miterlimit="10" stroke-linecap="round"/>
<path d="M98.0899 84.4502C98.482 84.4502 98.7999 84.1324 98.7999 83.7402C98.7999 83.3481 98.482 83.0303 98.0899 83.0303C97.6978 83.0303 97.3799 83.3481 97.3799 83.7402C97.3799 84.1324 97.6978 84.4502 98.0899 84.4502Z" fill="#EDEDED" stroke="black" stroke-width="0.67" stroke-miterlimit="10" stroke-linecap="round"/>
<path d="M98.0899 87.3903C98.482 87.3903 98.7999 87.0724 98.7999 86.6803C98.7999 86.2882 98.482 85.9702 98.0899 85.9702C97.6978 85.9702 97.3799 86.2882 97.3799 86.6803C97.3799 87.0724 97.6978 87.3903 98.0899 87.3903Z" fill="#EDEDED" stroke="black" stroke-width="0.67" stroke-miterlimit="10" stroke-linecap="round"/>
<path d="M100.61 94.72C99.7299 94.72 46.37 91.38 43.65 91.38C39.74 91.38 38.4199 89.75 38.4199 89.75V87.26C38.4199 87.26 39.74 88.89 43.65 88.89C46.37 88.89 99.7299 92.23 100.61 92.23V94.72Z" fill="#003399"/>
<path d="M55.02 89.5V91.99" stroke="white" stroke-width="0.59" stroke-miterlimit="10"/>
<path d="M51.0801 91.76V89.27" stroke="white" stroke-width="0.59" stroke-miterlimit="10"/>
<path d="M75.9004 90.75V93.24" stroke="white" stroke-width="0.59" stroke-miterlimit="10"/>
<path d="M71.96 93V90.51" stroke="white" stroke-width="0.59" stroke-miterlimit="10"/>
<path d="M98.5903 92.1201V94.6101" stroke="white" stroke-width="0.59" stroke-miterlimit="10"/>
<path d="M94.6602 94.3701V91.8901" stroke="white" stroke-width="0.59" stroke-miterlimit="10"/>
<path d="M95.7802 160.2H89.0801C85.9801 160.2 83.4701 157.24 83.4701 153.58C83.4701 149.92 80.9601 146.96 77.8601 146.96H55.6701C51.9101 146.96 48.6301 149.95 47.6801 154.25C47.4001 155.5 46.4401 156.38 45.3401 156.38H37.9001C37.6101 156.38 37.3701 156.1 37.3701 155.75C37.3701 141.18 47.3701 130.16 59.7101 130.16H72.6401C85.7101 130.16 96.3001 141.88 96.3001 157.31V159.57C96.3001 159.92 96.0601 160.2 95.7701 160.2H95.7802Z" fill="#217DD9"/>
<path d="M37.4102 154.18H45.3202C45.3202 154.18 45.4902 154.03 45.5402 153.77C46.7102 148.47 50.8802 144.76 55.6702 144.76H77.8602C82.1602 144.76 85.6602 148.71 85.6602 153.58C85.6602 155.98 87.2202 158.01 89.0702 158.01H96.3002" stroke="black" stroke-width="0.67" stroke-linejoin="round"/>
<path d="M221.88 81.8102C221.88 81.8102 236.77 80.5701 243.42 79.4701C250.07 78.3701 251.31 77.6802 251.31 77.6802" stroke="#217DD9" stroke-width="0.59" stroke-miterlimit="10"/>
<path d="M64.96 28.3699C64.96 28.3699 53.9599 21.3698 49.9199 9.58984" stroke="black" stroke-width="0.67" stroke-linejoin="round"/>
<path d="M38.8202 156.37H37.9102" stroke="black" stroke-width="0.67" stroke-linejoin="round"/>
<path d="M189.17 132.42H170.48V135.08H189.17V132.42Z" fill="#003399"/>
<path d="M180.85 132.42H178.81V151.92H180.85V132.42Z" fill="#003399"/>
<path d="M127.87 157.64H142.88C149.98 157.64 155.73 150.84 155.73 142.46V98.79H107.83L113.93 143.61C115.03 151.7 120.94 157.64 127.87 157.64Z" fill="#217DD9"/>
<path d="M152.23 102.93V142.46C152.23 148.55 148.04 153.5 142.89 153.5H127.88C125.36 153.5 122.92 152.44 121 150.51C119.08 148.58 117.81 145.9 117.41 142.96L111.97 102.94H152.25L152.23 102.93Z" fill="#003399"/>
<path d="M146.68 143.65H126.57C126.327 143.65 126.13 143.847 126.13 144.09V146.19C126.13 146.433 126.327 146.63 126.57 146.63H146.68C146.923 146.63 147.12 146.433 147.12 146.19V144.09C147.12 143.847 146.923 143.65 146.68 143.65Z" fill="#217DD9"/>
<path d="M146.68 130.93H121.93C121.687 130.93 121.49 131.127 121.49 131.37V133.47C121.49 133.713 121.687 133.91 121.93 133.91H146.68C146.923 133.91 147.12 133.713 147.12 133.47V131.37C147.12 131.127 146.923 130.93 146.68 130.93Z" fill="#217DD9"/>
<path d="M146.67 118.2H119.75C119.507 118.2 119.31 118.397 119.31 118.64V120.74C119.31 120.983 119.507 121.18 119.75 121.18H146.67C146.913 121.18 147.11 120.983 147.11 120.74V118.64C147.11 118.397 146.913 118.2 146.67 118.2Z" fill="#217DD9"/>
<path d="M146.67 105.48H117.67C117.427 105.48 117.23 105.677 117.23 105.92V108.02C117.23 108.263 117.427 108.46 117.67 108.46H146.67C146.913 108.46 147.11 108.263 147.11 108.02V105.92C147.11 105.677 146.913 105.48 146.67 105.48Z" fill="#217DD9"/>
<defs>
<radialGradient id="paint0_radial_427_224" cx="0" cy="0" r="1" gradientUnits="userSpaceOnUse" gradientTransform="translate(165.388 178.133) rotate(180) scale(148.148 8.08079)">
<stop stop-color="#C5C6C8"/>
<stop offset="0.35" stop-color="#C5C6C8" stop-opacity="0.9801"/>
<stop offset="0.49" stop-color="#C7C8CA" stop-opacity="0.9025"/>
<stop offset="0.6" stop-color="#CBCCCD" stop-opacity="0.7921"/>
<stop offset="0.69" stop-color="#D0D1D2" stop-opacity="0.6561"/>
<stop offset="0.77" stop-color="#D6D7D8" stop-opacity="0.4761"/>
<stop offset="0.83" stop-color="#DFDFE0" stop-opacity="0.3025"/>
<stop offset="0.9" stop-color="#E8E9E9" stop-opacity="0.1444"/>
<stop offset="0.95" stop-color="#F3F3F4" stop-opacity="0.0361"/>
<stop offset="1" stop-color="white" stop-opacity="0"/>
</radialGradient>
<radialGradient id="paint1_radial_427_224" cx="0" cy="0" r="1" gradientUnits="userSpaceOnUse" gradientTransform="translate(46.3827 187.768) rotate(-180) scale(39.0572 5.3872)">
<stop stop-color="#C5C6C8"/>
<stop offset="0.11" stop-color="#C6C7C9" stop-opacity="0.9409"/>
<stop offset="0.26" stop-color="#CBCCCD" stop-opacity="0.7921"/>
<stop offset="0.42" stop-color="#D2D3D5" stop-opacity="0.5776"/>
<stop offset="0.59" stop-color="#DDDEDF" stop-opacity="0.3249"/>
<stop offset="0.78" stop-color="#EBEBEC" stop-opacity="0.1156"/>
<stop offset="0.97" stop-color="#FCFCFC" stop-opacity="0.01"/>
<stop offset="1" stop-color="white" stop-opacity="0"/>
</radialGradient>
</defs>
</svg>
